G04 Layer_Color=255*
%FSLAX44Y44*%
%MOMM*%
G71*
G01*
G75*
%ADD10R,2.0000X1.1999*%
%ADD11R,1.1000X1.7000*%
%ADD12R,2.4000X1.7000*%
%ADD13R,1.2700X0.5588*%
%ADD14R,0.5588X1.2700*%
%ADD15R,1.3970X0.4318*%
G04:AMPARAMS|DCode=16|XSize=0.5001mm|YSize=0.5001mm|CornerRadius=0.125mm|HoleSize=0mm|Usage=FLASHONLY|Rotation=90.000|XOffset=0mm|YOffset=0mm|HoleType=Round|Shape=RoundedRectangle|*
%AMROUNDEDRECTD16*
21,1,0.5001,0.2501,0,0,90.0*
21,1,0.2501,0.5001,0,0,90.0*
1,1,0.2501,0.1250,0.1250*
1,1,0.2501,0.1250,-0.1250*
1,1,0.2501,-0.1250,-0.1250*
1,1,0.2501,-0.1250,0.1250*
%
%ADD16ROUNDEDRECTD16*%
G04:AMPARAMS|DCode=17|XSize=0.889mm|YSize=0.889mm|CornerRadius=0.1111mm|HoleSize=0mm|Usage=FLASHONLY|Rotation=270.000|XOffset=0mm|YOffset=0mm|HoleType=Round|Shape=RoundedRectangle|*
%AMROUNDEDRECTD17*
21,1,0.8890,0.6667,0,0,270.0*
21,1,0.6667,0.8890,0,0,270.0*
1,1,0.2223,-0.3334,-0.3334*
1,1,0.2223,-0.3334,0.3334*
1,1,0.2223,0.3334,0.3334*
1,1,0.2223,0.3334,-0.3334*
%
%ADD17ROUNDEDRECTD17*%
G04:AMPARAMS|DCode=18|XSize=1.016mm|YSize=1.397mm|CornerRadius=0.127mm|HoleSize=0mm|Usage=FLASHONLY|Rotation=180.000|XOffset=0mm|YOffset=0mm|HoleType=Round|Shape=RoundedRectangle|*
%AMROUNDEDRECTD18*
21,1,1.0160,1.1430,0,0,180.0*
21,1,0.7620,1.3970,0,0,180.0*
1,1,0.2540,-0.3810,0.5715*
1,1,0.2540,0.3810,0.5715*
1,1,0.2540,0.3810,-0.5715*
1,1,0.2540,-0.3810,-0.5715*
%
%ADD18ROUNDEDRECTD18*%
%ADD19R,1.5000X1.6000*%
G04:AMPARAMS|DCode=20|XSize=0.889mm|YSize=1.27mm|CornerRadius=0.1111mm|HoleSize=0mm|Usage=FLASHONLY|Rotation=0.000|XOffset=0mm|YOffset=0mm|HoleType=Round|Shape=RoundedRectangle|*
%AMROUNDEDRECTD20*
21,1,0.8890,1.0477,0,0,0.0*
21,1,0.6667,1.2700,0,0,0.0*
1,1,0.2223,0.3334,-0.5239*
1,1,0.2223,-0.3334,-0.5239*
1,1,0.2223,-0.3334,0.5239*
1,1,0.2223,0.3334,0.5239*
%
%ADD20ROUNDEDRECTD20*%
%ADD21R,2.5000X1.7000*%
%ADD22O,0.6000X2.2000*%
%ADD23R,1.2700X1.2700*%
%ADD24R,1.4000X1.1000*%
%ADD25R,1.1501X1.3000*%
G04:AMPARAMS|DCode=26|XSize=1.016mm|YSize=1.397mm|CornerRadius=0.127mm|HoleSize=0mm|Usage=FLASHONLY|Rotation=90.000|XOffset=0mm|YOffset=0mm|HoleType=Round|Shape=RoundedRectangle|*
%AMROUNDEDRECTD26*
21,1,1.0160,1.1430,0,0,90.0*
21,1,0.7620,1.3970,0,0,90.0*
1,1,0.2540,0.5715,0.3810*
1,1,0.2540,0.5715,-0.3810*
1,1,0.2540,-0.5715,-0.3810*
1,1,0.2540,-0.5715,0.3810*
%
%ADD26ROUNDEDRECTD26*%
%ADD27R,1.1000X1.4000*%
G04:AMPARAMS|DCode=28|XSize=0.889mm|YSize=0.889mm|CornerRadius=0.1111mm|HoleSize=0mm|Usage=FLASHONLY|Rotation=180.000|XOffset=0mm|YOffset=0mm|HoleType=Round|Shape=RoundedRectangle|*
%AMROUNDEDRECTD28*
21,1,0.8890,0.6667,0,0,180.0*
21,1,0.6667,0.8890,0,0,180.0*
1,1,0.2223,-0.3334,0.3334*
1,1,0.2223,0.3334,0.3334*
1,1,0.2223,0.3334,-0.3334*
1,1,0.2223,-0.3334,-0.3334*
%
%ADD28ROUNDEDRECTD28*%
G04:AMPARAMS|DCode=29|XSize=0.889mm|YSize=1.27mm|CornerRadius=0.1111mm|HoleSize=0mm|Usage=FLASHONLY|Rotation=90.000|XOffset=0mm|YOffset=0mm|HoleType=Round|Shape=RoundedRectangle|*
%AMROUNDEDRECTD29*
21,1,0.8890,1.0477,0,0,90.0*
21,1,0.6667,1.2700,0,0,90.0*
1,1,0.2223,0.5239,0.3334*
1,1,0.2223,0.5239,-0.3334*
1,1,0.2223,-0.5239,-0.3334*
1,1,0.2223,-0.5239,0.3334*
%
%ADD29ROUNDEDRECTD29*%
%ADD30R,1.2700X1.2700*%
%ADD31C,4.0000*%
%ADD32R,1.0000X2.0000*%
%ADD33R,3.5000X2.0000*%
%ADD34C,0.2500*%
%ADD35R,2.5000X1.4000*%
%ADD36R,0.7201X1.7800*%
%ADD37R,1.0000X0.7000*%
%ADD38R,0.7000X1.0000*%
%ADD45C,1.5000*%
%ADD46R,1.6510X1.6510*%
%ADD47C,1.6510*%
%ADD48R,1.5000X1.5000*%
%ADD49C,3.0000*%
%ADD50C,2.0000*%
%ADD51R,2.0000X2.0000*%
%ADD52O,2.0000X1.0000*%
%ADD53O,2.0000X1.0000*%
%ADD54C,1.8796*%
%ADD55R,4.0000X4.0000*%
%ADD56C,3.0000*%
%ADD57C,2.0000*%
%ADD58C,1.4000*%
%ADD59C,0.8000*%
%ADD60R,1.5000X1.5000*%
%ADD61C,2.5400*%
%ADD62R,1.8000X1.8000*%
%ADD63R,2.1590X1.1989*%
%ADD64R,1.6510X1.6510*%
%ADD65C,5.0000*%
%ADD66O,1.0000X2.0000*%
%ADD67O,1.0000X2.0000*%
%ADD68C,1.6000*%
D10*
X1528802Y459594D02*
D03*
Y439594D02*
D03*
Y419594D02*
D03*
Y399591D02*
D03*
Y379591D02*
D03*
Y359591D02*
D03*
Y339591D02*
D03*
Y319591D02*
D03*
X1678804D02*
D03*
Y339591D02*
D03*
Y359591D02*
D03*
Y379591D02*
D03*
Y399591D02*
D03*
Y419594D02*
D03*
Y439594D02*
D03*
Y459594D02*
D03*
D11*
X644360Y882142D02*
D03*
X671360D02*
D03*
D12*
X1017554Y484246D02*
D03*
Y521246D02*
D03*
D13*
X1053074Y578001D02*
D03*
Y570000D02*
D03*
Y561999D02*
D03*
Y554000D02*
D03*
Y545999D02*
D03*
Y538001D02*
D03*
Y530000D02*
D03*
Y521999D02*
D03*
X1138926D02*
D03*
Y530000D02*
D03*
Y538001D02*
D03*
Y545999D02*
D03*
Y554000D02*
D03*
Y561999D02*
D03*
Y570000D02*
D03*
Y578001D02*
D03*
D14*
X1067999Y507074D02*
D03*
X1076000D02*
D03*
X1084001D02*
D03*
X1092000D02*
D03*
X1100001D02*
D03*
X1107999D02*
D03*
X1116000D02*
D03*
X1124001D02*
D03*
Y592926D02*
D03*
X1116000D02*
D03*
X1107999D02*
D03*
X1100001D02*
D03*
X1092000D02*
D03*
X1084001D02*
D03*
X1076000D02*
D03*
X1067999D02*
D03*
D15*
X717814Y758576D02*
D03*
Y751972D02*
D03*
Y745622D02*
D03*
Y739018D02*
D03*
Y732668D02*
D03*
Y726064D02*
D03*
X674126D02*
D03*
Y732668D02*
D03*
Y739018D02*
D03*
Y745622D02*
D03*
Y751972D02*
D03*
Y758576D02*
D03*
D16*
X888014Y577411D02*
D03*
Y586661D02*
D03*
D17*
X664464Y657098D02*
D03*
Y672338D02*
D03*
X1721080Y284288D02*
D03*
Y269048D02*
D03*
X1431774Y467676D02*
D03*
Y452436D02*
D03*
D18*
X708914Y881888D02*
D03*
X691134D02*
D03*
X1097110Y646000D02*
D03*
X1114890D02*
D03*
X1156746Y644012D02*
D03*
X1138966D02*
D03*
X1190426Y74312D02*
D03*
X1208206D02*
D03*
X1297440Y87110D02*
D03*
X1315220D02*
D03*
X863884Y514726D02*
D03*
X881664D02*
D03*
X1713968Y360234D02*
D03*
X1731748D02*
D03*
X702564Y676148D02*
D03*
X684784D02*
D03*
X1455396Y428052D02*
D03*
X1437616D02*
D03*
D19*
X885474Y546476D02*
D03*
X855474D02*
D03*
D20*
X702564Y652018D02*
D03*
X684784D02*
D03*
X456962Y32734D02*
D03*
X474742D02*
D03*
X721140Y339146D02*
D03*
X738920D02*
D03*
D21*
X667644Y914908D02*
D03*
X707644D02*
D03*
D22*
X693798Y205544D02*
D03*
X706498D02*
D03*
X719198D02*
D03*
X731898D02*
D03*
X693798Y253544D02*
D03*
X706498D02*
D03*
X719198D02*
D03*
X731898D02*
D03*
D23*
X664588Y239958D02*
D03*
Y214558D02*
D03*
X881380Y980440D02*
D03*
Y1005840D02*
D03*
X991870Y552450D02*
D03*
Y577850D02*
D03*
X1279028Y996284D02*
D03*
Y970884D02*
D03*
X1340902Y752800D02*
D03*
Y778200D02*
D03*
X666530Y363276D02*
D03*
Y337876D02*
D03*
D24*
X631568Y221162D02*
D03*
Y236162D02*
D03*
X1016000Y577500D02*
D03*
Y562500D02*
D03*
X1254898Y976472D02*
D03*
Y991472D02*
D03*
X1363000Y773508D02*
D03*
Y758508D02*
D03*
X850900Y990720D02*
D03*
Y1005720D02*
D03*
X637540Y657980D02*
D03*
Y672980D02*
D03*
X770000Y192500D02*
D03*
Y207500D02*
D03*
X868964Y589536D02*
D03*
Y574536D02*
D03*
D25*
X874234Y303350D02*
D03*
X895732D02*
D03*
Y264350D02*
D03*
X874234D02*
D03*
X981251Y303500D02*
D03*
X1002749D02*
D03*
Y264500D02*
D03*
X981251D02*
D03*
X1086251Y303500D02*
D03*
X1107749D02*
D03*
Y264500D02*
D03*
X1086251D02*
D03*
D26*
X1094000Y387220D02*
D03*
Y405000D02*
D03*
X992000Y386000D02*
D03*
Y403780D02*
D03*
X887000Y386000D02*
D03*
Y403780D02*
D03*
X1215862Y1126194D02*
D03*
Y1143974D02*
D03*
X1371858Y1130156D02*
D03*
Y1147936D02*
D03*
X1374000Y146890D02*
D03*
Y129110D02*
D03*
X1795248Y433386D02*
D03*
Y415606D02*
D03*
X1768832Y416368D02*
D03*
Y434148D02*
D03*
X1769594Y457516D02*
D03*
Y475296D02*
D03*
X1715746Y320102D02*
D03*
Y337882D02*
D03*
X1494766Y390714D02*
D03*
Y408494D02*
D03*
D27*
X543500Y1084000D02*
D03*
X558500D02*
D03*
X665360Y695198D02*
D03*
X650360D02*
D03*
X1193680Y534670D02*
D03*
X1178680D02*
D03*
X971954Y522346D02*
D03*
X986954D02*
D03*
X971954Y484246D02*
D03*
X986954D02*
D03*
X1612756Y250506D02*
D03*
X1597756D02*
D03*
D28*
X418608Y32226D02*
D03*
X433848D02*
D03*
X1178844Y491866D02*
D03*
X1194084D02*
D03*
X737650Y360736D02*
D03*
X722410D02*
D03*
D29*
X1224000Y492890D02*
D03*
Y475110D02*
D03*
X1746480Y285558D02*
D03*
Y267778D02*
D03*
X1404850Y470724D02*
D03*
Y452944D02*
D03*
D30*
X1590524Y279716D02*
D03*
X1615924D02*
D03*
D31*
X1439810Y916020D02*
D03*
X142290Y295642D02*
D03*
D32*
X1410652Y504180D02*
D03*
X1433552D02*
D03*
X1456452D02*
D03*
D33*
X1433552Y563180D02*
D03*
D34*
X689390Y359386D02*
D03*
Y354386D02*
D03*
Y349386D02*
D03*
X694390Y359386D02*
D03*
Y354386D02*
D03*
Y349386D02*
D03*
D35*
X815000Y844000D02*
D03*
X814000Y795000D02*
D03*
D36*
X542950Y1119500D02*
D03*
X555650D02*
D03*
X581050D02*
D03*
X542950Y1166500D02*
D03*
X555650D02*
D03*
X581050D02*
D03*
X568350Y1119500D02*
D03*
Y1166500D02*
D03*
X1308898Y788492D02*
D03*
Y741492D02*
D03*
X1321598Y788492D02*
D03*
X1296198D02*
D03*
X1283498D02*
D03*
X1321598Y741492D02*
D03*
X1296198D02*
D03*
X1283498D02*
D03*
X1338210Y1008100D02*
D03*
X1325510D02*
D03*
X1300110D02*
D03*
X1338210Y961100D02*
D03*
X1325510D02*
D03*
X1300110D02*
D03*
X1312810Y1008100D02*
D03*
Y961100D02*
D03*
D37*
X1452400Y356151D02*
D03*
X1392400D02*
D03*
X1452400Y393149D02*
D03*
X1392400D02*
D03*
X912624Y599265D02*
D03*
X972624D02*
D03*
X912624Y562267D02*
D03*
X972624D02*
D03*
D38*
X1819359Y361470D02*
D03*
Y301470D02*
D03*
X1782361Y361470D02*
D03*
Y301470D02*
D03*
D45*
X1743710Y792480D02*
D03*
Y817880D02*
D03*
Y843280D02*
D03*
Y868680D02*
D03*
Y894080D02*
D03*
Y919480D02*
D03*
Y944880D02*
D03*
Y970280D02*
D03*
Y995680D02*
D03*
Y1021080D02*
D03*
X1769110D02*
D03*
Y995680D02*
D03*
Y970280D02*
D03*
Y944880D02*
D03*
Y919480D02*
D03*
Y894080D02*
D03*
Y868680D02*
D03*
Y843280D02*
D03*
Y817880D02*
D03*
Y792480D02*
D03*
X1794510D02*
D03*
Y817880D02*
D03*
Y843280D02*
D03*
Y868680D02*
D03*
Y894080D02*
D03*
Y919480D02*
D03*
Y944880D02*
D03*
Y970280D02*
D03*
Y995680D02*
D03*
Y1021080D02*
D03*
X1819910D02*
D03*
Y995680D02*
D03*
Y970280D02*
D03*
Y944880D02*
D03*
Y919480D02*
D03*
Y894080D02*
D03*
Y868680D02*
D03*
Y843280D02*
D03*
Y817880D02*
D03*
Y792480D02*
D03*
X1845310D02*
D03*
Y817880D02*
D03*
Y843280D02*
D03*
Y868680D02*
D03*
Y894080D02*
D03*
Y919480D02*
D03*
Y944880D02*
D03*
Y970280D02*
D03*
Y995680D02*
D03*
Y1021080D02*
D03*
X1277000Y525800D02*
D03*
Y551200D02*
D03*
Y576600D02*
D03*
Y602000D02*
D03*
Y627400D02*
D03*
X1264122Y1146260D02*
D03*
X1743940Y530922D02*
D03*
X1769340Y505522D02*
D03*
Y530922D02*
D03*
X669036Y804672D02*
D03*
Y830072D02*
D03*
X694436Y804672D02*
D03*
Y830072D02*
D03*
X719836Y804672D02*
D03*
X1351280Y588010D02*
D03*
X1737360Y1066800D02*
D03*
X1711960D02*
D03*
X1686560D02*
D03*
X1661160D02*
D03*
X1635760D02*
D03*
X1610360D02*
D03*
X1584960D02*
D03*
X1559560D02*
D03*
X1534160D02*
D03*
X1508760D02*
D03*
Y1092200D02*
D03*
X1534160D02*
D03*
X1559560D02*
D03*
X1584960D02*
D03*
X1610360D02*
D03*
X1635760D02*
D03*
X1661160D02*
D03*
X1686560D02*
D03*
X1711960D02*
D03*
X1737360D02*
D03*
Y1117600D02*
D03*
X1711960D02*
D03*
X1686560D02*
D03*
X1661160D02*
D03*
X1635760D02*
D03*
X1610360D02*
D03*
X1584960D02*
D03*
X1559560D02*
D03*
X1534160D02*
D03*
X1508760D02*
D03*
Y1143000D02*
D03*
X1534160D02*
D03*
X1559560D02*
D03*
X1584960D02*
D03*
X1610360D02*
D03*
X1635760D02*
D03*
X1661160D02*
D03*
X1686560D02*
D03*
X1711960D02*
D03*
X1737360D02*
D03*
Y1168400D02*
D03*
X1711960D02*
D03*
X1686560D02*
D03*
X1661160D02*
D03*
X1635760D02*
D03*
X1610360D02*
D03*
X1584960D02*
D03*
X1559560D02*
D03*
X1534160D02*
D03*
X1508760D02*
D03*
X1184600Y40000D02*
D03*
D46*
X1041200Y160000D02*
D03*
X367554Y32988D02*
D03*
X1288296Y40628D02*
D03*
X676690Y403916D02*
D03*
D47*
X1015800Y160000D02*
D03*
X990400D02*
D03*
X965000D02*
D03*
X939600D02*
D03*
X914200D02*
D03*
X342154Y32988D02*
D03*
X1416504Y137064D02*
D03*
Y111664D02*
D03*
X1339096Y40628D02*
D03*
X1313696D02*
D03*
X1420372Y1175114D02*
D03*
Y1149714D02*
D03*
X569214Y706628D02*
D03*
Y681228D02*
D03*
X570484Y806958D02*
D03*
Y781558D02*
D03*
X758444Y644398D02*
D03*
Y618998D02*
D03*
X702090Y403916D02*
D03*
X727490D02*
D03*
X549910Y568960D02*
D03*
D48*
X1277000Y652800D02*
D03*
X1264122Y1120860D02*
D03*
X611124Y699008D02*
D03*
D49*
X327710Y658972D02*
D03*
Y1039972D02*
D03*
X490270Y658972D02*
D03*
Y1039972D02*
D03*
X1719526Y109632D02*
D03*
D50*
X1074260Y1005850D02*
D03*
X1048860D02*
D03*
X1023460D02*
D03*
D51*
X998060D02*
D03*
D52*
X1319788Y1156826D02*
D03*
D53*
Y1144126D02*
D03*
Y1131426D02*
D03*
D54*
X144830Y171292D02*
D03*
Y145892D02*
D03*
X170230Y120492D02*
D03*
X195630D02*
D03*
X221030D02*
D03*
X195630Y196692D02*
D03*
X221030D02*
D03*
X170230D02*
D03*
D55*
X142290Y1024642D02*
D03*
D56*
Y938192D02*
D03*
Y382092D02*
D03*
X675000Y1001000D02*
D03*
X774000D02*
D03*
X674800Y1035000D02*
D03*
X774000D02*
D03*
X662000Y510000D02*
D03*
X761000D02*
D03*
X661800Y544000D02*
D03*
X761000D02*
D03*
Y1162000D02*
D03*
X661800D02*
D03*
X761000Y1128000D02*
D03*
X662000D02*
D03*
X432000Y1160000D02*
D03*
X332800D02*
D03*
X432000Y1126000D02*
D03*
X333000D02*
D03*
D57*
X446600Y97972D02*
D03*
X376600D02*
D03*
X486600Y277972D02*
D03*
X336600D02*
D03*
X946800Y67000D02*
D03*
X1023000D02*
D03*
X941800Y1135000D02*
D03*
X1018000D02*
D03*
D58*
X180900Y1161000D02*
D03*
X257100D02*
D03*
X770814Y875738D02*
D03*
Y748738D02*
D03*
X256100Y1118000D02*
D03*
X179900D02*
D03*
D59*
X1319160Y938880D02*
D03*
X1293760D02*
D03*
D60*
X1743940Y505522D02*
D03*
X719836Y830072D02*
D03*
X614172Y830580D02*
D03*
X1210000Y40000D02*
D03*
D61*
X680000Y122000D02*
D03*
X765000D02*
D03*
D62*
X368757Y359969D02*
D03*
X443738D02*
D03*
X336245D02*
D03*
X476250D02*
D03*
X336245Y588010D02*
D03*
X476250D02*
D03*
D63*
X1455366Y147732D02*
D03*
Y122332D02*
D03*
Y96932D02*
D03*
Y71532D02*
D03*
D64*
X1416504Y86264D02*
D03*
X1420372Y1124314D02*
D03*
X569214Y732028D02*
D03*
X570484Y832358D02*
D03*
X758444Y669798D02*
D03*
X549910Y594360D02*
D03*
D65*
X1833118Y50800D02*
D03*
Y1153668D02*
D03*
X50800D02*
D03*
Y50800D02*
D03*
D66*
X1319792Y139434D02*
D03*
D67*
X1307092D02*
D03*
X1294392D02*
D03*
D68*
X1439810Y1003820D02*
D03*
Y826020D02*
D03*
M02*
