G04 Layer_Physical_Order=2*
G04 Layer_Color=16711680*
%FSLAX44Y44*%
%MOMM*%
G71*
G01*
G75*
%ADD31C,4.0000*%
%ADD39C,0.5080*%
%ADD40C,0.2540*%
%ADD41C,0.7620*%
%ADD43C,1.0160*%
%ADD45C,1.5000*%
%ADD46R,1.6510X1.6510*%
%ADD47C,1.6510*%
%ADD48R,1.5000X1.5000*%
%ADD49C,3.0000*%
%ADD50C,2.0000*%
%ADD51R,2.0000X2.0000*%
%ADD52O,2.0000X1.0000*%
%ADD53O,2.0000X1.0000*%
%ADD54C,1.8796*%
%ADD55R,4.0000X4.0000*%
%ADD56C,3.0000*%
%ADD57C,2.0000*%
%ADD58C,1.4000*%
%ADD59C,0.8000*%
%ADD60R,1.5000X1.5000*%
%ADD61C,2.5400*%
%ADD62R,1.8000X1.8000*%
%ADD63R,2.1590X1.1989*%
%ADD64R,1.6510X1.6510*%
%ADD65C,5.0000*%
%ADD66O,1.0000X2.0000*%
%ADD67O,1.0000X2.0000*%
%ADD68C,1.6000*%
%ADD69C,1.2700*%
G36*
X163992Y1168195D02*
X163672Y1167831D01*
X163386Y1167411D01*
X163136Y1166935D01*
X162919Y1166405D01*
X162738Y1165819D01*
X162591Y1165179D01*
X162479Y1164483D01*
X162401Y1163731D01*
X162350Y1162064D01*
X156063Y1168350D01*
X156925Y1168358D01*
X158483Y1168479D01*
X159178Y1168591D01*
X159819Y1168738D01*
X160405Y1168919D01*
X160935Y1169136D01*
X161411Y1169386D01*
X161831Y1169671D01*
X162195Y1169992D01*
X163992Y1168195D01*
D02*
G37*
G36*
X1508685Y1160900D02*
X1507939Y1160882D01*
X1507219Y1160814D01*
X1506524Y1160694D01*
X1505856Y1160524D01*
X1505213Y1160302D01*
X1504595Y1160030D01*
X1504004Y1159707D01*
X1503438Y1159333D01*
X1502898Y1158908D01*
X1502384Y1158432D01*
X1498792Y1162024D01*
X1499268Y1162538D01*
X1499693Y1163078D01*
X1500067Y1163644D01*
X1500390Y1164235D01*
X1500662Y1164853D01*
X1500884Y1165496D01*
X1501054Y1166164D01*
X1501174Y1166859D01*
X1501243Y1167579D01*
X1501260Y1168325D01*
X1508685Y1160900D01*
D02*
G37*
G36*
X1428617Y1128912D02*
X1428770Y1128480D01*
X1429026Y1128099D01*
X1429384Y1127769D01*
X1429844Y1127489D01*
X1430406Y1127261D01*
X1431070Y1127083D01*
X1431837Y1126956D01*
X1432706Y1126880D01*
X1433677Y1126854D01*
Y1121774D01*
X1432706Y1121749D01*
X1431837Y1121673D01*
X1431070Y1121546D01*
X1430406Y1121368D01*
X1429844Y1121139D01*
X1429384Y1120860D01*
X1429026Y1120530D01*
X1428770Y1120149D01*
X1428617Y1119717D01*
X1428566Y1119234D01*
Y1129394D01*
X1428617Y1128912D01*
D02*
G37*
G36*
X620358Y1075075D02*
X620479Y1073517D01*
X620591Y1072822D01*
X620738Y1072181D01*
X620919Y1071595D01*
X621135Y1071065D01*
X621386Y1070589D01*
X621672Y1070169D01*
X621992Y1069805D01*
X620196Y1068008D01*
X619831Y1068328D01*
X619411Y1068614D01*
X618935Y1068865D01*
X618405Y1069081D01*
X617819Y1069262D01*
X617178Y1069409D01*
X616483Y1069521D01*
X615731Y1069599D01*
X614063Y1069650D01*
X620350Y1075937D01*
X620358Y1075075D01*
D02*
G37*
G36*
X1055440Y1040162D02*
X1056627Y1039146D01*
X1057198Y1038733D01*
X1057755Y1038384D01*
X1058298Y1038098D01*
X1058825Y1037876D01*
X1059339Y1037717D01*
X1059837Y1037622D01*
X1060322Y1037590D01*
Y1035050D01*
X1059837Y1035018D01*
X1059339Y1034923D01*
X1058825Y1034764D01*
X1058298Y1034542D01*
X1057755Y1034256D01*
X1057198Y1033907D01*
X1056627Y1033494D01*
X1056041Y1033018D01*
X1054825Y1031875D01*
Y1040765D01*
X1055440Y1040162D01*
D02*
G37*
G36*
X1315247Y1031789D02*
X1314674Y1032409D01*
X1313553Y1033452D01*
X1313007Y1033876D01*
X1312469Y1034235D01*
X1311940Y1034528D01*
X1311419Y1034756D01*
X1310908Y1034920D01*
X1310405Y1035017D01*
X1309911Y1035050D01*
X1310042Y1037590D01*
X1310516Y1037621D01*
X1311009Y1037713D01*
X1311523Y1037867D01*
X1312058Y1038083D01*
X1312613Y1038360D01*
X1313189Y1038698D01*
X1313784Y1039098D01*
X1315038Y1040083D01*
X1315695Y1040668D01*
X1315247Y1031789D01*
D02*
G37*
G36*
X1338147Y1023860D02*
X1337617Y1023843D01*
X1337095Y1023779D01*
X1336581Y1023669D01*
X1336074Y1023512D01*
X1335576Y1023310D01*
X1335084Y1023061D01*
X1334601Y1022766D01*
X1334125Y1022425D01*
X1333657Y1022038D01*
X1333197Y1021605D01*
X1329605Y1025197D01*
X1330038Y1025657D01*
X1330425Y1026125D01*
X1330766Y1026601D01*
X1331061Y1027084D01*
X1331310Y1027576D01*
X1331512Y1028074D01*
X1331669Y1028581D01*
X1331779Y1029095D01*
X1331843Y1029617D01*
X1331861Y1030147D01*
X1338147Y1023860D01*
D02*
G37*
G36*
X1360083Y1015078D02*
X1359759Y1014664D01*
X1359474Y1014222D01*
X1359226Y1013754D01*
X1359016Y1013258D01*
X1358845Y1012735D01*
X1358712Y1012184D01*
X1358616Y1011607D01*
X1358559Y1011002D01*
X1358540Y1010370D01*
X1353460D01*
X1353441Y1011002D01*
X1353384Y1011607D01*
X1353289Y1012184D01*
X1353155Y1012735D01*
X1352984Y1013258D01*
X1352774Y1013754D01*
X1352527Y1014222D01*
X1352241Y1014664D01*
X1351917Y1015078D01*
X1351555Y1015465D01*
X1360445D01*
X1360083Y1015078D01*
D02*
G37*
G36*
X1100772Y1009933D02*
X1101186Y1009609D01*
X1101628Y1009323D01*
X1102096Y1009076D01*
X1102592Y1008866D01*
X1103115Y1008695D01*
X1103665Y1008561D01*
X1104243Y1008466D01*
X1104848Y1008409D01*
X1105480Y1008390D01*
Y1003310D01*
X1104848Y1003291D01*
X1104243Y1003234D01*
X1103665Y1003138D01*
X1103115Y1003005D01*
X1102592Y1002834D01*
X1102096Y1002624D01*
X1101628Y1002376D01*
X1101186Y1002091D01*
X1100772Y1001767D01*
X1100385Y1001405D01*
Y1010295D01*
X1100772Y1009933D01*
D02*
G37*
G36*
X1178085Y990024D02*
X1178054Y989528D01*
X1178080Y989035D01*
X1178166Y988545D01*
X1178310Y988059D01*
X1178512Y987577D01*
X1178773Y987098D01*
X1179093Y986623D01*
X1179472Y986151D01*
X1179909Y985683D01*
X1175411Y982997D01*
X1174958Y983430D01*
X1174037Y984194D01*
X1173568Y984525D01*
X1173095Y984822D01*
X1172616Y985085D01*
X1172132Y985314D01*
X1171642Y985508D01*
X1171148Y985669D01*
X1170648Y985796D01*
X1178176Y990524D01*
X1178085Y990024D01*
D02*
G37*
G36*
X1218083Y983078D02*
X1217759Y982664D01*
X1217474Y982222D01*
X1217226Y981754D01*
X1217016Y981258D01*
X1216845Y980735D01*
X1216712Y980184D01*
X1216616Y979607D01*
X1216559Y979002D01*
X1216540Y978370D01*
X1211460D01*
X1211441Y979002D01*
X1211384Y979607D01*
X1211289Y980184D01*
X1211155Y980735D01*
X1210984Y981258D01*
X1210774Y981754D01*
X1210527Y982222D01*
X1210241Y982664D01*
X1209917Y983078D01*
X1209555Y983465D01*
X1218445D01*
X1218083Y983078D01*
D02*
G37*
G36*
X1325936Y979650D02*
X1325075Y979642D01*
X1323517Y979521D01*
X1322822Y979409D01*
X1322181Y979262D01*
X1321595Y979081D01*
X1321065Y978865D01*
X1320589Y978614D01*
X1320169Y978328D01*
X1319805Y978008D01*
X1318009Y979805D01*
X1318328Y980169D01*
X1318614Y980589D01*
X1318864Y981065D01*
X1319081Y981595D01*
X1319262Y982181D01*
X1319409Y982822D01*
X1319521Y983517D01*
X1319599Y984269D01*
X1319650Y985937D01*
X1325936Y979650D01*
D02*
G37*
G36*
X1186559Y970998D02*
X1186616Y970393D01*
X1186711Y969816D01*
X1186845Y969265D01*
X1187016Y968742D01*
X1187226Y968246D01*
X1187473Y967778D01*
X1187759Y967336D01*
X1188083Y966922D01*
X1188445Y966535D01*
X1179555D01*
X1179917Y966922D01*
X1180241Y967336D01*
X1180527Y967778D01*
X1180774Y968246D01*
X1180984Y968742D01*
X1181155Y969265D01*
X1181289Y969816D01*
X1181384Y970393D01*
X1181441Y970998D01*
X1181460Y971630D01*
X1186540D01*
X1186559Y970998D01*
D02*
G37*
G36*
X1216559Y968998D02*
X1216616Y968393D01*
X1216712Y967816D01*
X1216845Y967265D01*
X1217016Y966742D01*
X1217226Y966246D01*
X1217474Y965778D01*
X1217759Y965336D01*
X1218083Y964922D01*
X1218445Y964535D01*
X1209555D01*
X1209917Y964922D01*
X1210241Y965336D01*
X1210527Y965778D01*
X1210774Y966246D01*
X1210984Y966742D01*
X1211155Y967265D01*
X1211289Y967816D01*
X1211384Y968393D01*
X1211441Y968998D01*
X1211460Y969630D01*
X1216540D01*
X1216559Y968998D01*
D02*
G37*
G36*
X1218083Y955078D02*
X1217759Y954664D01*
X1217474Y954222D01*
X1217226Y953754D01*
X1217016Y953258D01*
X1216845Y952735D01*
X1216712Y952184D01*
X1216616Y951607D01*
X1216559Y951002D01*
X1216540Y950370D01*
X1211460D01*
X1211441Y951002D01*
X1211384Y951607D01*
X1211289Y952184D01*
X1211155Y952735D01*
X1210984Y953258D01*
X1210774Y953754D01*
X1210527Y954222D01*
X1210241Y954664D01*
X1209917Y955078D01*
X1209555Y955465D01*
X1218445D01*
X1218083Y955078D01*
D02*
G37*
G36*
X962331Y934853D02*
X962492Y934358D01*
X962686Y933868D01*
X962915Y933384D01*
X963178Y932905D01*
X963475Y932432D01*
X963806Y931963D01*
X964570Y931042D01*
X965003Y930589D01*
X962317Y926091D01*
X961849Y926528D01*
X961377Y926907D01*
X960902Y927226D01*
X960423Y927488D01*
X959940Y927690D01*
X959455Y927834D01*
X958965Y927920D01*
X958472Y927946D01*
X957976Y927915D01*
X957476Y927824D01*
X962204Y935352D01*
X962331Y934853D01*
D02*
G37*
G36*
X698374Y862446D02*
X698499Y862313D01*
X698698Y862195D01*
X698971Y862093D01*
X699318Y862006D01*
X699738Y861936D01*
X700232Y861881D01*
X701442Y861818D01*
X702157Y861810D01*
X700742Y854190D01*
X693372Y855800D01*
X698322Y862596D01*
X698374Y862446D01*
D02*
G37*
G36*
X725465Y853555D02*
X725310Y853676D01*
X725092Y853784D01*
X724812Y853879D01*
X724470Y853961D01*
X724065Y854031D01*
X723070Y854133D01*
X721825Y854184D01*
X721110Y854190D01*
Y861810D01*
X721825Y861816D01*
X724065Y861969D01*
X724470Y862039D01*
X724812Y862121D01*
X725092Y862216D01*
X725310Y862324D01*
X725465Y862445D01*
Y853555D01*
D02*
G37*
G36*
X714480Y799422D02*
X713712Y800178D01*
X712253Y801452D01*
X711562Y801969D01*
X710895Y802407D01*
X710255Y802765D01*
X709639Y803044D01*
X709049Y803243D01*
X708484Y803362D01*
X707944Y803402D01*
Y805942D01*
X708484Y805982D01*
X709049Y806101D01*
X709639Y806300D01*
X710255Y806579D01*
X710895Y806937D01*
X711562Y807375D01*
X712253Y807892D01*
X713712Y809166D01*
X714480Y809922D01*
Y799422D01*
D02*
G37*
G36*
X700560Y809166D02*
X702019Y807892D01*
X702710Y807375D01*
X703377Y806937D01*
X704017Y806579D01*
X704633Y806300D01*
X705223Y806101D01*
X705788Y805982D01*
X706328Y805942D01*
Y803402D01*
X705788Y803362D01*
X705223Y803243D01*
X704633Y803044D01*
X704017Y802765D01*
X703377Y802407D01*
X702710Y801969D01*
X702019Y801452D01*
X700560Y800178D01*
X699792Y799422D01*
Y809922D01*
X700560Y809166D01*
D02*
G37*
G36*
X689080Y799422D02*
X688312Y800178D01*
X686853Y801452D01*
X686162Y801969D01*
X685495Y802407D01*
X684855Y802765D01*
X684239Y803044D01*
X683649Y803243D01*
X683084Y803362D01*
X682544Y803402D01*
Y805942D01*
X683084Y805982D01*
X683649Y806101D01*
X684239Y806300D01*
X684855Y806579D01*
X685495Y806937D01*
X686162Y807375D01*
X686853Y807892D01*
X688312Y809166D01*
X689080Y809922D01*
Y799422D01*
D02*
G37*
G36*
X675160Y809166D02*
X676619Y807892D01*
X677310Y807375D01*
X677977Y806937D01*
X678617Y806579D01*
X679233Y806300D01*
X679823Y806101D01*
X680388Y805982D01*
X680928Y805942D01*
Y803402D01*
X680388Y803362D01*
X679823Y803243D01*
X679233Y803044D01*
X678617Y802765D01*
X677977Y802407D01*
X677310Y801969D01*
X676619Y801452D01*
X675160Y800178D01*
X674392Y799422D01*
Y809922D01*
X675160Y809166D01*
D02*
G37*
G36*
X1265178Y750422D02*
X1267283Y748607D01*
X1267650Y748347D01*
X1268332Y747930D01*
X1268646Y747773D01*
X1260343Y744885D01*
X1260523Y745309D01*
X1260634Y745739D01*
X1260676Y746174D01*
X1260648Y746616D01*
X1260551Y747063D01*
X1260384Y747515D01*
X1260148Y747974D01*
X1259843Y748438D01*
X1259468Y748908D01*
X1259024Y749383D01*
X1264704Y750888D01*
X1265178Y750422D01*
D02*
G37*
G36*
X692790Y746295D02*
X692122Y745941D01*
X691523Y745567D01*
X690995Y745174D01*
X690537Y744762D01*
X690150Y744330D01*
X689833Y743879D01*
X689587Y743408D01*
X689411Y742918D01*
X689305Y742409D01*
X689270Y741880D01*
X686730Y742744D01*
X686706Y743119D01*
X686635Y743551D01*
X686516Y744041D01*
X686350Y744589D01*
X685874Y745859D01*
X685208Y747361D01*
X684352Y749093D01*
X692790Y746295D01*
D02*
G37*
G36*
X1239538Y744315D02*
X1239592Y743830D01*
X1239682Y743359D01*
X1239807Y742903D01*
X1239969Y742462D01*
X1240167Y742036D01*
X1240400Y741625D01*
X1240669Y741228D01*
X1240975Y740847D01*
X1241316Y740480D01*
Y736888D01*
X1240975Y737204D01*
X1240669Y737433D01*
X1240400Y737575D01*
X1240167Y737631D01*
X1239969Y737600D01*
X1239807Y737482D01*
X1239682Y737278D01*
X1239592Y736986D01*
X1239538Y736609D01*
X1239520Y736144D01*
X1236980Y741750D01*
X1239520Y744816D01*
X1239538Y744315D01*
D02*
G37*
G36*
X935150Y719842D02*
X936337Y718826D01*
X936908Y718413D01*
X937465Y718064D01*
X938008Y717778D01*
X938535Y717556D01*
X939049Y717397D01*
X939548Y717302D01*
X940032Y717270D01*
Y714730D01*
X939548Y714698D01*
X939049Y714603D01*
X938535Y714444D01*
X938008Y714222D01*
X937465Y713936D01*
X936908Y713587D01*
X936337Y713174D01*
X935751Y712698D01*
X934535Y711555D01*
Y720445D01*
X935150Y719842D01*
D02*
G37*
G36*
X821465Y709555D02*
X820850Y710158D01*
X819663Y711174D01*
X819092Y711587D01*
X818535Y711936D01*
X817992Y712222D01*
X817465Y712444D01*
X816951Y712603D01*
X816452Y712698D01*
X815968Y712730D01*
Y715270D01*
X816452Y715302D01*
X816951Y715397D01*
X817465Y715556D01*
X817992Y715778D01*
X818535Y716064D01*
X819092Y716413D01*
X819663Y716826D01*
X820249Y717302D01*
X821465Y718445D01*
Y709555D01*
D02*
G37*
G36*
X657150Y717842D02*
X658337Y716826D01*
X658908Y716413D01*
X659465Y716064D01*
X660007Y715778D01*
X660535Y715556D01*
X661049Y715397D01*
X661547Y715302D01*
X662032Y715270D01*
Y712730D01*
X661547Y712698D01*
X661049Y712603D01*
X660535Y712444D01*
X660007Y712222D01*
X659465Y711936D01*
X658908Y711587D01*
X658337Y711174D01*
X657751Y710698D01*
X656535Y709555D01*
Y718445D01*
X657150Y717842D01*
D02*
G37*
G36*
X727080Y709284D02*
X726737Y708892D01*
X726451Y708459D01*
X726221Y707983D01*
X726046Y707466D01*
X725928Y706906D01*
X725865Y706304D01*
X725859Y705660D01*
X725908Y704974D01*
X726013Y704245D01*
X726175Y703475D01*
X718646Y708203D01*
X719574Y708416D01*
X721949Y709099D01*
X722605Y709341D01*
X723712Y709847D01*
X724164Y710111D01*
X724548Y710382D01*
X724864Y710660D01*
X727080Y709284D01*
D02*
G37*
G36*
X1187447Y708172D02*
X1187915Y707785D01*
X1188391Y707444D01*
X1188874Y707149D01*
X1189365Y706900D01*
X1189864Y706698D01*
X1190371Y706542D01*
X1190885Y706431D01*
X1191407Y706367D01*
X1191936Y706350D01*
X1185650Y700063D01*
X1185633Y700593D01*
X1185569Y701115D01*
X1185459Y701629D01*
X1185302Y702136D01*
X1185100Y702635D01*
X1184851Y703126D01*
X1184556Y703609D01*
X1184215Y704085D01*
X1183828Y704553D01*
X1183395Y705013D01*
X1186987Y708605D01*
X1187447Y708172D01*
D02*
G37*
G36*
X1233991Y686196D02*
X1233672Y685831D01*
X1233386Y685411D01*
X1233136Y684935D01*
X1232919Y684405D01*
X1232738Y683819D01*
X1232591Y683178D01*
X1232479Y682483D01*
X1232401Y681731D01*
X1232350Y680063D01*
X1226064Y686350D01*
X1226925Y686358D01*
X1228483Y686479D01*
X1229178Y686591D01*
X1229819Y686738D01*
X1230405Y686919D01*
X1230935Y687135D01*
X1231411Y687386D01*
X1231831Y687672D01*
X1232196Y687991D01*
X1233991Y686196D01*
D02*
G37*
G36*
X1167728Y684494D02*
X1168100Y684230D01*
X1168543Y683966D01*
X1169057Y683702D01*
X1170297Y683178D01*
X1171024Y682917D01*
X1173629Y682138D01*
X1165896Y677751D01*
X1166087Y678500D01*
X1166218Y679210D01*
X1166290Y679880D01*
X1166302Y680511D01*
X1166254Y681103D01*
X1166147Y681656D01*
X1165980Y682168D01*
X1165754Y682642D01*
X1165468Y683076D01*
X1165123Y683471D01*
X1167427Y684760D01*
X1167728Y684494D01*
D02*
G37*
G36*
X1100258Y673588D02*
X1100692Y673303D01*
X1101152Y673092D01*
X1101638Y672954D01*
X1102151Y672888D01*
X1102691Y672896D01*
X1103257Y672977D01*
X1103850Y673130D01*
X1104469Y673357D01*
X1105115Y673657D01*
X1102227Y665354D01*
X1101796Y666284D01*
X1099438Y670661D01*
X1099196Y670982D01*
X1098978Y671226D01*
X1099851Y673945D01*
X1100258Y673588D01*
D02*
G37*
G36*
X1113357Y664469D02*
X1113130Y663850D01*
X1112977Y663257D01*
X1112896Y662691D01*
X1112888Y662151D01*
X1112954Y661638D01*
X1113092Y661152D01*
X1113303Y660692D01*
X1113588Y660258D01*
X1113945Y659851D01*
X1111226Y658978D01*
X1110982Y659196D01*
X1110661Y659438D01*
X1110265Y659703D01*
X1109243Y660306D01*
X1107138Y661387D01*
X1105354Y662227D01*
X1113657Y665115D01*
X1113357Y664469D01*
D02*
G37*
G36*
X726291Y661262D02*
X726565Y660665D01*
X726873Y660137D01*
X727214Y659680D01*
X727588Y659293D01*
X727995Y658977D01*
X728436Y658730D01*
X728911Y658555D01*
X729418Y658449D01*
X729959Y658414D01*
X728637Y655874D01*
X728309Y655856D01*
X727911Y655801D01*
X727443Y655709D01*
X726295Y655416D01*
X724045Y654701D01*
X722193Y654041D01*
X726049Y661930D01*
X726291Y661262D01*
D02*
G37*
G36*
X1177463Y651554D02*
X1176848Y652157D01*
X1175661Y653173D01*
X1175089Y653586D01*
X1174533Y653935D01*
X1173990Y654221D01*
X1173462Y654443D01*
X1172949Y654602D01*
X1172450Y654697D01*
X1171966Y654729D01*
Y657269D01*
X1172450Y657300D01*
X1172949Y657396D01*
X1173462Y657554D01*
X1173990Y657777D01*
X1174533Y658062D01*
X1175089Y658412D01*
X1175661Y658824D01*
X1176247Y659301D01*
X1177463Y660444D01*
Y651554D01*
D02*
G37*
G36*
X732313Y641878D02*
X724949Y641874D01*
X723927Y646954D01*
X724584Y646975D01*
X725180Y647040D01*
X725715Y647148D01*
X726189Y647299D01*
X726601Y647492D01*
X726953Y647729D01*
X727243Y648009D01*
X727473Y648332D01*
X727641Y648698D01*
X727747Y649108D01*
X732313Y641878D01*
D02*
G37*
G36*
X1197465Y639555D02*
X1197078Y639917D01*
X1196664Y640241D01*
X1196222Y640527D01*
X1195754Y640774D01*
X1195258Y640984D01*
X1194735Y641155D01*
X1194184Y641289D01*
X1193607Y641384D01*
X1193002Y641441D01*
X1192370Y641460D01*
Y646540D01*
X1193002Y646559D01*
X1193607Y646616D01*
X1194184Y646712D01*
X1194735Y646845D01*
X1195258Y647016D01*
X1195754Y647226D01*
X1196222Y647474D01*
X1196664Y647759D01*
X1197078Y648083D01*
X1197465Y648445D01*
Y639555D01*
D02*
G37*
G36*
X966083Y641078D02*
X965759Y640664D01*
X965473Y640222D01*
X965226Y639754D01*
X965016Y639258D01*
X964845Y638735D01*
X964712Y638184D01*
X964616Y637607D01*
X964559Y637002D01*
X964540Y636370D01*
X959460D01*
X959441Y637002D01*
X959384Y637607D01*
X959289Y638184D01*
X959155Y638735D01*
X958984Y639258D01*
X958774Y639754D01*
X958527Y640222D01*
X958241Y640664D01*
X957917Y641078D01*
X957555Y641465D01*
X966445D01*
X966083Y641078D01*
D02*
G37*
G36*
X1228790Y638296D02*
X1228363Y638053D01*
X1227980Y637766D01*
X1227643Y637434D01*
X1227350Y637057D01*
X1227103Y636636D01*
X1226900Y636171D01*
X1226742Y635660D01*
X1226630Y635106D01*
X1226562Y634506D01*
X1226540Y633862D01*
X1221460Y635746D01*
X1221449Y636375D01*
X1221360Y637569D01*
X1221283Y638134D01*
X1221061Y639204D01*
X1220917Y639707D01*
X1220751Y640190D01*
X1220562Y640651D01*
X1220352Y641092D01*
X1228790Y638296D01*
D02*
G37*
G36*
X822791Y632296D02*
X822604Y632168D01*
X822438Y631975D01*
X822290Y631717D01*
X822163Y631395D01*
X822055Y631008D01*
X821967Y630556D01*
X821898Y630040D01*
X821820Y628814D01*
X821810Y628103D01*
X814190Y631628D01*
X814353Y635096D01*
X822791Y632296D01*
D02*
G37*
G36*
X1118605Y631013D02*
X1118172Y630553D01*
X1117785Y630085D01*
X1117444Y629609D01*
X1117149Y629126D01*
X1116900Y628635D01*
X1116698Y628136D01*
X1116542Y627629D01*
X1116431Y627115D01*
X1116367Y626593D01*
X1116350Y626063D01*
X1110063Y632350D01*
X1110593Y632367D01*
X1111115Y632431D01*
X1111629Y632542D01*
X1112136Y632698D01*
X1112635Y632900D01*
X1113126Y633149D01*
X1113609Y633444D01*
X1114085Y633785D01*
X1114553Y634172D01*
X1115013Y634605D01*
X1118605Y631013D01*
D02*
G37*
G36*
X712358Y633075D02*
X712479Y631517D01*
X712591Y630821D01*
X712738Y630181D01*
X712919Y629595D01*
X713136Y629065D01*
X713386Y628589D01*
X713671Y628169D01*
X713991Y627804D01*
X712196Y626008D01*
X711831Y626328D01*
X711411Y626614D01*
X710935Y626865D01*
X710405Y627081D01*
X709819Y627262D01*
X709178Y627409D01*
X708483Y627521D01*
X707731Y627599D01*
X706064Y627650D01*
X712350Y633937D01*
X712358Y633075D01*
D02*
G37*
G36*
X1105465Y621555D02*
X1105078Y621917D01*
X1104664Y622241D01*
X1104222Y622527D01*
X1103754Y622774D01*
X1103258Y622984D01*
X1102735Y623155D01*
X1102184Y623288D01*
X1101607Y623384D01*
X1101002Y623441D01*
X1100370Y623460D01*
Y628540D01*
X1101002Y628559D01*
X1101607Y628616D01*
X1102184Y628711D01*
X1102735Y628845D01*
X1103258Y629016D01*
X1103754Y629226D01*
X1104222Y629473D01*
X1104664Y629759D01*
X1105078Y630083D01*
X1105465Y630445D01*
Y621555D01*
D02*
G37*
G36*
X1084922Y630083D02*
X1085336Y629759D01*
X1085778Y629473D01*
X1086246Y629226D01*
X1086742Y629016D01*
X1087265Y628845D01*
X1087816Y628711D01*
X1088393Y628616D01*
X1088998Y628559D01*
X1089630Y628540D01*
Y623460D01*
X1088998Y623441D01*
X1088393Y623384D01*
X1087816Y623288D01*
X1087265Y623155D01*
X1086742Y622984D01*
X1086246Y622774D01*
X1085778Y622527D01*
X1085336Y622241D01*
X1084922Y621917D01*
X1084535Y621555D01*
Y630445D01*
X1084922Y630083D01*
D02*
G37*
G36*
X1075465Y621555D02*
X1075078Y621917D01*
X1074664Y622241D01*
X1074222Y622527D01*
X1073754Y622774D01*
X1073258Y622984D01*
X1072735Y623155D01*
X1072184Y623288D01*
X1071607Y623384D01*
X1071002Y623441D01*
X1070370Y623460D01*
Y628540D01*
X1071002Y628559D01*
X1071607Y628616D01*
X1072184Y628711D01*
X1072735Y628845D01*
X1073258Y629016D01*
X1073754Y629226D01*
X1074222Y629473D01*
X1074664Y629759D01*
X1075078Y630083D01*
X1075465Y630445D01*
Y621555D01*
D02*
G37*
G36*
X1185536Y623839D02*
X1184601Y623595D01*
X1181559Y622592D01*
X1180973Y622334D01*
X1180457Y622073D01*
X1180011Y621809D01*
X1179634Y621542D01*
X1179328Y621272D01*
X1177054Y622590D01*
X1177398Y622984D01*
X1177684Y623418D01*
X1177912Y623892D01*
X1178081Y624407D01*
X1178192Y624962D01*
X1178244Y625557D01*
X1178239Y626192D01*
X1178174Y626868D01*
X1178052Y627584D01*
X1177871Y628341D01*
X1185536Y623839D01*
D02*
G37*
G36*
X964559Y624998D02*
X964616Y624393D01*
X964712Y623816D01*
X964845Y623265D01*
X965016Y622742D01*
X965226Y622246D01*
X965473Y621778D01*
X965759Y621336D01*
X966083Y620922D01*
X966445Y620535D01*
X957555D01*
X957917Y620922D01*
X958241Y621336D01*
X958527Y621778D01*
X958774Y622246D01*
X958984Y622742D01*
X959155Y623265D01*
X959289Y623816D01*
X959384Y624393D01*
X959441Y624998D01*
X959460Y625630D01*
X964540D01*
X964559Y624998D01*
D02*
G37*
G36*
X821816Y612175D02*
X821969Y609935D01*
X822039Y609530D01*
X822121Y609188D01*
X822216Y608908D01*
X822324Y608690D01*
X822445Y608535D01*
X813555D01*
X813676Y608690D01*
X813784Y608908D01*
X813879Y609188D01*
X813961Y609530D01*
X814031Y609935D01*
X814133Y610930D01*
X814184Y612175D01*
X814190Y612890D01*
X821810D01*
X821816Y612175D01*
D02*
G37*
G36*
X1128624Y607799D02*
X1121254Y607461D01*
X1120007Y612541D01*
X1120669Y612562D01*
X1121266Y612623D01*
X1121797Y612726D01*
X1122262Y612870D01*
X1122662Y613055D01*
X1122996Y613281D01*
X1123264Y613549D01*
X1123467Y613857D01*
X1123604Y614207D01*
X1123676Y614597D01*
X1128624Y607799D01*
D02*
G37*
G36*
X720493Y611548D02*
X720589Y611049D01*
X720747Y610535D01*
X720969Y610008D01*
X721255Y609465D01*
X721605Y608908D01*
X722017Y608337D01*
X722494Y607751D01*
X723636Y606535D01*
X714746D01*
X715350Y607150D01*
X716366Y608337D01*
X716778Y608908D01*
X717128Y609465D01*
X717413Y610008D01*
X717636Y610535D01*
X717794Y611049D01*
X717890Y611548D01*
X717922Y612032D01*
X720462D01*
X720493Y611548D01*
D02*
G37*
G36*
X1114918Y614084D02*
X1115333Y613760D01*
X1115774Y613474D01*
X1116243Y613227D01*
X1116739Y613017D01*
X1117262Y612846D01*
X1117812Y612712D01*
X1118390Y612617D01*
X1118995Y612560D01*
X1119627Y612541D01*
X1119629Y607461D01*
X1118997Y607442D01*
X1118392Y607385D01*
X1117814Y607290D01*
X1117264Y607156D01*
X1116741Y606985D01*
X1116245Y606775D01*
X1115777Y606527D01*
X1115335Y606241D01*
X1114921Y605918D01*
X1114534Y605555D01*
X1114531Y614445D01*
X1114918Y614084D01*
D02*
G37*
G36*
X1148146Y595661D02*
X1148218Y595579D01*
X1148319Y595506D01*
X1148450Y595444D01*
X1148610Y595391D01*
X1148799Y595347D01*
X1149018Y595313D01*
X1149267Y595289D01*
X1149852Y595270D01*
Y592730D01*
X1149545Y592725D01*
X1149018Y592687D01*
X1148799Y592653D01*
X1148610Y592609D01*
X1148450Y592556D01*
X1148319Y592494D01*
X1148218Y592421D01*
X1148146Y592340D01*
X1148103Y592248D01*
Y595752D01*
X1148146Y595661D01*
D02*
G37*
G36*
X1164349Y586891D02*
X1164165Y579520D01*
X1157164Y584296D01*
X1157564Y584383D01*
X1157922Y584535D01*
X1158238Y584749D01*
X1158511Y585028D01*
X1158743Y585370D01*
X1158932Y585775D01*
X1159080Y586244D01*
X1159185Y586777D01*
X1159248Y587373D01*
X1159269Y588033D01*
X1164349Y586891D01*
D02*
G37*
G36*
X1223092Y570352D02*
X1222197Y570804D01*
X1218589Y572350D01*
X1218040Y572516D01*
X1217550Y572635D01*
X1217118Y572706D01*
X1216743Y572730D01*
X1215880Y575270D01*
X1216408Y575305D01*
X1216917Y575411D01*
X1217407Y575587D01*
X1217878Y575833D01*
X1218329Y576150D01*
X1218761Y576537D01*
X1219173Y576995D01*
X1219566Y577523D01*
X1219940Y578121D01*
X1220294Y578790D01*
X1223092Y570352D01*
D02*
G37*
G36*
X1111148Y577841D02*
X1112334Y576825D01*
X1112906Y576412D01*
X1113463Y576063D01*
X1114005Y575777D01*
X1114533Y575555D01*
X1115046Y575396D01*
X1115545Y575301D01*
X1116030Y575269D01*
Y572729D01*
X1115545Y572697D01*
X1115046Y572602D01*
X1114533Y572443D01*
X1114005Y572221D01*
X1113463Y571935D01*
X1112906Y571586D01*
X1112334Y571173D01*
X1111748Y570697D01*
X1110533Y569554D01*
Y578444D01*
X1111148Y577841D01*
D02*
G37*
G36*
X1187770Y577709D02*
X1189065Y576745D01*
X1189676Y576354D01*
X1190263Y576023D01*
X1190826Y575752D01*
X1191364Y575541D01*
X1191878Y575390D01*
X1192368Y575300D01*
X1192833Y575270D01*
X1193047Y572730D01*
X1192548Y572697D01*
X1192044Y572598D01*
X1191534Y572432D01*
X1191019Y572201D01*
X1190498Y571903D01*
X1189973Y571539D01*
X1189442Y571109D01*
X1188905Y570612D01*
X1188363Y570050D01*
X1187816Y569421D01*
X1187086Y578281D01*
X1187770Y577709D01*
D02*
G37*
G36*
X1737905Y553085D02*
X1737290Y553688D01*
X1736103Y554704D01*
X1735532Y555117D01*
X1734975Y555466D01*
X1734433Y555752D01*
X1733905Y555974D01*
X1733391Y556133D01*
X1732892Y556228D01*
X1732408Y556260D01*
Y558800D01*
X1732892Y558832D01*
X1733391Y558927D01*
X1733905Y559086D01*
X1734433Y559308D01*
X1734975Y559594D01*
X1735532Y559943D01*
X1736103Y560356D01*
X1736689Y560832D01*
X1737905Y561975D01*
Y553085D01*
D02*
G37*
G36*
X901121Y558956D02*
X902812Y557480D01*
X903148Y557243D01*
X903448Y557060D01*
X903713Y556929D01*
X903944Y556851D01*
X904139Y556827D01*
X897853Y550540D01*
X897828Y550736D01*
X897750Y550966D01*
X897620Y551231D01*
X897436Y551532D01*
X897200Y551867D01*
X896568Y552643D01*
X895724Y553559D01*
X895222Y554069D01*
X900610Y559457D01*
X901121Y558956D01*
D02*
G37*
G36*
X650077Y562984D02*
X651156Y562134D01*
X652288Y561386D01*
X653471Y560740D01*
X654705Y560196D01*
X655991Y559753D01*
X657328Y559412D01*
X658717Y559172D01*
X660158Y559035D01*
X661650Y558999D01*
X646801Y544150D01*
X646765Y545642D01*
X646628Y547083D01*
X646388Y548472D01*
X646047Y549809D01*
X645604Y551095D01*
X645060Y552329D01*
X644414Y553512D01*
X643666Y554644D01*
X642816Y555723D01*
X641864Y556752D01*
X649048Y563936D01*
X650077Y562984D01*
D02*
G37*
G36*
X1161276Y529667D02*
X1161329Y529094D01*
X1161375Y528853D01*
X1161434Y528643D01*
X1161506Y528463D01*
X1161591Y528314D01*
X1161689Y528196D01*
X1161801Y528108D01*
X1161925Y528051D01*
X1158075D01*
X1158199Y528108D01*
X1158311Y528196D01*
X1158409Y528314D01*
X1158494Y528463D01*
X1158566Y528643D01*
X1158625Y528853D01*
X1158671Y529094D01*
X1158704Y529365D01*
X1158723Y529667D01*
X1158730Y530000D01*
X1161270D01*
X1161276Y529667D01*
D02*
G37*
G36*
X1116552Y533278D02*
X1116955Y532978D01*
X1117379Y532725D01*
X1117825Y532519D01*
X1118292Y532359D01*
X1118782Y532247D01*
X1119293Y532181D01*
X1119825Y532161D01*
X1120380Y532189D01*
X1120956Y532263D01*
X1115736Y527044D01*
X1115811Y527620D01*
X1115839Y528175D01*
X1115819Y528707D01*
X1115753Y529218D01*
X1115641Y529707D01*
X1115481Y530175D01*
X1115275Y530621D01*
X1115022Y531045D01*
X1114722Y531448D01*
X1114375Y531829D01*
X1116171Y533625D01*
X1116552Y533278D01*
D02*
G37*
G36*
X1750064Y535416D02*
X1751523Y534142D01*
X1752215Y533625D01*
X1752881Y533187D01*
X1753522Y532829D01*
X1754137Y532550D01*
X1754727Y532351D01*
X1755292Y532232D01*
X1755832Y532192D01*
Y529652D01*
X1755292Y529612D01*
X1754727Y529493D01*
X1754137Y529294D01*
X1753522Y529015D01*
X1752881Y528657D01*
X1752215Y528219D01*
X1751523Y527702D01*
X1750064Y526428D01*
X1749296Y525672D01*
Y536172D01*
X1750064Y535416D01*
D02*
G37*
G36*
X1127150Y529842D02*
X1128337Y528826D01*
X1128908Y528413D01*
X1129465Y528064D01*
X1130007Y527778D01*
X1130535Y527556D01*
X1131049Y527397D01*
X1131547Y527302D01*
X1132032Y527270D01*
Y524730D01*
X1131547Y524698D01*
X1131049Y524603D01*
X1130535Y524444D01*
X1130007Y524222D01*
X1129465Y523936D01*
X1128908Y523587D01*
X1128337Y523174D01*
X1127751Y522698D01*
X1126535Y521555D01*
Y530445D01*
X1127150Y529842D01*
D02*
G37*
G36*
X1256137Y519450D02*
X1255275Y519442D01*
X1253718Y519321D01*
X1253022Y519209D01*
X1252381Y519062D01*
X1251795Y518880D01*
X1251265Y518664D01*
X1250790Y518414D01*
X1250370Y518128D01*
X1250005Y517808D01*
X1248209Y519604D01*
X1248529Y519969D01*
X1248814Y520389D01*
X1249065Y520864D01*
X1249281Y521395D01*
X1249462Y521981D01*
X1249609Y522621D01*
X1249721Y523317D01*
X1249799Y524068D01*
X1249850Y525736D01*
X1256137Y519450D01*
D02*
G37*
G36*
X1150083Y503078D02*
X1149759Y502664D01*
X1149473Y502222D01*
X1149226Y501754D01*
X1149016Y501258D01*
X1148845Y500735D01*
X1148711Y500184D01*
X1148616Y499607D01*
X1148559Y499002D01*
X1148540Y498370D01*
X1143460D01*
X1143441Y499002D01*
X1143384Y499607D01*
X1143288Y500184D01*
X1143155Y500735D01*
X1142984Y501258D01*
X1142774Y501754D01*
X1142526Y502222D01*
X1142241Y502664D01*
X1141917Y503078D01*
X1141555Y503465D01*
X1150445D01*
X1150083Y503078D01*
D02*
G37*
G36*
X1054083Y495078D02*
X1053759Y494664D01*
X1053474Y494222D01*
X1053226Y493754D01*
X1053016Y493258D01*
X1052845Y492735D01*
X1052711Y492184D01*
X1052616Y491607D01*
X1052559Y491002D01*
X1052540Y490370D01*
X1047460D01*
X1047441Y491002D01*
X1047384Y491607D01*
X1047289Y492184D01*
X1047155Y492735D01*
X1046984Y493258D01*
X1046774Y493754D01*
X1046527Y494222D01*
X1046241Y494664D01*
X1045917Y495078D01*
X1045555Y495465D01*
X1054445D01*
X1054083Y495078D01*
D02*
G37*
G36*
X1148559Y480998D02*
X1148616Y480393D01*
X1148711Y479816D01*
X1148845Y479265D01*
X1149016Y478742D01*
X1149226Y478246D01*
X1149473Y477778D01*
X1149759Y477336D01*
X1150083Y476922D01*
X1150445Y476535D01*
X1141555D01*
X1141917Y476922D01*
X1142241Y477336D01*
X1142526Y477778D01*
X1142774Y478246D01*
X1142984Y478742D01*
X1143155Y479265D01*
X1143288Y479816D01*
X1143384Y480393D01*
X1143441Y480998D01*
X1143460Y481630D01*
X1148540D01*
X1148559Y480998D01*
D02*
G37*
G36*
X1261195Y480201D02*
X1259650Y476591D01*
X1259484Y476043D01*
X1259365Y475553D01*
X1259294Y475121D01*
X1259270Y474747D01*
X1256730Y473882D01*
X1256695Y474411D01*
X1256589Y474920D01*
X1256413Y475410D01*
X1256167Y475880D01*
X1255850Y476331D01*
X1255463Y476763D01*
X1255005Y477175D01*
X1254477Y477568D01*
X1253878Y477942D01*
X1253210Y478296D01*
X1261647Y481096D01*
X1261195Y480201D01*
D02*
G37*
G36*
X674690Y482324D02*
X674908Y482216D01*
X675188Y482121D01*
X675530Y482039D01*
X675935Y481969D01*
X676930Y481867D01*
X678175Y481816D01*
X678890Y481810D01*
Y474190D01*
X678175Y474184D01*
X675935Y474031D01*
X675530Y473961D01*
X675188Y473879D01*
X674908Y473784D01*
X674690Y473676D01*
X674535Y473555D01*
Y482445D01*
X674690Y482324D01*
D02*
G37*
G36*
X1070276Y478758D02*
X1070297Y478248D01*
X1070372Y477746D01*
X1070502Y477251D01*
X1070685Y476765D01*
X1070923Y476286D01*
X1071215Y475815D01*
X1071561Y475352D01*
X1071961Y474897D01*
X1072415Y474449D01*
X1068374Y471265D01*
X1067902Y471679D01*
X1067424Y472054D01*
X1066940Y472392D01*
X1066451Y472690D01*
X1065957Y472951D01*
X1065457Y473173D01*
X1064951Y473357D01*
X1064440Y473502D01*
X1063924Y473609D01*
X1063402Y473678D01*
X1070309Y479276D01*
X1070276Y478758D01*
D02*
G37*
G36*
X509207Y469900D02*
X508345Y469892D01*
X506787Y469771D01*
X506091Y469659D01*
X505451Y469512D01*
X504865Y469331D01*
X504335Y469114D01*
X503859Y468864D01*
X503439Y468578D01*
X503074Y468259D01*
X501278Y470055D01*
X501598Y470419D01*
X501884Y470839D01*
X502135Y471315D01*
X502351Y471845D01*
X502532Y472431D01*
X502679Y473072D01*
X502791Y473767D01*
X502869Y474519D01*
X502920Y476186D01*
X509207Y469900D01*
D02*
G37*
G36*
X902922Y434083D02*
X903336Y433759D01*
X903778Y433474D01*
X904246Y433226D01*
X904742Y433016D01*
X905265Y432845D01*
X905816Y432711D01*
X906393Y432616D01*
X906998Y432559D01*
X907630Y432540D01*
Y427460D01*
X906998Y427441D01*
X906393Y427384D01*
X905816Y427289D01*
X905265Y427155D01*
X904742Y426984D01*
X904246Y426774D01*
X903778Y426527D01*
X903336Y426241D01*
X902922Y425917D01*
X902535Y425555D01*
Y434445D01*
X902922Y434083D01*
D02*
G37*
G36*
X1502331Y430853D02*
X1502491Y430358D01*
X1502686Y429869D01*
X1502915Y429384D01*
X1503178Y428905D01*
X1503475Y428432D01*
X1503806Y427963D01*
X1504570Y427042D01*
X1505003Y426589D01*
X1502317Y422091D01*
X1501849Y422528D01*
X1501377Y422907D01*
X1500902Y423227D01*
X1500423Y423488D01*
X1499940Y423690D01*
X1499455Y423834D01*
X1498965Y423920D01*
X1498472Y423946D01*
X1497976Y423914D01*
X1497476Y423824D01*
X1502204Y431352D01*
X1502331Y430853D01*
D02*
G37*
G36*
X768922Y428083D02*
X769336Y427759D01*
X769778Y427473D01*
X770246Y427226D01*
X770742Y427016D01*
X771265Y426845D01*
X771816Y426711D01*
X772393Y426616D01*
X772998Y426559D01*
X773630Y426540D01*
Y421460D01*
X772998Y421441D01*
X772393Y421384D01*
X771816Y421288D01*
X771265Y421155D01*
X770742Y420984D01*
X770246Y420774D01*
X769778Y420527D01*
X769336Y420241D01*
X768922Y419917D01*
X768535Y419555D01*
Y428445D01*
X768922Y428083D01*
D02*
G37*
G36*
X1478083Y417078D02*
X1477759Y416664D01*
X1477473Y416222D01*
X1477226Y415754D01*
X1477016Y415258D01*
X1476845Y414735D01*
X1476711Y414184D01*
X1476616Y413607D01*
X1476559Y413002D01*
X1476540Y412370D01*
X1471460D01*
X1471441Y413002D01*
X1471384Y413607D01*
X1471288Y414184D01*
X1471155Y414735D01*
X1470984Y415258D01*
X1470774Y415754D01*
X1470526Y416222D01*
X1470241Y416664D01*
X1469917Y417078D01*
X1469555Y417465D01*
X1478445D01*
X1478083Y417078D01*
D02*
G37*
G36*
X1010367Y417407D02*
X1010431Y416885D01*
X1010542Y416371D01*
X1010698Y415864D01*
X1010900Y415365D01*
X1011149Y414874D01*
X1011444Y414391D01*
X1011785Y413915D01*
X1012172Y413447D01*
X1012605Y412987D01*
X1009013Y409395D01*
X1008553Y409828D01*
X1008085Y410215D01*
X1007609Y410556D01*
X1007126Y410851D01*
X1006635Y411100D01*
X1006136Y411302D01*
X1005629Y411459D01*
X1005115Y411569D01*
X1004593Y411633D01*
X1004063Y411650D01*
X1010350Y417937D01*
X1010367Y417407D01*
D02*
G37*
G36*
X965447Y410172D02*
X965915Y409785D01*
X966391Y409444D01*
X966874Y409149D01*
X967365Y408900D01*
X967864Y408698D01*
X968371Y408541D01*
X968885Y408431D01*
X969407Y408368D01*
X969937Y408350D01*
X963650Y402063D01*
X963633Y402593D01*
X963569Y403115D01*
X963458Y403629D01*
X963302Y404136D01*
X963100Y404635D01*
X962851Y405126D01*
X962556Y405609D01*
X962215Y406085D01*
X961828Y406553D01*
X961395Y407013D01*
X964987Y410605D01*
X965447Y410172D01*
D02*
G37*
G36*
X1064705Y388794D02*
X1064317Y389156D01*
X1063903Y389480D01*
X1063462Y389766D01*
X1062993Y390014D01*
X1062497Y390223D01*
X1061974Y390395D01*
X1061424Y390528D01*
X1060846Y390623D01*
X1060241Y390680D01*
X1059610Y390699D01*
Y395779D01*
X1060241Y395798D01*
X1060846Y395855D01*
X1061424Y395951D01*
X1061974Y396084D01*
X1062497Y396256D01*
X1062993Y396465D01*
X1063462Y396713D01*
X1063903Y396998D01*
X1064317Y397322D01*
X1064705Y397684D01*
Y388794D01*
D02*
G37*
G36*
X927037Y387350D02*
X926175Y387342D01*
X924617Y387221D01*
X923922Y387109D01*
X923281Y386962D01*
X922695Y386781D01*
X922165Y386564D01*
X921689Y386314D01*
X921269Y386028D01*
X920904Y385709D01*
X919109Y387505D01*
X919428Y387869D01*
X919714Y388289D01*
X919965Y388765D01*
X920181Y389295D01*
X920362Y389881D01*
X920509Y390522D01*
X920621Y391217D01*
X920699Y391969D01*
X920750Y393637D01*
X927037Y387350D01*
D02*
G37*
G36*
X1512559Y388998D02*
X1512616Y388393D01*
X1512711Y387816D01*
X1512845Y387265D01*
X1513016Y386742D01*
X1513226Y386246D01*
X1513474Y385778D01*
X1513759Y385336D01*
X1514083Y384922D01*
X1514445Y384535D01*
X1505555D01*
X1505917Y384922D01*
X1506241Y385336D01*
X1506527Y385778D01*
X1506774Y386246D01*
X1506984Y386742D01*
X1507155Y387265D01*
X1507289Y387816D01*
X1507384Y388393D01*
X1507441Y388998D01*
X1507460Y389630D01*
X1512540D01*
X1512559Y388998D01*
D02*
G37*
G36*
X672418Y382425D02*
X673101Y380049D01*
X673343Y379394D01*
X673848Y378286D01*
X674112Y377834D01*
X674383Y377450D01*
X674661Y377135D01*
X673285Y374919D01*
X672894Y375261D01*
X672460Y375547D01*
X671985Y375778D01*
X671467Y375952D01*
X670907Y376071D01*
X670305Y376133D01*
X669661Y376140D01*
X668975Y376090D01*
X668247Y375985D01*
X667476Y375824D01*
X672204Y383352D01*
X672418Y382425D01*
D02*
G37*
G36*
X1118083Y375078D02*
X1117759Y374664D01*
X1117474Y374222D01*
X1117226Y373754D01*
X1117016Y373258D01*
X1116845Y372735D01*
X1116712Y372184D01*
X1116616Y371607D01*
X1116559Y371002D01*
X1116540Y370370D01*
X1111460D01*
X1111441Y371002D01*
X1111384Y371607D01*
X1111289Y372184D01*
X1111155Y372735D01*
X1110984Y373258D01*
X1110774Y373754D01*
X1110527Y374222D01*
X1110241Y374664D01*
X1109917Y375078D01*
X1109555Y375465D01*
X1118445D01*
X1118083Y375078D01*
D02*
G37*
G36*
X688197Y365355D02*
X687582Y365959D01*
X686395Y366974D01*
X685824Y367387D01*
X685267Y367737D01*
X684724Y368022D01*
X684196Y368245D01*
X683683Y368403D01*
X683184Y368498D01*
X682700Y368530D01*
Y371070D01*
X683184Y371102D01*
X683683Y371197D01*
X684196Y371356D01*
X684724Y371578D01*
X685267Y371864D01*
X685824Y372213D01*
X686395Y372626D01*
X686981Y373102D01*
X688197Y374245D01*
Y365355D01*
D02*
G37*
G36*
X1007936Y365650D02*
X1007075Y365642D01*
X1005517Y365521D01*
X1004821Y365409D01*
X1004181Y365262D01*
X1003595Y365081D01*
X1003065Y364865D01*
X1002589Y364614D01*
X1002169Y364328D01*
X1001805Y364008D01*
X1000008Y365804D01*
X1000328Y366169D01*
X1000614Y366589D01*
X1000864Y367065D01*
X1001081Y367595D01*
X1001262Y368181D01*
X1001409Y368821D01*
X1001521Y369517D01*
X1001599Y370269D01*
X1001650Y371936D01*
X1007936Y365650D01*
D02*
G37*
G36*
X344784Y361183D02*
X344568Y360482D01*
Y359674D01*
X344784Y358758D01*
X345215Y357734D01*
X345861Y356603D01*
X346723Y355364D01*
X347801Y354017D01*
X350603Y350999D01*
X345215Y345611D01*
X343652Y347120D01*
X340850Y349491D01*
X339611Y350353D01*
X338479Y350999D01*
X337456Y351430D01*
X336540Y351646D01*
X335732D01*
X335031Y351430D01*
X334438Y350999D01*
X345215Y361776D01*
X344784Y361183D01*
D02*
G37*
G36*
X1259302Y335547D02*
X1259397Y335049D01*
X1259556Y334535D01*
X1259778Y334007D01*
X1260064Y333465D01*
X1260413Y332908D01*
X1260826Y332337D01*
X1261302Y331751D01*
X1262445Y330535D01*
X1253555D01*
X1254158Y331150D01*
X1255174Y332337D01*
X1255587Y332908D01*
X1255936Y333465D01*
X1256222Y334007D01*
X1256444Y334535D01*
X1256603Y335049D01*
X1256698Y335547D01*
X1256730Y336032D01*
X1259270D01*
X1259302Y335547D01*
D02*
G37*
G36*
X398812Y330858D02*
X398907Y330359D01*
X399066Y329845D01*
X399288Y329318D01*
X399574Y328775D01*
X399923Y328218D01*
X400336Y327647D01*
X400812Y327061D01*
X401955Y325845D01*
X393065D01*
X393668Y326460D01*
X394684Y327647D01*
X395097Y328218D01*
X395446Y328775D01*
X395732Y329318D01*
X395954Y329845D01*
X396113Y330359D01*
X396208Y330858D01*
X396240Y331342D01*
X398780D01*
X398812Y330858D01*
D02*
G37*
G36*
X1093001Y321409D02*
X1092568Y320956D01*
X1091804Y320035D01*
X1091473Y319566D01*
X1091176Y319093D01*
X1090913Y318614D01*
X1090684Y318130D01*
X1090489Y317640D01*
X1090329Y317146D01*
X1090202Y316646D01*
X1085475Y324175D01*
X1085975Y324085D01*
X1086471Y324053D01*
X1086964Y324079D01*
X1087453Y324165D01*
X1087939Y324308D01*
X1088422Y324511D01*
X1088900Y324772D01*
X1089376Y325092D01*
X1089847Y325471D01*
X1090316Y325908D01*
X1093001Y321409D01*
D02*
G37*
G36*
X1177390Y311772D02*
X1177066Y311357D01*
X1176780Y310916D01*
X1176532Y310447D01*
X1176323Y309951D01*
X1176151Y309428D01*
X1176018Y308878D01*
X1175923Y308300D01*
X1175866Y307695D01*
X1175847Y307064D01*
X1170767D01*
X1170748Y307695D01*
X1170690Y308300D01*
X1170595Y308878D01*
X1170462Y309428D01*
X1170290Y309951D01*
X1170081Y310447D01*
X1169833Y310916D01*
X1169547Y311357D01*
X1169224Y311772D01*
X1168862Y312159D01*
X1177752D01*
X1177390Y311772D01*
D02*
G37*
G36*
X721430Y289592D02*
X722617Y288576D01*
X723188Y288163D01*
X723745Y287814D01*
X724287Y287528D01*
X724815Y287306D01*
X725329Y287147D01*
X725827Y287052D01*
X726312Y287020D01*
Y284480D01*
X725827Y284448D01*
X725329Y284353D01*
X724815Y284194D01*
X724287Y283972D01*
X723745Y283686D01*
X723188Y283337D01*
X722617Y282924D01*
X722031Y282448D01*
X720815Y281305D01*
Y290195D01*
X721430Y289592D01*
D02*
G37*
G36*
X479459Y270972D02*
X478815Y271578D01*
X478134Y272120D01*
X477416Y272599D01*
X476661Y273014D01*
X475869Y273365D01*
X475040Y273652D01*
X474174Y273875D01*
X473271Y274034D01*
X472331Y274130D01*
X471354Y274162D01*
Y281782D01*
X472331Y281814D01*
X473271Y281910D01*
X474174Y282069D01*
X475040Y282292D01*
X475869Y282579D01*
X476661Y282930D01*
X477416Y283345D01*
X478134Y283824D01*
X478815Y284366D01*
X479459Y284972D01*
Y270972D01*
D02*
G37*
G36*
X1067965Y260055D02*
X1067579Y260417D01*
X1067164Y260741D01*
X1066723Y261027D01*
X1066254Y261275D01*
X1065758Y261484D01*
X1065235Y261656D01*
X1064685Y261789D01*
X1064107Y261884D01*
X1063502Y261941D01*
X1062870Y261960D01*
Y267040D01*
X1063502Y267059D01*
X1064107Y267117D01*
X1064685Y267212D01*
X1065235Y267345D01*
X1065758Y267517D01*
X1066254Y267726D01*
X1066723Y267974D01*
X1067164Y268260D01*
X1067579Y268583D01*
X1067965Y268945D01*
Y260055D01*
D02*
G37*
G36*
X755150Y255842D02*
X756337Y254826D01*
X756908Y254413D01*
X757465Y254064D01*
X758008Y253778D01*
X758535Y253556D01*
X759049Y253397D01*
X759548Y253302D01*
X760032Y253270D01*
Y250730D01*
X759548Y250698D01*
X759049Y250603D01*
X758535Y250444D01*
X758008Y250222D01*
X757465Y249936D01*
X756908Y249587D01*
X756337Y249174D01*
X755751Y248698D01*
X754535Y247555D01*
Y256445D01*
X755150Y255842D01*
D02*
G37*
G36*
X1048690Y248324D02*
X1048908Y248216D01*
X1049188Y248121D01*
X1049530Y248039D01*
X1049935Y247969D01*
X1050930Y247867D01*
X1052175Y247816D01*
X1052890Y247810D01*
Y240190D01*
X1052175Y240184D01*
X1049935Y240031D01*
X1049530Y239961D01*
X1049188Y239879D01*
X1048908Y239784D01*
X1048690Y239676D01*
X1048535Y239555D01*
Y248445D01*
X1048690Y248324D01*
D02*
G37*
G36*
X1103043Y239487D02*
X1102884Y239620D01*
X1102664Y239740D01*
X1102383Y239845D01*
X1102039Y239937D01*
X1101634Y240014D01*
X1101167Y240077D01*
X1100047Y240162D01*
X1098681Y240190D01*
X1099057Y247810D01*
X1099774Y247816D01*
X1102415Y248012D01*
X1102754Y248084D01*
X1103030Y248168D01*
X1103243Y248263D01*
X1103393Y248370D01*
X1103043Y239487D01*
D02*
G37*
G36*
X758418Y234424D02*
X759100Y232049D01*
X759343Y231394D01*
X759848Y230286D01*
X760112Y229834D01*
X760383Y229450D01*
X760661Y229135D01*
X759285Y226919D01*
X758894Y227261D01*
X758460Y227547D01*
X757985Y227778D01*
X757467Y227952D01*
X756907Y228071D01*
X756305Y228133D01*
X755661Y228140D01*
X754975Y228090D01*
X754247Y227985D01*
X753476Y227824D01*
X758204Y235352D01*
X758418Y234424D01*
D02*
G37*
G36*
X724348Y225040D02*
X725535Y224024D01*
X726106Y223611D01*
X726663Y223262D01*
X727206Y222976D01*
X727733Y222754D01*
X728247Y222595D01*
X728745Y222500D01*
X729230Y222468D01*
Y219928D01*
X728745Y219896D01*
X728247Y219801D01*
X727733Y219642D01*
X727206Y219420D01*
X726663Y219134D01*
X726106Y218785D01*
X725535Y218372D01*
X724949Y217896D01*
X723733Y216753D01*
Y225643D01*
X724348Y225040D01*
D02*
G37*
G36*
X1371120Y199049D02*
X1371603Y198681D01*
X1372092Y198360D01*
X1372587Y198085D01*
X1373088Y197856D01*
X1373595Y197674D01*
X1374107Y197539D01*
X1374625Y197449D01*
X1375149Y197407D01*
X1375679Y197410D01*
X1369653Y190875D01*
X1369614Y191403D01*
X1369529Y191922D01*
X1369398Y192431D01*
X1369221Y192931D01*
X1368999Y193421D01*
X1368730Y193902D01*
X1368416Y194373D01*
X1368056Y194835D01*
X1367650Y195287D01*
X1367199Y195729D01*
X1370642Y199464D01*
X1371120Y199049D01*
D02*
G37*
G36*
X751302Y191548D02*
X751397Y191049D01*
X751556Y190535D01*
X751778Y190007D01*
X752064Y189465D01*
X752413Y188908D01*
X752826Y188337D01*
X753302Y187751D01*
X754445Y186535D01*
X745555D01*
X746158Y187150D01*
X747174Y188337D01*
X747587Y188908D01*
X747936Y189465D01*
X748222Y190007D01*
X748444Y190535D01*
X748603Y191049D01*
X748698Y191548D01*
X748730Y192032D01*
X751270D01*
X751302Y191548D01*
D02*
G37*
G36*
X1119937Y169650D02*
X1119075Y169642D01*
X1117517Y169521D01*
X1116822Y169409D01*
X1116181Y169262D01*
X1115595Y169081D01*
X1115065Y168864D01*
X1114589Y168614D01*
X1114169Y168328D01*
X1113804Y168008D01*
X1112009Y169804D01*
X1112328Y170169D01*
X1112614Y170589D01*
X1112865Y171065D01*
X1113081Y171595D01*
X1113262Y172181D01*
X1113409Y172822D01*
X1113521Y173517D01*
X1113599Y174269D01*
X1113650Y175937D01*
X1119937Y169650D01*
D02*
G37*
G36*
X950452Y167260D02*
X949950Y166713D01*
X949502Y166127D01*
X949108Y165504D01*
X948768Y164843D01*
X948481Y164144D01*
X948248Y163408D01*
X948069Y162633D01*
X947944Y161821D01*
X947872Y160971D01*
X947854Y160083D01*
X939682Y168255D01*
X940570Y168273D01*
X941421Y168344D01*
X942233Y168470D01*
X943007Y168649D01*
X943744Y168881D01*
X944443Y169168D01*
X945104Y169509D01*
X945727Y169903D01*
X946312Y170351D01*
X946860Y170853D01*
X950452Y167260D01*
D02*
G37*
G36*
X1309650Y152942D02*
X1309794Y151301D01*
X1309920Y150546D01*
X1310083Y149835D01*
X1310281Y149169D01*
X1310515Y148546D01*
X1310785Y147966D01*
X1311091Y147431D01*
X1311433Y146940D01*
X1302751D01*
X1303094Y147431D01*
X1303400Y147966D01*
X1303670Y148546D01*
X1303904Y149169D01*
X1304102Y149835D01*
X1304264Y150546D01*
X1304390Y151301D01*
X1304480Y152100D01*
X1304552Y153828D01*
X1309632D01*
X1309650Y152942D01*
D02*
G37*
G36*
X1175866Y70998D02*
X1175923Y70393D01*
X1176018Y69816D01*
X1176151Y69265D01*
X1176323Y68742D01*
X1176532Y68246D01*
X1176780Y67778D01*
X1177066Y67336D01*
X1177390Y66922D01*
X1177752Y66535D01*
X1168862D01*
X1169224Y66922D01*
X1169547Y67336D01*
X1169833Y67778D01*
X1170081Y68246D01*
X1170290Y68742D01*
X1170462Y69265D01*
X1170595Y69816D01*
X1170690Y70393D01*
X1170748Y70998D01*
X1170767Y71630D01*
X1175847D01*
X1175866Y70998D01*
D02*
G37*
G36*
X1342025Y62115D02*
X1341638Y62477D01*
X1341224Y62801D01*
X1340782Y63086D01*
X1340314Y63334D01*
X1339818Y63544D01*
X1339294Y63715D01*
X1338744Y63848D01*
X1338167Y63944D01*
X1337562Y64001D01*
X1336930Y64020D01*
Y69100D01*
X1337562Y69119D01*
X1338167Y69176D01*
X1338744Y69271D01*
X1339294Y69405D01*
X1339818Y69576D01*
X1340314Y69786D01*
X1340782Y70033D01*
X1341224Y70319D01*
X1341638Y70643D01*
X1342025Y71005D01*
Y62115D01*
D02*
G37*
G36*
X1302362Y70643D02*
X1302776Y70319D01*
X1303218Y70033D01*
X1303686Y69786D01*
X1304182Y69576D01*
X1304705Y69405D01*
X1305256Y69271D01*
X1305833Y69176D01*
X1306438Y69119D01*
X1307070Y69100D01*
Y64020D01*
X1306438Y64001D01*
X1305833Y63944D01*
X1305256Y63848D01*
X1304705Y63715D01*
X1304182Y63544D01*
X1303686Y63334D01*
X1303218Y63086D01*
X1302776Y62801D01*
X1302362Y62477D01*
X1301975Y62115D01*
Y71005D01*
X1302362Y70643D01*
D02*
G37*
D31*
X142290Y295642D02*
D03*
D39*
X942000Y430000D02*
X970000Y402000D01*
X1157999Y578001D02*
X1161809Y581811D01*
X1146000Y472000D02*
Y508000D01*
X1109995Y610001D02*
X1126000D01*
X1109995D02*
X1109998Y609999D01*
X1104411Y615586D02*
X1109995Y610001D01*
X952000Y704000D02*
X959272D01*
X1047686Y615586D01*
X1104411D01*
X1080000Y626000D02*
X1110000D01*
X1054000Y624000D02*
X1056000Y626000D01*
X1080000D01*
X956000Y934000D02*
X958000D01*
X1192000Y700000D01*
X1297440Y66560D02*
X1346560D01*
X1474000Y396000D02*
Y422000D01*
X1510000Y380000D02*
Y418000D01*
X1334000Y850000D02*
Y930000D01*
X1292000Y808000D02*
X1334000Y850000D01*
X1272000Y808000D02*
X1292000D01*
X1256000Y792000D02*
X1272000Y808000D01*
X1256000Y756000D02*
Y792000D01*
X1083998Y317999D02*
X1085999D01*
X1044100Y264500D02*
X1072500D01*
X939600Y160000D02*
X1044100Y264500D01*
X1028761Y393239D02*
X1069239D01*
X1004000Y418000D02*
X1028761Y393239D01*
X1214000Y960000D02*
Y988000D01*
X1307092Y139434D02*
Y204908D01*
X1063463Y479248D02*
X1376000Y191068D01*
X1173307Y62000D02*
Y316693D01*
X695586Y638314D02*
X701686Y644414D01*
X730414D01*
X734000Y648000D01*
X1184000Y962000D02*
Y978000D01*
X1170000Y992000D02*
X1172000D01*
X1170000D02*
X1184000Y978000D01*
X962000Y616000D02*
Y646000D01*
X1126000Y610001D02*
X1129998Y613999D01*
X764000Y424000D02*
X818000D01*
X1224000Y644000D02*
X1224001Y643999D01*
X1225997D01*
X1224000Y631996D02*
Y644000D01*
X1048000Y630000D02*
X1054000Y624000D01*
X1110000Y626000D02*
X1128000Y644000D01*
X1202000D01*
X1214000Y640400D02*
Y960000D01*
X1161809Y594209D02*
X1164934Y597334D01*
X1170934D01*
X1214000Y640400D01*
X1161809Y581811D02*
Y594209D01*
X922000Y528000D02*
X1097999D01*
X1050000Y462000D02*
Y500000D01*
Y462000D02*
X1307092Y204908D01*
X1256000Y756000D02*
X1266000Y746000D01*
Y742000D02*
Y746000D01*
X1356000Y952000D02*
Y1020000D01*
X1114000Y346000D02*
Y380000D01*
X1085999Y317999D02*
X1114000Y346000D01*
X1496000Y430000D02*
X1498000D01*
X1510000Y418000D01*
X1097999Y528000D02*
X1100000Y530001D01*
Y530000D02*
Y530001D01*
X1095850Y1005850D02*
X1313850D01*
X1338210Y1030210D01*
X1334000Y930000D02*
X1356000Y952000D01*
X898000Y430000D02*
X942000D01*
X1420372Y1124314D02*
X1464674D01*
X1508760Y1168400D01*
X662000Y580000D02*
Y585800D01*
X695586Y619386D01*
Y638314D01*
X818000Y424000D02*
X922000Y528000D01*
X1224000Y631996D02*
X1247140Y608856D01*
Y598424D02*
Y608856D01*
D40*
X1159718Y536029D02*
X1166903D01*
X1151683Y544064D02*
X1159718Y536029D01*
X1043686Y570484D02*
X1051769D01*
X1027936Y586234D02*
X1043686Y570484D01*
X1027936Y586234D02*
Y594317D01*
X1058488Y576580D02*
X1088213Y546856D01*
X1256000Y484000D02*
X1258000Y482000D01*
Y326000D02*
Y482000D01*
X397510Y364490D02*
X509270Y476250D01*
X397510Y321310D02*
Y364490D01*
X1265034Y566306D02*
X1724546D01*
X1162050Y566420D02*
X1197610Y601980D01*
X1146604Y566420D02*
X1162050D01*
X1144167Y568857D02*
X1146604Y566420D01*
X1197610Y601980D02*
X1210310D01*
X1226290Y586000D01*
X819150Y285750D02*
X927100Y393700D01*
X1317680Y1036320D02*
X1320000Y1034000D01*
Y1036000D01*
X1050290Y1036320D02*
X1317680D01*
X716280Y285750D02*
X819150D01*
X694436Y804672D02*
X719836D01*
X719999Y701999D02*
Y703998D01*
X730000Y714000D01*
X826000D01*
X930000Y716000D02*
X1056000D01*
X669036Y804672D02*
X694436D01*
X1116001Y655999D02*
X1181998D01*
X1256000Y724000D02*
X1291996D01*
X750000Y182000D02*
Y214000D01*
X742802Y221198D02*
X750000Y214000D01*
X719198Y221198D02*
X742802D01*
X688000Y753997D02*
Y754000D01*
Y753997D02*
X689999Y751999D01*
X888000Y252000D02*
X1008000Y372000D01*
X750000Y252000D02*
X888000D01*
X1082000Y138000D02*
X1120000Y176000D01*
X850000Y138000D02*
X1082000D01*
X719192Y602000D02*
Y619192D01*
X720000Y620000D01*
X706000Y634000D02*
X720000Y620000D01*
X156000Y1162000D02*
X186000Y1192000D01*
X1234400Y504000D02*
X1256200Y525800D01*
X752000Y234000D02*
X754000D01*
X850000Y138000D01*
X1160000Y522000D02*
Y530000D01*
X1150856Y518213D02*
Y524212D01*
Y518213D02*
X1165068Y504000D01*
X1234400D01*
X965109Y657144D02*
X1027936Y594317D01*
X1166903Y536029D02*
X1166932Y536000D01*
X1149069Y526000D02*
X1150856Y524212D01*
X1182932Y573478D02*
X1183453Y574000D01*
X1224000D01*
Y574001D01*
X1225997Y575999D01*
X680200Y369800D02*
X692732D01*
X668000Y382000D02*
X680200Y369800D01*
X666000Y382000D02*
X668000D01*
X1097929Y552357D02*
X1097929D01*
X1098844Y553271D01*
X1122000Y526000D02*
X1149069D01*
X1098844Y553271D02*
X1101155D01*
X1142000Y594000D02*
X1149852D01*
X1056000Y716000D02*
X1104000Y668000D01*
X1108000D01*
Y664000D02*
X1116001Y655999D01*
X1108000Y664000D02*
Y668000D01*
X717144Y657144D02*
X965109D01*
X717144D02*
X720000Y660000D01*
X720000D01*
X652000Y714000D02*
X683997D01*
X688000Y718003D01*
Y751999D01*
X1091925Y536856D02*
X1096212Y541144D01*
X1115273Y532727D02*
X1122000Y526000D01*
X1123469Y536791D02*
X1126678Y540000D01*
X1110205Y532727D02*
X1115273D01*
X1111888Y536791D02*
X1123469D01*
X1113571Y540855D02*
X1121785D01*
X1094286Y556000D02*
X1097929Y552357D01*
X1101788Y541144D02*
X1110205Y532727D01*
X1096212Y541144D02*
X1101788D01*
X1101823Y546856D02*
X1111888Y536791D01*
X1101155Y553271D02*
X1113571Y540855D01*
X803144Y536856D02*
X1091925D01*
X1076000Y546000D02*
Y546253D01*
X1088213Y546856D02*
X1101823D01*
X1092000Y556000D02*
X1094286D01*
X1105998Y573999D02*
X1118857D01*
X1121785Y540855D02*
X1124994Y544064D01*
X1151683D01*
X1150000Y540000D02*
X1160000Y530000D01*
X1126678Y540000D02*
X1150000D01*
X186000Y1192000D02*
X682520D01*
X1172000Y676000D02*
Y678390D01*
X682520Y1192000D02*
X712470Y1162050D01*
X758190Y1092200D02*
X1172000Y678390D01*
X712470Y1104900D02*
Y1162050D01*
Y1104900D02*
X725170Y1092200D01*
X758190D01*
X614000Y1076000D02*
X638810Y1051190D01*
Y989190D02*
Y1051190D01*
X1743940Y530922D02*
X1756410D01*
X1166932Y536000D02*
X1242120D01*
X1756410Y530922D02*
Y566306D01*
X1118857Y573999D02*
X1123896Y568960D01*
X1144167D01*
X1149852Y594000D02*
X1173072Y617220D01*
X1173480D01*
X1184000Y627740D01*
Y630000D01*
X1238250Y741750D02*
X1250000Y730000D01*
X1238250Y741750D02*
Y898250D01*
X1326000Y986000D01*
X1226000Y680000D02*
X1238250Y692250D01*
Y741750D01*
X1256000Y724000D01*
X1756091Y567690D02*
X1756410Y566306D01*
X1294470Y557530D02*
X1742440D01*
X1724546Y566306D02*
X1725930Y567690D01*
X1756091D01*
X1242120Y536000D02*
X1267614Y561494D01*
X1290506D02*
X1294470Y557530D01*
X1267614Y561494D02*
X1290506D01*
X720000Y620000D02*
X803144Y536856D01*
X1051420Y576580D02*
X1058488D01*
X638810Y989190D02*
X1051420Y576580D01*
X1051769Y570484D02*
X1076000Y546253D01*
X1253490Y577850D02*
X1265034Y566306D01*
X1226290Y586000D02*
X1253490D01*
Y577850D02*
Y586000D01*
X1290626Y722630D02*
X1291996Y724000D01*
X1290066Y722630D02*
X1290626D01*
D41*
X1339870Y576600D02*
X1351280Y588010D01*
X1277000Y576600D02*
X1339870D01*
X1195070Y516890D02*
X1224000Y516000D01*
X336245Y359969D02*
X418242Y277972D01*
X818000Y636000D02*
X820000Y638000D01*
X818000Y604000D02*
Y636000D01*
X692000Y862000D02*
X696000Y858000D01*
X730000D01*
X1107499Y244000D02*
X1107749Y243749D01*
X1044000Y244000D02*
X1107499D01*
X892679Y562000D02*
X904202Y550477D01*
X888000Y562000D02*
X892679D01*
X670000Y478000D02*
X682780D01*
X778780Y382000D01*
X788000D01*
X418242Y277972D02*
X486600D01*
X420370Y323850D02*
X440131D01*
X476250Y359969D01*
X885190Y562610D02*
Y564810D01*
X888000Y562000D01*
D43*
X368757Y359969D02*
Y376733D01*
X608000Y578000D02*
X627800D01*
X661800Y544000D01*
X177800Y434340D02*
X311150D01*
X368757Y376733D01*
D45*
X1743710Y792480D02*
D03*
Y817880D02*
D03*
Y843280D02*
D03*
Y868680D02*
D03*
Y894080D02*
D03*
Y919480D02*
D03*
Y944880D02*
D03*
Y970280D02*
D03*
Y995680D02*
D03*
Y1021080D02*
D03*
X1769110D02*
D03*
Y995680D02*
D03*
Y970280D02*
D03*
Y944880D02*
D03*
Y919480D02*
D03*
Y894080D02*
D03*
Y868680D02*
D03*
Y843280D02*
D03*
Y817880D02*
D03*
Y792480D02*
D03*
X1794510D02*
D03*
Y817880D02*
D03*
Y843280D02*
D03*
Y868680D02*
D03*
Y894080D02*
D03*
Y919480D02*
D03*
Y944880D02*
D03*
Y970280D02*
D03*
Y995680D02*
D03*
Y1021080D02*
D03*
X1819910D02*
D03*
Y995680D02*
D03*
Y970280D02*
D03*
Y944880D02*
D03*
Y919480D02*
D03*
Y894080D02*
D03*
Y868680D02*
D03*
Y843280D02*
D03*
Y817880D02*
D03*
Y792480D02*
D03*
X1845310D02*
D03*
Y817880D02*
D03*
Y843280D02*
D03*
Y868680D02*
D03*
Y894080D02*
D03*
Y919480D02*
D03*
Y944880D02*
D03*
Y970280D02*
D03*
Y995680D02*
D03*
Y1021080D02*
D03*
X1277000Y525800D02*
D03*
Y551200D02*
D03*
Y576600D02*
D03*
Y602000D02*
D03*
Y627400D02*
D03*
X1264122Y1146260D02*
D03*
X1743940Y530922D02*
D03*
X1769340Y505522D02*
D03*
Y530922D02*
D03*
X669036Y804672D02*
D03*
Y830072D02*
D03*
X694436Y804672D02*
D03*
Y830072D02*
D03*
X719836Y804672D02*
D03*
X1351280Y588010D02*
D03*
X1737360Y1066800D02*
D03*
X1711960D02*
D03*
X1686560D02*
D03*
X1661160D02*
D03*
X1635760D02*
D03*
X1610360D02*
D03*
X1584960D02*
D03*
X1559560D02*
D03*
X1534160D02*
D03*
X1508760D02*
D03*
Y1092200D02*
D03*
X1534160D02*
D03*
X1559560D02*
D03*
X1584960D02*
D03*
X1610360D02*
D03*
X1635760D02*
D03*
X1661160D02*
D03*
X1686560D02*
D03*
X1711960D02*
D03*
X1737360D02*
D03*
Y1117600D02*
D03*
X1711960D02*
D03*
X1686560D02*
D03*
X1661160D02*
D03*
X1635760D02*
D03*
X1610360D02*
D03*
X1584960D02*
D03*
X1559560D02*
D03*
X1534160D02*
D03*
X1508760D02*
D03*
Y1143000D02*
D03*
X1534160D02*
D03*
X1559560D02*
D03*
X1584960D02*
D03*
X1610360D02*
D03*
X1635760D02*
D03*
X1661160D02*
D03*
X1686560D02*
D03*
X1711960D02*
D03*
X1737360D02*
D03*
Y1168400D02*
D03*
X1711960D02*
D03*
X1686560D02*
D03*
X1661160D02*
D03*
X1635760D02*
D03*
X1610360D02*
D03*
X1584960D02*
D03*
X1559560D02*
D03*
X1534160D02*
D03*
X1508760D02*
D03*
X1184600Y40000D02*
D03*
D46*
X1041200Y160000D02*
D03*
X367554Y32988D02*
D03*
X1288296Y40628D02*
D03*
X676690Y403916D02*
D03*
D47*
X1015800Y160000D02*
D03*
X990400D02*
D03*
X965000D02*
D03*
X939600D02*
D03*
X914200D02*
D03*
X342154Y32988D02*
D03*
X1416504Y137064D02*
D03*
Y111664D02*
D03*
X1339096Y40628D02*
D03*
X1313696D02*
D03*
X1420372Y1175114D02*
D03*
Y1149714D02*
D03*
X569214Y706628D02*
D03*
Y681228D02*
D03*
X570484Y806958D02*
D03*
Y781558D02*
D03*
X758444Y644398D02*
D03*
Y618998D02*
D03*
X702090Y403916D02*
D03*
X727490D02*
D03*
X549910Y568960D02*
D03*
D48*
X1277000Y652800D02*
D03*
X1264122Y1120860D02*
D03*
X611124Y699008D02*
D03*
D49*
X327710Y658972D02*
D03*
Y1039972D02*
D03*
X490270Y658972D02*
D03*
Y1039972D02*
D03*
X1719526Y109632D02*
D03*
D50*
X1074260Y1005850D02*
D03*
X1048860D02*
D03*
X1023460D02*
D03*
D51*
X998060D02*
D03*
D52*
X1319788Y1156826D02*
D03*
D53*
Y1144126D02*
D03*
Y1131426D02*
D03*
D54*
X144830Y171292D02*
D03*
Y145892D02*
D03*
X170230Y120492D02*
D03*
X195630D02*
D03*
X221030D02*
D03*
X195630Y196692D02*
D03*
X221030D02*
D03*
X170230D02*
D03*
D55*
X142290Y1024642D02*
D03*
D56*
Y938192D02*
D03*
Y382092D02*
D03*
X675000Y1001000D02*
D03*
X774000D02*
D03*
X674800Y1035000D02*
D03*
X774000D02*
D03*
X662000Y510000D02*
D03*
X761000D02*
D03*
X661800Y544000D02*
D03*
X761000D02*
D03*
Y1162000D02*
D03*
X661800D02*
D03*
X761000Y1128000D02*
D03*
X662000D02*
D03*
X432000Y1160000D02*
D03*
X332800D02*
D03*
X432000Y1126000D02*
D03*
X333000D02*
D03*
D57*
X446600Y97972D02*
D03*
X376600D02*
D03*
X486600Y277972D02*
D03*
X336600D02*
D03*
X946800Y67000D02*
D03*
X1023000D02*
D03*
X941800Y1135000D02*
D03*
X1018000D02*
D03*
D58*
X180900Y1161000D02*
D03*
X257100D02*
D03*
X770814Y875738D02*
D03*
Y748738D02*
D03*
X256100Y1118000D02*
D03*
X179900D02*
D03*
D59*
X1319160Y938880D02*
D03*
X1293760D02*
D03*
D60*
X1743940Y505522D02*
D03*
X719836Y830072D02*
D03*
X614172Y830580D02*
D03*
X1210000Y40000D02*
D03*
D61*
X680000Y122000D02*
D03*
X765000D02*
D03*
D62*
X368757Y359969D02*
D03*
X443738D02*
D03*
X336245D02*
D03*
X476250D02*
D03*
X336245Y588010D02*
D03*
X476250D02*
D03*
D63*
X1455366Y147732D02*
D03*
Y122332D02*
D03*
Y96932D02*
D03*
Y71532D02*
D03*
D64*
X1416504Y86264D02*
D03*
X1420372Y1124314D02*
D03*
X569214Y732028D02*
D03*
X570484Y832358D02*
D03*
X758444Y669798D02*
D03*
X549910Y594360D02*
D03*
D65*
X1833118Y50800D02*
D03*
Y1153668D02*
D03*
X50800D02*
D03*
Y50800D02*
D03*
D66*
X1319792Y139434D02*
D03*
D67*
X1307092D02*
D03*
X1294392D02*
D03*
D68*
X1439810Y1003820D02*
D03*
Y826020D02*
D03*
D69*
X1195070Y516890D02*
D03*
X1224000Y516000D02*
D03*
X509270Y476250D02*
D03*
X397510Y321310D02*
D03*
X1050290Y1036320D02*
D03*
X716280Y285750D02*
D03*
X927100Y393700D02*
D03*
X970000Y402000D02*
D03*
X1157999Y578001D02*
D03*
X719999Y701999D02*
D03*
X826000Y714000D02*
D03*
X930000Y716000D02*
D03*
X1320000Y1036000D02*
D03*
X1326000Y986000D02*
D03*
X820000Y638000D02*
D03*
X818000Y604000D02*
D03*
X952000Y704000D02*
D03*
X1080000Y626000D02*
D03*
X1181998Y655999D02*
D03*
X1226000Y680000D02*
D03*
X730000Y858000D02*
D03*
X692000Y862000D02*
D03*
X956000Y934000D02*
D03*
X1192000Y700000D02*
D03*
X1297440Y66560D02*
D03*
X1346560D02*
D03*
X1474000Y422000D02*
D03*
Y396000D02*
D03*
X1510000Y380000D02*
D03*
X1095850Y1005850D02*
D03*
X719198Y221198D02*
D03*
X750000Y182000D02*
D03*
X1083998Y317999D02*
D03*
X1072500Y264500D02*
D03*
X1069239Y393239D02*
D03*
X1004000Y418000D02*
D03*
X898000Y430000D02*
D03*
X1214000Y960000D02*
D03*
Y988000D02*
D03*
X689999Y751999D02*
D03*
X1256200Y525800D02*
D03*
X1008000Y372000D02*
D03*
X750000Y252000D02*
D03*
X1376000Y191068D02*
D03*
X706000Y634000D02*
D03*
X614000Y1076000D02*
D03*
X1173307Y62000D02*
D03*
Y316693D02*
D03*
X1146000Y472000D02*
D03*
X734000Y648000D02*
D03*
X788000Y382000D02*
D03*
X670000Y478000D02*
D03*
X1184000Y962000D02*
D03*
X1172000Y992000D02*
D03*
X1048000Y630000D02*
D03*
X962000Y646000D02*
D03*
Y616000D02*
D03*
X1129998Y613999D02*
D03*
X1109998Y609999D02*
D03*
X764000Y424000D02*
D03*
X1256000Y484000D02*
D03*
X1258000Y326000D02*
D03*
X1120000Y176000D02*
D03*
X1225997Y643999D02*
D03*
X1202000Y644000D02*
D03*
X1110000Y626000D02*
D03*
X608000Y578000D02*
D03*
X719192Y602000D02*
D03*
X1172000Y676000D02*
D03*
X1184000Y630000D02*
D03*
X156000Y1162000D02*
D03*
X1107749Y243749D02*
D03*
X1044000Y244000D02*
D03*
X904202Y550477D02*
D03*
X752000Y234000D02*
D03*
X1160000Y522000D02*
D03*
X1204000Y590000D02*
D03*
X1182932Y573478D02*
D03*
X1225997Y575999D02*
D03*
X692732Y369800D02*
D03*
X666000Y382000D02*
D03*
X1122000Y526000D02*
D03*
X1050000Y500000D02*
D03*
X1064000Y480000D02*
D03*
X1146000Y508000D02*
D03*
X1142000Y594000D02*
D03*
X1108000Y668000D02*
D03*
X1266000Y742000D02*
D03*
X720000Y660000D02*
D03*
X652000Y714000D02*
D03*
X1356000Y1020000D02*
D03*
X1338210Y1030210D02*
D03*
X1114000Y380000D02*
D03*
X1496000Y430000D02*
D03*
X1100000Y530000D02*
D03*
X1076000Y546000D02*
D03*
X1092000Y556000D02*
D03*
X1105998Y573999D02*
D03*
X1742440Y557530D02*
D03*
X420370Y323850D02*
D03*
X662000Y580000D02*
D03*
X885190Y562610D02*
D03*
X1247140Y598424D02*
D03*
X1290066Y722630D02*
D03*
X177800Y434340D02*
D03*
M02*
