M48
;Layer_Color=9474304
;FILE_FORMAT=4:4
METRIC,LZ
;TYPE=PLATED
T1F00S00C0.5000
T2F00S00C0.7000
T3F00S00C0.7112
T4F00S00C0.7976
T5F00S00C0.8500
T6F00S00C0.8890
T7F00S00C0.9000
T9F00S00C1.0000
T10F00S00C1.0160
T11F00S00C1.1989
T12F00S00C1.2000
T13F00S00C1.9000
T14F00S00C2.0000
T15F00S00C3.0000
T16F00S00C3.2000
;TYPE=NON_PLATED
T17F00S00C3.0000
%
T01
X0129376Y0093888
X0131916
T02
X01294392Y00139434
X01307092
X01319792
X01319788Y01131426
Y01144126
Y01156826
T03
X01173307Y00062
X0129744Y0006656
X0134656
X01376Y00191068
X01258Y00326
X01173307Y00316693
X01083998Y00317999
X01107749Y00243749
X0112Y00176
X010725Y002645
X01044Y00244
X0075Y00252
X00752Y00234
X00719198Y00221198
X0071628Y0028575
X0075Y00182
X0042037Y0032385
X0039751Y0032131
X001778Y0043434
X0050927Y0047625
X0067Y00478
X00666Y00382
X00662Y0058
X00608Y00578
X00652Y00714
X00719999Y00701999
X0072Y0066
X00734Y00648
X00706Y00634
X00719192Y00602
X00818Y00604
X0082Y00638
X00826Y00714
X0093Y00716
X00952Y00704
X00962Y00646
Y00616
X01048Y0063
X0108Y00626
X01076Y00546
X0105Y005
X01064Y0048
X01069239Y00393239
X01008Y00372
X01004Y00418
X0097Y00402
X009271Y003937
X00898Y0043
X00904202Y00550477
X0088519Y0056261
X00764Y00424
X00788Y00382
X00692732Y003698
X01114Y0038
X01146Y00472
Y00508
X0116Y00522
X0119507Y0051689
X01224Y00516
X012562Y005258
X01256Y00484
X01225997Y00575999
X01204Y0059
X01182932Y00573478
X01157999Y00578001
X01142Y00594
X01129998Y00613999
X01109998Y00609999
X0111Y00626
X01108Y00668
X01172Y00676
X01181998Y00655999
X01184Y0063
X01202Y00644
X01225997Y00643999
X01226Y0068
X01192Y007
X01266Y00742
X01290066Y0072263
X0124714Y00598424
X01105998Y00573999
X01092Y00556
X011Y0053
X01122Y00526
X01474Y00422
Y00396
X0151Y0038
X01496Y0043
X0174244Y0055753
X01326Y00986
X0132Y01036
X0133821Y0103021
X01356Y0102
X01214Y00988
Y0096
X01184Y00962
X01172Y00992
X0109585Y0100585
X0105029Y0103632
X00956Y00934
X0073Y00858
X00692Y00862
X00689999Y00751999
X00614Y01076
X00156Y01162
T04
X01455366Y00071532
Y00096932
Y00122332
Y00147732
T05
X00770814Y00748738
Y00875738
X002561Y01118
X001799
X001809Y01161
X002571
T06
X01288296Y00040628
X01313696
X01339096
X01416504Y00086264
Y00111664
Y00137064
X010412Y0016
X010158
X009904
X00965
X009396
X009142
X00367554Y00032988
X00342154
X0067669Y00403916
X0054991Y0056896
Y0059436
X00569214Y00681228
Y00706628
Y00732028
X00758444Y00669798
Y00644398
Y00618998
X0072749Y00403916
X0070209
X01420372Y01124314
X00570484Y00832358
Y00806958
Y00781558
X01420372Y01149714
Y01175114
T07
X011846Y0004
X0121
X00611124Y00699008
X01277Y006528
Y006274
Y00602
Y005766
Y005512
Y005258
X0135128Y0058801
X0174394Y00530922
Y00505522
X0176934
Y00530922
X0176911Y0079248
X0174371
Y0081788
Y0084328
Y0086868
Y0089408
Y0091948
Y0094488
Y0097028
Y0099568
Y0102108
X0176911
Y0099568
Y0097028
Y0094488
Y0091948
Y0089408
Y0086868
Y0084328
Y0081788
X0179451
Y0079248
X0181991
Y0081788
Y0084328
X0179451
Y0086868
Y0089408
Y0091948
Y0094488
Y0097028
Y0099568
Y0102108
X0181991
Y0099568
Y0097028
Y0094488
Y0091948
Y0089408
Y0086868
X0184531
Y0084328
Y0081788
Y0079248
Y0089408
Y0091948
Y0094488
Y0097028
Y0099568
Y0102108
X0173736Y010668
X0171196
X0168656
X0166116
X0163576
X0161036
X0158496
X0155956
X0153416
X0150876
Y010922
X0153416
X0155956
X0158496
X0161036
X0163576
X0166116
X0168656
X0171196
X0173736
Y011176
X0171196
X0168656
X0166116
X0163576
X0161036
X0158496
X0155956
X0153416
X0150876
X01264122Y0112086
X00719836Y00830072
X00694436
Y00804672
X00719836
X00669036
Y00830072
X00614172Y0083058
X01264122Y0114626
X0150876Y01143
X0153416
X0155956
X0158496
X0161036
X0163576
X0166116
X0168656
X0171196
X0173736
Y011684
X0171196
X0168656
X0166116
X0163576
X0161036
X0158496
X0155956
X0153416
X0150876
T09
X009468Y00067
X01023
X0143981Y0082602
Y0100382
X0107426Y0100585
X0104886
X0102346
X0099806
X01018Y01135
X009418
T10
X0014483Y00145892
Y00171292
X0017023Y00196692
X0019563
X0022103
Y00120492
X0019563
X0017023
T11
X00336245Y00359969
X00368757
X00443738
X0047625
Y0058801
X00336245
T12
X00765Y00122
X0068
X004466Y00097972
X003766
X003366Y00277972
X004866
T13
X00662Y0051
X006618Y00544
X00761
Y0051
X00774Y01001
Y01035
X00761Y01128
X00662
X006748Y01035
X00675Y01001
X00432Y01126
X00333
X003328Y0116
X00432
X006618Y01162
X00761
T14
X0014229Y00295642
Y01024642
T15
X01833118Y000508
X000508
Y01153668
X01833118
T16
X0014229Y00382092
Y00938192
T17
X01719526Y00109632
M30
