G04 Layer_Color=32768*
%FSLAX44Y44*%
%MOMM*%
G71*
G01*
G75*
%ADD71C,0.0000*%
%ADD142R,15.2400X2.5400*%
%ADD143R,5.0800X2.5400*%
%ADD144R,7.0099X7.0099*%
%ADD145R,3.1750X1.7780*%
%ADD146R,1.7780X4.3180*%
%ADD147R,2.5400X7.6200*%
%ADD148R,3.1999X4.2001*%
%ADD149R,7.6200X2.5400*%
%ADD150R,1.7780X3.1750*%
%ADD151R,4.3180X1.7780*%
%ADD152R,2.5400X5.0800*%
D71*
X1053900Y147300D02*
Y172700D01*
X901500Y147300D02*
X1053900D01*
X901500D02*
Y172700D01*
X1053900D01*
X380254Y20288D02*
Y45688D01*
X329454Y20288D02*
X380254D01*
X329454Y45688D02*
X380254D01*
X1429204Y73564D02*
Y149764D01*
X1403804D02*
X1429204D01*
X1403804Y73564D02*
Y149764D01*
Y73564D02*
X1429204D01*
X1275596Y27928D02*
X1351796D01*
Y53328D01*
X1275596D02*
X1351796D01*
X1275596Y27928D02*
Y53328D01*
X1433072Y1111614D02*
Y1187814D01*
X1407672D02*
X1433072D01*
X1407672Y1111614D02*
Y1187814D01*
Y1111614D02*
X1433072D01*
X556514Y744728D02*
X581914D01*
Y668528D02*
Y744728D01*
X556514Y668528D02*
X581914D01*
X556514D02*
Y744728D01*
X557784Y845058D02*
X583184D01*
Y768858D02*
Y845058D01*
X557784Y768858D02*
X583184D01*
X557784D02*
Y845058D01*
X745744Y682498D02*
X771144D01*
Y606298D02*
Y682498D01*
X745744Y606298D02*
X771144D01*
X745744D02*
Y682498D01*
X663990Y391216D02*
Y416616D01*
X740190D01*
Y391216D02*
Y416616D01*
X663990Y391216D02*
X740190D01*
X537210Y607060D02*
X562610D01*
Y556260D02*
Y607060D01*
X537210Y556260D02*
Y607060D01*
D142*
X977700Y160001D02*
D03*
D143*
X354854Y32988D02*
D03*
D144*
X1096000Y550000D02*
D03*
D145*
X693674Y652018D02*
D03*
X465852Y32734D02*
D03*
X730030Y339146D02*
D03*
D146*
X664589Y227259D02*
D03*
X881380Y993140D02*
D03*
X991870Y565151D02*
D03*
X1279028Y983585D02*
D03*
X1340902Y765500D02*
D03*
X666530Y350578D02*
D03*
D147*
X1416504Y111664D02*
D03*
X1420372Y1149714D02*
D03*
X569214Y706628D02*
D03*
X570484Y806958D02*
D03*
X758444Y644398D02*
D03*
D148*
X884983Y283851D02*
D03*
X992001Y284001D02*
D03*
X1097002Y284000D02*
D03*
D149*
X1313697Y40628D02*
D03*
X702092Y403916D02*
D03*
D150*
X1224000Y484000D02*
D03*
X1746480Y276668D02*
D03*
X1404850Y461834D02*
D03*
D151*
X1603224Y279716D02*
D03*
D152*
X549910Y581660D02*
D03*
M02*
