G04 Layer_Color=16711935*
%FSLAX44Y44*%
%MOMM*%
G71*
G01*
G75*
%ADD106C,4.2032*%
%ADD114C,1.7032*%
%ADD115R,1.8542X1.8542*%
%ADD116C,1.8542*%
%ADD117R,1.7032X1.7032*%
%ADD118C,3.2032*%
%ADD119C,2.2032*%
%ADD120R,2.2032X2.2032*%
%ADD121O,2.2032X1.2032*%
%ADD122O,2.2032X1.2032*%
%ADD123C,2.0828*%
%ADD124R,4.2032X4.2032*%
%ADD125C,3.2032*%
%ADD126C,2.2032*%
%ADD127C,1.6032*%
%ADD128C,1.0032*%
%ADD129R,1.7032X1.7032*%
%ADD130C,2.7432*%
%ADD131R,2.0032X2.0032*%
%ADD132R,2.3622X1.4021*%
%ADD133R,1.8542X1.8542*%
%ADD134C,5.2032*%
%ADD135O,1.2032X2.2032*%
%ADD136O,1.2032X2.2032*%
%ADD137C,1.8032*%
%ADD138C,1.4732*%
D106*
X142290Y295642D02*
D03*
D114*
X1743710Y792480D02*
D03*
Y817880D02*
D03*
Y843280D02*
D03*
Y868680D02*
D03*
Y894080D02*
D03*
Y919480D02*
D03*
Y944880D02*
D03*
Y970280D02*
D03*
Y995680D02*
D03*
Y1021080D02*
D03*
X1769110D02*
D03*
Y995680D02*
D03*
Y970280D02*
D03*
Y944880D02*
D03*
Y919480D02*
D03*
Y894080D02*
D03*
Y868680D02*
D03*
Y843280D02*
D03*
Y817880D02*
D03*
Y792480D02*
D03*
X1794510D02*
D03*
Y817880D02*
D03*
Y843280D02*
D03*
Y868680D02*
D03*
Y894080D02*
D03*
Y919480D02*
D03*
Y944880D02*
D03*
Y970280D02*
D03*
Y995680D02*
D03*
Y1021080D02*
D03*
X1819910D02*
D03*
Y995680D02*
D03*
Y970280D02*
D03*
Y944880D02*
D03*
Y919480D02*
D03*
Y894080D02*
D03*
Y868680D02*
D03*
Y843280D02*
D03*
Y817880D02*
D03*
Y792480D02*
D03*
X1845310D02*
D03*
Y817880D02*
D03*
Y843280D02*
D03*
Y868680D02*
D03*
Y894080D02*
D03*
Y919480D02*
D03*
Y944880D02*
D03*
Y970280D02*
D03*
Y995680D02*
D03*
Y1021080D02*
D03*
X1277000Y525800D02*
D03*
Y551200D02*
D03*
Y576600D02*
D03*
Y602000D02*
D03*
Y627400D02*
D03*
X1264122Y1146260D02*
D03*
X1743940Y530922D02*
D03*
X1769340Y505522D02*
D03*
Y530922D02*
D03*
X669036Y804672D02*
D03*
Y830072D02*
D03*
X694436Y804672D02*
D03*
Y830072D02*
D03*
X719836Y804672D02*
D03*
X1351280Y588010D02*
D03*
X1737360Y1066800D02*
D03*
X1711960D02*
D03*
X1686560D02*
D03*
X1661160D02*
D03*
X1635760D02*
D03*
X1610360D02*
D03*
X1584960D02*
D03*
X1559560D02*
D03*
X1534160D02*
D03*
X1508760D02*
D03*
Y1092200D02*
D03*
X1534160D02*
D03*
X1559560D02*
D03*
X1584960D02*
D03*
X1610360D02*
D03*
X1635760D02*
D03*
X1661160D02*
D03*
X1686560D02*
D03*
X1711960D02*
D03*
X1737360D02*
D03*
Y1117600D02*
D03*
X1711960D02*
D03*
X1686560D02*
D03*
X1661160D02*
D03*
X1635760D02*
D03*
X1610360D02*
D03*
X1584960D02*
D03*
X1559560D02*
D03*
X1534160D02*
D03*
X1508760D02*
D03*
Y1143000D02*
D03*
X1534160D02*
D03*
X1559560D02*
D03*
X1584960D02*
D03*
X1610360D02*
D03*
X1635760D02*
D03*
X1661160D02*
D03*
X1686560D02*
D03*
X1711960D02*
D03*
X1737360D02*
D03*
Y1168400D02*
D03*
X1711960D02*
D03*
X1686560D02*
D03*
X1661160D02*
D03*
X1635760D02*
D03*
X1610360D02*
D03*
X1584960D02*
D03*
X1559560D02*
D03*
X1534160D02*
D03*
X1508760D02*
D03*
X1184600Y40000D02*
D03*
D115*
X1041200Y160000D02*
D03*
X367554Y32988D02*
D03*
X1288296Y40628D02*
D03*
X676690Y403916D02*
D03*
D116*
X1015800Y160000D02*
D03*
X990400D02*
D03*
X965000D02*
D03*
X939600D02*
D03*
X914200D02*
D03*
X342154Y32988D02*
D03*
X1416504Y137064D02*
D03*
Y111664D02*
D03*
X1339096Y40628D02*
D03*
X1313696D02*
D03*
X1420372Y1175114D02*
D03*
Y1149714D02*
D03*
X569214Y706628D02*
D03*
Y681228D02*
D03*
X570484Y806958D02*
D03*
Y781558D02*
D03*
X758444Y644398D02*
D03*
Y618998D02*
D03*
X702090Y403916D02*
D03*
X727490D02*
D03*
X549910Y568960D02*
D03*
D117*
X1277000Y652800D02*
D03*
X1264122Y1120860D02*
D03*
X611124Y699008D02*
D03*
D118*
X327710Y658972D02*
D03*
Y1039972D02*
D03*
X490270Y658972D02*
D03*
Y1039972D02*
D03*
X1719526Y109632D02*
D03*
D119*
X1074260Y1005850D02*
D03*
X1048860D02*
D03*
X1023460D02*
D03*
D120*
X998060D02*
D03*
D121*
X1319788Y1156826D02*
D03*
D122*
Y1144126D02*
D03*
Y1131426D02*
D03*
D123*
X144830Y171292D02*
D03*
Y145892D02*
D03*
X170230Y120492D02*
D03*
X195630D02*
D03*
X221030D02*
D03*
X195630Y196692D02*
D03*
X221030D02*
D03*
X170230D02*
D03*
D124*
X142290Y1024642D02*
D03*
D125*
Y938192D02*
D03*
Y382092D02*
D03*
X675000Y1001000D02*
D03*
X774000D02*
D03*
X674800Y1035000D02*
D03*
X774000D02*
D03*
X662000Y510000D02*
D03*
X761000D02*
D03*
X661800Y544000D02*
D03*
X761000D02*
D03*
Y1162000D02*
D03*
X661800D02*
D03*
X761000Y1128000D02*
D03*
X662000D02*
D03*
X432000Y1160000D02*
D03*
X332800D02*
D03*
X432000Y1126000D02*
D03*
X333000D02*
D03*
D126*
X446600Y97972D02*
D03*
X376600D02*
D03*
X486600Y277972D02*
D03*
X336600D02*
D03*
X946800Y67000D02*
D03*
X1023000D02*
D03*
X941800Y1135000D02*
D03*
X1018000D02*
D03*
D127*
X180900Y1161000D02*
D03*
X257100D02*
D03*
X770814Y875738D02*
D03*
Y748738D02*
D03*
X256100Y1118000D02*
D03*
X179900D02*
D03*
D128*
X1319160Y938880D02*
D03*
X1293760D02*
D03*
D129*
X1743940Y505522D02*
D03*
X719836Y830072D02*
D03*
X614172Y830580D02*
D03*
X1210000Y40000D02*
D03*
D130*
X680000Y122000D02*
D03*
X765000D02*
D03*
D131*
X368757Y359969D02*
D03*
X443738D02*
D03*
X336245D02*
D03*
X476250D02*
D03*
X336245Y588010D02*
D03*
X476250D02*
D03*
D132*
X1455366Y147732D02*
D03*
Y122332D02*
D03*
Y96932D02*
D03*
Y71532D02*
D03*
D133*
X1416504Y86264D02*
D03*
X1420372Y1124314D02*
D03*
X569214Y732028D02*
D03*
X570484Y832358D02*
D03*
X758444Y669798D02*
D03*
X549910Y594360D02*
D03*
D134*
X1833118Y50800D02*
D03*
Y1153668D02*
D03*
X50800D02*
D03*
Y50800D02*
D03*
D135*
X1319792Y139434D02*
D03*
D136*
X1307092D02*
D03*
X1294392D02*
D03*
D137*
X1439810Y1003820D02*
D03*
Y826020D02*
D03*
D138*
X1195070Y516890D02*
D03*
X1224000Y516000D02*
D03*
X509270Y476250D02*
D03*
X397510Y321310D02*
D03*
X1050290Y1036320D02*
D03*
X716280Y285750D02*
D03*
X927100Y393700D02*
D03*
X970000Y402000D02*
D03*
X1157999Y578001D02*
D03*
X719999Y701999D02*
D03*
X826000Y714000D02*
D03*
X930000Y716000D02*
D03*
X1320000Y1036000D02*
D03*
X1326000Y986000D02*
D03*
X820000Y638000D02*
D03*
X818000Y604000D02*
D03*
X952000Y704000D02*
D03*
X1080000Y626000D02*
D03*
X1181998Y655999D02*
D03*
X1226000Y680000D02*
D03*
X730000Y858000D02*
D03*
X692000Y862000D02*
D03*
X956000Y934000D02*
D03*
X1192000Y700000D02*
D03*
X1297440Y66560D02*
D03*
X1346560D02*
D03*
X1474000Y422000D02*
D03*
Y396000D02*
D03*
X1510000Y380000D02*
D03*
X1095850Y1005850D02*
D03*
X719198Y221198D02*
D03*
X750000Y182000D02*
D03*
X1083998Y317999D02*
D03*
X1072500Y264500D02*
D03*
X1069239Y393239D02*
D03*
X1004000Y418000D02*
D03*
X898000Y430000D02*
D03*
X1214000Y960000D02*
D03*
Y988000D02*
D03*
X689999Y751999D02*
D03*
X1256200Y525800D02*
D03*
X1008000Y372000D02*
D03*
X750000Y252000D02*
D03*
X1376000Y191068D02*
D03*
X706000Y634000D02*
D03*
X614000Y1076000D02*
D03*
X1173307Y62000D02*
D03*
Y316693D02*
D03*
X1146000Y472000D02*
D03*
X734000Y648000D02*
D03*
X788000Y382000D02*
D03*
X670000Y478000D02*
D03*
X1184000Y962000D02*
D03*
X1172000Y992000D02*
D03*
X1048000Y630000D02*
D03*
X962000Y646000D02*
D03*
Y616000D02*
D03*
X1129998Y613999D02*
D03*
X1109998Y609999D02*
D03*
X764000Y424000D02*
D03*
X1256000Y484000D02*
D03*
X1258000Y326000D02*
D03*
X1120000Y176000D02*
D03*
X1225997Y643999D02*
D03*
X1202000Y644000D02*
D03*
X1110000Y626000D02*
D03*
X608000Y578000D02*
D03*
X719192Y602000D02*
D03*
X1172000Y676000D02*
D03*
X1184000Y630000D02*
D03*
X156000Y1162000D02*
D03*
X1107749Y243749D02*
D03*
X1044000Y244000D02*
D03*
X904202Y550477D02*
D03*
X752000Y234000D02*
D03*
X1160000Y522000D02*
D03*
X1204000Y590000D02*
D03*
X1182932Y573478D02*
D03*
X1225997Y575999D02*
D03*
X692732Y369800D02*
D03*
X666000Y382000D02*
D03*
X1122000Y526000D02*
D03*
X1050000Y500000D02*
D03*
X1064000Y480000D02*
D03*
X1146000Y508000D02*
D03*
X1142000Y594000D02*
D03*
X1108000Y668000D02*
D03*
X1266000Y742000D02*
D03*
X720000Y660000D02*
D03*
X652000Y714000D02*
D03*
X1356000Y1020000D02*
D03*
X1338210Y1030210D02*
D03*
X1114000Y380000D02*
D03*
X1496000Y430000D02*
D03*
X1100000Y530000D02*
D03*
X1076000Y546000D02*
D03*
X1092000Y556000D02*
D03*
X1105998Y573999D02*
D03*
X1742440Y557530D02*
D03*
X420370Y323850D02*
D03*
X662000Y580000D02*
D03*
X885190Y562610D02*
D03*
X1247140Y598424D02*
D03*
X1290066Y722630D02*
D03*
X177800Y434340D02*
D03*
M02*
