G04 Layer_Color=16711935*
%FSLAX44Y44*%
%MOMM*%
G71*
G01*
G75*
%ADD80C,0.1000*%
D80*
X701848Y218544D02*
G03*
X701848Y218544I-5000J0D01*
G01*
X640860Y873142D02*
Y891142D01*
X674860Y873142D02*
Y891142D01*
X640860D02*
X674860D01*
X640860Y873142D02*
X674860D01*
X687848Y209544D02*
X737848D01*
X687848Y249544D02*
X737848D01*
X687848Y209544D02*
Y249544D01*
X737848Y209544D02*
Y249544D01*
X624318Y217662D02*
Y239662D01*
X638818Y217662D02*
Y239662D01*
X624318Y217662D02*
X638818D01*
X624318Y239662D02*
X638818D01*
X540000Y1076750D02*
Y1091250D01*
X562000Y1076750D02*
Y1091250D01*
X540000D02*
X562000D01*
X540000Y1076750D02*
X562000D01*
X1008750Y581000D02*
X1023250D01*
X1008750Y559000D02*
X1023250Y559000D01*
Y581000D01*
X1008750Y559000D02*
Y581000D01*
X1247648Y972972D02*
X1262148D01*
X1247648Y994972D02*
X1262148D01*
X1247648Y972972D02*
Y994972D01*
X1262148Y972972D02*
Y994972D01*
X1355750Y777008D02*
X1370250D01*
X1355750Y755008D02*
X1370250D01*
Y777008D01*
X1355750Y755008D02*
Y777008D01*
X668860Y687948D02*
Y702448D01*
X646860Y687948D02*
Y702448D01*
Y687948D02*
X668860D01*
X646860Y702448D02*
X668860D01*
X1197180Y527420D02*
Y541920D01*
X1175180Y527420D02*
Y541920D01*
Y527420D02*
X1197180D01*
X1175180Y541920D02*
X1197180D01*
X968454Y515096D02*
Y529596D01*
X990454Y515096D02*
Y529596D01*
X968454D02*
X990454D01*
X968454Y515096D02*
X990454D01*
X968454Y476996D02*
Y491496D01*
X990454Y476996D02*
Y491496D01*
X968454D02*
X990454D01*
X968454Y476996D02*
X990454D01*
X843650Y987220D02*
X858150D01*
X843650Y1009220D02*
X858150D01*
X843650Y987220D02*
Y1009220D01*
X858150Y987220D02*
Y1009220D01*
X1616256Y243256D02*
Y257756D01*
X1594256Y243256D02*
Y257756D01*
Y243256D02*
X1616256D01*
X1594256Y257756D02*
X1616256D01*
X630290Y654480D02*
X644790D01*
X630290Y676480D02*
X644790D01*
X630290Y654480D02*
Y676480D01*
X644790Y654480D02*
Y676480D01*
X762750Y189000D02*
Y211000D01*
X777250Y189000D02*
Y211000D01*
X762750Y189000D02*
X777250D01*
X762750Y211000D02*
X777250D01*
X861714Y593036D02*
X876214D01*
X861714Y571036D02*
X876214D01*
Y593036D01*
X861714Y571036D02*
Y593036D01*
M02*
