G04 Layer_Color=32768*
%FSLAX44Y44*%
%MOMM*%
G71*
G01*
G75*
%ADD40C,0.2540*%
%ADD80C,0.1000*%
D40*
X428673Y558660D02*
X440614D01*
X428673D02*
Y572630D01*
X384477Y558660D02*
Y572630D01*
X428673D01*
X372539Y601586D02*
X440614D01*
X372539Y558660D02*
X384477D01*
D80*
X637860Y872642D02*
Y891642D01*
X677860Y872642D02*
Y891642D01*
X637860D02*
X677860D01*
X637860Y872642D02*
X677860D01*
X652860Y882142D02*
X662860D01*
X657860Y877142D02*
Y887142D01*
X1319788Y1139127D02*
Y1149127D01*
X1314788Y1144126D02*
X1324788D01*
X685348Y192044D02*
X740348D01*
X685348Y267044D02*
X740348D01*
X685348Y192044D02*
Y267044D01*
X740348Y192044D02*
Y267044D01*
X712848Y224544D02*
Y234544D01*
X707848Y229544D02*
X717848D01*
X626568Y228662D02*
X636568D01*
X631568Y223662D02*
Y233662D01*
X623568Y214662D02*
Y242662D01*
X639568Y214662D02*
Y242662D01*
X623568Y214662D02*
X639568D01*
X623568Y242662D02*
X639568D01*
X537000Y1076000D02*
Y1092000D01*
X565000Y1076000D02*
Y1092000D01*
X537000D02*
X565000D01*
X537000Y1076000D02*
X565000D01*
X546000Y1084000D02*
X556000D01*
X551000Y1079000D02*
Y1089000D01*
X1008000Y584000D02*
X1024000D01*
X1008000Y556000D02*
X1024000D01*
Y584000D01*
X1008000Y556000D02*
Y584000D01*
X1016000Y565000D02*
Y575000D01*
X1011000Y570000D02*
X1021000D01*
X1246898Y969972D02*
X1262898D01*
X1246898Y997972D02*
X1262898D01*
X1246898Y969972D02*
Y997972D01*
X1262898Y969972D02*
Y997972D01*
X1254898Y978972D02*
Y988972D01*
X1249898Y983972D02*
X1259898D01*
X1355000Y780008D02*
X1371000D01*
X1355000Y752008D02*
X1371000D01*
Y780008D01*
X1355000Y752008D02*
Y780008D01*
X1363000Y761008D02*
Y771008D01*
X1358000Y766008D02*
X1368000D01*
X671860Y687198D02*
Y703198D01*
X643860Y687198D02*
Y703198D01*
Y687198D02*
X671860D01*
X643860Y703198D02*
X671860D01*
X652860Y695198D02*
X662860D01*
X657860Y690198D02*
Y700198D01*
X1200180Y526670D02*
Y542670D01*
X1172180Y526670D02*
Y542670D01*
Y526670D02*
X1200180D01*
X1172180Y542670D02*
X1200180D01*
X1181180Y534670D02*
X1191180D01*
X1186180Y529670D02*
Y539670D01*
X965454Y514346D02*
Y530346D01*
X993454Y514346D02*
Y530346D01*
X965454D02*
X993454D01*
X965454Y514346D02*
X993454D01*
X974454Y522346D02*
X984454D01*
X979454Y517346D02*
Y527346D01*
X965454Y476246D02*
Y492246D01*
X993454Y476246D02*
Y492246D01*
X965454D02*
X993454D01*
X965454Y476246D02*
X993454D01*
X974454Y484246D02*
X984454D01*
X979454Y479246D02*
Y489246D01*
X842900Y984220D02*
X858900D01*
X842900Y1012220D02*
X858900D01*
X842900Y984220D02*
Y1012220D01*
X858900Y984220D02*
Y1012220D01*
X850900Y993220D02*
Y1003220D01*
X845900Y998220D02*
X855900D01*
X1619256Y242506D02*
Y258506D01*
X1591256Y242506D02*
Y258506D01*
Y242506D02*
X1619256D01*
X1591256Y258506D02*
X1619256D01*
X1600256Y250506D02*
X1610256D01*
X1605256Y245506D02*
Y255506D01*
X629540Y651480D02*
X645540D01*
X629540Y679480D02*
X645540D01*
X629540Y651480D02*
Y679480D01*
X645540Y651480D02*
Y679480D01*
X637540Y660480D02*
Y670480D01*
X632540Y665480D02*
X642540D01*
X765000Y200000D02*
X775000D01*
X770000Y195000D02*
Y205000D01*
X762000Y186000D02*
Y214000D01*
X778000Y186000D02*
Y214000D01*
X762000Y186000D02*
X778000D01*
X762000Y214000D02*
X778000D01*
X860964Y596036D02*
X876964D01*
X860964Y568036D02*
X876964D01*
Y596036D01*
X860964Y568036D02*
Y596036D01*
X868964Y577036D02*
Y587036D01*
X863964Y582036D02*
X873964D01*
X1302092Y139434D02*
X1312092D01*
X1307092Y134433D02*
Y144433D01*
M02*
