G04 Layer_Color=8421504*
%FSLAX44Y44*%
%MOMM*%
G71*
G01*
G75*
%ADD10R,2.0000X1.1999*%
%ADD11R,1.1000X1.7000*%
%ADD12R,2.4000X1.7000*%
%ADD13R,1.2700X0.5588*%
%ADD14R,0.5588X1.2700*%
%ADD15R,1.3970X0.4318*%
G04:AMPARAMS|DCode=16|XSize=0.5001mm|YSize=0.5001mm|CornerRadius=0.125mm|HoleSize=0mm|Usage=FLASHONLY|Rotation=90.000|XOffset=0mm|YOffset=0mm|HoleType=Round|Shape=RoundedRectangle|*
%AMROUNDEDRECTD16*
21,1,0.5001,0.2501,0,0,90.0*
21,1,0.2501,0.5001,0,0,90.0*
1,1,0.2501,0.1250,0.1250*
1,1,0.2501,0.1250,-0.1250*
1,1,0.2501,-0.1250,-0.1250*
1,1,0.2501,-0.1250,0.1250*
%
%ADD16ROUNDEDRECTD16*%
G04:AMPARAMS|DCode=17|XSize=0.889mm|YSize=0.889mm|CornerRadius=0.1111mm|HoleSize=0mm|Usage=FLASHONLY|Rotation=270.000|XOffset=0mm|YOffset=0mm|HoleType=Round|Shape=RoundedRectangle|*
%AMROUNDEDRECTD17*
21,1,0.8890,0.6667,0,0,270.0*
21,1,0.6667,0.8890,0,0,270.0*
1,1,0.2223,-0.3334,-0.3334*
1,1,0.2223,-0.3334,0.3334*
1,1,0.2223,0.3334,0.3334*
1,1,0.2223,0.3334,-0.3334*
%
%ADD17ROUNDEDRECTD17*%
G04:AMPARAMS|DCode=18|XSize=1.016mm|YSize=1.397mm|CornerRadius=0.127mm|HoleSize=0mm|Usage=FLASHONLY|Rotation=180.000|XOffset=0mm|YOffset=0mm|HoleType=Round|Shape=RoundedRectangle|*
%AMROUNDEDRECTD18*
21,1,1.0160,1.1430,0,0,180.0*
21,1,0.7620,1.3970,0,0,180.0*
1,1,0.2540,-0.3810,0.5715*
1,1,0.2540,0.3810,0.5715*
1,1,0.2540,0.3810,-0.5715*
1,1,0.2540,-0.3810,-0.5715*
%
%ADD18ROUNDEDRECTD18*%
%ADD19R,1.5000X1.6000*%
G04:AMPARAMS|DCode=20|XSize=0.889mm|YSize=1.27mm|CornerRadius=0.1111mm|HoleSize=0mm|Usage=FLASHONLY|Rotation=0.000|XOffset=0mm|YOffset=0mm|HoleType=Round|Shape=RoundedRectangle|*
%AMROUNDEDRECTD20*
21,1,0.8890,1.0477,0,0,0.0*
21,1,0.6667,1.2700,0,0,0.0*
1,1,0.2223,0.3334,-0.5239*
1,1,0.2223,-0.3334,-0.5239*
1,1,0.2223,-0.3334,0.5239*
1,1,0.2223,0.3334,0.5239*
%
%ADD20ROUNDEDRECTD20*%
%ADD21R,2.5000X1.7000*%
%ADD22O,0.6000X2.2000*%
%ADD23R,1.2700X1.2700*%
%ADD24R,1.4000X1.1000*%
%ADD25R,1.1501X1.3000*%
G04:AMPARAMS|DCode=26|XSize=1.016mm|YSize=1.397mm|CornerRadius=0.127mm|HoleSize=0mm|Usage=FLASHONLY|Rotation=90.000|XOffset=0mm|YOffset=0mm|HoleType=Round|Shape=RoundedRectangle|*
%AMROUNDEDRECTD26*
21,1,1.0160,1.1430,0,0,90.0*
21,1,0.7620,1.3970,0,0,90.0*
1,1,0.2540,0.5715,0.3810*
1,1,0.2540,0.5715,-0.3810*
1,1,0.2540,-0.5715,-0.3810*
1,1,0.2540,-0.5715,0.3810*
%
%ADD26ROUNDEDRECTD26*%
%ADD27R,1.1000X1.4000*%
G04:AMPARAMS|DCode=28|XSize=0.889mm|YSize=0.889mm|CornerRadius=0.1111mm|HoleSize=0mm|Usage=FLASHONLY|Rotation=180.000|XOffset=0mm|YOffset=0mm|HoleType=Round|Shape=RoundedRectangle|*
%AMROUNDEDRECTD28*
21,1,0.8890,0.6667,0,0,180.0*
21,1,0.6667,0.8890,0,0,180.0*
1,1,0.2223,-0.3334,0.3334*
1,1,0.2223,0.3334,0.3334*
1,1,0.2223,0.3334,-0.3334*
1,1,0.2223,-0.3334,-0.3334*
%
%ADD28ROUNDEDRECTD28*%
G04:AMPARAMS|DCode=29|XSize=0.889mm|YSize=1.27mm|CornerRadius=0.1111mm|HoleSize=0mm|Usage=FLASHONLY|Rotation=90.000|XOffset=0mm|YOffset=0mm|HoleType=Round|Shape=RoundedRectangle|*
%AMROUNDEDRECTD29*
21,1,0.8890,1.0477,0,0,90.0*
21,1,0.6667,1.2700,0,0,90.0*
1,1,0.2223,0.5239,0.3334*
1,1,0.2223,0.5239,-0.3334*
1,1,0.2223,-0.5239,-0.3334*
1,1,0.2223,-0.5239,0.3334*
%
%ADD29ROUNDEDRECTD29*%
%ADD30R,1.2700X1.2700*%
%ADD31C,4.0000*%
%ADD32R,1.0000X2.0000*%
%ADD33R,3.5000X2.0000*%
%ADD34C,0.2500*%
%ADD35R,2.5000X1.4000*%
%ADD36R,0.7201X1.7800*%
%ADD37R,1.0000X0.7000*%
%ADD38R,0.7000X1.0000*%
D10*
X1528802Y459594D02*
D03*
Y439594D02*
D03*
Y419594D02*
D03*
Y399591D02*
D03*
Y379591D02*
D03*
Y359591D02*
D03*
Y339591D02*
D03*
Y319591D02*
D03*
X1678804D02*
D03*
Y339591D02*
D03*
Y359591D02*
D03*
Y379591D02*
D03*
Y399591D02*
D03*
Y419594D02*
D03*
Y439594D02*
D03*
Y459594D02*
D03*
D11*
X644360Y882142D02*
D03*
X671360D02*
D03*
D12*
X1017554Y484246D02*
D03*
Y521246D02*
D03*
D13*
X1053074Y578001D02*
D03*
Y570000D02*
D03*
Y561999D02*
D03*
Y554000D02*
D03*
Y545999D02*
D03*
Y538001D02*
D03*
Y530000D02*
D03*
Y521999D02*
D03*
X1138926D02*
D03*
Y530000D02*
D03*
Y538001D02*
D03*
Y545999D02*
D03*
Y554000D02*
D03*
Y561999D02*
D03*
Y570000D02*
D03*
Y578001D02*
D03*
D14*
X1067999Y507074D02*
D03*
X1076000D02*
D03*
X1084001D02*
D03*
X1092000D02*
D03*
X1100001D02*
D03*
X1107999D02*
D03*
X1116000D02*
D03*
X1124001D02*
D03*
Y592926D02*
D03*
X1116000D02*
D03*
X1107999D02*
D03*
X1100001D02*
D03*
X1092000D02*
D03*
X1084001D02*
D03*
X1076000D02*
D03*
X1067999D02*
D03*
D15*
X717814Y758576D02*
D03*
Y751972D02*
D03*
Y745622D02*
D03*
Y739018D02*
D03*
Y732668D02*
D03*
Y726064D02*
D03*
X674126D02*
D03*
Y732668D02*
D03*
Y739018D02*
D03*
Y745622D02*
D03*
Y751972D02*
D03*
Y758576D02*
D03*
D16*
X888014Y577411D02*
D03*
Y586661D02*
D03*
D17*
X664464Y657098D02*
D03*
Y672338D02*
D03*
X1721080Y284288D02*
D03*
Y269048D02*
D03*
X1431774Y467676D02*
D03*
Y452436D02*
D03*
D18*
X708914Y881888D02*
D03*
X691134D02*
D03*
X1097110Y646000D02*
D03*
X1114890D02*
D03*
X1156746Y644012D02*
D03*
X1138966D02*
D03*
X1190426Y74312D02*
D03*
X1208206D02*
D03*
X1297440Y87110D02*
D03*
X1315220D02*
D03*
X863884Y514726D02*
D03*
X881664D02*
D03*
X1713968Y360234D02*
D03*
X1731748D02*
D03*
X702564Y676148D02*
D03*
X684784D02*
D03*
X1455396Y428052D02*
D03*
X1437616D02*
D03*
D19*
X885474Y546476D02*
D03*
X855474D02*
D03*
D20*
X702564Y652018D02*
D03*
X684784D02*
D03*
X456962Y32734D02*
D03*
X474742D02*
D03*
X721140Y339146D02*
D03*
X738920D02*
D03*
D21*
X667644Y914908D02*
D03*
X707644D02*
D03*
D22*
X693798Y205544D02*
D03*
X706498D02*
D03*
X719198D02*
D03*
X731898D02*
D03*
X693798Y253544D02*
D03*
X706498D02*
D03*
X719198D02*
D03*
X731898D02*
D03*
D23*
X664588Y239958D02*
D03*
Y214558D02*
D03*
X881380Y980440D02*
D03*
Y1005840D02*
D03*
X991870Y552450D02*
D03*
Y577850D02*
D03*
X1279028Y996284D02*
D03*
Y970884D02*
D03*
X1340902Y752800D02*
D03*
Y778200D02*
D03*
X666530Y363276D02*
D03*
Y337876D02*
D03*
D24*
X631568Y221162D02*
D03*
Y236162D02*
D03*
X1016000Y577500D02*
D03*
Y562500D02*
D03*
X1254898Y976472D02*
D03*
Y991472D02*
D03*
X1363000Y773508D02*
D03*
Y758508D02*
D03*
X850900Y990720D02*
D03*
Y1005720D02*
D03*
X637540Y657980D02*
D03*
Y672980D02*
D03*
X770000Y192500D02*
D03*
Y207500D02*
D03*
X868964Y589536D02*
D03*
Y574536D02*
D03*
D25*
X874234Y303350D02*
D03*
X895732D02*
D03*
Y264350D02*
D03*
X874234D02*
D03*
X981251Y303500D02*
D03*
X1002749D02*
D03*
Y264500D02*
D03*
X981251D02*
D03*
X1086251Y303500D02*
D03*
X1107749D02*
D03*
Y264500D02*
D03*
X1086251D02*
D03*
D26*
X1094000Y387220D02*
D03*
Y405000D02*
D03*
X992000Y386000D02*
D03*
Y403780D02*
D03*
X887000Y386000D02*
D03*
Y403780D02*
D03*
X1215862Y1126194D02*
D03*
Y1143974D02*
D03*
X1371858Y1130156D02*
D03*
Y1147936D02*
D03*
X1374000Y146890D02*
D03*
Y129110D02*
D03*
X1795248Y433386D02*
D03*
Y415606D02*
D03*
X1768832Y416368D02*
D03*
Y434148D02*
D03*
X1769594Y457516D02*
D03*
Y475296D02*
D03*
X1715746Y320102D02*
D03*
Y337882D02*
D03*
X1494766Y390714D02*
D03*
Y408494D02*
D03*
D27*
X543500Y1084000D02*
D03*
X558500D02*
D03*
X665360Y695198D02*
D03*
X650360D02*
D03*
X1193680Y534670D02*
D03*
X1178680D02*
D03*
X971954Y522346D02*
D03*
X986954D02*
D03*
X971954Y484246D02*
D03*
X986954D02*
D03*
X1612756Y250506D02*
D03*
X1597756D02*
D03*
D28*
X418608Y32226D02*
D03*
X433848D02*
D03*
X1178844Y491866D02*
D03*
X1194084D02*
D03*
X737650Y360736D02*
D03*
X722410D02*
D03*
D29*
X1224000Y492890D02*
D03*
Y475110D02*
D03*
X1746480Y285558D02*
D03*
Y267778D02*
D03*
X1404850Y470724D02*
D03*
Y452944D02*
D03*
D30*
X1590524Y279716D02*
D03*
X1615924D02*
D03*
D31*
X1439810Y916020D02*
D03*
D32*
X1410652Y504180D02*
D03*
X1433552D02*
D03*
X1456452D02*
D03*
D33*
X1433552Y563180D02*
D03*
D34*
X689390Y359386D02*
D03*
Y354386D02*
D03*
Y349386D02*
D03*
X694390Y359386D02*
D03*
Y354386D02*
D03*
Y349386D02*
D03*
D35*
X815000Y844000D02*
D03*
X814000Y795000D02*
D03*
D36*
X542950Y1119500D02*
D03*
X555650D02*
D03*
X581050D02*
D03*
X542950Y1166500D02*
D03*
X555650D02*
D03*
X581050D02*
D03*
X568350Y1119500D02*
D03*
Y1166500D02*
D03*
X1308898Y788492D02*
D03*
Y741492D02*
D03*
X1321598Y788492D02*
D03*
X1296198D02*
D03*
X1283498D02*
D03*
X1321598Y741492D02*
D03*
X1296198D02*
D03*
X1283498D02*
D03*
X1338210Y1008100D02*
D03*
X1325510D02*
D03*
X1300110D02*
D03*
X1338210Y961100D02*
D03*
X1325510D02*
D03*
X1300110D02*
D03*
X1312810Y1008100D02*
D03*
Y961100D02*
D03*
D37*
X1452400Y356151D02*
D03*
X1392400D02*
D03*
X1452400Y393149D02*
D03*
X1392400D02*
D03*
X912624Y599265D02*
D03*
X972624D02*
D03*
X912624Y562267D02*
D03*
X972624D02*
D03*
D38*
X1819359Y361470D02*
D03*
Y301470D02*
D03*
X1782361Y361470D02*
D03*
Y301470D02*
D03*
M02*
