G04 Layer_Color=65535*
%FSLAX44Y44*%
%MOMM*%
G71*
G01*
G75*
%ADD40C,0.2540*%
%ADD70C,0.2000*%
%ADD71C,0.0000*%
%ADD72C,0.1524*%
%ADD73C,0.2500*%
%ADD74C,0.1270*%
%ADD75C,0.2007*%
%ADD76C,0.2032*%
%ADD77C,0.5000*%
%ADD78C,1.0000*%
%ADD79C,0.0762*%
%ADD80C,0.1000*%
%ADD81C,0.1540*%
%ADD82C,0.1295*%
%ADD83C,0.1500*%
%ADD84R,1.5000X1.5000*%
D40*
X485342Y751733D02*
G03*
X485342Y751733I-7493J0D01*
G01*
X916800Y14500D02*
G03*
X916800Y14500I-8100J0D01*
G01*
X379171Y615137D02*
G03*
X376682Y613156I-136J-2384D01*
G01*
X436677Y612648D02*
G03*
X434670Y615137I-2384J132D01*
G01*
X911800Y1082500D02*
G03*
X911800Y1082500I-8100J0D01*
G01*
X1509810Y916020D02*
G03*
X1509810Y916020I-70000J0D01*
G01*
X472490Y758032D02*
X485190Y745332D01*
X452850Y734232D02*
Y834232D01*
X492850Y734232D02*
Y834232D01*
X452850Y734232D02*
X492850D01*
X452850Y834232D02*
X492850D01*
X303130Y633572D02*
X401370D01*
X513130D01*
X303130Y635373D02*
Y1065372D01*
X327710D01*
X513130D01*
Y635373D02*
Y1065372D01*
X1086960Y1018550D02*
X1173320D01*
X1178400D01*
X893920D02*
X980280D01*
X985360D01*
X893920D02*
X1178400D01*
X893920Y741690D02*
Y1018550D01*
Y741690D02*
X1178400D01*
Y1018550D01*
X634280Y142320D02*
X812080D01*
Y15320D02*
Y142320D01*
X634280Y15320D02*
X812080D01*
X634280D02*
Y142320D01*
X710480D01*
X723180Y20400D02*
Y137240D01*
X384477Y558660D02*
Y572630D01*
X428673D01*
Y558660D02*
Y572630D01*
X372539Y601586D02*
X440614D01*
X372539Y558660D02*
Y574662D01*
Y558660D02*
X384477D01*
X428673D02*
X440614D01*
Y574662D01*
X376603Y608696D02*
Y613016D01*
X379143Y615046D02*
X434515D01*
X436547Y608696D02*
Y612506D01*
X366697Y614540D02*
X372539Y608696D01*
X440614D02*
X446453Y614540D01*
X372539Y601586D02*
Y608696D01*
Y558660D02*
Y601586D01*
X440614Y558660D02*
Y601586D01*
Y608696D01*
X372539D02*
X376603D01*
X436547D02*
X440614D01*
X319867Y602534D02*
X492587D01*
Y333289D02*
Y602534D01*
X319867Y333289D02*
X492587D01*
X319867D02*
Y602534D01*
X1696666Y185832D02*
X1747466Y160432D01*
Y58832D02*
Y160432D01*
X1696666Y33432D02*
X1747466Y58832D01*
X1493466Y33432D02*
X1696666D01*
X1493466D02*
Y109632D01*
Y185832D01*
X1696666D01*
Y33432D02*
Y185832D01*
X669205Y174536D02*
Y154540D01*
X662540Y174536D02*
X675871D01*
X678251Y163110D02*
X695390D01*
X769205Y174536D02*
Y154540D01*
X762540Y174536D02*
X775871D01*
X786821Y171679D02*
Y154540D01*
X778251Y163110D02*
X795390D01*
X1290537Y711535D02*
X1280540D01*
Y696540D01*
X1290537D01*
X1280540Y704038D02*
X1285538D01*
X1305532Y711535D02*
X1295535D01*
Y696540D01*
X1305532D01*
X1295535Y704038D02*
X1300533D01*
X1310530Y696540D02*
Y711535D01*
X1318028D01*
X1320527Y709036D01*
Y704038D01*
X1318028Y701538D01*
X1310530D01*
X1325525Y696540D02*
Y711535D01*
X1333023D01*
X1335522Y709036D01*
Y704038D01*
X1333023Y701538D01*
X1325525D01*
X1330524D02*
X1335522Y696540D01*
X1348018Y711535D02*
X1343020D01*
X1340521Y709036D01*
Y699039D01*
X1343020Y696540D01*
X1348018D01*
X1350517Y699039D01*
Y709036D01*
X1348018Y711535D01*
X1355516Y696540D02*
Y711535D01*
X1360514Y706537D01*
X1365513Y711535D01*
Y696540D01*
X1240790Y937260D02*
Y952255D01*
X1248288D01*
X1250787Y949756D01*
Y944758D01*
X1248288Y942258D01*
X1240790D01*
X1245788D02*
X1250787Y937260D01*
X1255785Y952255D02*
X1265782D01*
X1260783D01*
Y937260D01*
X1280777Y949756D02*
X1278278Y952255D01*
X1273279D01*
X1270780Y949756D01*
Y939759D01*
X1273279Y937260D01*
X1278278D01*
X1280777Y939759D01*
X1565428Y856662D02*
X1566856Y860946D01*
Y852377D01*
X1565428Y856662D01*
X1562571Y859518D01*
X1558286Y860946D01*
X1554001D01*
X1549716Y859518D01*
X1546860Y856662D01*
Y853805D01*
X1548288Y850948D01*
X1549716Y849520D01*
X1552573Y848092D01*
X1561143Y845235D01*
X1563999Y843807D01*
X1566856Y840950D01*
X1546860Y853805D02*
X1549716Y850948D01*
X1552573Y849520D01*
X1561143Y846664D01*
X1563999Y845235D01*
X1565428Y843807D01*
X1566856Y840950D01*
Y835238D01*
X1563999Y832381D01*
X1559714Y830953D01*
X1555430D01*
X1551145Y832381D01*
X1548288Y835238D01*
X1546860Y839522D01*
Y830953D01*
X1548288Y835238D01*
X1575568Y860946D02*
Y830953D01*
X1576996Y860946D02*
Y830953D01*
X1571283Y860946D02*
X1581281D01*
X1571283Y830953D02*
X1581281D01*
X1590993Y860946D02*
Y830953D01*
X1592422Y860946D02*
X1600991Y835238D01*
X1590993Y860946D02*
X1600991Y830953D01*
X1610989Y860946D02*
X1600991Y830953D01*
X1610989Y860946D02*
Y830953D01*
X1612417Y860946D02*
Y830953D01*
X1586709Y860946D02*
X1592422D01*
X1610989D02*
X1616702D01*
X1586709Y830953D02*
X1595278D01*
X1606704D02*
X1616702D01*
X1630128Y860946D02*
X1625843Y859518D01*
X1622986Y856662D01*
X1621558Y853805D01*
X1620130Y848092D01*
Y843807D01*
X1621558Y838094D01*
X1622986Y835238D01*
X1625843Y832381D01*
X1630128Y830953D01*
X1632984D01*
X1637269Y832381D01*
X1640126Y835238D01*
X1641554Y838094D01*
X1642982Y843807D01*
Y848092D01*
X1641554Y853805D01*
X1640126Y856662D01*
X1637269Y859518D01*
X1632984Y860946D01*
X1630128D01*
X1627271Y859518D01*
X1624415Y856662D01*
X1622986Y853805D01*
X1621558Y848092D01*
Y843807D01*
X1622986Y838094D01*
X1624415Y835238D01*
X1627271Y832381D01*
X1630128Y830953D01*
X1632984D02*
X1635841Y832381D01*
X1638697Y835238D01*
X1640126Y838094D01*
X1641554Y843807D01*
Y848092D01*
X1640126Y853805D01*
X1638697Y856662D01*
X1635841Y859518D01*
X1632984Y860946D01*
X1651409D02*
Y830953D01*
X1652837Y860946D02*
X1669976Y833809D01*
X1652837Y858090D02*
X1669976Y830953D01*
Y860946D02*
Y830953D01*
X1647124Y860946D02*
X1652837D01*
X1665692D02*
X1674261D01*
X1647124Y830953D02*
X1655694D01*
X1565428Y814573D02*
X1566856Y818858D01*
Y810288D01*
X1565428Y814573D01*
X1562571Y817430D01*
X1558286Y818858D01*
X1554001D01*
X1549716Y817430D01*
X1546860Y814573D01*
Y811717D01*
X1548288Y808860D01*
X1549716Y807432D01*
X1552573Y806004D01*
X1561143Y803147D01*
X1563999Y801719D01*
X1566856Y798862D01*
X1546860Y811717D02*
X1549716Y808860D01*
X1552573Y807432D01*
X1561143Y804575D01*
X1563999Y803147D01*
X1565428Y801719D01*
X1566856Y798862D01*
Y793149D01*
X1563999Y790293D01*
X1559714Y788864D01*
X1555430D01*
X1551145Y790293D01*
X1548288Y793149D01*
X1546860Y797434D01*
Y788864D01*
X1548288Y793149D01*
X1579853Y808860D02*
X1575568Y807432D01*
X1572712Y804575D01*
X1571283Y800291D01*
Y797434D01*
X1572712Y793149D01*
X1575568Y790293D01*
X1579853Y788864D01*
X1582709D01*
X1586994Y790293D01*
X1589851Y793149D01*
X1591279Y797434D01*
Y800291D01*
X1589851Y804575D01*
X1586994Y807432D01*
X1582709Y808860D01*
X1579853D01*
X1576996Y807432D01*
X1574140Y804575D01*
X1572712Y800291D01*
Y797434D01*
X1574140Y793149D01*
X1576996Y790293D01*
X1579853Y788864D01*
X1582709D02*
X1585566Y790293D01*
X1588423Y793149D01*
X1589851Y797434D01*
Y800291D01*
X1588423Y804575D01*
X1585566Y807432D01*
X1582709Y808860D01*
X1599991Y818858D02*
Y788864D01*
X1601420Y818858D02*
Y788864D01*
X1595707Y818858D02*
X1601420D01*
X1595707Y788864D02*
X1605704D01*
X1613988Y806004D02*
Y804575D01*
X1612560D01*
Y806004D01*
X1613988Y807432D01*
X1616845Y808860D01*
X1622558D01*
X1625415Y807432D01*
X1626843Y806004D01*
X1628271Y803147D01*
Y793149D01*
X1629699Y790293D01*
X1631128Y788864D01*
X1626843Y806004D02*
Y793149D01*
X1628271Y790293D01*
X1631128Y788864D01*
X1632556D01*
X1626843Y803147D02*
X1625415Y801719D01*
X1616845Y800291D01*
X1612560Y798862D01*
X1611132Y796006D01*
Y793149D01*
X1612560Y790293D01*
X1616845Y788864D01*
X1621130D01*
X1623986Y790293D01*
X1626843Y793149D01*
X1616845Y800291D02*
X1613988Y798862D01*
X1612560Y796006D01*
Y793149D01*
X1613988Y790293D01*
X1616845Y788864D01*
X1641125Y808860D02*
Y788864D01*
X1642554Y808860D02*
Y788864D01*
Y800291D02*
X1643982Y804575D01*
X1646839Y807432D01*
X1649695Y808860D01*
X1653980D01*
X1655408Y807432D01*
Y806004D01*
X1653980Y804575D01*
X1652552Y806004D01*
X1653980Y807432D01*
X1636841Y808860D02*
X1642554D01*
X1636841Y788864D02*
X1646839D01*
X1551145Y776770D02*
Y746776D01*
X1552573Y776770D02*
Y746776D01*
X1546860Y776770D02*
X1556858D01*
X1546860Y746776D02*
X1556858D01*
X1566570Y766772D02*
Y746776D01*
X1567998Y766772D02*
Y746776D01*
Y762487D02*
X1570855Y765344D01*
X1575140Y766772D01*
X1577996D01*
X1582281Y765344D01*
X1583709Y762487D01*
Y746776D01*
X1577996Y766772D02*
X1580853Y765344D01*
X1582281Y762487D01*
Y746776D01*
X1562285Y766772D02*
X1567998D01*
X1562285Y746776D02*
X1572283D01*
X1577996D02*
X1587994D01*
X1600420D02*
X1598992Y748204D01*
X1597563Y752489D01*
Y776770D01*
X1596135D01*
Y752489D01*
X1597563Y748204D01*
X1600420Y746776D01*
X1603277D01*
X1606133Y748204D01*
X1607561Y751061D01*
X1591850Y766772D02*
X1603277D01*
X1613846Y758202D02*
X1630985D01*
Y761059D01*
X1629557Y763915D01*
X1628128Y765344D01*
X1625272Y766772D01*
X1620987D01*
X1616702Y765344D01*
X1613846Y762487D01*
X1612417Y758202D01*
Y755346D01*
X1613846Y751061D01*
X1616702Y748204D01*
X1620987Y746776D01*
X1623844D01*
X1628128Y748204D01*
X1630985Y751061D01*
X1629557Y758202D02*
Y762487D01*
X1628128Y765344D01*
X1620987Y766772D02*
X1618130Y765344D01*
X1615274Y762487D01*
X1613846Y758202D01*
Y755346D01*
X1615274Y751061D01*
X1618130Y748204D01*
X1620987Y746776D01*
X1639840Y776770D02*
Y746776D01*
X1641268Y776770D02*
Y746776D01*
X1635555Y776770D02*
X1641268D01*
X1635555Y746776D02*
X1645553D01*
X1655265Y776770D02*
Y746776D01*
X1656694Y776770D02*
Y746776D01*
X1650981Y776770D02*
X1656694D01*
X1650981Y746776D02*
X1660978D01*
X1670691Y776770D02*
X1669262Y775341D01*
X1670691Y773913D01*
X1672119Y775341D01*
X1670691Y776770D01*
Y766772D02*
Y746776D01*
X1672119Y766772D02*
Y746776D01*
X1666406Y766772D02*
X1672119D01*
X1666406Y746776D02*
X1676404D01*
X1690401Y766772D02*
X1687544Y765344D01*
X1686116Y763915D01*
X1684688Y761059D01*
Y758202D01*
X1686116Y755346D01*
X1687544Y753917D01*
X1690401Y752489D01*
X1693257D01*
X1696114Y753917D01*
X1697542Y755346D01*
X1698970Y758202D01*
Y761059D01*
X1697542Y763915D01*
X1696114Y765344D01*
X1693257Y766772D01*
X1690401D01*
X1687544Y765344D02*
X1686116Y762487D01*
Y756774D01*
X1687544Y753917D01*
X1696114D02*
X1697542Y756774D01*
Y762487D01*
X1696114Y765344D01*
X1697542Y763915D02*
X1698970Y765344D01*
X1701827Y766772D01*
Y765344D01*
X1698970D01*
X1686116Y755346D02*
X1684688Y753917D01*
X1683259Y751061D01*
Y749633D01*
X1684688Y746776D01*
X1688972Y745348D01*
X1696114D01*
X1700399Y743920D01*
X1701827Y742491D01*
X1683259Y749633D02*
X1684688Y748204D01*
X1688972Y746776D01*
X1696114D01*
X1700399Y745348D01*
X1701827Y742491D01*
Y741063D01*
X1700399Y738207D01*
X1696114Y736778D01*
X1687544D01*
X1683259Y738207D01*
X1681831Y741063D01*
Y742491D01*
X1683259Y745348D01*
X1687544Y746776D01*
X1707683Y758202D02*
X1724822D01*
Y761059D01*
X1723394Y763915D01*
X1721965Y765344D01*
X1719109Y766772D01*
X1714824D01*
X1710539Y765344D01*
X1707683Y762487D01*
X1706254Y758202D01*
Y755346D01*
X1707683Y751061D01*
X1710539Y748204D01*
X1714824Y746776D01*
X1717681D01*
X1721965Y748204D01*
X1724822Y751061D01*
X1723394Y758202D02*
Y762487D01*
X1721965Y765344D01*
X1714824Y766772D02*
X1711967Y765344D01*
X1709111Y762487D01*
X1707683Y758202D01*
Y755346D01*
X1709111Y751061D01*
X1711967Y748204D01*
X1714824Y746776D01*
X1733677Y766772D02*
Y746776D01*
X1735105Y766772D02*
Y746776D01*
Y762487D02*
X1737962Y765344D01*
X1742247Y766772D01*
X1745103D01*
X1749388Y765344D01*
X1750816Y762487D01*
Y746776D01*
X1745103Y766772D02*
X1747960Y765344D01*
X1749388Y762487D01*
Y746776D01*
X1729392Y766772D02*
X1735105D01*
X1729392Y746776D02*
X1739390D01*
X1745103D02*
X1755101D01*
X1767527D02*
X1766099Y748204D01*
X1764671Y752489D01*
Y776770D01*
X1763242D01*
Y752489D01*
X1764671Y748204D01*
X1767527Y746776D01*
X1770383D01*
X1773240Y748204D01*
X1774668Y751061D01*
X1758957Y766772D02*
X1770383D01*
X1551145Y724684D02*
Y694690D01*
X1552573Y724684D02*
X1561143Y698975D01*
X1551145Y724684D02*
X1561143Y694690D01*
X1571140Y724684D02*
X1561143Y694690D01*
X1571140Y724684D02*
Y694690D01*
X1572569Y724684D02*
Y694690D01*
X1546860Y724684D02*
X1552573D01*
X1571140D02*
X1576854D01*
X1546860Y694690D02*
X1555430D01*
X1566856D02*
X1576854D01*
X1588851Y714686D02*
X1584566Y713258D01*
X1581710Y710401D01*
X1580281Y706116D01*
Y703260D01*
X1581710Y698975D01*
X1584566Y696118D01*
X1588851Y694690D01*
X1591707D01*
X1595992Y696118D01*
X1598849Y698975D01*
X1600277Y703260D01*
Y706116D01*
X1598849Y710401D01*
X1595992Y713258D01*
X1591707Y714686D01*
X1588851D01*
X1585995Y713258D01*
X1583138Y710401D01*
X1581710Y706116D01*
Y703260D01*
X1583138Y698975D01*
X1585995Y696118D01*
X1588851Y694690D01*
X1591707D02*
X1594564Y696118D01*
X1597421Y698975D01*
X1598849Y703260D01*
Y706116D01*
X1597421Y710401D01*
X1594564Y713258D01*
X1591707Y714686D01*
X1608990D02*
Y694690D01*
X1610418Y714686D02*
Y694690D01*
Y710401D02*
X1613274Y713258D01*
X1617559Y714686D01*
X1620416D01*
X1624700Y713258D01*
X1626129Y710401D01*
Y694690D01*
X1620416Y714686D02*
X1623272Y713258D01*
X1624700Y710401D01*
Y694690D01*
X1604705Y714686D02*
X1610418D01*
X1604705Y694690D02*
X1614703D01*
X1620416D02*
X1630414D01*
X1638555Y724684D02*
X1637126Y723255D01*
X1638555Y721827D01*
X1639983Y723255D01*
X1638555Y724684D01*
Y714686D02*
Y694690D01*
X1639983Y714686D02*
Y694690D01*
X1634270Y714686D02*
X1639983D01*
X1634270Y694690D02*
X1644268D01*
X1658265D02*
X1656836Y696118D01*
X1655408Y700403D01*
Y724684D01*
X1653980D01*
Y700403D01*
X1655408Y696118D01*
X1658265Y694690D01*
X1661121D01*
X1663978Y696118D01*
X1665406Y698975D01*
X1649695Y714686D02*
X1661121D01*
X1678832D02*
X1674547Y713258D01*
X1671690Y710401D01*
X1670262Y706116D01*
Y703260D01*
X1671690Y698975D01*
X1674547Y696118D01*
X1678832Y694690D01*
X1681688D01*
X1685973Y696118D01*
X1688829Y698975D01*
X1690258Y703260D01*
Y706116D01*
X1688829Y710401D01*
X1685973Y713258D01*
X1681688Y714686D01*
X1678832D01*
X1675975Y713258D01*
X1673119Y710401D01*
X1671690Y706116D01*
Y703260D01*
X1673119Y698975D01*
X1675975Y696118D01*
X1678832Y694690D01*
X1681688D02*
X1684545Y696118D01*
X1687401Y698975D01*
X1688829Y703260D01*
Y706116D01*
X1687401Y710401D01*
X1684545Y713258D01*
X1681688Y714686D01*
X1698970D02*
Y694690D01*
X1700399Y714686D02*
Y694690D01*
Y706116D02*
X1701827Y710401D01*
X1704683Y713258D01*
X1707540Y714686D01*
X1711825D01*
X1713253Y713258D01*
Y711829D01*
X1711825Y710401D01*
X1710396Y711829D01*
X1711825Y713258D01*
X1694685Y714686D02*
X1700399D01*
X1694685Y694690D02*
X1704683D01*
X1019463Y889985D02*
X1014465D01*
X1011966Y887486D01*
Y877489D01*
X1014465Y874990D01*
X1019463D01*
X1021962Y877489D01*
Y887486D01*
X1019463Y889985D01*
X1026961D02*
Y874990D01*
X1036957D01*
X1051953Y889985D02*
X1041956D01*
Y874990D01*
X1051953D01*
X1041956Y882488D02*
X1046954D01*
X1056951Y889985D02*
Y874990D01*
X1064449D01*
X1066948Y877489D01*
Y887486D01*
X1064449Y889985D01*
X1056951D01*
X998220Y850900D02*
X1003218D01*
X1000719D01*
Y865895D01*
X998220Y863396D01*
X1020713Y850900D02*
X1010716D01*
X1020713Y860897D01*
Y863396D01*
X1018214Y865895D01*
X1013215D01*
X1010716Y863396D01*
X1025711D02*
X1028210Y865895D01*
X1033209D01*
X1035708Y863396D01*
Y860897D01*
X1033209Y858398D01*
X1035708Y855898D01*
Y853399D01*
X1033209Y850900D01*
X1028210D01*
X1025711Y853399D01*
Y855898D01*
X1028210Y858398D01*
X1025711Y860897D01*
Y863396D01*
X1028210Y858398D02*
X1033209D01*
X1040706Y860897D02*
X1050703Y850900D01*
X1045705Y855898D01*
X1050703Y860897D01*
X1040706Y850900D01*
X1065698Y865895D02*
X1060700Y863396D01*
X1055701Y858398D01*
Y853399D01*
X1058201Y850900D01*
X1063199D01*
X1065698Y853399D01*
Y855898D01*
X1063199Y858398D01*
X1055701D01*
X1078194Y850900D02*
Y865895D01*
X1070696Y858398D01*
X1080693D01*
X1786887Y387854D02*
X1784348Y390393D01*
X1779269D01*
X1776730Y387854D01*
Y385315D01*
X1779269Y382775D01*
X1784348D01*
X1786887Y380236D01*
Y377697D01*
X1784348Y375158D01*
X1779269D01*
X1776730Y377697D01*
X1791965D02*
X1794504Y375158D01*
X1799583D01*
X1802122Y377697D01*
Y387854D01*
X1799583Y390393D01*
X1794504D01*
X1791965Y387854D01*
Y385315D01*
X1794504Y382775D01*
X1802122D01*
X1102360Y121675D02*
X1112357D01*
X1107358D01*
Y106680D01*
X1124853D02*
X1119854D01*
X1117355Y109179D01*
Y114178D01*
X1119854Y116677D01*
X1124853D01*
X1127352Y114178D01*
Y111678D01*
X1117355D01*
X1132350Y106680D02*
Y116677D01*
X1134849D01*
X1137349Y114178D01*
Y106680D01*
Y114178D01*
X1139848Y116677D01*
X1142347Y114178D01*
Y106680D01*
X1147345Y101682D02*
Y116677D01*
X1154843D01*
X1157342Y114178D01*
Y109179D01*
X1154843Y106680D01*
X1147345D01*
X1172337Y121675D02*
X1162341D01*
Y114178D01*
X1167339Y116677D01*
X1169838D01*
X1172337Y114178D01*
Y109179D01*
X1169838Y106680D01*
X1164840D01*
X1162341Y109179D01*
X1177336Y114178D02*
X1187333D01*
X1192331Y106680D02*
Y121675D01*
X1202328Y106680D01*
Y121675D01*
X1207326D02*
X1217323D01*
X1212324D01*
Y106680D01*
X1232318Y119176D02*
X1229819Y121675D01*
X1224820D01*
X1222321Y119176D01*
Y109179D01*
X1224820Y106680D01*
X1229819D01*
X1232318Y109179D01*
X1140460Y1192285D02*
X1150457D01*
X1145458D01*
Y1177290D01*
X1162953D02*
X1157954D01*
X1155455Y1179789D01*
Y1184788D01*
X1157954Y1187287D01*
X1162953D01*
X1165452Y1184788D01*
Y1182288D01*
X1155455D01*
X1170450Y1177290D02*
Y1187287D01*
X1172950D01*
X1175449Y1184788D01*
Y1177290D01*
Y1184788D01*
X1177948Y1187287D01*
X1180447Y1184788D01*
Y1177290D01*
X1185445Y1172292D02*
Y1187287D01*
X1192943D01*
X1195442Y1184788D01*
Y1179789D01*
X1192943Y1177290D01*
X1185445D01*
X1207938D02*
Y1192285D01*
X1200441Y1184788D01*
X1210437D01*
X1215436D02*
X1225433D01*
X1230431Y1177290D02*
Y1192285D01*
X1240428Y1177290D01*
Y1192285D01*
X1245426D02*
X1255423D01*
X1250424D01*
Y1177290D01*
X1270418Y1189786D02*
X1267919Y1192285D01*
X1262920D01*
X1260421Y1189786D01*
Y1179789D01*
X1262920Y1177290D01*
X1267919D01*
X1270418Y1179789D01*
X1754115Y73660D02*
Y83657D01*
Y78658D01*
X1769110D01*
Y96153D02*
Y91154D01*
X1766611Y88655D01*
X1761612D01*
X1759113Y91154D01*
Y96153D01*
X1761612Y98652D01*
X1764112D01*
Y88655D01*
X1769110Y103650D02*
X1759113D01*
Y106150D01*
X1761612Y108649D01*
X1769110D01*
X1761612D01*
X1759113Y111148D01*
X1761612Y113647D01*
X1769110D01*
X1774108Y118645D02*
X1759113D01*
Y126143D01*
X1761612Y128642D01*
X1766611D01*
X1769110Y126143D01*
Y118645D01*
X1756614Y133641D02*
X1754115Y136140D01*
Y141138D01*
X1756614Y143637D01*
X1759113D01*
X1761612Y141138D01*
Y138639D01*
Y141138D01*
X1764112Y143637D01*
X1766611D01*
X1769110Y141138D01*
Y136140D01*
X1766611Y133641D01*
X1276350Y208035D02*
X1286347D01*
X1281348D01*
Y193040D01*
X1298843D02*
X1293844D01*
X1291345Y195539D01*
Y200538D01*
X1293844Y203037D01*
X1298843D01*
X1301342Y200538D01*
Y198038D01*
X1291345D01*
X1306340Y193040D02*
Y203037D01*
X1308840D01*
X1311339Y200538D01*
Y193040D01*
Y200538D01*
X1313838Y203037D01*
X1316337Y200538D01*
Y193040D01*
X1321335Y188042D02*
Y203037D01*
X1328833D01*
X1331332Y200538D01*
Y195539D01*
X1328833Y193040D01*
X1321335D01*
X1346327D02*
X1336331D01*
X1346327Y203037D01*
Y205536D01*
X1343828Y208035D01*
X1338830D01*
X1336331Y205536D01*
X1328420Y1094495D02*
X1338417D01*
X1333418D01*
Y1079500D01*
X1350913D02*
X1345914D01*
X1343415Y1081999D01*
Y1086998D01*
X1345914Y1089497D01*
X1350913D01*
X1353412Y1086998D01*
Y1084498D01*
X1343415D01*
X1358410Y1079500D02*
Y1089497D01*
X1360909D01*
X1363409Y1086998D01*
Y1079500D01*
Y1086998D01*
X1365908Y1089497D01*
X1368407Y1086998D01*
Y1079500D01*
X1373405Y1074502D02*
Y1089497D01*
X1380903D01*
X1383402Y1086998D01*
Y1081999D01*
X1380903Y1079500D01*
X1373405D01*
X1388401D02*
X1393399D01*
X1390900D01*
Y1094495D01*
X1388401Y1091996D01*
X1514000Y589995D02*
Y575000D01*
X1518998Y579998D01*
X1523997Y575000D01*
Y589995D01*
X1528995Y575000D02*
X1533994D01*
X1531494D01*
Y584997D01*
X1528995D01*
X1541491Y582498D02*
X1551488D01*
X1566483Y589995D02*
X1556486D01*
Y582498D01*
X1561485D01*
X1556486D01*
Y575000D01*
X1571481D02*
X1576480D01*
X1573981D01*
Y584997D01*
X1571481D01*
X1608969Y589995D02*
X1598972D01*
Y575000D01*
X1608969D01*
X1598972Y582498D02*
X1603971D01*
X1623964Y587496D02*
X1621465Y589995D01*
X1616467D01*
X1613968Y587496D01*
Y584997D01*
X1616467Y582498D01*
X1621465D01*
X1623964Y579998D01*
Y577499D01*
X1621465Y575000D01*
X1616467D01*
X1613968Y577499D01*
X1628963Y575000D02*
Y589995D01*
X1636460D01*
X1638960Y587496D01*
Y582498D01*
X1636460Y579998D01*
X1628963D01*
X1643958Y587496D02*
X1646457Y589995D01*
X1651456D01*
X1653955Y587496D01*
Y584997D01*
X1651456Y582498D01*
X1653955Y579998D01*
Y577499D01*
X1651456Y575000D01*
X1646457D01*
X1643958Y577499D01*
Y579998D01*
X1646457Y582498D01*
X1643958Y584997D01*
Y587496D01*
X1646457Y582498D02*
X1651456D01*
X1668950Y575000D02*
X1658953D01*
X1668950Y584997D01*
Y587496D01*
X1666451Y589995D01*
X1661452D01*
X1658953Y587496D01*
X1683945Y589995D02*
X1678947Y587496D01*
X1673948Y582498D01*
Y577499D01*
X1676447Y575000D01*
X1681446D01*
X1683945Y577499D01*
Y579998D01*
X1681446Y582498D01*
X1673948D01*
X1698940Y589995D02*
X1693942Y587496D01*
X1688943Y582498D01*
Y577499D01*
X1691443Y575000D01*
X1696441D01*
X1698940Y577499D01*
Y579998D01*
X1696441Y582498D01*
X1688943D01*
X1300643Y535940D02*
X1308141D01*
X1310640Y538439D01*
Y545937D01*
X1300643D01*
X1298144Y560932D02*
X1295645Y558433D01*
Y553434D01*
X1298144Y550935D01*
X1308141D01*
X1310640Y553434D01*
Y558433D01*
X1308141Y560932D01*
X1310640Y580925D02*
X1295645D01*
Y588423D01*
X1298144Y590922D01*
X1303142D01*
X1305642Y588423D01*
Y580925D01*
X1300643Y595921D02*
X1310640D01*
X1305642D01*
X1303142Y598420D01*
X1300643Y600919D01*
Y603418D01*
X1310640Y613415D02*
Y618413D01*
X1308141Y620913D01*
X1303142D01*
X1300643Y618413D01*
Y613415D01*
X1303142Y610916D01*
X1308141D01*
X1310640Y613415D01*
X1315638Y630909D02*
Y633408D01*
X1313139Y635908D01*
X1300643D01*
Y628410D01*
X1303142Y625911D01*
X1308141D01*
X1310640Y628410D01*
Y635908D01*
X855654Y238352D02*
X850655Y243350D01*
X840658D01*
X835660Y238352D01*
Y233354D01*
X840658Y228355D01*
X850655D01*
X855654Y223357D01*
Y218358D01*
X850655Y213360D01*
X840658D01*
X835660Y218358D01*
X885644Y243350D02*
X865650D01*
Y213360D01*
X885644D01*
X865650Y228355D02*
X875647D01*
X895641Y243350D02*
Y213360D01*
X915634D01*
X1793761Y612998D02*
X1789000Y606333D01*
X1796141D01*
X1793761Y612998D02*
Y603000D01*
X1794952Y581998D02*
X1800189D01*
X1797333Y578189D01*
X1798761D01*
X1799713Y577713D01*
X1800189Y577237D01*
X1800665Y575809D01*
Y574856D01*
X1800189Y573428D01*
X1799237Y572476D01*
X1797809Y572000D01*
X1796380D01*
X1794952Y572476D01*
X1794476Y572952D01*
X1794000Y573904D01*
X1715476Y608617D02*
Y609094D01*
X1715952Y610046D01*
X1716428Y610522D01*
X1717380Y610998D01*
X1719285D01*
X1720237Y610522D01*
X1720713Y610046D01*
X1721189Y609094D01*
Y608141D01*
X1720713Y607189D01*
X1719761Y605761D01*
X1715000Y601000D01*
X1721665D01*
X1718000Y581093D02*
X1718952Y581570D01*
X1720380Y582998D01*
Y573000D01*
X1823000Y543330D02*
Y533809D01*
X1823952Y530952D01*
X1825856Y530000D01*
X1828713D01*
X1830617Y530952D01*
X1833474Y533809D01*
Y543330D02*
Y530000D01*
X1852994Y545235D02*
X1852041Y547139D01*
X1850137Y549044D01*
X1848233Y549996D01*
X1844424D01*
X1842520Y549044D01*
X1840615Y547139D01*
X1839663Y545235D01*
X1838711Y542378D01*
Y537617D01*
X1839663Y534761D01*
X1840615Y532856D01*
X1842520Y530952D01*
X1844424Y530000D01*
X1848233D01*
X1850137Y530952D01*
X1852041Y532856D01*
X1852994Y534761D01*
X1836378Y516996D02*
X1824000D01*
Y497000D01*
X1836378D01*
X1824000Y507474D02*
X1831617D01*
X1853041Y514139D02*
X1851137Y516044D01*
X1848280Y516996D01*
X1844472D01*
X1841615Y516044D01*
X1839711Y514139D01*
Y512235D01*
X1840663Y510331D01*
X1841615Y509378D01*
X1843520Y508426D01*
X1849233Y506522D01*
X1851137Y505570D01*
X1852089Y504617D01*
X1853041Y502713D01*
Y499856D01*
X1851137Y497952D01*
X1848280Y497000D01*
X1844472D01*
X1841615Y497952D01*
X1839711Y499856D01*
X1857517Y506522D02*
X1866086D01*
X1868943Y507474D01*
X1869895Y508426D01*
X1870847Y510331D01*
Y513187D01*
X1869895Y515091D01*
X1868943Y516044D01*
X1866086Y516996D01*
X1857517D01*
Y497000D01*
X1549400Y672774D02*
Y659445D01*
X1556064Y652780D01*
X1562729Y659445D01*
Y672774D01*
X1569394Y652780D02*
X1576058D01*
X1572726D01*
Y672774D01*
X1569394Y669441D01*
X1586055Y652780D02*
Y656112D01*
X1589387D01*
Y652780D01*
X1586055D01*
X1602716Y669441D02*
X1606048Y672774D01*
X1612713D01*
X1616045Y669441D01*
Y656112D01*
X1612713Y652780D01*
X1606048D01*
X1602716Y656112D01*
Y669441D01*
X1622710Y652780D02*
Y656112D01*
X1626042D01*
Y652780D01*
X1622710D01*
X1639371D02*
X1646035D01*
X1642703D01*
Y672774D01*
X1639371Y669441D01*
X1676026Y652780D02*
Y672774D01*
X1682690Y666109D01*
X1689355Y672774D01*
Y652780D01*
X1696019D02*
Y666109D01*
X1702684Y672774D01*
X1709348Y666109D01*
Y652780D01*
Y662777D01*
X1696019D01*
X912967Y1061516D02*
X910468Y1064015D01*
X905469D01*
X902970Y1061516D01*
Y1059017D01*
X905469Y1056518D01*
X910468D01*
X912967Y1054018D01*
Y1051519D01*
X910468Y1049020D01*
X905469D01*
X902970Y1051519D01*
X925463Y1064015D02*
X920464D01*
X917965Y1061516D01*
Y1051519D01*
X920464Y1049020D01*
X925463D01*
X927962Y1051519D01*
Y1061516D01*
X925463Y1064015D01*
X932960D02*
Y1049020D01*
X942957D01*
X947955D02*
Y1059017D01*
X952954Y1064015D01*
X957952Y1059017D01*
Y1049020D01*
Y1056518D01*
X947955D01*
X962951Y1049020D02*
Y1064015D01*
X970448D01*
X972947Y1061516D01*
Y1056518D01*
X970448Y1054018D01*
X962951D01*
X967949D02*
X972947Y1049020D01*
X992941Y1064015D02*
X997939D01*
X995440D01*
Y1049020D01*
X992941D01*
X997939D01*
X1005437D02*
Y1064015D01*
X1015434Y1049020D01*
Y1064015D01*
X1020432Y1049020D02*
Y1064015D01*
X1027930D01*
X1030429Y1061516D01*
Y1056518D01*
X1027930Y1054018D01*
X1020432D01*
X1035427Y1064015D02*
Y1051519D01*
X1037926Y1049020D01*
X1042925D01*
X1045424Y1051519D01*
Y1064015D01*
X1050422D02*
X1060419D01*
X1055421D01*
Y1049020D01*
X909157Y140766D02*
X906658Y143265D01*
X901659D01*
X899160Y140766D01*
Y138267D01*
X901659Y135768D01*
X906658D01*
X909157Y133268D01*
Y130769D01*
X906658Y128270D01*
X901659D01*
X899160Y130769D01*
X921653Y143265D02*
X916654D01*
X914155Y140766D01*
Y130769D01*
X916654Y128270D01*
X921653D01*
X924152Y130769D01*
Y140766D01*
X921653Y143265D01*
X929150D02*
Y128270D01*
X939147D01*
X944145D02*
Y138267D01*
X949144Y143265D01*
X954142Y138267D01*
Y128270D01*
Y135768D01*
X944145D01*
X959141Y128270D02*
Y143265D01*
X966638D01*
X969137Y140766D01*
Y135768D01*
X966638Y133268D01*
X959141D01*
X964139D02*
X969137Y128270D01*
X996628Y143265D02*
X991630D01*
X989131Y140766D01*
Y130769D01*
X991630Y128270D01*
X996628D01*
X999128Y130769D01*
Y140766D01*
X996628Y143265D01*
X1004126D02*
Y130769D01*
X1006625Y128270D01*
X1011624D01*
X1014123Y130769D01*
Y143265D01*
X1019121D02*
X1029118D01*
X1024119D01*
Y128270D01*
X1034116D02*
Y143265D01*
X1041614D01*
X1044113Y140766D01*
Y135768D01*
X1041614Y133268D01*
X1034116D01*
X1049111Y143265D02*
Y130769D01*
X1051611Y128270D01*
X1056609D01*
X1059108Y130769D01*
Y143265D01*
X1064107D02*
X1074103D01*
X1069105D01*
Y128270D01*
X603495Y8890D02*
Y18887D01*
Y13888D01*
X618490D01*
X603495Y23885D02*
X618490D01*
X610992D01*
X608493Y26384D01*
Y31383D01*
X610992Y33882D01*
X618490D01*
Y46378D02*
Y41379D01*
X615991Y38880D01*
X610992D01*
X608493Y41379D01*
Y46378D01*
X610992Y48877D01*
X613492D01*
Y38880D01*
X608493Y53875D02*
X618490D01*
X613492D01*
X610992Y56375D01*
X608493Y58874D01*
Y61373D01*
X618490Y68871D02*
X608493D01*
Y71370D01*
X610992Y73869D01*
X618490D01*
X610992D01*
X608493Y76368D01*
X610992Y78867D01*
X618490D01*
Y86365D02*
Y91363D01*
X615991Y93862D01*
X610992D01*
X608493Y91363D01*
Y86365D01*
X610992Y83866D01*
X615991D01*
X618490Y86365D01*
X608493Y108858D02*
Y101360D01*
X610992Y98861D01*
X615991D01*
X618490Y101360D01*
Y108858D01*
Y116355D02*
Y121354D01*
X615991Y123853D01*
X610992D01*
X608493Y121354D01*
Y116355D01*
X610992Y113856D01*
X615991D01*
X618490Y116355D01*
X608493Y128851D02*
X615991D01*
X618490Y131350D01*
Y138848D01*
X608493D01*
X623488Y143846D02*
X608493D01*
Y151344D01*
X610992Y153843D01*
X615991D01*
X618490Y151344D01*
Y143846D01*
Y158841D02*
Y163840D01*
Y161341D01*
X603495D01*
Y158841D01*
X618490Y178835D02*
Y173837D01*
X615991Y171337D01*
X610992D01*
X608493Y173837D01*
Y178835D01*
X610992Y181334D01*
X613492D01*
Y171337D01*
X358140Y194106D02*
X360639Y196605D01*
X365638D01*
X368137Y194106D01*
Y191607D01*
X365638Y189108D01*
X363138D01*
X365638D01*
X368137Y186608D01*
Y184109D01*
X365638Y181610D01*
X360639D01*
X358140Y184109D01*
X373135Y181610D02*
Y184109D01*
X375634D01*
Y181610D01*
X373135D01*
X385631Y196605D02*
X395628D01*
Y194106D01*
X385631Y184109D01*
Y181610D01*
X415621D02*
X423119Y189108D01*
X415621Y196605D01*
X453109D02*
X443112D01*
Y189108D01*
X448111Y191607D01*
X450610D01*
X453109Y189108D01*
Y184109D01*
X450610Y181610D01*
X445612D01*
X443112Y184109D01*
X458108Y196605D02*
Y186608D01*
X463106Y181610D01*
X468104Y186608D01*
Y196605D01*
X440935Y384810D02*
X455930D01*
Y394807D01*
Y399805D02*
Y404804D01*
Y402304D01*
X445933D01*
Y399805D01*
X455930Y412301D02*
X440935D01*
Y419799D01*
X443434Y422298D01*
X448432D01*
X450932Y419799D01*
Y412301D01*
X455930Y429795D02*
Y434794D01*
X453431Y437293D01*
X448432D01*
X445933Y434794D01*
Y429795D01*
X448432Y427296D01*
X453431D01*
X455930Y429795D01*
X443434Y467283D02*
X440935Y464784D01*
Y459786D01*
X443434Y457286D01*
X453431D01*
X455930Y459786D01*
Y464784D01*
X453431Y467283D01*
X440935Y472282D02*
X455930D01*
X448432D01*
X445933Y474781D01*
Y479779D01*
X448432Y482278D01*
X455930D01*
X445933Y489776D02*
Y494774D01*
X448432Y497274D01*
X455930D01*
Y489776D01*
X453431Y487277D01*
X450932Y489776D01*
Y497274D01*
X445933Y502272D02*
X455930D01*
X450932D01*
X448432Y504771D01*
X445933Y507270D01*
Y509770D01*
X460928Y522266D02*
Y524765D01*
X458429Y527264D01*
X445933D01*
Y519766D01*
X448432Y517267D01*
X453431D01*
X455930Y519766D01*
Y527264D01*
Y539760D02*
Y534761D01*
X453431Y532262D01*
X448432D01*
X445933Y534761D01*
Y539760D01*
X448432Y542259D01*
X450932D01*
Y532262D01*
X445933Y547257D02*
X455930D01*
X450932D01*
X448432Y549757D01*
X445933Y552256D01*
Y554755D01*
X102707Y95005D02*
X92710D01*
Y87508D01*
X97708D01*
X92710D01*
Y80010D01*
X107705Y90007D02*
Y82509D01*
X110204Y80010D01*
X117702D01*
Y90007D01*
X130198Y80010D02*
X125199D01*
X122700Y82509D01*
Y87508D01*
X125199Y90007D01*
X130198D01*
X132697Y87508D01*
Y85008D01*
X122700D01*
X137695Y80010D02*
X142694D01*
X140195D01*
Y95005D01*
X137695D01*
X175183Y92506D02*
X172684Y95005D01*
X167686D01*
X165187Y92506D01*
Y82509D01*
X167686Y80010D01*
X172684D01*
X175183Y82509D01*
Y87508D01*
X170185D01*
X182681Y90007D02*
X187679D01*
X190178Y87508D01*
Y80010D01*
X182681D01*
X180182Y82509D01*
X182681Y85008D01*
X190178D01*
X195177Y90007D02*
Y82509D01*
X197676Y80010D01*
X205174D01*
Y90007D01*
X215170Y75012D02*
X217670D01*
X220169Y77511D01*
Y90007D01*
X212671D01*
X210172Y87508D01*
Y82509D01*
X212671Y80010D01*
X220169D01*
X232665D02*
X227666D01*
X225167Y82509D01*
Y87508D01*
X227666Y90007D01*
X232665D01*
X235164Y87508D01*
Y85008D01*
X225167D01*
X655157Y465845D02*
X645160D01*
Y450850D01*
X655157D01*
X645160Y458348D02*
X650158D01*
X660155Y450850D02*
Y465845D01*
X670152Y450850D01*
Y465845D01*
X675150Y458348D02*
X685147D01*
X690145Y465845D02*
Y450850D01*
X700142D01*
X705141Y465845D02*
X715137D01*
X710139D01*
Y450850D01*
X730133Y463346D02*
X727633Y465845D01*
X722635D01*
X720136Y463346D01*
Y453349D01*
X722635Y450850D01*
X727633D01*
X730133Y453349D01*
X757624Y465845D02*
X752625D01*
X750126Y463346D01*
Y453349D01*
X752625Y450850D01*
X757624D01*
X760123Y453349D01*
Y463346D01*
X757624Y465845D01*
X765121D02*
Y453349D01*
X767620Y450850D01*
X772619D01*
X775118Y453349D01*
Y465845D01*
X780116D02*
X790113D01*
X785115D01*
Y450850D01*
X318607Y1094495D02*
X308610D01*
Y1079500D01*
X318607D01*
X308610Y1086998D02*
X313608D01*
X323605Y1079500D02*
Y1094495D01*
X333602Y1079500D01*
Y1094495D01*
X338600Y1086998D02*
X348597D01*
X353595Y1079500D02*
Y1089497D01*
X358594Y1094495D01*
X363592Y1089497D01*
Y1079500D01*
Y1086998D01*
X353595D01*
X378587Y1091996D02*
X376088Y1094495D01*
X371090D01*
X368591Y1091996D01*
Y1081999D01*
X371090Y1079500D01*
X376088D01*
X378587Y1081999D01*
X393582Y1091996D02*
X391083Y1094495D01*
X386085D01*
X383586Y1091996D01*
Y1089497D01*
X386085Y1086998D01*
X391083D01*
X393582Y1084498D01*
Y1081999D01*
X391083Y1079500D01*
X386085D01*
X383586Y1081999D01*
X421074Y1094495D02*
X416075D01*
X413576Y1091996D01*
Y1081999D01*
X416075Y1079500D01*
X421074D01*
X423573Y1081999D01*
Y1091996D01*
X421074Y1094495D01*
X428571D02*
Y1081999D01*
X431070Y1079500D01*
X436069D01*
X438568Y1081999D01*
Y1094495D01*
X443566D02*
X453563D01*
X448565D01*
Y1079500D01*
X48505Y443230D02*
X63500D01*
Y453227D01*
Y458225D02*
Y463223D01*
Y460724D01*
X53503D01*
Y458225D01*
X56002Y470721D02*
Y480718D01*
X48505Y485716D02*
Y490715D01*
Y488215D01*
X63500D01*
Y485716D01*
Y490715D01*
Y500711D02*
Y505710D01*
X61001Y508209D01*
X56002D01*
X53503Y505710D01*
Y500711D01*
X56002Y498212D01*
X61001D01*
X63500Y500711D01*
Y513207D02*
X53503D01*
Y520705D01*
X56002Y523204D01*
X63500D01*
Y543198D02*
Y548196D01*
Y545697D01*
X48505D01*
X51004Y543198D01*
Y555694D02*
X48505Y558193D01*
Y563191D01*
X51004Y565690D01*
X53503D01*
X56002Y563191D01*
X58502Y565690D01*
X61001D01*
X63500Y563191D01*
Y558193D01*
X61001Y555694D01*
X58502D01*
X56002Y558193D01*
X53503Y555694D01*
X51004D01*
X56002Y558193D02*
Y563191D01*
X48505Y580686D02*
X51004Y575687D01*
X56002Y570689D01*
X61001D01*
X63500Y573188D01*
Y578186D01*
X61001Y580686D01*
X58502D01*
X56002Y578186D01*
Y570689D01*
X48505Y595681D02*
Y585684D01*
X56002D01*
X53503Y590682D01*
Y593181D01*
X56002Y595681D01*
X61001D01*
X63500Y593181D01*
Y588183D01*
X61001Y585684D01*
X51004Y600679D02*
X48505Y603178D01*
Y608177D01*
X51004Y610676D01*
X61001D01*
X63500Y608177D01*
Y603178D01*
X61001Y600679D01*
X51004D01*
X48505Y630669D02*
X63500D01*
Y638167D01*
X61001Y640666D01*
X58502D01*
X56002Y638167D01*
Y630669D01*
Y638167D01*
X53503Y640666D01*
X51004D01*
X48505Y638167D01*
Y630669D01*
X53503Y648164D02*
Y653162D01*
X56002Y655661D01*
X63500D01*
Y648164D01*
X61001Y645665D01*
X58502Y648164D01*
Y655661D01*
X51004Y663159D02*
X53503D01*
Y660660D01*
Y665658D01*
Y663159D01*
X61001D01*
X63500Y665658D01*
X51004Y675655D02*
X53503D01*
Y673156D01*
Y678154D01*
Y675655D01*
X61001D01*
X63500Y678154D01*
Y693149D02*
Y688151D01*
X61001Y685651D01*
X56002D01*
X53503Y688151D01*
Y693149D01*
X56002Y695648D01*
X58502D01*
Y685651D01*
X53503Y700647D02*
X63500D01*
X58502D01*
X56002Y703146D01*
X53503Y705645D01*
Y708144D01*
Y715642D02*
X61001D01*
X63500Y718141D01*
Y725639D01*
X65999D01*
X68498Y723139D01*
Y720640D01*
X63500Y725639D02*
X53503D01*
X51004Y755629D02*
X48505Y753130D01*
Y748131D01*
X51004Y745632D01*
X61001D01*
X63500Y748131D01*
Y753130D01*
X61001Y755629D01*
X63500Y768125D02*
Y763126D01*
X61001Y760627D01*
X56002D01*
X53503Y763126D01*
Y768125D01*
X56002Y770624D01*
X58502D01*
Y760627D01*
X63500Y775622D02*
Y780621D01*
Y778122D01*
X48505D01*
Y775622D01*
X63500Y788118D02*
Y793117D01*
Y790618D01*
X48505D01*
Y788118D01*
X1549400Y208035D02*
Y193040D01*
X1556898D01*
X1559397Y195539D01*
Y205536D01*
X1556898Y208035D01*
X1549400D01*
X1564395D02*
Y193040D01*
Y200538D01*
X1574392D01*
Y208035D01*
Y193040D01*
X1579390Y208035D02*
X1589387D01*
X1584389D01*
Y193040D01*
X1594385Y200538D02*
X1604382D01*
X1619377Y193040D02*
X1609381D01*
X1619377Y203037D01*
Y205536D01*
X1616878Y208035D01*
X1611880D01*
X1609381Y205536D01*
X1634373Y193040D02*
X1624376D01*
X1634373Y203037D01*
Y205536D01*
X1631873Y208035D01*
X1626875D01*
X1624376Y205536D01*
X1654366Y208035D02*
X1664363D01*
X1659364D01*
Y193040D01*
X1669361D02*
X1679358Y203037D01*
X1684356Y208035D02*
Y193040D01*
Y200538D01*
X1694353D01*
Y208035D01*
Y193040D01*
D70*
X1333288Y1163326D02*
G03*
X1333288Y1124926I-13500J-19200D01*
G01*
X1326292Y125934D02*
G03*
X1287892Y125934I-19200J13500D01*
G01*
X1264300Y513100D02*
Y665500D01*
X1289700Y513100D02*
Y665500D01*
X1264300D02*
X1289700D01*
X1264300Y513100D02*
X1289700D01*
X653860Y889642D02*
X661860D01*
X653860Y874642D02*
X661860D01*
X1003054Y532746D02*
X1032054D01*
X1003054Y473746D02*
Y532746D01*
Y473746D02*
X1032054D01*
Y510996D01*
Y532746D01*
X1333288Y1124926D02*
Y1126626D01*
Y1161626D02*
Y1163326D01*
X244400Y1161000D02*
X246686D01*
X191314D02*
X193600D01*
X244400Y1153380D02*
Y1161000D01*
X193600Y1153380D02*
X244400D01*
X193600D02*
Y1168620D01*
X244400D01*
Y1161000D02*
Y1168620D01*
X783514Y774138D02*
Y850338D01*
X758114D02*
X783514D01*
X758114Y774138D02*
Y850338D01*
Y774138D02*
X783514D01*
X770814Y850338D02*
Y865578D01*
Y758898D02*
Y774138D01*
X1251422Y1108160D02*
Y1158960D01*
Y1108160D02*
X1276822D01*
Y1158960D01*
X1251422D02*
X1276822D01*
X1731240Y492822D02*
X1782040D01*
Y543622D01*
X1731240Y492822D02*
Y543622D01*
X1782040D01*
X656336Y842772D02*
X705019D01*
X656336D02*
X732536D01*
X656336Y791972D02*
X732536D01*
Y842772D01*
X656336Y791972D02*
Y842772D01*
X600172Y844580D02*
X628172D01*
Y816580D02*
Y844580D01*
X600172Y816580D02*
X628172D01*
X600172D02*
Y844580D01*
X687848Y220544D02*
X737848D01*
X687848Y238544D02*
X737848D01*
X687848Y220544D02*
Y238544D01*
X737848Y220544D02*
Y238544D01*
X1287892Y125934D02*
X1289592D01*
X1324592D02*
X1326292D01*
X190314Y1118000D02*
X192600D01*
X243400D02*
X245686D01*
X192600D02*
Y1125620D01*
X243400D01*
Y1110380D02*
Y1125620D01*
X192600Y1110380D02*
X243400D01*
X192600D02*
Y1118000D01*
X1171900Y27300D02*
X1222700D01*
Y52700D01*
X1171900D02*
X1222700D01*
X1171900Y27300D02*
Y52700D01*
X625124Y685008D02*
Y713008D01*
X597124Y685008D02*
X625124D01*
X597124D02*
Y713008D01*
X625124D01*
X1400652Y548630D02*
X1467152D01*
X1400652Y519420D02*
X1467152D01*
Y548630D01*
X1400652Y519420D02*
Y548630D01*
D71*
X1060440Y589370D02*
G03*
X1060440Y589370I-3810J0D01*
G01*
D72*
X692922Y762640D02*
G03*
X699018Y762640I3048J0D01*
G01*
X1131049Y514950D02*
Y585049D01*
X1060950Y514950D02*
X1131049D01*
X1060950D02*
Y581501D01*
X1064499Y585049D02*
X1131049D01*
X1060950Y581501D02*
X1064499Y585049D01*
X683778Y762640D02*
X692922D01*
X699018D01*
X708162D01*
X683778Y722000D02*
X708162D01*
D73*
X615422Y851080D02*
G03*
X615422Y851080I-1250J0D01*
G01*
X686548Y205544D02*
G03*
X686548Y205544I-1250J0D01*
G01*
X632874Y699008D02*
G03*
X632874Y699008I-1250J0D01*
G01*
X1755000Y572000D02*
Y616000D01*
X1728000D02*
X1783000D01*
X1784000Y573000D02*
Y616000D01*
X1727000Y572000D02*
X1784000D01*
X1727000D02*
Y616000D01*
D74*
X884983Y270850D02*
G03*
X895984Y279849I1001J10000D01*
G01*
Y287850D02*
G03*
X884983Y296850I-10000J-1001D01*
G01*
D02*
G03*
X873983Y287850I-1001J-10000D01*
G01*
Y279849D02*
G03*
X884983Y270850I10000J1001D01*
G01*
X992000Y271000D02*
G03*
X1003001Y280000I1001J10000D01*
G01*
Y288001D02*
G03*
X992000Y297000I-10000J-1001D01*
G01*
D02*
G03*
X980999Y288001I-1001J-10000D01*
G01*
Y280000D02*
G03*
X992000Y271000I10000J1001D01*
G01*
X1097000D02*
G03*
X1108001Y280000I1001J10000D01*
G01*
Y288001D02*
G03*
X1097000Y297000I-10000J-1001D01*
G01*
D02*
G03*
X1085999Y288001I-1001J-10000D01*
G01*
Y280000D02*
G03*
X1097000Y271000I10000J1001D01*
G01*
X1544113Y466662D02*
X1663493D01*
Y316803D02*
Y466662D01*
X1544113Y316803D02*
X1663493D01*
X1544113D02*
Y466662D01*
X1543803Y466591D02*
X1663803D01*
Y316592D02*
Y466591D01*
X1543803Y316592D02*
X1663803D01*
X1543803D02*
Y466591D01*
X1053900Y147300D02*
Y172700D01*
X901500Y147300D02*
X1053900D01*
X901500D02*
Y172700D01*
X1053900D01*
X380254Y20288D02*
Y45688D01*
X329454Y20288D02*
X380254D01*
X329454D02*
Y45688D01*
X380254D01*
X658114Y678688D02*
X670814D01*
X658114Y650748D02*
Y678688D01*
Y650748D02*
X670814D01*
Y678688D01*
X683514Y872998D02*
Y890778D01*
X716534D01*
Y872998D02*
Y890778D01*
X683514Y872998D02*
X716534D01*
X691769Y649478D02*
X693674D01*
X691769Y652018D02*
X693674Y649478D01*
X691769Y652018D02*
X694309Y650748D01*
X691769Y654558D02*
X694309Y650748D01*
X691769Y654558D02*
X694944Y651383D01*
X691769Y657098D02*
X694944Y651383D01*
X691769Y657098D02*
X695579Y652018D01*
X693674Y649478D02*
X695579Y652018D01*
X691769Y646938D02*
X693674Y649478D01*
X691769Y646938D02*
Y649478D01*
Y652018D01*
Y654558D01*
Y657098D01*
X677799Y660908D02*
X709549D01*
X677799Y643128D02*
Y660908D01*
Y643128D02*
X709549D01*
Y660908D01*
X662048Y225353D02*
X667128D01*
X664588Y222813D02*
Y227893D01*
X656333Y206303D02*
X672843D01*
Y248213D01*
X656333D02*
X672843D01*
X656333Y206303D02*
Y248213D01*
X1429204Y73564D02*
Y149764D01*
X1403804D02*
X1429204D01*
X1403804Y73564D02*
Y149764D01*
Y73564D02*
X1429204D01*
X895984Y279850D02*
Y287851D01*
X873982Y279850D02*
Y287851D01*
X880983Y304851D02*
X888984D01*
X880983Y262849D02*
X888984D01*
X868984Y271851D02*
Y295849D01*
X900983Y271851D02*
Y295849D01*
X1085110Y412620D02*
X1102890D01*
Y379600D02*
Y412620D01*
X1085110Y379600D02*
X1102890D01*
X1085110D02*
Y412620D01*
X983110Y411400D02*
X1000890D01*
Y378380D02*
Y411400D01*
X983110Y378380D02*
X1000890D01*
X983110D02*
Y411400D01*
X878110D02*
X895890D01*
Y378380D02*
Y411400D01*
X878110Y378380D02*
X895890D01*
X878110D02*
Y411400D01*
X1122510Y637110D02*
Y654890D01*
X1089490Y637110D02*
X1122510D01*
X1089490D02*
Y654890D01*
X1122510D01*
X1131346Y635122D02*
Y652902D01*
X1164366D01*
Y635122D02*
Y652902D01*
X1131346Y635122D02*
X1164366D01*
X1003001Y279999D02*
Y288000D01*
X980999Y279999D02*
Y288000D01*
X987999Y305001D02*
X996001D01*
X987999Y262999D02*
X996001D01*
X976001Y272001D02*
Y295999D01*
X1007999Y272001D02*
Y295999D01*
X1215826Y65422D02*
Y83202D01*
X1182806Y65422D02*
X1215826D01*
X1182806D02*
Y83202D01*
X1215826D01*
X1206972Y1151594D02*
X1224752D01*
Y1118574D02*
Y1151594D01*
X1206972Y1118574D02*
X1224752D01*
X1206972D02*
Y1151594D01*
X1322840Y78220D02*
Y96000D01*
X1289820Y78220D02*
X1322840D01*
X1289820D02*
Y96000D01*
X1322840D01*
X1362968Y1155556D02*
X1380748D01*
Y1122536D02*
Y1155556D01*
X1362968Y1122536D02*
X1380748D01*
X1362968D02*
Y1155556D01*
X1275596Y27928D02*
X1351796D01*
Y53328D01*
X1275596D02*
X1351796D01*
X1275596Y27928D02*
Y53328D01*
X1433072Y1111614D02*
Y1187814D01*
X1407672D02*
X1433072D01*
X1407672Y1111614D02*
Y1187814D01*
Y1111614D02*
X1433072D01*
X1365110Y121490D02*
X1382890D01*
X1365110D02*
Y154510D01*
X1382890D01*
Y121490D02*
Y154510D01*
X878840Y995045D02*
X883920D01*
X881380Y992505D02*
Y997585D01*
X873125Y1014095D02*
X889635D01*
X873125Y972185D02*
Y1014095D01*
Y972185D02*
X889635D01*
Y1014095D01*
X983615Y544195D02*
Y586105D01*
X1000125D01*
Y544195D02*
Y586105D01*
X983615Y544195D02*
X1000125D01*
X991870Y560705D02*
Y565785D01*
X989330Y563245D02*
X994410D01*
X1287283Y962629D02*
Y1004539D01*
X1270773Y962629D02*
X1287283D01*
X1270773D02*
Y1004539D01*
X1287283D01*
X1279028Y982949D02*
Y988029D01*
X1276488Y985489D02*
X1281568D01*
X556514Y744728D02*
X581914D01*
Y668528D02*
Y744728D01*
X556514Y668528D02*
X581914D01*
X556514D02*
Y744728D01*
X557784Y845058D02*
X583184D01*
Y768858D02*
Y845058D01*
X557784Y768858D02*
X583184D01*
X557784D02*
Y845058D01*
X1786358Y407986D02*
X1804138D01*
X1786358D02*
Y441006D01*
X1804138D01*
Y407986D02*
Y441006D01*
X745744Y682498D02*
X771144D01*
Y606298D02*
Y682498D01*
X745744Y606298D02*
X771144D01*
X745744D02*
Y682498D01*
X440198Y25876D02*
Y38576D01*
X412258D02*
X440198D01*
X412258Y25876D02*
Y38576D01*
Y25876D02*
X440198D01*
X481727Y23844D02*
Y41624D01*
X449977Y23844D02*
X481727D01*
X449977D02*
Y41624D01*
X481727D01*
X463947Y35274D02*
Y37814D01*
Y32734D02*
Y35274D01*
Y30194D02*
Y32734D01*
Y27654D02*
Y30194D01*
Y27654D02*
X465852Y30194D01*
X467757Y32734D01*
X463947Y37814D02*
X467757Y32734D01*
X463947Y37814D02*
X467122Y32099D01*
X463947Y35274D02*
X467122Y32099D01*
X463947Y35274D02*
X466487Y31464D01*
X463947Y32734D02*
X466487Y31464D01*
X463947Y32734D02*
X465852Y30194D01*
X463947D02*
X465852D01*
X1200434Y485516D02*
Y498216D01*
X1172494D02*
X1200434D01*
X1172494Y485516D02*
Y498216D01*
Y485516D02*
X1200434D01*
X1226540Y482095D02*
Y484000D01*
X1224000Y482095D02*
X1226540Y484000D01*
X1224000Y482095D02*
X1225270Y484635D01*
X1221460Y482095D02*
X1225270Y484635D01*
X1221460Y482095D02*
X1224635Y485270D01*
X1218920Y482095D02*
X1224635Y485270D01*
X1218920Y482095D02*
X1224000Y485905D01*
X1226540Y484000D01*
X1229080Y482095D01*
X1226540D02*
X1229080D01*
X1224000D02*
X1226540D01*
X1221460D02*
X1224000D01*
X1218920D02*
X1221460D01*
X1215110Y468125D02*
Y499875D01*
Y468125D02*
X1232890D01*
Y499875D01*
X1215110D02*
X1232890D01*
X889284Y505836D02*
Y523616D01*
X856264Y505836D02*
X889284D01*
X856264D02*
Y523616D01*
X889284D01*
X1332647Y744545D02*
Y786455D01*
X1349157D01*
Y744545D02*
Y786455D01*
X1332647Y744545D02*
X1349157D01*
X1340902Y761055D02*
Y766135D01*
X1338362Y763595D02*
X1343442D01*
X1749020Y274763D02*
Y276668D01*
X1746480Y274763D02*
X1749020Y276668D01*
X1746480Y274763D02*
X1747750Y277303D01*
X1743940Y274763D02*
X1747750Y277303D01*
X1743940Y274763D02*
X1747115Y277938D01*
X1741400Y274763D02*
X1747115Y277938D01*
X1741400Y274763D02*
X1746480Y278573D01*
X1749020Y276668D01*
X1751560Y274763D01*
X1749020D02*
X1751560D01*
X1746480D02*
X1749020D01*
X1743940D02*
X1746480D01*
X1741400D02*
X1743940D01*
X1737590Y260793D02*
Y292543D01*
Y260793D02*
X1755370D01*
Y292543D01*
X1737590D02*
X1755370D01*
X1714730Y262698D02*
X1727430D01*
Y290638D01*
X1714730D02*
X1727430D01*
X1714730Y262698D02*
Y290638D01*
X1759942Y441768D02*
X1777722D01*
Y408748D02*
Y441768D01*
X1759942Y408748D02*
X1777722D01*
X1759942D02*
Y441768D01*
X1760704Y482916D02*
X1778484D01*
Y449896D02*
Y482916D01*
X1760704Y449896D02*
X1778484D01*
X1760704D02*
Y482916D01*
X1739368Y351344D02*
Y369124D01*
X1706348Y351344D02*
X1739368D01*
X1706348D02*
Y369124D01*
X1739368D01*
X1706856Y345502D02*
X1724636D01*
Y312482D02*
Y345502D01*
X1706856Y312482D02*
X1724636D01*
X1706856D02*
Y345502D01*
X1582269Y287971D02*
X1624179D01*
Y271461D02*
Y287971D01*
X1582269Y271461D02*
X1624179D01*
X1582269D02*
Y287971D01*
X1598779Y279716D02*
X1603859D01*
X1601319Y277176D02*
Y282256D01*
X1425424Y446086D02*
X1438124D01*
Y474026D01*
X1425424D02*
X1438124D01*
X1425424Y446086D02*
Y474026D01*
X1407390Y459929D02*
Y461834D01*
X1404850Y459929D02*
X1407390Y461834D01*
X1404850Y459929D02*
X1406120Y462469D01*
X1402310Y459929D02*
X1406120Y462469D01*
X1402310Y459929D02*
X1405485Y463104D01*
X1399770Y459929D02*
X1405485Y463104D01*
X1399770Y459929D02*
X1404850Y463739D01*
X1407390Y461834D01*
X1409930Y459929D01*
X1407390D02*
X1409930D01*
X1404850D02*
X1407390D01*
X1402310D02*
X1404850D01*
X1399770D02*
X1402310D01*
X1395960Y445959D02*
Y477709D01*
Y445959D02*
X1413740D01*
Y477709D01*
X1395960D02*
X1413740D01*
X1485876Y416114D02*
X1503656D01*
Y383094D02*
Y416114D01*
X1485876Y383094D02*
X1503656D01*
X1485876D02*
Y416114D01*
X677164Y667258D02*
Y685038D01*
X710184D01*
Y667258D02*
Y685038D01*
X677164Y667258D02*
X710184D01*
X663990Y391216D02*
Y416616D01*
X740190D01*
Y391216D02*
Y416616D01*
X663990Y391216D02*
X740190D01*
X674785Y329621D02*
Y371531D01*
X658275Y329621D02*
X674785D01*
X658275D02*
Y371531D01*
X674785D01*
X666530Y349941D02*
Y355021D01*
X663990Y352481D02*
X669070D01*
X537210Y607060D02*
X562610D01*
Y556260D02*
Y607060D01*
X537210Y556260D02*
X562610D01*
X537210D02*
Y607060D01*
X1429996Y419162D02*
Y436942D01*
X1463016D01*
Y419162D02*
Y436942D01*
X1429996Y419162D02*
X1463016D01*
X716060Y354386D02*
X744000D01*
X716060D02*
Y367086D01*
X744000D01*
Y354386D02*
Y367086D01*
X745905Y330256D02*
Y348036D01*
X714155Y330256D02*
X745905D01*
X714155D02*
Y348036D01*
X745905D01*
X728125Y341686D02*
Y344226D01*
Y339146D02*
Y341686D01*
Y336606D02*
Y339146D01*
Y334066D02*
Y336606D01*
Y334066D02*
X730030Y336606D01*
X731935Y339146D01*
X728125Y344226D02*
X731935Y339146D01*
X728125Y344226D02*
X731300Y338511D01*
X728125Y341686D02*
X731300Y338511D01*
X728125Y341686D02*
X730665Y337876D01*
X728125Y339146D02*
X730665Y337876D01*
X728125Y339146D02*
X730030Y336606D01*
X728125D02*
X730030D01*
X1108001Y279999D02*
Y288000D01*
X1085999Y279999D02*
Y288000D01*
X1093000Y305001D02*
X1101001D01*
X1093000Y262999D02*
X1101001D01*
X1081001Y272001D02*
Y295999D01*
X1113000Y272001D02*
Y295999D01*
X827650Y806000D02*
Y834000D01*
X802250Y806000D02*
X827650D01*
X802250D02*
Y834000D01*
X827650D01*
X1400400Y360650D02*
Y389675D01*
X1409400Y398650D02*
X1431401D01*
X1444400Y361095D02*
Y386650D01*
X1412399Y348651D02*
X1432401D01*
X1444400Y360650D01*
X1400900Y360150D02*
X1412399Y348651D01*
X1400400Y389650D02*
X1409400Y398650D01*
X920624Y595766D02*
X929624Y604766D01*
X921124Y566266D02*
X932624Y554767D01*
X952625D02*
X964624Y566766D01*
X932624Y554767D02*
X952625D01*
X964624Y567211D02*
Y592766D01*
X929624Y604766D02*
X951625D01*
X920624Y566766D02*
Y595791D01*
X1785835Y309470D02*
X1814860D01*
X1776860Y318470D02*
Y340471D01*
X1788860Y353470D02*
X1814415D01*
X1826859Y321469D02*
Y341470D01*
X1814860Y353470D02*
X1826859Y341470D01*
X1815360Y309970D02*
X1826859Y321469D01*
X1776860Y318470D02*
X1785860Y309470D01*
D75*
X985360Y993150D02*
Y1018550D01*
X1086960D01*
X985360Y993150D02*
X1086960D01*
Y1018550D01*
D76*
X30530Y107792D02*
X271830D01*
X30530Y209392D02*
X271830D01*
X30530Y107792D02*
Y209392D01*
X271830Y107792D02*
Y209392D01*
X538000Y1153000D02*
X586000D01*
X538000Y1132000D02*
Y1153000D01*
X537999Y1132000D02*
X586000D01*
Y1153000D01*
X1326548Y753992D02*
Y774992D01*
X1278547Y753992D02*
X1326548D01*
X1278548D02*
Y774992D01*
X1326548D01*
X1295160Y974600D02*
X1343160D01*
Y995600D01*
X1295160D02*
X1343161D01*
X1295160Y974600D02*
Y995600D01*
X459790Y658975D02*
X446248D01*
X453019Y652204D02*
Y665746D01*
X429320Y648819D02*
X436091D01*
X439477Y652204D01*
Y665746D01*
X436091Y669132D01*
X429320D01*
X425934Y665746D01*
Y652204D01*
X429320Y648819D01*
X419163D02*
Y665746D01*
X415778Y669132D01*
X409006D01*
X405621Y665746D01*
Y648819D01*
X398850D02*
X385308D01*
X392079D01*
Y669132D01*
X378536Y658975D02*
X364994D01*
X354584Y1014219D02*
X368126D01*
X395211Y1024375D02*
X401982D01*
X398596D01*
Y1004062D01*
X395211D01*
X401982D01*
X412139D02*
Y1024375D01*
X425681Y1004062D01*
Y1024375D01*
X452766Y1014219D02*
X466308D01*
X459537Y1020990D02*
Y1007448D01*
X388663Y971392D02*
X368350D01*
Y961235D01*
X371736Y957850D01*
X385278D01*
X388663Y961235D01*
Y971392D01*
X385278Y937536D02*
X388663Y940922D01*
Y947693D01*
X385278Y951079D01*
X371736D01*
X368350Y947693D01*
Y940922D01*
X371736Y937536D01*
X378507Y930765D02*
Y917223D01*
X388663Y910452D02*
X368350D01*
Y900295D01*
X371736Y896909D01*
X385278D01*
X388663Y900295D01*
Y910452D01*
X385278Y876596D02*
X388663Y879982D01*
Y886753D01*
X385278Y890138D01*
X371736D01*
X368350Y886753D01*
Y879982D01*
X371736Y876596D01*
X381892Y835969D02*
Y846126D01*
X378507Y849511D01*
X371736D01*
X368350Y846126D01*
Y835969D01*
Y825813D02*
Y819041D01*
X371736Y815656D01*
X378507D01*
X381892Y819041D01*
Y825813D01*
X378507Y829198D01*
X371736D01*
X368350Y825813D01*
Y808885D02*
X381892D01*
Y798728D01*
X378507Y795342D01*
X368350D01*
X381892Y788571D02*
X368350Y781800D01*
X381892Y775029D01*
X368350Y758101D02*
Y764872D01*
X371736Y768258D01*
X378507D01*
X381892Y764872D01*
Y758101D01*
X378507Y754715D01*
X375121D01*
Y768258D01*
X381892Y747944D02*
X368350D01*
X375121D01*
X378507Y744559D01*
X381892Y741173D01*
Y737788D01*
X385278Y724245D02*
X381892D01*
Y727631D01*
Y720860D01*
Y724245D01*
X371736D01*
X368350Y720860D01*
Y700546D02*
Y707318D01*
X371736Y710703D01*
X378507D01*
X381892Y707318D01*
Y700546D01*
X378507Y697161D01*
X375121D01*
Y710703D01*
X381892Y690390D02*
X368350D01*
X375121D01*
X378507Y687004D01*
X381892Y683618D01*
Y680233D01*
X416603Y971392D02*
X396290D01*
Y957850D01*
Y951079D02*
X416603D01*
X409832Y944307D01*
X416603Y937536D01*
X396290D01*
Y917223D02*
Y930765D01*
X409832Y917223D01*
X413218D01*
X416603Y920608D01*
Y927380D01*
X413218Y930765D01*
X416603Y896909D02*
Y910452D01*
X406447D01*
X409832Y903681D01*
Y900295D01*
X406447Y896909D01*
X399676D01*
X396290Y900295D01*
Y907066D01*
X399676Y910452D01*
Y890138D02*
X396290Y886753D01*
Y879982D01*
X399676Y876596D01*
X413218D01*
X416603Y879982D01*
Y886753D01*
X413218Y890138D01*
X409832D01*
X406447Y886753D01*
Y876596D01*
X416603Y856283D02*
X413218Y863054D01*
X406447Y869825D01*
X399676D01*
X396290Y866439D01*
Y859668D01*
X399676Y856283D01*
X403061D01*
X406447Y859668D01*
Y869825D01*
X416603Y849511D02*
X396290D01*
X406447D01*
Y835969D01*
X416603D01*
X396290D01*
X416603Y829198D02*
X403061D01*
X396290Y822427D01*
X403061Y815656D01*
X416603D01*
Y788571D02*
X396290D01*
Y778415D01*
X399676Y775029D01*
X403061D01*
X406447D01*
X409832Y778415D01*
Y788571D01*
Y764872D02*
Y758101D01*
X406447Y754715D01*
X396290D01*
Y764872D01*
X399676Y768258D01*
X403061Y764872D01*
Y754715D01*
X396290Y747944D02*
Y737788D01*
X399676Y734402D01*
X403061Y737788D01*
Y744559D01*
X406447Y747944D01*
X409832Y744559D01*
Y734402D01*
X396290Y717474D02*
Y724245D01*
X399676Y727631D01*
X406447D01*
X409832Y724245D01*
Y717474D01*
X406447Y714089D01*
X403061D01*
Y727631D01*
X416603Y693775D02*
X396290D01*
Y703932D01*
X399676Y707318D01*
X406447D01*
X409832Y703932D01*
Y693775D01*
X1047905Y986321D02*
X1046238Y987987D01*
X1042906D01*
X1041240Y986321D01*
Y984654D01*
X1042906Y982988D01*
X1046238D01*
X1047905Y981322D01*
Y979656D01*
X1046238Y977990D01*
X1042906D01*
X1041240Y979656D01*
X1057901Y986321D02*
X1056235Y987987D01*
X1052903D01*
X1051237Y986321D01*
Y979656D01*
X1052903Y977990D01*
X1056235D01*
X1057901Y979656D01*
X1061234Y987987D02*
Y977990D01*
X1067898D01*
X1098705Y1006641D02*
X1097038Y1008307D01*
X1093706D01*
X1092040Y1006641D01*
Y1004975D01*
X1093706Y1003308D01*
X1097038D01*
X1098705Y1001642D01*
Y999976D01*
X1097038Y998310D01*
X1093706D01*
X1092040Y999976D01*
X1102037Y1008307D02*
Y998310D01*
X1107035D01*
X1108701Y999976D01*
Y1006641D01*
X1107035Y1008307D01*
X1102037D01*
X1112033Y998310D02*
Y1004975D01*
X1115366Y1008307D01*
X1118698Y1004975D01*
Y998310D01*
Y1003308D01*
X1112033D01*
X954000Y997997D02*
Y991332D01*
X957332Y988000D01*
X960665Y991332D01*
Y997997D01*
X970661Y996331D02*
X968995Y997997D01*
X965663D01*
X963997Y996331D01*
Y989666D01*
X965663Y988000D01*
X968995D01*
X970661Y989666D01*
X980658Y996331D02*
X978992Y997997D01*
X975660D01*
X973994Y996331D01*
Y989666D01*
X975660Y988000D01*
X978992D01*
X980658Y989666D01*
X1006665Y984331D02*
X1004998Y985997D01*
X1001666D01*
X1000000Y984331D01*
Y977666D01*
X1001666Y976000D01*
X1004998D01*
X1006665Y977666D01*
Y980998D01*
X1003332D01*
X1009997Y976000D02*
Y985997D01*
X1016661Y976000D01*
Y985997D01*
X1019994D02*
Y976000D01*
X1024992D01*
X1026658Y977666D01*
Y984331D01*
X1024992Y985997D01*
X1019994D01*
X1790000Y509580D02*
X1792116Y511696D01*
X1796348D01*
X1798464Y509580D01*
Y507464D01*
X1796348Y505348D01*
X1794232D01*
X1796348D01*
X1798464Y503232D01*
Y501116D01*
X1796348Y499000D01*
X1792116D01*
X1790000Y501116D01*
X1796348Y526000D02*
Y538696D01*
X1790000Y532348D01*
X1798464D01*
X1722464Y530000D02*
X1714000D01*
X1722464Y538464D01*
Y540580D01*
X1720348Y542696D01*
X1716116D01*
X1714000Y540580D01*
X1712000Y508000D02*
X1716232D01*
X1714116D01*
Y520696D01*
X1712000Y518580D01*
X737000Y824000D02*
X741232D01*
X739116D01*
Y836696D01*
X737000Y834580D01*
X745464Y796000D02*
X737000D01*
X745464Y804464D01*
Y806580D01*
X743348Y808696D01*
X739116D01*
X737000Y806580D01*
X652464Y848696D02*
X644000D01*
Y842348D01*
X648232Y844464D01*
X650348D01*
X652464Y842348D01*
Y838116D01*
X650348Y836000D01*
X646116D01*
X644000Y838116D01*
X651464Y810696D02*
X647232Y808580D01*
X643000Y804348D01*
Y800116D01*
X645116Y798000D01*
X649348D01*
X651464Y800116D01*
Y802232D01*
X649348Y804348D01*
X643000D01*
X434188Y457918D02*
X427523D01*
X430856D01*
Y467915D01*
X424191D02*
Y457918D01*
X419193D01*
X417527Y459584D01*
Y462917D01*
X419193Y464583D01*
X424191D01*
X409196Y467915D02*
Y457918D01*
X414194Y462917D01*
X407530D01*
X404198Y459584D02*
X402532Y457918D01*
X399199D01*
X397533Y459584D01*
Y466249D01*
X399199Y467915D01*
X402532D01*
X404198Y466249D01*
Y459584D01*
X387536Y457918D02*
X394201D01*
Y462917D01*
X390869Y461250D01*
X389202D01*
X387536Y462917D01*
Y466249D01*
X389202Y467915D01*
X392535D01*
X394201Y466249D01*
X377540Y457918D02*
X380872Y459584D01*
X384204Y462917D01*
Y466249D01*
X382538Y467915D01*
X379206D01*
X377540Y466249D01*
Y464583D01*
X379206Y462917D01*
X384204D01*
X340125Y572135D02*
Y568803D01*
Y570469D01*
X330128D01*
Y572135D01*
Y568803D01*
Y563804D02*
X340125D01*
X330128Y557140D01*
X340125D01*
X335126Y553808D02*
Y547143D01*
X479825Y572135D02*
Y568803D01*
Y570469D01*
X469828D01*
Y572135D01*
Y568803D01*
Y563804D02*
X479825D01*
X469828Y557140D01*
X479825D01*
X474826Y553808D02*
Y547143D01*
X478158Y550475D02*
X471494D01*
X342284Y404526D02*
Y407858D01*
X340617Y409524D01*
X333953D01*
X332287Y407858D01*
Y404526D01*
X333953Y402860D01*
X340617D01*
X342284Y404526D01*
Y399527D02*
X333953D01*
X332287Y397861D01*
Y394529D01*
X333953Y392863D01*
X342284D01*
Y389531D02*
Y382866D01*
Y386198D01*
X332287D01*
X337285Y379534D02*
Y372869D01*
X373195Y388925D02*
X363199D01*
Y383926D01*
X364865Y382260D01*
X366531D01*
X368197Y383926D01*
Y388925D01*
Y383926D01*
X369863Y382260D01*
X371529D01*
X373195Y383926D01*
Y388925D01*
X368197Y378928D02*
Y372263D01*
X426075Y370789D02*
X416078D01*
Y365790D01*
X417744Y364124D01*
X419411D01*
X421077Y365790D01*
Y370789D01*
Y365790D01*
X422743Y364124D01*
X424409D01*
X426075Y365790D01*
Y370789D01*
X421077Y360792D02*
Y354128D01*
X424409Y357460D02*
X417744D01*
X479897Y412832D02*
Y416164D01*
X478231Y417830D01*
X471566D01*
X469900Y416164D01*
Y412832D01*
X471566Y411166D01*
X478231D01*
X479897Y412832D01*
Y407833D02*
X471566D01*
X469900Y406167D01*
Y402835D01*
X471566Y401169D01*
X479897D01*
Y397836D02*
Y391172D01*
Y394504D01*
X469900D01*
X474898Y387840D02*
Y381175D01*
X478231Y384507D02*
X471566D01*
D77*
X32290Y1064642D02*
X142290D01*
X32290Y254642D02*
X142290D01*
X32290D02*
Y1064642D01*
X142290D02*
X252290D01*
Y254642D02*
Y1064642D01*
X142290Y254642D02*
X252290D01*
X356600Y117972D02*
X466600D01*
X356600Y87972D02*
Y117972D01*
X466600Y77972D02*
Y117972D01*
X316600Y57972D02*
Y297972D01*
Y57972D02*
X506600D01*
Y297972D01*
X316600D02*
X506600D01*
X356600Y57972D02*
Y87972D01*
X466600Y57972D02*
Y77972D01*
X886800Y52000D02*
Y82000D01*
X908700Y14500D02*
Y119500D01*
X1061100D01*
X908700Y14500D02*
X1061100D01*
Y119500D01*
X871800Y67000D02*
X901800D01*
X1071800D02*
X1101800D01*
X1293760Y908880D02*
X1318760D01*
X1293760Y883880D02*
X1318760D01*
X644000Y1058000D02*
X804000D01*
X644000Y978000D02*
X804000D01*
X644000D02*
Y1058000D01*
X804000Y978000D02*
Y1058000D01*
X631000Y567000D02*
X791000D01*
X631000Y487000D02*
X791000D01*
X631000D02*
Y567000D01*
X791000Y487000D02*
Y567000D01*
Y1105000D02*
Y1185000D01*
X631000Y1105000D02*
Y1185000D01*
Y1105000D02*
X791000D01*
X631000Y1185000D02*
X791000D01*
X1148000Y356000D02*
X1149000Y355000D01*
Y200000D02*
X1150000Y199000D01*
X814000Y198000D02*
X815000Y199000D01*
X1099000Y245000D02*
X1120000Y224000D01*
X1096000Y245000D02*
X1099000D01*
X1075000Y224000D02*
X1096000Y245000D01*
X995000Y223000D02*
X1016000Y244000D01*
X992000Y223000D02*
X995000D01*
X971000Y244000D02*
X992000Y223000D01*
X462000Y1103000D02*
Y1183000D01*
X302000Y1103000D02*
Y1183000D01*
Y1103000D02*
X462000D01*
X302000Y1183000D02*
X462000D01*
X881800Y1120000D02*
Y1150000D01*
X903700Y1082500D02*
Y1187500D01*
X1056100D01*
X903700Y1082500D02*
X1056100D01*
Y1187500D01*
X866800Y1135000D02*
X896800D01*
X1066800D02*
X1096800D01*
D78*
X72290Y944642D02*
Y1024642D01*
X42290Y984642D02*
X102290D01*
X82290Y274642D02*
Y354642D01*
X814000Y356000D02*
X1148000D01*
X1149000Y200000D02*
Y355000D01*
X815000Y199000D02*
X1150000D01*
X814000Y198000D02*
Y356000D01*
D79*
X884069Y573646D02*
Y590425D01*
X891959D01*
Y573646D02*
Y590425D01*
X884069Y573646D02*
X891959D01*
D80*
X1288760Y848880D02*
Y938880D01*
Y848880D02*
X1323760D01*
Y938880D01*
X850474Y536476D02*
X885474D01*
X850474Y556476D02*
X885474D01*
X875474Y536476D02*
Y556476D01*
X652644Y899908D02*
X717644D01*
X654644Y929908D02*
X717644D01*
X684390Y361886D02*
X686890Y364386D01*
X699390D01*
Y344386D02*
Y364386D01*
X684390Y344386D02*
X699390D01*
X684390D02*
Y361886D01*
D81*
X643890Y968848D02*
Y958850D01*
Y968848D02*
X650079D01*
X643890Y964087D02*
X647699D01*
X651698Y966467D02*
Y966944D01*
X652174Y967896D01*
X652650Y968372D01*
X653602Y968848D01*
X655507D01*
X656459Y968372D01*
X656935Y967896D01*
X657411Y966944D01*
Y965991D01*
X656935Y965039D01*
X655983Y963611D01*
X651222Y958850D01*
X657887D01*
X629920Y1095848D02*
Y1085850D01*
Y1095848D02*
X636109D01*
X629920Y1091087D02*
X633729D01*
X642013Y1095848D02*
X637252Y1089183D01*
X644393D01*
X642013Y1095848D02*
Y1085850D01*
X603800Y495998D02*
Y486000D01*
Y495998D02*
X609989D01*
X603800Y491237D02*
X607609D01*
X612084Y495998D02*
X617321D01*
X614464Y492189D01*
X615893D01*
X616845Y491713D01*
X617321Y491237D01*
X617797Y489809D01*
Y488857D01*
X617321Y487428D01*
X616369Y486476D01*
X614940Y486000D01*
X613512D01*
X612084Y486476D01*
X611608Y486952D01*
X611132Y487904D01*
X898665Y328570D02*
X897713Y329522D01*
X896285Y329998D01*
X894380D01*
X892952Y329522D01*
X892000Y328570D01*
Y327617D01*
X892476Y326665D01*
X892952Y326189D01*
X893904Y325713D01*
X896761Y324761D01*
X897713Y324285D01*
X898189Y323809D01*
X898665Y322856D01*
Y321428D01*
X897713Y320476D01*
X896285Y320000D01*
X894380D01*
X892952Y320476D01*
X892000Y321428D01*
X900903Y329998D02*
X903283Y320000D01*
X905664Y329998D02*
X903283Y320000D01*
X905664Y329998D02*
X908044Y320000D01*
X910425Y329998D02*
X908044Y320000D01*
X912900Y327617D02*
Y328093D01*
X913376Y329046D01*
X913852Y329522D01*
X914805Y329998D01*
X916709D01*
X917661Y329522D01*
X918137Y329046D01*
X918613Y328093D01*
Y327141D01*
X918137Y326189D01*
X917185Y324761D01*
X912424Y320000D01*
X919089D01*
X1004665Y332570D02*
X1003713Y333522D01*
X1002285Y333998D01*
X1000380D01*
X998952Y333522D01*
X998000Y332570D01*
Y331617D01*
X998476Y330665D01*
X998952Y330189D01*
X999904Y329713D01*
X1002761Y328761D01*
X1003713Y328285D01*
X1004189Y327809D01*
X1004665Y326856D01*
Y325428D01*
X1003713Y324476D01*
X1002285Y324000D01*
X1000380D01*
X998952Y324476D01*
X998000Y325428D01*
X1006903Y333998D02*
X1009283Y324000D01*
X1011664Y333998D02*
X1009283Y324000D01*
X1011664Y333998D02*
X1014044Y324000D01*
X1016425Y333998D02*
X1014044Y324000D01*
X1019376Y333998D02*
X1024613D01*
X1021757Y330189D01*
X1023185D01*
X1024137Y329713D01*
X1024613Y329237D01*
X1025089Y327809D01*
Y326856D01*
X1024613Y325428D01*
X1023661Y324476D01*
X1022233Y324000D01*
X1020805D01*
X1019376Y324476D01*
X1018900Y324952D01*
X1018424Y325904D01*
X1112665Y330570D02*
X1111713Y331522D01*
X1110285Y331998D01*
X1108380D01*
X1106952Y331522D01*
X1106000Y330570D01*
Y329617D01*
X1106476Y328665D01*
X1106952Y328189D01*
X1107904Y327713D01*
X1110761Y326761D01*
X1111713Y326285D01*
X1112189Y325809D01*
X1112665Y324856D01*
Y323428D01*
X1111713Y322476D01*
X1110285Y322000D01*
X1108380D01*
X1106952Y322476D01*
X1106000Y323428D01*
X1114903Y331998D02*
X1117283Y322000D01*
X1119664Y331998D02*
X1117283Y322000D01*
X1119664Y331998D02*
X1122044Y322000D01*
X1124425Y331998D02*
X1122044Y322000D01*
X1131185Y331998D02*
X1126424Y325333D01*
X1133566D01*
X1131185Y331998D02*
Y322000D01*
X1409381Y69688D02*
Y62070D01*
X1408905Y60642D01*
X1408429Y60166D01*
X1407477Y59690D01*
X1406524D01*
X1405572Y60166D01*
X1405096Y60642D01*
X1404620Y62070D01*
Y63023D01*
X1411952Y67783D02*
X1412904Y68260D01*
X1414332Y69688D01*
Y59690D01*
X1424997Y69688D02*
X1420236D01*
X1419760Y65403D01*
X1420236Y65879D01*
X1421664Y66355D01*
X1423092D01*
X1424521Y65879D01*
X1425473Y64927D01*
X1425949Y63499D01*
Y62547D01*
X1425473Y61118D01*
X1424521Y60166D01*
X1423092Y59690D01*
X1421664D01*
X1420236Y60166D01*
X1419760Y60642D01*
X1419283Y61594D01*
X1254449Y39958D02*
Y32340D01*
X1253973Y30912D01*
X1253497Y30436D01*
X1252544Y29960D01*
X1251592D01*
X1250640Y30436D01*
X1250164Y30912D01*
X1249688Y32340D01*
Y33293D01*
X1257020Y38054D02*
X1257972Y38530D01*
X1259400Y39958D01*
Y29960D01*
X1269112Y39958D02*
X1264352Y33293D01*
X1271493D01*
X1269112Y39958D02*
Y29960D01*
X1414461Y1106008D02*
Y1098390D01*
X1413985Y1096962D01*
X1413509Y1096486D01*
X1412556Y1096010D01*
X1411604D01*
X1410652Y1096486D01*
X1410176Y1096962D01*
X1409700Y1098390D01*
Y1099343D01*
X1417032Y1104103D02*
X1417984Y1104580D01*
X1419412Y1106008D01*
Y1096010D01*
X1425316Y1106008D02*
X1430553D01*
X1427696Y1102199D01*
X1429124D01*
X1430077Y1101723D01*
X1430553Y1101247D01*
X1431029Y1099819D01*
Y1098867D01*
X1430553Y1097438D01*
X1429601Y1096486D01*
X1428172Y1096010D01*
X1426744D01*
X1425316Y1096486D01*
X1424840Y1096962D01*
X1424364Y1097914D01*
X826000Y869998D02*
Y860000D01*
Y869998D02*
X830285D01*
X831713Y869522D01*
X832189Y869046D01*
X832665Y868093D01*
Y867141D01*
X832189Y866189D01*
X831713Y865713D01*
X830285Y865237D01*
X826000D01*
X829333D02*
X832665Y860000D01*
X835855Y869998D02*
X841092D01*
X838235Y866189D01*
X839664D01*
X840616Y865713D01*
X841092Y865237D01*
X841568Y863809D01*
Y862857D01*
X841092Y861428D01*
X840140Y860476D01*
X838712Y860000D01*
X837283D01*
X835855Y860476D01*
X835379Y860952D01*
X834903Y861904D01*
X848567Y869998D02*
X843806Y863333D01*
X850947D01*
X848567Y869998D02*
Y860000D01*
X1485900Y204308D02*
Y197167D01*
X1486376Y195738D01*
X1487328Y194786D01*
X1488757Y194310D01*
X1489709D01*
X1491137Y194786D01*
X1492089Y195738D01*
X1492565Y197167D01*
Y204308D01*
X1495327Y202404D02*
X1496279Y202880D01*
X1497707Y204308D01*
Y194310D01*
X1508848Y200975D02*
X1508371Y199547D01*
X1507419Y198595D01*
X1505991Y198119D01*
X1505515D01*
X1504087Y198595D01*
X1503134Y199547D01*
X1502658Y200975D01*
Y201451D01*
X1503134Y202880D01*
X1504087Y203832D01*
X1505515Y204308D01*
X1505991D01*
X1507419Y203832D01*
X1508371Y202880D01*
X1508848Y200975D01*
Y198595D01*
X1508371Y196214D01*
X1507419Y194786D01*
X1505991Y194310D01*
X1505039D01*
X1503611Y194786D01*
X1503134Y195738D01*
X631851Y257481D02*
X631375Y258434D01*
X630423Y259386D01*
X629471Y259862D01*
X627566D01*
X626614Y259386D01*
X625662Y258434D01*
X625186Y257481D01*
X624710Y256053D01*
Y253673D01*
X625186Y252244D01*
X625662Y251292D01*
X626614Y250340D01*
X627566Y249864D01*
X629471D01*
X630423Y250340D01*
X631375Y251292D01*
X631851Y252244D01*
X635136Y257481D02*
Y257957D01*
X635612Y258910D01*
X636088Y259386D01*
X637041Y259862D01*
X638945D01*
X639897Y259386D01*
X640373Y258910D01*
X640849Y257957D01*
Y257005D01*
X640373Y256053D01*
X639421Y254625D01*
X634660Y249864D01*
X641326D01*
X643563Y257957D02*
X644515Y258434D01*
X645944Y259862D01*
Y249864D01*
X659141Y263617D02*
X658665Y264570D01*
X657713Y265522D01*
X656761Y265998D01*
X654856D01*
X653904Y265522D01*
X652952Y264570D01*
X652476Y263617D01*
X652000Y262189D01*
Y259809D01*
X652476Y258380D01*
X652952Y257428D01*
X653904Y256476D01*
X654856Y256000D01*
X656761D01*
X657713Y256476D01*
X658665Y257428D01*
X659141Y258380D01*
X662426Y263617D02*
Y264093D01*
X662902Y265046D01*
X663379Y265522D01*
X664331Y265998D01*
X666235D01*
X667187Y265522D01*
X667663Y265046D01*
X668139Y264093D01*
Y263141D01*
X667663Y262189D01*
X666711Y260761D01*
X661950Y256000D01*
X668615D01*
X673710Y265998D02*
X672281Y265522D01*
X671329Y264093D01*
X670853Y261713D01*
Y260285D01*
X671329Y257904D01*
X672281Y256476D01*
X673710Y256000D01*
X674662D01*
X676090Y256476D01*
X677042Y257904D01*
X677518Y260285D01*
Y261713D01*
X677042Y264093D01*
X676090Y265522D01*
X674662Y265998D01*
X673710D01*
X873281Y965197D02*
X872805Y966150D01*
X871853Y967102D01*
X870901Y967578D01*
X868997D01*
X868044Y967102D01*
X867092Y966150D01*
X866616Y965197D01*
X866140Y963769D01*
Y961389D01*
X866616Y959960D01*
X867092Y959008D01*
X868044Y958056D01*
X868997Y957580D01*
X870901D01*
X871853Y958056D01*
X872805Y959008D01*
X873281Y959960D01*
X876090Y965674D02*
X877042Y966150D01*
X878471Y967578D01*
Y957580D01*
X889135Y967578D02*
X884374D01*
X883898Y963293D01*
X884374Y963769D01*
X885802Y964245D01*
X887231D01*
X888659Y963769D01*
X889611Y962817D01*
X890087Y961389D01*
Y960436D01*
X889611Y959008D01*
X888659Y958056D01*
X887231Y957580D01*
X885802D01*
X884374Y958056D01*
X883898Y958532D01*
X883422Y959484D01*
X497840Y594198D02*
Y587057D01*
X498316Y585628D01*
X499268Y584676D01*
X500697Y584200D01*
X501649D01*
X503077Y584676D01*
X504029Y585628D01*
X504506Y587057D01*
Y594198D01*
X509647D02*
X508219Y593722D01*
X507743Y592770D01*
Y591817D01*
X508219Y590865D01*
X509171Y590389D01*
X511076Y589913D01*
X512504Y589437D01*
X513456Y588485D01*
X513932Y587533D01*
Y586104D01*
X513456Y585152D01*
X512980Y584676D01*
X511552Y584200D01*
X509647D01*
X508219Y584676D01*
X507743Y585152D01*
X507267Y586104D01*
Y587533D01*
X507743Y588485D01*
X508695Y589437D01*
X510123Y589913D01*
X512028Y590389D01*
X512980Y590865D01*
X513456Y591817D01*
Y592770D01*
X512980Y593722D01*
X511552Y594198D01*
X509647D01*
X634444Y188483D02*
X638729D01*
X640157Y188959D01*
X640633Y189435D01*
X641109Y190387D01*
Y191815D01*
X640633Y192768D01*
X640157Y193244D01*
X638729Y193720D01*
X634444D01*
Y183722D01*
X643347Y191815D02*
X644299Y192292D01*
X645727Y193720D01*
Y183722D01*
X656392Y193720D02*
X651631D01*
X651155Y189435D01*
X651631Y189911D01*
X653059Y190387D01*
X654487D01*
X655916Y189911D01*
X656868Y188959D01*
X657344Y187531D01*
Y186579D01*
X656868Y185150D01*
X655916Y184198D01*
X654487Y183722D01*
X653059D01*
X651631Y184198D01*
X651155Y184674D01*
X650679Y185626D01*
X763141Y225617D02*
X762665Y226570D01*
X761713Y227522D01*
X760761Y227998D01*
X758857D01*
X757904Y227522D01*
X756952Y226570D01*
X756476Y225617D01*
X756000Y224189D01*
Y221809D01*
X756476Y220380D01*
X756952Y219428D01*
X757904Y218476D01*
X758857Y218000D01*
X760761D01*
X761713Y218476D01*
X762665Y219428D01*
X763141Y220380D01*
X765950Y226094D02*
X766902Y226570D01*
X768331Y227998D01*
Y218000D01*
X779471Y224665D02*
X778995Y223237D01*
X778043Y222285D01*
X776615Y221809D01*
X776139D01*
X774710Y222285D01*
X773758Y223237D01*
X773282Y224665D01*
Y225141D01*
X773758Y226570D01*
X774710Y227522D01*
X776139Y227998D01*
X776615D01*
X778043Y227522D01*
X778995Y226570D01*
X779471Y224665D01*
Y222285D01*
X778995Y219904D01*
X778043Y218476D01*
X776615Y218000D01*
X775663D01*
X774234Y218476D01*
X773758Y219428D01*
X727710Y279238D02*
Y272097D01*
X728186Y270668D01*
X729138Y269716D01*
X730566Y269240D01*
X731519D01*
X732947Y269716D01*
X733899Y270668D01*
X734375Y272097D01*
Y279238D01*
X737137Y277334D02*
X738089Y277810D01*
X739517Y279238D01*
Y269240D01*
X746849Y279238D02*
X745421Y278762D01*
X744944Y277810D01*
Y276857D01*
X745421Y275905D01*
X746373Y275429D01*
X748277Y274953D01*
X749705Y274477D01*
X750658Y273525D01*
X751133Y272573D01*
Y271144D01*
X750658Y270192D01*
X750181Y269716D01*
X748753Y269240D01*
X746849D01*
X745421Y269716D01*
X744944Y270192D01*
X744468Y271144D01*
Y272573D01*
X744944Y273525D01*
X745897Y274477D01*
X747325Y274953D01*
X749229Y275429D01*
X750181Y275905D01*
X750658Y276857D01*
Y277810D01*
X750181Y278762D01*
X748753Y279238D01*
X746849D01*
X1251141Y1019617D02*
X1250665Y1020570D01*
X1249713Y1021522D01*
X1248761Y1021998D01*
X1246857D01*
X1245904Y1021522D01*
X1244952Y1020570D01*
X1244476Y1019617D01*
X1244000Y1018189D01*
Y1015809D01*
X1244476Y1014380D01*
X1244952Y1013428D01*
X1245904Y1012476D01*
X1246857Y1012000D01*
X1248761D01*
X1249713Y1012476D01*
X1250665Y1013428D01*
X1251141Y1014380D01*
X1253950Y1020094D02*
X1254902Y1020570D01*
X1256331Y1021998D01*
Y1012000D01*
X1279141Y1019617D02*
X1278665Y1020570D01*
X1277713Y1021522D01*
X1276761Y1021998D01*
X1274856D01*
X1273904Y1021522D01*
X1272952Y1020570D01*
X1272476Y1019617D01*
X1272000Y1018189D01*
Y1015809D01*
X1272476Y1014380D01*
X1272952Y1013428D01*
X1273904Y1012476D01*
X1274856Y1012000D01*
X1276761D01*
X1277713Y1012476D01*
X1278665Y1013428D01*
X1279141Y1014380D01*
X1282426Y1019617D02*
Y1020094D01*
X1282902Y1021046D01*
X1283378Y1021522D01*
X1284331Y1021998D01*
X1286235D01*
X1287187Y1021522D01*
X1287663Y1021046D01*
X1288139Y1020094D01*
Y1019141D01*
X1287663Y1018189D01*
X1286711Y1016761D01*
X1281950Y1012000D01*
X1288616D01*
X682781Y697227D02*
X682305Y698180D01*
X681353Y699132D01*
X680401Y699608D01*
X678496D01*
X677544Y699132D01*
X676592Y698180D01*
X676116Y697227D01*
X675640Y695799D01*
Y693419D01*
X676116Y691990D01*
X676592Y691038D01*
X677544Y690086D01*
X678496Y689610D01*
X680401D01*
X681353Y690086D01*
X682305Y691038D01*
X682781Y691990D01*
X686542Y699608D02*
X691779D01*
X688923Y695799D01*
X690351D01*
X691303Y695323D01*
X691779Y694847D01*
X692255Y693419D01*
Y692467D01*
X691779Y691038D01*
X690827Y690086D01*
X689399Y689610D01*
X687971D01*
X686542Y690086D01*
X686066Y690562D01*
X685590Y691514D01*
X1338101Y797557D02*
X1337625Y798510D01*
X1336673Y799462D01*
X1335721Y799938D01*
X1333817D01*
X1332864Y799462D01*
X1331912Y798510D01*
X1331436Y797557D01*
X1330960Y796129D01*
Y793749D01*
X1331436Y792320D01*
X1331912Y791368D01*
X1332864Y790416D01*
X1333817Y789940D01*
X1335721D01*
X1336673Y790416D01*
X1337625Y791368D01*
X1338101Y792320D01*
X1346623Y799938D02*
X1341862D01*
X1341386Y795653D01*
X1341862Y796129D01*
X1343291Y796605D01*
X1344719D01*
X1346147Y796129D01*
X1347099Y795177D01*
X1347576Y793749D01*
Y792796D01*
X1347099Y791368D01*
X1346147Y790416D01*
X1344719Y789940D01*
X1343291D01*
X1341862Y790416D01*
X1341386Y790892D01*
X1340910Y791844D01*
X1364771Y797557D02*
X1364295Y798510D01*
X1363343Y799462D01*
X1362391Y799938D01*
X1360486D01*
X1359534Y799462D01*
X1358582Y798510D01*
X1358106Y797557D01*
X1357630Y796129D01*
Y793749D01*
X1358106Y792320D01*
X1358582Y791368D01*
X1359534Y790416D01*
X1360486Y789940D01*
X1362391D01*
X1363343Y790416D01*
X1364295Y791368D01*
X1364771Y792320D01*
X1373293Y798510D02*
X1372817Y799462D01*
X1371389Y799938D01*
X1370437D01*
X1369008Y799462D01*
X1368056Y798034D01*
X1367580Y795653D01*
Y793273D01*
X1368056Y791368D01*
X1369008Y790416D01*
X1370437Y789940D01*
X1370913D01*
X1372341Y790416D01*
X1373293Y791368D01*
X1373769Y792796D01*
Y793273D01*
X1373293Y794701D01*
X1372341Y795653D01*
X1370913Y796129D01*
X1370437D01*
X1369008Y795653D01*
X1368056Y794701D01*
X1367580Y793273D01*
X614709Y664342D02*
X614233Y665294D01*
X613281Y666246D01*
X612329Y666722D01*
X610424D01*
X609472Y666246D01*
X608520Y665294D01*
X608044Y664342D01*
X607568Y662913D01*
Y660533D01*
X608044Y659105D01*
X608520Y658152D01*
X609472Y657200D01*
X610424Y656724D01*
X612329D01*
X613281Y657200D01*
X614233Y658152D01*
X614709Y659105D01*
X624184Y666722D02*
X619423Y656724D01*
X617518Y666722D02*
X624184D01*
X988851Y600707D02*
X988375Y601660D01*
X987423Y602612D01*
X986471Y603088D01*
X984566D01*
X983614Y602612D01*
X982662Y601660D01*
X982186Y600707D01*
X981710Y599279D01*
Y596899D01*
X982186Y595470D01*
X982662Y594518D01*
X983614Y593566D01*
X984566Y593090D01*
X986471D01*
X987423Y593566D01*
X988375Y594518D01*
X988851Y595470D01*
X991660Y601184D02*
X992612Y601660D01*
X994041Y603088D01*
Y593090D01*
X1001849Y603088D02*
X1000420Y602612D01*
X999468Y601184D01*
X998992Y598803D01*
Y597375D01*
X999468Y594994D01*
X1000420Y593566D01*
X1001849Y593090D01*
X1002801D01*
X1004229Y593566D01*
X1005181Y594994D01*
X1005657Y597375D01*
Y598803D01*
X1005181Y601184D01*
X1004229Y602612D01*
X1002801Y603088D01*
X1001849D01*
X1014251Y596667D02*
X1013775Y597620D01*
X1012823Y598572D01*
X1011871Y599048D01*
X1009967D01*
X1009014Y598572D01*
X1008062Y597620D01*
X1007586Y596667D01*
X1007110Y595239D01*
Y592859D01*
X1007586Y591430D01*
X1008062Y590478D01*
X1009014Y589526D01*
X1009967Y589050D01*
X1011871D01*
X1012823Y589526D01*
X1013775Y590478D01*
X1014251Y591430D01*
X1017060Y597144D02*
X1018012Y597620D01*
X1019441Y599048D01*
Y589050D01*
X1024392Y597144D02*
X1025344Y597620D01*
X1026772Y599048D01*
Y589050D01*
X562131Y1068067D02*
X561655Y1069020D01*
X560703Y1069972D01*
X559751Y1070448D01*
X557846D01*
X556894Y1069972D01*
X555942Y1069020D01*
X555466Y1068067D01*
X554990Y1066639D01*
Y1064259D01*
X555466Y1062830D01*
X555942Y1061878D01*
X556894Y1060926D01*
X557846Y1060450D01*
X559751D01*
X560703Y1060926D01*
X561655Y1061878D01*
X562131Y1062830D01*
X564940Y1068543D02*
X565892Y1069020D01*
X567321Y1070448D01*
Y1060450D01*
X577033Y1070448D02*
X572272Y1063783D01*
X579413D01*
X577033Y1070448D02*
Y1060450D01*
X1434251Y1024729D02*
X1433775Y1025682D01*
X1432823Y1026634D01*
X1431871Y1027110D01*
X1429966D01*
X1429014Y1026634D01*
X1428062Y1025682D01*
X1427586Y1024729D01*
X1427110Y1023301D01*
Y1020921D01*
X1427586Y1019492D01*
X1428062Y1018540D01*
X1429014Y1017588D01*
X1429966Y1017112D01*
X1431871D01*
X1432823Y1017588D01*
X1433775Y1018540D01*
X1434251Y1019492D01*
X1437060Y1020921D02*
X1442773D01*
Y1021873D01*
X1442297Y1022825D01*
X1441821Y1023301D01*
X1440869Y1023777D01*
X1439441D01*
X1438488Y1023301D01*
X1437536Y1022349D01*
X1437060Y1020921D01*
Y1019968D01*
X1437536Y1018540D01*
X1438488Y1017588D01*
X1439441Y1017112D01*
X1440869D01*
X1441821Y1017588D01*
X1442773Y1018540D01*
X1444916Y1027110D02*
Y1017112D01*
X1447010Y1027110D02*
Y1017112D01*
X1449105Y1025206D02*
X1450058Y1025682D01*
X1451486Y1027110D01*
Y1017112D01*
X726948Y919826D02*
Y909828D01*
Y919826D02*
X730281D01*
X731709Y919350D01*
X732661Y918398D01*
X733137Y917445D01*
X733613Y916017D01*
Y913637D01*
X733137Y912208D01*
X732661Y911256D01*
X731709Y910304D01*
X730281Y909828D01*
X726948D01*
X735851Y917922D02*
X736803Y918398D01*
X738231Y919826D01*
Y909828D01*
X680000Y637618D02*
Y630000D01*
Y637618D02*
X682540D01*
X683628Y637256D01*
X684353Y636530D01*
X684716Y635804D01*
X685079Y634716D01*
Y632902D01*
X684716Y631814D01*
X684353Y631088D01*
X683628Y630363D01*
X682540Y630000D01*
X680000D01*
X687147Y635804D02*
Y636167D01*
X687510Y636893D01*
X687872Y637256D01*
X688598Y637618D01*
X690049D01*
X690775Y637256D01*
X691137Y636893D01*
X691500Y636167D01*
Y635442D01*
X691137Y634716D01*
X690412Y633628D01*
X686784Y630000D01*
X691863D01*
X828200Y552648D02*
Y542650D01*
Y552648D02*
X831533D01*
X832961Y552172D01*
X833913Y551220D01*
X834389Y550267D01*
X834865Y548839D01*
Y546459D01*
X834389Y545030D01*
X833913Y544078D01*
X832961Y543126D01*
X831533Y542650D01*
X828200D01*
X838055Y552648D02*
X843292D01*
X840435Y548839D01*
X841864D01*
X842816Y548363D01*
X843292Y547887D01*
X843768Y546459D01*
Y545507D01*
X843292Y544078D01*
X842340Y543126D01*
X840912Y542650D01*
X839483D01*
X838055Y543126D01*
X837579Y543602D01*
X837103Y544554D01*
X1236000Y475998D02*
Y466000D01*
Y475998D02*
X1239333D01*
X1240761Y475522D01*
X1241713Y474570D01*
X1242189Y473617D01*
X1242665Y472189D01*
Y469809D01*
X1242189Y468380D01*
X1241713Y467428D01*
X1240761Y466476D01*
X1239333Y466000D01*
X1236000D01*
X1249664Y475998D02*
X1244903Y469333D01*
X1252044D01*
X1249664Y475998D02*
Y466000D01*
X1374878Y458116D02*
Y448118D01*
Y458116D02*
X1378211D01*
X1379639Y457640D01*
X1380591Y456688D01*
X1381067Y455735D01*
X1381543Y454307D01*
Y451927D01*
X1381067Y450498D01*
X1380591Y449546D01*
X1379639Y448594D01*
X1378211Y448118D01*
X1374878D01*
X1389494Y456688D02*
X1389018Y457640D01*
X1387590Y458116D01*
X1386637D01*
X1385209Y457640D01*
X1384257Y456212D01*
X1383781Y453831D01*
Y451451D01*
X1384257Y449546D01*
X1385209Y448594D01*
X1386637Y448118D01*
X1387113D01*
X1388542Y448594D01*
X1389494Y449546D01*
X1389970Y450975D01*
Y451451D01*
X1389494Y452879D01*
X1388542Y453831D01*
X1387113Y454307D01*
X1386637D01*
X1385209Y453831D01*
X1384257Y452879D01*
X1383781Y451451D01*
X486172Y38922D02*
Y28924D01*
Y38922D02*
X489505D01*
X490933Y38446D01*
X491885Y37494D01*
X492361Y36541D01*
X492837Y35113D01*
Y32733D01*
X492361Y31304D01*
X491885Y30352D01*
X490933Y29400D01*
X489505Y28924D01*
X486172D01*
X500788Y38922D02*
X496027D01*
X495551Y34637D01*
X496027Y35113D01*
X497455Y35589D01*
X498884D01*
X500312Y35113D01*
X501264Y34161D01*
X501740Y32733D01*
Y31781D01*
X501264Y30352D01*
X500312Y29400D01*
X498884Y28924D01*
X497455D01*
X496027Y29400D01*
X495551Y29876D01*
X495075Y30828D01*
X1762000Y275998D02*
Y266000D01*
Y275998D02*
X1765333D01*
X1766761Y275522D01*
X1767713Y274570D01*
X1768189Y273617D01*
X1768665Y272189D01*
Y269809D01*
X1768189Y268380D01*
X1767713Y267428D01*
X1766761Y266476D01*
X1765333Y266000D01*
X1762000D01*
X1777568Y275998D02*
X1772807Y266000D01*
X1770903Y275998D02*
X1777568D01*
X611313Y810860D02*
Y803242D01*
X610837Y801814D01*
X610361Y801338D01*
X609408Y800862D01*
X608456D01*
X607504Y801338D01*
X607028Y801814D01*
X606552Y803242D01*
Y804195D01*
X613884Y808956D02*
X614836Y809432D01*
X616264Y810860D01*
Y800862D01*
X609281Y727548D02*
Y719930D01*
X608805Y718502D01*
X608329Y718026D01*
X607377Y717550D01*
X606424D01*
X605472Y718026D01*
X604996Y718502D01*
X604520Y719930D01*
Y720883D01*
X612328Y725167D02*
Y725643D01*
X612804Y726596D01*
X613280Y727072D01*
X614232Y727548D01*
X616137D01*
X617089Y727072D01*
X617565Y726596D01*
X618041Y725643D01*
Y724691D01*
X617565Y723739D01*
X616613Y722311D01*
X611852Y717550D01*
X618517D01*
X724000Y782761D02*
X728285D01*
X729713Y783237D01*
X730189Y783713D01*
X730665Y784665D01*
Y786094D01*
X730189Y787046D01*
X729713Y787522D01*
X728285Y787998D01*
X724000D01*
Y778000D01*
X733855Y787998D02*
X739092D01*
X736236Y784189D01*
X737664D01*
X738616Y783713D01*
X739092Y783237D01*
X739568Y781809D01*
Y780856D01*
X739092Y779428D01*
X738140Y778476D01*
X736712Y778000D01*
X735283D01*
X733855Y778476D01*
X733379Y778952D01*
X732903Y779904D01*
X1760000Y556761D02*
X1764285D01*
X1765713Y557237D01*
X1766189Y557713D01*
X1766665Y558665D01*
Y560093D01*
X1766189Y561046D01*
X1765713Y561522D01*
X1764285Y561998D01*
X1760000D01*
Y552000D01*
X1768903Y560093D02*
X1769855Y560570D01*
X1771283Y561998D01*
Y552000D01*
X1776711Y559617D02*
Y560093D01*
X1777187Y561046D01*
X1777663Y561522D01*
X1778615Y561998D01*
X1780519D01*
X1781472Y561522D01*
X1781948Y561046D01*
X1782424Y560093D01*
Y559141D01*
X1781948Y558189D01*
X1780995Y556761D01*
X1776235Y552000D01*
X1782900D01*
X1252220Y1096961D02*
X1256505D01*
X1257933Y1097437D01*
X1258409Y1097913D01*
X1258885Y1098865D01*
Y1100294D01*
X1258409Y1101246D01*
X1257933Y1101722D01*
X1256505Y1102198D01*
X1252220D01*
Y1092200D01*
X1261123Y1100294D02*
X1262075Y1100770D01*
X1263503Y1102198D01*
Y1092200D01*
X1269407Y1102198D02*
X1274644D01*
X1271787Y1098389D01*
X1273215D01*
X1274168Y1097913D01*
X1274644Y1097437D01*
X1275120Y1096009D01*
Y1095057D01*
X1274644Y1093628D01*
X1273692Y1092676D01*
X1272263Y1092200D01*
X1270835D01*
X1269407Y1092676D01*
X1268931Y1093152D01*
X1268455Y1094104D01*
X1144270Y39051D02*
X1148555D01*
X1149983Y39527D01*
X1150459Y40003D01*
X1150935Y40955D01*
Y42383D01*
X1150459Y43336D01*
X1149983Y43812D01*
X1148555Y44288D01*
X1144270D01*
Y34290D01*
X1153173Y42383D02*
X1154125Y42860D01*
X1155553Y44288D01*
Y34290D01*
X1165266Y44288D02*
X1160505Y37623D01*
X1167646D01*
X1165266Y44288D02*
Y34290D01*
X1330907Y866328D02*
X1329954Y865852D01*
X1329002Y864900D01*
X1328526Y863947D01*
X1328050Y862519D01*
Y860139D01*
X1328526Y858710D01*
X1329002Y857758D01*
X1329954Y856806D01*
X1330907Y856330D01*
X1332811D01*
X1333763Y856806D01*
X1334715Y857758D01*
X1335191Y858710D01*
X1335667Y860139D01*
Y862519D01*
X1335191Y863947D01*
X1334715Y864900D01*
X1333763Y865852D01*
X1332811Y866328D01*
X1330907D01*
X1332335Y858234D02*
X1335191Y855378D01*
X1338000Y864424D02*
X1338952Y864900D01*
X1340381Y866328D01*
Y856330D01*
X745000Y864998D02*
Y855000D01*
Y864998D02*
X749285D01*
X750713Y864522D01*
X751189Y864046D01*
X751665Y863093D01*
Y862141D01*
X751189Y861189D01*
X750713Y860713D01*
X749285Y860237D01*
X745000D01*
X748333D02*
X751665Y855000D01*
X753903Y863093D02*
X754855Y863570D01*
X756283Y864998D01*
Y855000D01*
X709618Y868000D02*
X702000D01*
X709618D02*
Y864735D01*
X709256Y863647D01*
X708893Y863284D01*
X708167Y862921D01*
X707442D01*
X706716Y863284D01*
X706353Y863647D01*
X705991Y864735D01*
Y868000D01*
Y865461D02*
X702000Y862921D01*
X707804Y860853D02*
X708167D01*
X708893Y860490D01*
X709256Y860128D01*
X709618Y859402D01*
Y857951D01*
X709256Y857225D01*
X708893Y856863D01*
X708167Y856500D01*
X707442D01*
X706716Y856863D01*
X705628Y857588D01*
X702000Y861216D01*
Y856137D01*
X657860Y646268D02*
Y636270D01*
Y646268D02*
X662145D01*
X663573Y645792D01*
X664049Y645316D01*
X664525Y644363D01*
Y643411D01*
X664049Y642459D01*
X663573Y641983D01*
X662145Y641507D01*
X657860D01*
X661193D02*
X664525Y636270D01*
X667715Y646268D02*
X672952D01*
X670096Y642459D01*
X671524D01*
X672476Y641983D01*
X672952Y641507D01*
X673428Y640079D01*
Y639127D01*
X672952Y637698D01*
X672000Y636746D01*
X670572Y636270D01*
X669143D01*
X667715Y636746D01*
X667239Y637222D01*
X666763Y638174D01*
X713740Y679448D02*
Y671830D01*
Y679448D02*
X717005D01*
X718093Y679086D01*
X718456Y678723D01*
X718819Y677997D01*
Y677272D01*
X718456Y676546D01*
X718093Y676183D01*
X717005Y675821D01*
X713740D01*
X716280D02*
X718819Y671830D01*
X724152Y679448D02*
X720524Y674370D01*
X725966D01*
X724152Y679448D02*
Y671830D01*
X884204Y611084D02*
Y601086D01*
Y611084D02*
X888489D01*
X889917Y610608D01*
X890393Y610132D01*
X890869Y609179D01*
Y608227D01*
X890393Y607275D01*
X889917Y606799D01*
X888489Y606323D01*
X884204D01*
X887537D02*
X890869Y601086D01*
X898820Y611084D02*
X894059D01*
X893583Y606799D01*
X894059Y607275D01*
X895487Y607751D01*
X896916D01*
X898344Y607275D01*
X899296Y606323D01*
X899772Y604895D01*
Y603942D01*
X899296Y602514D01*
X898344Y601562D01*
X896916Y601086D01*
X895487D01*
X894059Y601562D01*
X893583Y602038D01*
X893107Y602990D01*
X838000Y520798D02*
Y510800D01*
Y520798D02*
X842285D01*
X843713Y520322D01*
X844189Y519846D01*
X844665Y518894D01*
Y517941D01*
X844189Y516989D01*
X843713Y516513D01*
X842285Y516037D01*
X838000D01*
X841333D02*
X844665Y510800D01*
X852616Y519370D02*
X852140Y520322D01*
X850712Y520798D01*
X849759D01*
X848331Y520322D01*
X847379Y518894D01*
X846903Y516513D01*
Y514133D01*
X847379Y512228D01*
X848331Y511276D01*
X849759Y510800D01*
X850236D01*
X851664Y511276D01*
X852616Y512228D01*
X853092Y513657D01*
Y514133D01*
X852616Y515561D01*
X851664Y516513D01*
X850236Y516989D01*
X849759D01*
X848331Y516513D01*
X847379Y515561D01*
X846903Y514133D01*
X1136000Y667998D02*
Y658000D01*
Y667998D02*
X1140285D01*
X1141713Y667522D01*
X1142189Y667046D01*
X1142665Y666094D01*
Y665141D01*
X1142189Y664189D01*
X1141713Y663713D01*
X1140285Y663237D01*
X1136000D01*
X1139333D02*
X1142665Y658000D01*
X1151568Y667998D02*
X1146807Y658000D01*
X1144903Y667998D02*
X1151568D01*
X1082000Y669998D02*
Y660000D01*
Y669998D02*
X1086285D01*
X1087713Y669522D01*
X1088189Y669046D01*
X1088665Y668093D01*
Y667141D01*
X1088189Y666189D01*
X1087713Y665713D01*
X1086285Y665237D01*
X1082000D01*
X1085333D02*
X1088665Y660000D01*
X1093283Y669998D02*
X1091855Y669522D01*
X1091379Y668570D01*
Y667617D01*
X1091855Y666665D01*
X1092807Y666189D01*
X1094712Y665713D01*
X1096140Y665237D01*
X1097092Y664285D01*
X1097568Y663333D01*
Y661904D01*
X1097092Y660952D01*
X1096616Y660476D01*
X1095188Y660000D01*
X1093283D01*
X1091855Y660476D01*
X1091379Y660952D01*
X1090903Y661904D01*
Y663333D01*
X1091379Y664285D01*
X1092331Y665237D01*
X1093759Y665713D01*
X1095664Y666189D01*
X1096616Y666665D01*
X1097092Y667617D01*
Y668570D01*
X1096616Y669522D01*
X1095188Y669998D01*
X1093283D01*
X1154000Y495998D02*
Y486000D01*
Y495998D02*
X1158285D01*
X1159713Y495522D01*
X1160189Y495046D01*
X1160665Y494094D01*
Y493141D01*
X1160189Y492189D01*
X1159713Y491713D01*
X1158285Y491237D01*
X1154000D01*
X1157333D02*
X1160665Y486000D01*
X1169092Y492665D02*
X1168616Y491237D01*
X1167664Y490285D01*
X1166236Y489809D01*
X1165759D01*
X1164331Y490285D01*
X1163379Y491237D01*
X1162903Y492665D01*
Y493141D01*
X1163379Y494570D01*
X1164331Y495522D01*
X1165759Y495998D01*
X1166236D01*
X1167664Y495522D01*
X1168616Y494570D01*
X1169092Y492665D01*
Y490285D01*
X1168616Y487904D01*
X1167664Y486476D01*
X1166236Y486000D01*
X1165283D01*
X1163855Y486476D01*
X1163379Y487428D01*
X1454000Y461998D02*
Y452000D01*
Y461998D02*
X1458285D01*
X1459713Y461522D01*
X1460189Y461046D01*
X1460665Y460093D01*
Y459141D01*
X1460189Y458189D01*
X1459713Y457713D01*
X1458285Y457237D01*
X1454000D01*
X1457333D02*
X1460665Y452000D01*
X1463379Y459617D02*
Y460093D01*
X1463855Y461046D01*
X1464331Y461522D01*
X1465283Y461998D01*
X1467188D01*
X1468140Y461522D01*
X1468616Y461046D01*
X1469092Y460093D01*
Y459141D01*
X1468616Y458189D01*
X1467664Y456761D01*
X1462903Y452000D01*
X1469568D01*
X1471806Y460093D02*
X1472758Y460570D01*
X1474186Y461998D01*
Y452000D01*
X384000Y51998D02*
Y42000D01*
Y51998D02*
X388285D01*
X389713Y51522D01*
X390189Y51046D01*
X390665Y50093D01*
Y49141D01*
X390189Y48189D01*
X389713Y47713D01*
X388285Y47237D01*
X384000D01*
X387333D02*
X390665Y42000D01*
X392903Y50093D02*
X393855Y50570D01*
X395283Y51998D01*
Y42000D01*
X403091Y51998D02*
X401663Y51522D01*
X400711Y50093D01*
X400235Y47713D01*
Y46285D01*
X400711Y43904D01*
X401663Y42476D01*
X403091Y42000D01*
X404043D01*
X405472Y42476D01*
X406424Y43904D01*
X406900Y46285D01*
Y47713D01*
X406424Y50093D01*
X405472Y51522D01*
X404043Y51998D01*
X403091D01*
X195000Y1184998D02*
Y1175000D01*
Y1184998D02*
X199285D01*
X200713Y1184522D01*
X201189Y1184046D01*
X201665Y1183093D01*
Y1182141D01*
X201189Y1181189D01*
X200713Y1180713D01*
X199285Y1180237D01*
X195000D01*
X198333D02*
X201665Y1175000D01*
X203903Y1183093D02*
X204855Y1183570D01*
X206283Y1184998D01*
Y1175000D01*
X211235Y1183093D02*
X212187Y1183570D01*
X213615Y1184998D01*
Y1175000D01*
X202000Y1141998D02*
Y1132000D01*
Y1141998D02*
X206285D01*
X207713Y1141522D01*
X208189Y1141046D01*
X208665Y1140094D01*
Y1139141D01*
X208189Y1138189D01*
X207713Y1137713D01*
X206285Y1137237D01*
X202000D01*
X205333D02*
X208665Y1132000D01*
X210903Y1140094D02*
X211855Y1140570D01*
X213283Y1141998D01*
Y1132000D01*
X218711Y1139617D02*
Y1140094D01*
X219187Y1141046D01*
X219663Y1141522D01*
X220615Y1141998D01*
X222519D01*
X223472Y1141522D01*
X223948Y1141046D01*
X224424Y1140094D01*
Y1139141D01*
X223948Y1138189D01*
X222995Y1136761D01*
X218235Y1132000D01*
X224900D01*
X1724636Y474118D02*
Y464120D01*
Y474118D02*
X1728921D01*
X1730349Y473642D01*
X1730825Y473166D01*
X1731301Y472214D01*
Y471261D01*
X1730825Y470309D01*
X1730349Y469833D01*
X1728921Y469357D01*
X1724636D01*
X1727969D02*
X1731301Y464120D01*
X1734015Y471737D02*
Y472214D01*
X1734491Y473166D01*
X1734967Y473642D01*
X1735919Y474118D01*
X1737824D01*
X1738776Y473642D01*
X1739252Y473166D01*
X1739728Y472214D01*
Y471261D01*
X1739252Y470309D01*
X1738300Y468881D01*
X1733539Y464120D01*
X1740204D01*
X1743394Y474118D02*
X1748631D01*
X1745774Y470309D01*
X1747203D01*
X1748155Y469833D01*
X1748631Y469357D01*
X1749107Y467929D01*
Y466977D01*
X1748631Y465548D01*
X1747679Y464596D01*
X1746250Y464120D01*
X1744822D01*
X1743394Y464596D01*
X1742918Y465072D01*
X1742442Y466024D01*
X1686282Y282348D02*
Y272350D01*
Y282348D02*
X1690567D01*
X1691995Y281872D01*
X1692471Y281396D01*
X1692947Y280443D01*
Y279491D01*
X1692471Y278539D01*
X1691995Y278063D01*
X1690567Y277587D01*
X1686282D01*
X1689615D02*
X1692947Y272350D01*
X1695661Y279967D02*
Y280443D01*
X1696137Y281396D01*
X1696613Y281872D01*
X1697565Y282348D01*
X1699470D01*
X1700422Y281872D01*
X1700898Y281396D01*
X1701374Y280443D01*
Y279491D01*
X1700898Y278539D01*
X1699946Y277111D01*
X1695185Y272350D01*
X1701850D01*
X1708849Y282348D02*
X1704088Y275683D01*
X1711229D01*
X1708849Y282348D02*
Y272350D01*
X1480820Y379728D02*
Y372110D01*
Y379728D02*
X1484085D01*
X1485173Y379366D01*
X1485536Y379003D01*
X1485899Y378277D01*
Y377552D01*
X1485536Y376826D01*
X1485173Y376463D01*
X1484085Y376101D01*
X1480820D01*
X1483360D02*
X1485899Y372110D01*
X1487967Y377915D02*
Y378277D01*
X1488329Y379003D01*
X1488692Y379366D01*
X1489418Y379728D01*
X1490869D01*
X1491595Y379366D01*
X1491957Y379003D01*
X1492320Y378277D01*
Y377552D01*
X1491957Y376826D01*
X1491232Y375738D01*
X1487604Y372110D01*
X1492683D01*
X1498741Y379728D02*
X1495114D01*
X1494751Y376463D01*
X1495114Y376826D01*
X1496202Y377189D01*
X1497290D01*
X1498378Y376826D01*
X1499104Y376101D01*
X1499467Y375012D01*
Y374287D01*
X1499104Y373198D01*
X1498378Y372473D01*
X1497290Y372110D01*
X1496202D01*
X1495114Y372473D01*
X1494751Y372836D01*
X1494388Y373561D01*
X1743686Y366168D02*
Y356170D01*
Y366168D02*
X1747971D01*
X1749399Y365692D01*
X1749875Y365216D01*
X1750351Y364263D01*
Y363311D01*
X1749875Y362359D01*
X1749399Y361883D01*
X1747971Y361407D01*
X1743686D01*
X1747019D02*
X1750351Y356170D01*
X1753065Y363787D02*
Y364263D01*
X1753541Y365216D01*
X1754017Y365692D01*
X1754969Y366168D01*
X1756874D01*
X1757826Y365692D01*
X1758302Y365216D01*
X1758778Y364263D01*
Y363311D01*
X1758302Y362359D01*
X1757350Y360931D01*
X1752589Y356170D01*
X1759254D01*
X1767205Y364740D02*
X1766729Y365692D01*
X1765300Y366168D01*
X1764348D01*
X1762920Y365692D01*
X1761968Y364263D01*
X1761492Y361883D01*
Y359503D01*
X1761968Y357598D01*
X1762920Y356646D01*
X1764348Y356170D01*
X1764824D01*
X1766253Y356646D01*
X1767205Y357598D01*
X1767681Y359026D01*
Y359503D01*
X1767205Y360931D01*
X1766253Y361883D01*
X1764824Y362359D01*
X1764348D01*
X1762920Y361883D01*
X1761968Y360931D01*
X1761492Y359503D01*
X1740000Y331998D02*
Y322000D01*
Y331998D02*
X1744285D01*
X1745713Y331522D01*
X1746189Y331046D01*
X1746665Y330093D01*
Y329141D01*
X1746189Y328189D01*
X1745713Y327713D01*
X1744285Y327237D01*
X1740000D01*
X1743333D02*
X1746665Y322000D01*
X1749379Y329617D02*
Y330093D01*
X1749855Y331046D01*
X1750331Y331522D01*
X1751283Y331998D01*
X1753188D01*
X1754140Y331522D01*
X1754616Y331046D01*
X1755092Y330093D01*
Y329141D01*
X1754616Y328189D01*
X1753664Y326761D01*
X1748903Y322000D01*
X1755568D01*
X1764471Y331998D02*
X1759710Y322000D01*
X1757806Y331998D02*
X1764471D01*
X1730478Y427382D02*
Y417384D01*
Y427382D02*
X1734763D01*
X1736191Y426906D01*
X1736667Y426430D01*
X1737143Y425477D01*
Y424525D01*
X1736667Y423573D01*
X1736191Y423097D01*
X1734763Y422621D01*
X1730478D01*
X1733811D02*
X1737143Y417384D01*
X1740333Y427382D02*
X1745570D01*
X1742713Y423573D01*
X1744142D01*
X1745094Y423097D01*
X1745570Y422621D01*
X1746046Y421193D01*
Y420241D01*
X1745570Y418812D01*
X1744618Y417860D01*
X1743190Y417384D01*
X1741761D01*
X1740333Y417860D01*
X1739857Y418336D01*
X1739381Y419288D01*
X1751140Y427382D02*
X1749712Y426906D01*
X1748760Y425477D01*
X1748284Y423097D01*
Y421669D01*
X1748760Y419288D01*
X1749712Y417860D01*
X1751140Y417384D01*
X1752092D01*
X1753521Y417860D01*
X1754473Y419288D01*
X1754949Y421669D01*
Y423097D01*
X1754473Y425477D01*
X1753521Y426906D01*
X1752092Y427382D01*
X1751140D01*
X1361440Y1116168D02*
Y1106170D01*
Y1116168D02*
X1365725D01*
X1367153Y1115692D01*
X1367629Y1115216D01*
X1368105Y1114264D01*
Y1113311D01*
X1367629Y1112359D01*
X1367153Y1111883D01*
X1365725Y1111407D01*
X1361440D01*
X1364773D02*
X1368105Y1106170D01*
X1370343Y1114264D02*
X1371295Y1114740D01*
X1372723Y1116168D01*
Y1106170D01*
X1380055Y1116168D02*
X1378627Y1115692D01*
X1378151Y1114740D01*
Y1113787D01*
X1378627Y1112835D01*
X1379579Y1112359D01*
X1381483Y1111883D01*
X1382912Y1111407D01*
X1383864Y1110455D01*
X1384340Y1109503D01*
Y1108074D01*
X1383864Y1107122D01*
X1383388Y1106646D01*
X1381959Y1106170D01*
X1380055D01*
X1378627Y1106646D01*
X1378151Y1107122D01*
X1377675Y1108074D01*
Y1109503D01*
X1378151Y1110455D01*
X1379103Y1111407D01*
X1380531Y1111883D01*
X1382435Y1112359D01*
X1383388Y1112835D01*
X1383864Y1113787D01*
Y1114740D01*
X1383388Y1115692D01*
X1381959Y1116168D01*
X1380055D01*
X1328000Y97998D02*
Y88000D01*
Y97998D02*
X1332285D01*
X1333713Y97522D01*
X1334189Y97046D01*
X1334665Y96094D01*
Y95141D01*
X1334189Y94189D01*
X1333713Y93713D01*
X1332285Y93237D01*
X1328000D01*
X1331333D02*
X1334665Y88000D01*
X1336903Y96094D02*
X1337855Y96570D01*
X1339283Y97998D01*
Y88000D01*
X1350424Y94665D02*
X1349948Y93237D01*
X1348996Y92285D01*
X1347567Y91809D01*
X1347091D01*
X1345663Y92285D01*
X1344711Y93237D01*
X1344235Y94665D01*
Y95141D01*
X1344711Y96570D01*
X1345663Y97522D01*
X1347091Y97998D01*
X1347567D01*
X1348996Y97522D01*
X1349948Y96570D01*
X1350424Y94665D01*
Y92285D01*
X1349948Y89904D01*
X1348996Y88476D01*
X1347567Y88000D01*
X1346615D01*
X1345187Y88476D01*
X1344711Y89428D01*
X1362710Y170018D02*
Y160020D01*
Y170018D02*
X1366995D01*
X1368423Y169542D01*
X1368899Y169066D01*
X1369375Y168113D01*
Y167161D01*
X1368899Y166209D01*
X1368423Y165733D01*
X1366995Y165257D01*
X1362710D01*
X1366043D02*
X1369375Y160020D01*
X1372089Y167637D02*
Y168113D01*
X1372565Y169066D01*
X1373041Y169542D01*
X1373993Y170018D01*
X1375898D01*
X1376850Y169542D01*
X1377326Y169066D01*
X1377802Y168113D01*
Y167161D01*
X1377326Y166209D01*
X1376374Y164781D01*
X1371613Y160020D01*
X1378278D01*
X1383372Y170018D02*
X1381944Y169542D01*
X1380992Y168113D01*
X1380516Y165733D01*
Y164305D01*
X1380992Y161924D01*
X1381944Y160496D01*
X1383372Y160020D01*
X1384324D01*
X1385753Y160496D01*
X1386705Y161924D01*
X1387181Y164305D01*
Y165733D01*
X1386705Y168113D01*
X1385753Y169542D01*
X1384324Y170018D01*
X1383372D01*
X856000Y425998D02*
Y416000D01*
Y425998D02*
X860285D01*
X861713Y425522D01*
X862189Y425046D01*
X862665Y424094D01*
Y423141D01*
X862189Y422189D01*
X861713Y421713D01*
X860285Y421237D01*
X856000D01*
X859333D02*
X862665Y416000D01*
X864903Y424094D02*
X865855Y424570D01*
X867283Y425998D01*
Y416000D01*
X877948Y425998D02*
X873187D01*
X872711Y421713D01*
X873187Y422189D01*
X874615Y422665D01*
X876043D01*
X877472Y422189D01*
X878424Y421237D01*
X878900Y419809D01*
Y418857D01*
X878424Y417428D01*
X877472Y416476D01*
X876043Y416000D01*
X874615D01*
X873187Y416476D01*
X872711Y416952D01*
X872235Y417904D01*
X968000Y425998D02*
Y416000D01*
Y425998D02*
X972285D01*
X973713Y425522D01*
X974189Y425046D01*
X974665Y424094D01*
Y423141D01*
X974189Y422189D01*
X973713Y421713D01*
X972285Y421237D01*
X968000D01*
X971333D02*
X974665Y416000D01*
X976903Y424094D02*
X977855Y424570D01*
X979283Y425998D01*
Y416000D01*
X989948Y424570D02*
X989472Y425522D01*
X988043Y425998D01*
X987091D01*
X985663Y425522D01*
X984711Y424094D01*
X984235Y421713D01*
Y419333D01*
X984711Y417428D01*
X985663Y416476D01*
X987091Y416000D01*
X987567D01*
X988996Y416476D01*
X989948Y417428D01*
X990424Y418857D01*
Y419333D01*
X989948Y420761D01*
X988996Y421713D01*
X987567Y422189D01*
X987091D01*
X985663Y421713D01*
X984711Y420761D01*
X984235Y419333D01*
X1076000Y427998D02*
Y418000D01*
Y427998D02*
X1080285D01*
X1081713Y427522D01*
X1082189Y427046D01*
X1082665Y426093D01*
Y425141D01*
X1082189Y424189D01*
X1081713Y423713D01*
X1080285Y423237D01*
X1076000D01*
X1079333D02*
X1082665Y418000D01*
X1084903Y426093D02*
X1085855Y426570D01*
X1087283Y427998D01*
Y418000D01*
X1098900Y427998D02*
X1094139Y418000D01*
X1092235Y427998D02*
X1098900D01*
X1203960Y1113628D02*
Y1103630D01*
Y1113628D02*
X1208245D01*
X1209673Y1113152D01*
X1210149Y1112676D01*
X1210625Y1111723D01*
Y1110771D01*
X1210149Y1109819D01*
X1209673Y1109343D01*
X1208245Y1108867D01*
X1203960D01*
X1207293D02*
X1210625Y1103630D01*
X1213339Y1111247D02*
Y1111723D01*
X1213815Y1112676D01*
X1214291Y1113152D01*
X1215243Y1113628D01*
X1217148D01*
X1218100Y1113152D01*
X1218576Y1112676D01*
X1219052Y1111723D01*
Y1110771D01*
X1218576Y1109819D01*
X1217624Y1108391D01*
X1212863Y1103630D01*
X1219528D01*
X1224146Y1113628D02*
X1222718Y1113152D01*
X1222242Y1112200D01*
Y1111247D01*
X1222718Y1110295D01*
X1223670Y1109819D01*
X1225574Y1109343D01*
X1227003Y1108867D01*
X1227955Y1107915D01*
X1228431Y1106963D01*
Y1105534D01*
X1227955Y1104582D01*
X1227479Y1104106D01*
X1226050Y1103630D01*
X1224146D01*
X1222718Y1104106D01*
X1222242Y1104582D01*
X1221766Y1105534D01*
Y1106963D01*
X1222242Y1107915D01*
X1223194Y1108867D01*
X1224622Y1109343D01*
X1226527Y1109819D01*
X1227479Y1110295D01*
X1227955Y1111247D01*
Y1112200D01*
X1227479Y1113152D01*
X1226050Y1113628D01*
X1224146D01*
X1188503Y98092D02*
Y88095D01*
Y98092D02*
X1192788D01*
X1194217Y97616D01*
X1194693Y97140D01*
X1195169Y96188D01*
Y95236D01*
X1194693Y94284D01*
X1194217Y93808D01*
X1192788Y93331D01*
X1188503D01*
X1191836D02*
X1195169Y88095D01*
X1197883Y95712D02*
Y96188D01*
X1198359Y97140D01*
X1198835Y97616D01*
X1199787Y98092D01*
X1201691D01*
X1202643Y97616D01*
X1203120Y97140D01*
X1203596Y96188D01*
Y95236D01*
X1203120Y94284D01*
X1202167Y92856D01*
X1197406Y88095D01*
X1204072D01*
X1212498Y94760D02*
X1212022Y93331D01*
X1211070Y92379D01*
X1209642Y91903D01*
X1209166D01*
X1207738Y92379D01*
X1206785Y93331D01*
X1206309Y94760D01*
Y95236D01*
X1206785Y96664D01*
X1207738Y97616D01*
X1209166Y98092D01*
X1209642D01*
X1211070Y97616D01*
X1212022Y96664D01*
X1212498Y94760D01*
Y92379D01*
X1212022Y89999D01*
X1211070Y88571D01*
X1209642Y88095D01*
X1208690D01*
X1207261Y88571D01*
X1206785Y89523D01*
X932665Y548570D02*
X931713Y549522D01*
X930285Y549998D01*
X928380D01*
X926952Y549522D01*
X926000Y548570D01*
Y547617D01*
X926476Y546665D01*
X926952Y546189D01*
X927904Y545713D01*
X930761Y544761D01*
X931713Y544285D01*
X932189Y543809D01*
X932665Y542856D01*
Y541428D01*
X931713Y540476D01*
X930285Y540000D01*
X928380D01*
X926952Y540476D01*
X926000Y541428D01*
X934903Y548093D02*
X935855Y548570D01*
X937283Y549998D01*
Y540000D01*
X1394521Y416494D02*
X1393569Y417446D01*
X1392141Y417922D01*
X1390236D01*
X1388808Y417446D01*
X1387856Y416494D01*
Y415541D01*
X1388332Y414589D01*
X1388808Y414113D01*
X1389760Y413637D01*
X1392617Y412685D01*
X1393569Y412209D01*
X1394045Y411733D01*
X1394521Y410780D01*
Y409352D01*
X1393569Y408400D01*
X1392141Y407924D01*
X1390236D01*
X1388808Y408400D01*
X1387856Y409352D01*
X1399139Y417922D02*
X1397711Y417446D01*
X1397235Y416494D01*
Y415541D01*
X1397711Y414589D01*
X1398663Y414113D01*
X1400568Y413637D01*
X1401996Y413161D01*
X1402948Y412209D01*
X1403424Y411257D01*
Y409828D01*
X1402948Y408876D01*
X1402472Y408400D01*
X1401044Y407924D01*
X1399139D01*
X1397711Y408400D01*
X1397235Y408876D01*
X1396759Y409828D01*
Y411257D01*
X1397235Y412209D01*
X1398187Y413161D01*
X1399615Y413637D01*
X1401520Y414113D01*
X1402472Y414589D01*
X1402948Y415541D01*
Y416494D01*
X1402472Y417446D01*
X1401044Y417922D01*
X1399139D01*
X682000Y775998D02*
Y768857D01*
X682476Y767428D01*
X683428Y766476D01*
X684856Y766000D01*
X685809D01*
X687237Y766476D01*
X688189Y767428D01*
X688665Y768857D01*
Y775998D01*
X691427Y774093D02*
X692379Y774570D01*
X693807Y775998D01*
Y766000D01*
X1291590Y1039968D02*
Y1032827D01*
X1292066Y1031398D01*
X1293018Y1030446D01*
X1294447Y1029970D01*
X1295399D01*
X1296827Y1030446D01*
X1297779Y1031398D01*
X1298255Y1032827D01*
Y1039968D01*
X1301493Y1037587D02*
Y1038064D01*
X1301969Y1039016D01*
X1302445Y1039492D01*
X1303397Y1039968D01*
X1305301D01*
X1306254Y1039492D01*
X1306730Y1039016D01*
X1307206Y1038064D01*
Y1037111D01*
X1306730Y1036159D01*
X1305777Y1034731D01*
X1301017Y1029970D01*
X1307682D01*
X699610Y383769D02*
Y376628D01*
X700086Y375200D01*
X701038Y374247D01*
X702466Y373771D01*
X703418D01*
X704847Y374247D01*
X705799Y375200D01*
X706275Y376628D01*
Y383769D01*
X709988D02*
X715225D01*
X712369Y379960D01*
X713797D01*
X714749Y379484D01*
X715225Y379008D01*
X715702Y377580D01*
Y376628D01*
X715225Y375200D01*
X714273Y374247D01*
X712845Y373771D01*
X711417D01*
X709988Y374247D01*
X709512Y374723D01*
X709036Y375676D01*
X875030Y107788D02*
Y100646D01*
X875506Y99218D01*
X876458Y98266D01*
X877887Y97790D01*
X878839D01*
X880267Y98266D01*
X881219Y99218D01*
X881695Y100646D01*
Y107788D01*
X889217D02*
X884456Y101123D01*
X891598D01*
X889217Y107788D02*
Y97790D01*
X1253000Y769998D02*
Y762857D01*
X1253476Y761428D01*
X1254428Y760476D01*
X1255856Y760000D01*
X1256809D01*
X1258237Y760476D01*
X1259189Y761428D01*
X1259665Y762857D01*
Y769998D01*
X1268140D02*
X1263379D01*
X1262903Y765713D01*
X1263379Y766189D01*
X1264807Y766665D01*
X1266235D01*
X1267663Y766189D01*
X1268616Y765237D01*
X1269092Y763809D01*
Y762857D01*
X1268616Y761428D01*
X1267663Y760476D01*
X1266235Y760000D01*
X1264807D01*
X1263379Y760476D01*
X1262903Y760952D01*
X1262427Y761904D01*
X1038000Y619998D02*
Y612856D01*
X1038476Y611428D01*
X1039428Y610476D01*
X1040856Y610000D01*
X1041809D01*
X1043237Y610476D01*
X1044189Y611428D01*
X1044665Y612856D01*
Y619998D01*
X1053140Y618570D02*
X1052663Y619522D01*
X1051235Y619998D01*
X1050283D01*
X1048855Y619522D01*
X1047903Y618093D01*
X1047427Y615713D01*
Y613333D01*
X1047903Y611428D01*
X1048855Y610476D01*
X1050283Y610000D01*
X1050759D01*
X1052188Y610476D01*
X1053140Y611428D01*
X1053616Y612856D01*
Y613333D01*
X1053140Y614761D01*
X1052188Y615713D01*
X1050759Y616189D01*
X1050283D01*
X1048855Y615713D01*
X1047903Y614761D01*
X1047427Y613333D01*
X516940Y295590D02*
Y288449D01*
X517416Y287020D01*
X518368Y286068D01*
X519796Y285592D01*
X520749D01*
X522177Y286068D01*
X523129Y287020D01*
X523605Y288449D01*
Y295590D01*
X533032D02*
X528271Y285592D01*
X526367Y295590D02*
X533032D01*
X1401254Y590886D02*
Y583744D01*
X1401730Y582316D01*
X1402682Y581364D01*
X1404110Y580888D01*
X1405063D01*
X1406491Y581364D01*
X1407443Y582316D01*
X1407919Y583744D01*
Y590886D01*
X1410680Y588981D02*
X1411633Y589458D01*
X1413061Y590886D01*
Y580888D01*
X1424677Y590886D02*
X1419917Y580888D01*
X1418012Y590886D02*
X1424677D01*
X261670Y1063178D02*
Y1056037D01*
X262146Y1054608D01*
X263098Y1053656D01*
X264527Y1053180D01*
X265479D01*
X266907Y1053656D01*
X267859Y1054608D01*
X268335Y1056037D01*
Y1063178D01*
X277286Y1059845D02*
X276810Y1058417D01*
X275858Y1057465D01*
X274429Y1056989D01*
X273953D01*
X272525Y1057465D01*
X271573Y1058417D01*
X271097Y1059845D01*
Y1060321D01*
X271573Y1061750D01*
X272525Y1062702D01*
X273953Y1063178D01*
X274429D01*
X275858Y1062702D01*
X276810Y1061750D01*
X277286Y1059845D01*
Y1057465D01*
X276810Y1055084D01*
X275858Y1053656D01*
X274429Y1053180D01*
X273477D01*
X272049Y1053656D01*
X271573Y1054608D01*
X1066000Y1172998D02*
Y1165856D01*
X1066476Y1164428D01*
X1067428Y1163476D01*
X1068857Y1163000D01*
X1069809D01*
X1071237Y1163476D01*
X1072189Y1164428D01*
X1072665Y1165856D01*
Y1172998D01*
X1075427Y1171094D02*
X1076379Y1171570D01*
X1077807Y1172998D01*
Y1163000D01*
X1085615Y1172998D02*
X1084187Y1172522D01*
X1083234Y1171094D01*
X1082758Y1168713D01*
Y1167285D01*
X1083234Y1164904D01*
X1084187Y1163476D01*
X1085615Y1163000D01*
X1086567D01*
X1087995Y1163476D01*
X1088948Y1164904D01*
X1089424Y1167285D01*
Y1168713D01*
X1088948Y1171094D01*
X1087995Y1172522D01*
X1086567Y1172998D01*
X1085615D01*
X254000Y225998D02*
Y218857D01*
X254476Y217428D01*
X255428Y216476D01*
X256856Y216000D01*
X257809D01*
X259237Y216476D01*
X260189Y217428D01*
X260665Y218857D01*
Y225998D01*
X263426Y224093D02*
X264379Y224570D01*
X265807Y225998D01*
Y216000D01*
X271234Y223617D02*
Y224093D01*
X271710Y225046D01*
X272187Y225522D01*
X273139Y225998D01*
X275043D01*
X275995Y225522D01*
X276471Y225046D01*
X276947Y224093D01*
Y223141D01*
X276471Y222189D01*
X275519Y220761D01*
X270758Y216000D01*
X277423D01*
X504190Y1146648D02*
Y1139507D01*
X504666Y1138078D01*
X505618Y1137126D01*
X507047Y1136650D01*
X507999D01*
X509427Y1137126D01*
X510379Y1138078D01*
X510855Y1139507D01*
Y1146648D01*
X513616Y1144743D02*
X514569Y1145220D01*
X515997Y1146648D01*
Y1136650D01*
X521900Y1146648D02*
X527137D01*
X524281Y1142839D01*
X525709D01*
X526661Y1142363D01*
X527137Y1141887D01*
X527613Y1140459D01*
Y1139507D01*
X527137Y1138078D01*
X526185Y1137126D01*
X524757Y1136650D01*
X523329D01*
X521900Y1137126D01*
X521424Y1137602D01*
X520948Y1138554D01*
X1296820Y1185306D02*
Y1178165D01*
X1297296Y1176736D01*
X1298248Y1175784D01*
X1299677Y1175308D01*
X1300629D01*
X1302057Y1175784D01*
X1303009Y1176736D01*
X1303485Y1178165D01*
Y1185306D01*
X1306247Y1183401D02*
X1307199Y1183878D01*
X1308627Y1185306D01*
Y1175308D01*
X1319291Y1185306D02*
X1314530D01*
X1314054Y1181021D01*
X1314530Y1181497D01*
X1315959Y1181973D01*
X1317387D01*
X1318815Y1181497D01*
X1319767Y1180545D01*
X1320244Y1179117D01*
Y1178165D01*
X1319767Y1176736D01*
X1318815Y1175784D01*
X1317387Y1175308D01*
X1315959D01*
X1314530Y1175784D01*
X1314054Y1176260D01*
X1313578Y1177212D01*
X1284232Y180420D02*
Y173278D01*
X1284708Y171850D01*
X1285660Y170898D01*
X1287089Y170422D01*
X1288041D01*
X1289469Y170898D01*
X1290421Y171850D01*
X1290897Y173278D01*
Y180420D01*
X1293659Y178515D02*
X1294611Y178991D01*
X1296039Y180420D01*
Y170422D01*
X1306703Y178991D02*
X1306227Y179944D01*
X1304799Y180420D01*
X1303847D01*
X1302419Y179944D01*
X1301467Y178515D01*
X1300990Y176135D01*
Y173754D01*
X1301467Y171850D01*
X1302419Y170898D01*
X1303847Y170422D01*
X1304323D01*
X1305751Y170898D01*
X1306703Y171850D01*
X1307180Y173278D01*
Y173754D01*
X1306703Y175183D01*
X1305751Y176135D01*
X1304323Y176611D01*
X1303847D01*
X1302419Y176135D01*
X1301467Y175183D01*
X1300990Y173754D01*
X894064Y1036414D02*
Y1029273D01*
X894540Y1027844D01*
X895492Y1026892D01*
X896920Y1026416D01*
X897873D01*
X899301Y1026892D01*
X900253Y1027844D01*
X900729Y1029273D01*
Y1036414D01*
X903491Y1034510D02*
X904443Y1034986D01*
X905871Y1036414D01*
Y1026416D01*
X915583Y1036414D02*
X910822Y1029749D01*
X917964D01*
X915583Y1036414D02*
Y1026416D01*
X984534Y509484D02*
X988343Y504723D01*
Y499486D01*
X992151Y509484D02*
X988343Y504723D01*
X993437Y507579D02*
X994389Y508056D01*
X995817Y509484D01*
Y499486D01*
X1186152Y551085D02*
X1185789Y551810D01*
X1185063Y552536D01*
X1184338Y552898D01*
X1182887D01*
X1182161Y552536D01*
X1181436Y551810D01*
X1181073Y551085D01*
X1180710Y549996D01*
Y548182D01*
X1181073Y547094D01*
X1181436Y546368D01*
X1182161Y545643D01*
X1182887Y545280D01*
X1184338D01*
X1185063Y545643D01*
X1185789Y546368D01*
X1186152Y547094D01*
X1193008Y550359D02*
X1192645Y549271D01*
X1191920Y548545D01*
X1190832Y548182D01*
X1190469D01*
X1189380Y548545D01*
X1188655Y549271D01*
X1188292Y550359D01*
Y550722D01*
X1188655Y551810D01*
X1189380Y552536D01*
X1190469Y552898D01*
X1190832D01*
X1191920Y552536D01*
X1192645Y551810D01*
X1193008Y550359D01*
Y548545D01*
X1192645Y546731D01*
X1191920Y545643D01*
X1190832Y545280D01*
X1190106D01*
X1189018Y545643D01*
X1188655Y546368D01*
X841531Y965197D02*
X841055Y966150D01*
X840103Y967102D01*
X839151Y967578D01*
X837246D01*
X836294Y967102D01*
X835342Y966150D01*
X834866Y965197D01*
X834390Y963769D01*
Y961389D01*
X834866Y959960D01*
X835342Y959008D01*
X836294Y958056D01*
X837246Y957580D01*
X839151D01*
X840103Y958056D01*
X841055Y959008D01*
X841531Y959960D01*
X844340Y965674D02*
X845292Y966150D01*
X846721Y967578D01*
Y957580D01*
X857385Y966150D02*
X856909Y967102D01*
X855481Y967578D01*
X854529D01*
X853100Y967102D01*
X852148Y965674D01*
X851672Y963293D01*
Y960913D01*
X852148Y959008D01*
X853100Y958056D01*
X854529Y957580D01*
X855005D01*
X856433Y958056D01*
X857385Y959008D01*
X857861Y960436D01*
Y960913D01*
X857385Y962341D01*
X856433Y963293D01*
X855005Y963769D01*
X854529D01*
X853100Y963293D01*
X852148Y962341D01*
X851672Y960913D01*
X1635257Y253297D02*
X1634781Y254250D01*
X1633829Y255202D01*
X1632877Y255678D01*
X1630972D01*
X1630020Y255202D01*
X1629068Y254250D01*
X1628592Y253297D01*
X1628116Y251869D01*
Y249489D01*
X1628592Y248060D01*
X1629068Y247108D01*
X1630020Y246156D01*
X1630972Y245680D01*
X1632877D01*
X1633829Y246156D01*
X1634781Y247108D01*
X1635257Y248060D01*
X1638066Y253773D02*
X1639018Y254250D01*
X1640447Y255678D01*
Y245680D01*
X1652063Y255678D02*
X1647302Y245680D01*
X1645398Y255678D02*
X1652063D01*
X1637289Y283777D02*
X1636813Y284730D01*
X1635861Y285682D01*
X1634909Y286158D01*
X1633004D01*
X1632052Y285682D01*
X1631100Y284730D01*
X1630624Y283777D01*
X1630148Y282349D01*
Y279969D01*
X1630624Y278540D01*
X1631100Y277588D01*
X1632052Y276636D01*
X1633004Y276160D01*
X1634909D01*
X1635861Y276636D01*
X1636813Y277588D01*
X1637289Y278540D01*
X1640098Y284254D02*
X1641050Y284730D01*
X1642479Y286158D01*
Y276160D01*
X1649810Y286158D02*
X1648382Y285682D01*
X1647906Y284730D01*
Y283777D01*
X1648382Y282825D01*
X1649334Y282349D01*
X1651239Y281873D01*
X1652667Y281397D01*
X1653619Y280445D01*
X1654095Y279493D01*
Y278064D01*
X1653619Y277112D01*
X1653143Y276636D01*
X1651715Y276160D01*
X1649810D01*
X1648382Y276636D01*
X1647906Y277112D01*
X1647430Y278064D01*
Y279493D01*
X1647906Y280445D01*
X1648858Y281397D01*
X1650287Y281873D01*
X1652191Y282349D01*
X1653143Y282825D01*
X1653619Y283777D01*
Y284730D01*
X1653143Y285682D01*
X1651715Y286158D01*
X1649810D01*
X945955Y524883D02*
X945479Y525836D01*
X944527Y526788D01*
X943575Y527264D01*
X941671D01*
X940718Y526788D01*
X939766Y525836D01*
X939290Y524883D01*
X938814Y523455D01*
Y521075D01*
X939290Y519646D01*
X939766Y518694D01*
X940718Y517742D01*
X941671Y517266D01*
X943575D01*
X944527Y517742D01*
X945479Y518694D01*
X945955Y519646D01*
X948764Y525359D02*
X949716Y525836D01*
X951145Y527264D01*
Y517266D01*
X956572Y524883D02*
Y525359D01*
X957048Y526312D01*
X957524Y526788D01*
X958476Y527264D01*
X960381D01*
X961333Y526788D01*
X961809Y526312D01*
X962285Y525359D01*
Y524407D01*
X961809Y523455D01*
X960857Y522027D01*
X956096Y517266D01*
X962761D01*
X945671Y483867D02*
X945195Y484820D01*
X944243Y485772D01*
X943291Y486248D01*
X941386D01*
X940434Y485772D01*
X939482Y484820D01*
X939006Y483867D01*
X938530Y482439D01*
Y480059D01*
X939006Y478630D01*
X939482Y477678D01*
X940434Y476726D01*
X941386Y476250D01*
X943291D01*
X944243Y476726D01*
X945195Y477678D01*
X945671Y478630D01*
X948480Y484343D02*
X949432Y484820D01*
X950861Y486248D01*
Y476250D01*
X956764Y486248D02*
X962001D01*
X959145Y482439D01*
X960573D01*
X961525Y481963D01*
X962001Y481487D01*
X962477Y480059D01*
Y479106D01*
X962001Y477678D01*
X961049Y476726D01*
X959621Y476250D01*
X958192D01*
X956764Y476726D01*
X956288Y477202D01*
X955812Y478154D01*
X868485Y608703D02*
X868009Y609656D01*
X867057Y610608D01*
X866105Y611084D01*
X864201D01*
X863248Y610608D01*
X862296Y609656D01*
X861820Y608703D01*
X861344Y607275D01*
Y604895D01*
X861820Y603466D01*
X862296Y602514D01*
X863248Y601562D01*
X864201Y601086D01*
X866105D01*
X867057Y601562D01*
X868009Y602514D01*
X868485Y603466D01*
X873675Y611084D02*
X872246Y610608D01*
X871770Y609656D01*
Y608703D01*
X872246Y607751D01*
X873199Y607275D01*
X875103Y606799D01*
X876531Y606323D01*
X877483Y605371D01*
X877960Y604419D01*
Y602990D01*
X877483Y602038D01*
X877007Y601562D01*
X875579Y601086D01*
X873675D01*
X872246Y601562D01*
X871770Y602038D01*
X871294Y602990D01*
Y604419D01*
X871770Y605371D01*
X872722Y606323D01*
X874151Y606799D01*
X876055Y607275D01*
X877007Y607751D01*
X877483Y608703D01*
Y609656D01*
X877007Y610608D01*
X875579Y611084D01*
X873675D01*
X623345Y886711D02*
X622869Y887664D01*
X621917Y888616D01*
X620965Y889092D01*
X619061D01*
X618108Y888616D01*
X617156Y887664D01*
X616680Y886711D01*
X616204Y885283D01*
Y882903D01*
X616680Y881474D01*
X617156Y880522D01*
X618108Y879570D01*
X619061Y879094D01*
X620965D01*
X621917Y879570D01*
X622869Y880522D01*
X623345Y881474D01*
X630915Y889092D02*
X626154Y882427D01*
X633296D01*
X630915Y889092D02*
Y879094D01*
X750350Y344064D02*
Y334066D01*
Y344064D02*
X753683D01*
X755111Y343588D01*
X756063Y342636D01*
X756539Y341683D01*
X757015Y340255D01*
Y337875D01*
X756539Y336446D01*
X756063Y335494D01*
X755111Y334542D01*
X753683Y334066D01*
X750350D01*
X761633Y344064D02*
X760205Y343588D01*
X759729Y342636D01*
Y341683D01*
X760205Y340731D01*
X761157Y340255D01*
X763062Y339779D01*
X764490Y339303D01*
X765442Y338351D01*
X765918Y337399D01*
Y335970D01*
X765442Y335018D01*
X764966Y334542D01*
X763538Y334066D01*
X761633D01*
X760205Y334542D01*
X759729Y335018D01*
X759253Y335970D01*
Y337399D01*
X759729Y338351D01*
X760681Y339303D01*
X762109Y339779D01*
X764014Y340255D01*
X764966Y340731D01*
X765442Y341683D01*
Y342636D01*
X764966Y343588D01*
X763538Y344064D01*
X761633D01*
X749080Y365654D02*
Y355656D01*
Y365654D02*
X753365D01*
X754793Y365178D01*
X755269Y364702D01*
X755745Y363750D01*
Y362797D01*
X755269Y361845D01*
X754793Y361369D01*
X753365Y360893D01*
X749080D01*
X752413D02*
X755745Y355656D01*
X758935Y365654D02*
X764172D01*
X761316Y361845D01*
X762744D01*
X763696Y361369D01*
X764172Y360893D01*
X764648Y359465D01*
Y358512D01*
X764172Y357084D01*
X763220Y356132D01*
X761792Y355656D01*
X760363D01*
X758935Y356132D01*
X758459Y356608D01*
X757983Y357560D01*
X766886Y363750D02*
X767838Y364226D01*
X769266Y365654D01*
Y355656D01*
X518210Y1062670D02*
Y1055528D01*
X518686Y1054100D01*
X519638Y1053148D01*
X521067Y1052672D01*
X522019D01*
X523447Y1053148D01*
X524399Y1054100D01*
X524875Y1055528D01*
Y1062670D01*
X527637Y1060766D02*
X528589Y1061242D01*
X530017Y1062670D01*
Y1052672D01*
X534968Y1060766D02*
X535920Y1061242D01*
X537349Y1062670D01*
Y1052672D01*
X562164Y761965D02*
Y754347D01*
X561688Y752919D01*
X561212Y752443D01*
X560260Y751967D01*
X559307D01*
X558355Y752443D01*
X557879Y752919D01*
X557403Y754347D01*
Y755300D01*
X564735Y760061D02*
X565687Y760537D01*
X567115Y761965D01*
Y751967D01*
X574923Y761965D02*
X573495Y761489D01*
X572543Y760061D01*
X572066Y757680D01*
Y756252D01*
X572543Y753871D01*
X573495Y752443D01*
X574923Y751967D01*
X575875D01*
X577304Y752443D01*
X578256Y753871D01*
X578732Y756252D01*
Y757680D01*
X578256Y760061D01*
X577304Y761489D01*
X575875Y761965D01*
X574923D01*
X563434Y862295D02*
Y854677D01*
X562958Y853249D01*
X562482Y852773D01*
X561530Y852297D01*
X560577D01*
X559625Y852773D01*
X559149Y853249D01*
X558673Y854677D01*
Y855630D01*
X572194Y858962D02*
X571718Y857534D01*
X570766Y856582D01*
X569337Y856106D01*
X568861D01*
X567433Y856582D01*
X566481Y857534D01*
X566005Y858962D01*
Y859438D01*
X566481Y860867D01*
X567433Y861819D01*
X568861Y862295D01*
X569337D01*
X570766Y861819D01*
X571718Y860867D01*
X572194Y858962D01*
Y856582D01*
X571718Y854201D01*
X570766Y852773D01*
X569337Y852297D01*
X568385D01*
X566957Y852773D01*
X566481Y853725D01*
X784952Y677737D02*
X777334D01*
X775906Y678213D01*
X775430Y678689D01*
X774954Y679641D01*
Y680594D01*
X775430Y681546D01*
X775906Y682022D01*
X777334Y682498D01*
X778287D01*
X783047Y675166D02*
X783524Y674214D01*
X784952Y672786D01*
X774954D01*
X783047Y667834D02*
X783524Y666882D01*
X784952Y665454D01*
X774954D01*
X1809472Y428398D02*
Y418400D01*
Y428398D02*
X1813757D01*
X1815185Y427922D01*
X1815661Y427446D01*
X1816137Y426493D01*
Y425541D01*
X1815661Y424589D01*
X1815185Y424113D01*
X1813757Y423637D01*
X1809472D01*
X1812805D02*
X1816137Y418400D01*
X1819327Y428398D02*
X1824564D01*
X1821707Y424589D01*
X1823136D01*
X1824088Y424113D01*
X1824564Y423637D01*
X1825040Y422209D01*
Y421256D01*
X1824564Y419828D01*
X1823612Y418876D01*
X1822184Y418400D01*
X1820755D01*
X1819327Y418876D01*
X1818851Y419352D01*
X1818375Y420304D01*
X1827754Y426017D02*
Y426493D01*
X1828230Y427446D01*
X1828706Y427922D01*
X1829658Y428398D01*
X1831562D01*
X1832515Y427922D01*
X1832991Y427446D01*
X1833467Y426493D01*
Y425541D01*
X1832991Y424589D01*
X1832039Y423161D01*
X1827278Y418400D01*
X1833943D01*
X1400024Y433478D02*
Y423480D01*
Y433478D02*
X1404309D01*
X1405737Y433002D01*
X1406213Y432526D01*
X1406689Y431573D01*
Y430621D01*
X1406213Y429669D01*
X1405737Y429193D01*
X1404309Y428717D01*
X1400024D01*
X1403357D02*
X1406689Y423480D01*
X1409879Y433478D02*
X1415116D01*
X1412260Y429669D01*
X1413688D01*
X1414640Y429193D01*
X1415116Y428717D01*
X1415592Y427289D01*
Y426337D01*
X1415116Y424908D01*
X1414164Y423956D01*
X1412736Y423480D01*
X1411307D01*
X1409879Y423956D01*
X1409403Y424432D01*
X1408927Y425384D01*
X1418782Y433478D02*
X1424019D01*
X1421162Y429669D01*
X1422591D01*
X1423543Y429193D01*
X1424019Y428717D01*
X1424495Y427289D01*
Y426337D01*
X1424019Y424908D01*
X1423067Y423956D01*
X1421638Y423480D01*
X1420210D01*
X1418782Y423956D01*
X1418306Y424432D01*
X1417830Y425384D01*
X314911Y40700D02*
Y33082D01*
X314435Y31654D01*
X313959Y31178D01*
X313006Y30702D01*
X312054D01*
X311102Y31178D01*
X310626Y31654D01*
X310150Y33082D01*
Y34035D01*
X323195Y40700D02*
X318434D01*
X317958Y36415D01*
X318434Y36891D01*
X319862Y37367D01*
X321291D01*
X322719Y36891D01*
X323671Y35939D01*
X324147Y34511D01*
Y33558D01*
X323671Y32130D01*
X322719Y31178D01*
X321291Y30702D01*
X319862D01*
X318434Y31178D01*
X317958Y31654D01*
X317482Y32606D01*
X547051Y551018D02*
Y543400D01*
X546575Y541972D01*
X546099Y541496D01*
X545146Y541020D01*
X544194D01*
X543242Y541496D01*
X542766Y541972D01*
X542290Y543400D01*
Y544353D01*
X555335Y549590D02*
X554859Y550542D01*
X553430Y551018D01*
X552478D01*
X551050Y550542D01*
X550098Y549114D01*
X549622Y546733D01*
Y544353D01*
X550098Y542448D01*
X551050Y541496D01*
X552478Y541020D01*
X552954D01*
X554383Y541496D01*
X555335Y542448D01*
X555811Y543876D01*
Y544353D01*
X555335Y545781D01*
X554383Y546733D01*
X552954Y547209D01*
X552478D01*
X551050Y546733D01*
X550098Y545781D01*
X549622Y544353D01*
X635141Y341617D02*
X634665Y342570D01*
X633713Y343522D01*
X632761Y343998D01*
X630857D01*
X629904Y343522D01*
X628952Y342570D01*
X628476Y341617D01*
X628000Y340189D01*
Y337809D01*
X628476Y336380D01*
X628952Y335428D01*
X629904Y334476D01*
X630857Y334000D01*
X632761D01*
X633713Y334476D01*
X634665Y335428D01*
X635141Y336380D01*
X638426Y341617D02*
Y342094D01*
X638902Y343046D01*
X639379Y343522D01*
X640331Y343998D01*
X642235D01*
X643187Y343522D01*
X643663Y343046D01*
X644139Y342094D01*
Y341141D01*
X643663Y340189D01*
X642711Y338761D01*
X637950Y334000D01*
X644615D01*
X647329Y341617D02*
Y342094D01*
X647805Y343046D01*
X648281Y343522D01*
X649233Y343998D01*
X651138D01*
X652090Y343522D01*
X652566Y343046D01*
X653042Y342094D01*
Y341141D01*
X652566Y340189D01*
X651614Y338761D01*
X646853Y334000D01*
X653518D01*
X667481Y430424D02*
Y422806D01*
X667005Y421378D01*
X666529Y420902D01*
X665576Y420426D01*
X664624D01*
X663672Y420902D01*
X663196Y421378D01*
X662720Y422806D01*
Y423759D01*
X670052Y428520D02*
X671004Y428996D01*
X672432Y430424D01*
Y420426D01*
X677860Y428043D02*
Y428520D01*
X678336Y429472D01*
X678812Y429948D01*
X679764Y430424D01*
X681668D01*
X682620Y429948D01*
X683097Y429472D01*
X683573Y428520D01*
Y427567D01*
X683097Y426615D01*
X682144Y425187D01*
X677383Y420426D01*
X684049D01*
X1270000Y501761D02*
X1274285D01*
X1275713Y502237D01*
X1276189Y502713D01*
X1276665Y503665D01*
Y505093D01*
X1276189Y506046D01*
X1275713Y506522D01*
X1274285Y506998D01*
X1270000D01*
Y497000D01*
X1281283Y506998D02*
X1279855Y506522D01*
X1279379Y505570D01*
Y504617D01*
X1279855Y503665D01*
X1280807Y503189D01*
X1282712Y502713D01*
X1284140Y502237D01*
X1285092Y501285D01*
X1285568Y500333D01*
Y498904D01*
X1285092Y497952D01*
X1284616Y497476D01*
X1283188Y497000D01*
X1281283D01*
X1279855Y497476D01*
X1279379Y497952D01*
X1278903Y498904D01*
Y500333D01*
X1279379Y501285D01*
X1280331Y502237D01*
X1281759Y502713D01*
X1283664Y503189D01*
X1284616Y503665D01*
X1285092Y504617D01*
Y505570D01*
X1284616Y506522D01*
X1283188Y506998D01*
X1281283D01*
X1067691Y162717D02*
X1067215Y163670D01*
X1066263Y164622D01*
X1065311Y165098D01*
X1063407D01*
X1062454Y164622D01*
X1061502Y163670D01*
X1061026Y162717D01*
X1060550Y161289D01*
Y158909D01*
X1061026Y157480D01*
X1061502Y156528D01*
X1062454Y155576D01*
X1063407Y155100D01*
X1065311D01*
X1066263Y155576D01*
X1067215Y156528D01*
X1067691Y157480D01*
X1070500Y165098D02*
Y155100D01*
Y165098D02*
X1077166Y155100D01*
Y165098D02*
Y155100D01*
X1079927Y163193D02*
X1080879Y163670D01*
X1082307Y165098D01*
Y155100D01*
X1610360Y638648D02*
X1617025Y628650D01*
Y638648D02*
X1610360Y628650D01*
X1619263Y636744D02*
X1620215Y637220D01*
X1621643Y638648D01*
Y628650D01*
X278000Y1173998D02*
Y1164000D01*
Y1173998D02*
X284189D01*
X278000Y1169237D02*
X281809D01*
X291045Y1173998D02*
X286284D01*
X285808Y1169713D01*
X286284Y1170189D01*
X287712Y1170665D01*
X289140D01*
X290569Y1170189D01*
X291521Y1169237D01*
X291997Y1167809D01*
Y1166857D01*
X291521Y1165428D01*
X290569Y1164476D01*
X289140Y1164000D01*
X287712D01*
X286284Y1164476D01*
X285808Y1164952D01*
X285332Y1165904D01*
X1743390Y1046191D02*
X1736725Y1036193D01*
Y1046191D02*
X1743390D01*
X1736725Y1036193D02*
X1743390D01*
X1745628Y1044286D02*
X1746580Y1044763D01*
X1748008Y1046191D01*
Y1036193D01*
X1483649Y1066480D02*
X1493647Y1059815D01*
X1483649D02*
Y1066480D01*
X1493647Y1059815D02*
Y1066480D01*
X1486030Y1069194D02*
X1485553D01*
X1484601Y1069670D01*
X1484125Y1070146D01*
X1483649Y1071098D01*
Y1073003D01*
X1484125Y1073955D01*
X1484601Y1074431D01*
X1485553Y1074907D01*
X1486506D01*
X1487458Y1074431D01*
X1488886Y1073479D01*
X1493647Y1068718D01*
Y1075383D01*
D82*
X1602802Y497592D02*
Y504786D01*
X1606400Y508384D01*
X1609997Y504786D01*
Y497592D01*
Y502988D01*
X1602802D01*
X1613594Y497592D02*
Y504786D01*
X1618990D01*
X1620788Y502988D01*
Y497592D01*
X1626184Y506585D02*
Y504786D01*
X1624386D01*
X1627983D01*
X1626184D01*
Y499391D01*
X1627983Y497592D01*
X1638774D02*
X1635177D01*
X1633378Y499391D01*
Y502988D01*
X1635177Y504786D01*
X1638774D01*
X1640573Y502988D01*
Y501189D01*
X1633378D01*
X1644170Y497592D02*
Y504786D01*
X1649566D01*
X1651364Y502988D01*
Y497592D01*
X1654962D02*
Y504786D01*
X1660357D01*
X1662156Y502988D01*
Y497592D01*
X1667552Y504786D02*
X1671149D01*
X1672947Y502988D01*
Y497592D01*
X1667552D01*
X1665753Y499391D01*
X1667552Y501189D01*
X1672947D01*
D83*
X1342000Y1160000D02*
X1346998D01*
X1344499D01*
Y1174995D01*
X1342000Y1172496D01*
X1338000Y1114496D02*
X1340499Y1116995D01*
X1345498D01*
X1347997Y1114496D01*
Y1111997D01*
X1345498Y1109498D01*
X1342998D01*
X1345498D01*
X1347997Y1106998D01*
Y1104499D01*
X1345498Y1102000D01*
X1340499D01*
X1338000Y1104499D01*
X1328000Y116000D02*
Y111001D01*
Y113501D01*
X1342995D01*
X1340496Y116000D01*
X1276496Y120000D02*
X1278995Y117501D01*
Y112502D01*
X1276496Y110003D01*
X1273997D01*
X1271498Y112502D01*
Y115001D01*
Y112502D01*
X1268998Y110003D01*
X1266499D01*
X1264000Y112502D01*
Y117501D01*
X1266499Y120000D01*
D84*
X1306260Y896380D02*
D03*
M02*
