%FSTAX23Y23*%
%MOIN*%
%SFA1B1*%

%IPPOS*%
%AMD91*
4,1,8,-0.013800,0.004900,-0.013800,-0.004900,-0.004900,-0.013800,0.004900,-0.013800,0.013800,-0.004900,0.013800,0.004900,0.004900,0.013800,-0.004900,0.013800,-0.013800,0.004900,0.0*
1,1,0.017843,-0.004900,0.004900*
1,1,0.017843,-0.004900,-0.004900*
1,1,0.017843,0.004900,-0.004900*
1,1,0.017843,0.004900,0.004900*
%
%AMD92*
4,1,8,0.021500,-0.013100,0.021500,0.013100,0.013100,0.021500,-0.013100,0.021500,-0.021500,0.013100,-0.021500,-0.013100,-0.013100,-0.021500,0.013100,-0.021500,0.021500,-0.013100,0.0*
1,1,0.016748,0.013100,-0.013100*
1,1,0.016748,0.013100,0.013100*
1,1,0.016748,-0.013100,0.013100*
1,1,0.016748,-0.013100,-0.013100*
%
%AMD93*
4,1,8,-0.015000,-0.031500,0.015000,-0.031500,0.024000,-0.022500,0.024000,0.022500,0.015000,0.031500,-0.015000,0.031500,-0.024000,0.022500,-0.024000,-0.022500,-0.015000,-0.031500,0.0*
1,1,0.018000,-0.015000,-0.022500*
1,1,0.018000,0.015000,-0.022500*
1,1,0.018000,0.015000,0.022500*
1,1,0.018000,-0.015000,0.022500*
%
%AMD95*
4,1,8,0.013100,0.029000,-0.013100,0.029000,-0.021500,0.020600,-0.021500,-0.020600,-0.013100,-0.029000,0.013100,-0.029000,0.021500,-0.020600,0.021500,0.020600,0.013100,0.029000,0.0*
1,1,0.016748,0.013100,0.020600*
1,1,0.016748,-0.013100,0.020600*
1,1,0.016748,-0.013100,-0.020600*
1,1,0.016748,0.013100,-0.020600*
%
%AMD101*
4,1,8,-0.031500,0.015000,-0.031500,-0.015000,-0.022500,-0.024000,0.022500,-0.024000,0.031500,-0.015000,0.031500,0.015000,0.022500,0.024000,-0.022500,0.024000,-0.031500,0.015000,0.0*
1,1,0.018000,-0.022500,0.015000*
1,1,0.018000,-0.022500,-0.015000*
1,1,0.018000,0.022500,-0.015000*
1,1,0.018000,0.022500,0.015000*
%
%AMD103*
4,1,8,-0.013100,-0.021500,0.013100,-0.021500,0.021500,-0.013100,0.021500,0.013100,0.013100,0.021500,-0.013100,0.021500,-0.021500,0.013100,-0.021500,-0.013100,-0.013100,-0.021500,0.0*
1,1,0.016748,-0.013100,-0.013100*
1,1,0.016748,0.013100,-0.013100*
1,1,0.016748,0.013100,0.013100*
1,1,0.016748,-0.013100,0.013100*
%
%AMD104*
4,1,8,-0.029000,0.013100,-0.029000,-0.013100,-0.020600,-0.021500,0.020600,-0.021500,0.029000,-0.013100,0.029000,0.013100,0.020600,0.021500,-0.020600,0.021500,-0.029000,0.013100,0.0*
1,1,0.016748,-0.020600,0.013100*
1,1,0.016748,-0.020600,-0.013100*
1,1,0.016748,0.020600,-0.013100*
1,1,0.016748,0.020600,0.013100*
%
%ADD85R,0.086740X0.055240*%
%ADD86R,0.051307X0.074929*%
%ADD87R,0.102488X0.074929*%
%ADD88R,0.058000X0.030000*%
%ADD89R,0.030000X0.058000*%
%ADD90R,0.063000X0.025000*%
G04~CAMADD=91~8~0.0~0.0~276.9~276.9~89.2~0.0~15~0.0~0.0~0.0~0.0~0~0.0~0.0~0.0~0.0~0~0.0~0.0~0.0~90.0~276.0~276.0*
%ADD91D91*%
G04~CAMADD=92~8~0.0~0.0~430.0~430.0~83.7~0.0~15~0.0~0.0~0.0~0.0~0~0.0~0.0~0.0~0.0~0~0.0~0.0~0.0~270.0~430.0~430.0*
%ADD92D92*%
G04~CAMADD=93~8~0.0~0.0~480.0~630.0~90.0~0.0~15~0.0~0.0~0.0~0.0~0~0.0~0.0~0.0~0.0~0~0.0~0.0~0.0~180.0~480.0~630.0*
%ADD93D93*%
%ADD94R,0.067055X0.070992*%
G04~CAMADD=95~8~0.0~0.0~430.0~580.0~83.7~0.0~15~0.0~0.0~0.0~0.0~0~0.0~0.0~0.0~0.0~0~0.0~0.0~0.0~0.0~430.0~580.0*
%ADD95D95*%
%ADD96R,0.106425X0.074929*%
%ADD97O,0.031622X0.094614*%
%ADD98R,0.058000X0.058000*%
%ADD99R,0.063118X0.051307*%
%ADD100R,0.053279X0.059181*%
G04~CAMADD=101~8~0.0~0.0~480.0~630.0~90.0~0.0~15~0.0~0.0~0.0~0.0~0~0.0~0.0~0.0~0.0~0~0.0~0.0~0.0~90.0~630.0~480.0*
%ADD101D101*%
%ADD102R,0.051307X0.063118*%
G04~CAMADD=103~8~0.0~0.0~430.0~430.0~83.7~0.0~15~0.0~0.0~0.0~0.0~0~0.0~0.0~0.0~0.0~0~0.0~0.0~0.0~180.0~430.0~430.0*
%ADD103D103*%
G04~CAMADD=104~8~0.0~0.0~430.0~580.0~83.7~0.0~15~0.0~0.0~0.0~0.0~0~0.0~0.0~0.0~0.0~0~0.0~0.0~0.0~90.0~580.0~430.0*
%ADD104D104*%
%ADD105R,0.058000X0.058000*%
%ADD106C,0.165480*%
%ADD107R,0.047370X0.086740*%
%ADD108R,0.145795X0.086740*%
%ADD109C,0.017842*%
%ADD110R,0.106425X0.063118*%
%ADD111R,0.036350X0.078079*%
%ADD112R,0.047370X0.035559*%
%ADD113R,0.035559X0.047370*%
%ADD114C,0.067055*%
%ADD115R,0.073000X0.073000*%
%ADD116C,0.073000*%
%ADD117R,0.067055X0.067055*%
%ADD118C,0.126110*%
%ADD119C,0.086740*%
%ADD120R,0.086740X0.086740*%
%ADD121O,0.086740X0.047370*%
%ADD122O,0.086740X0.047370*%
%ADD123C,0.082000*%
%ADD124R,0.165480X0.165480*%
%ADD125C,0.126110*%
%ADD126C,0.086740*%
%ADD127C,0.063118*%
%ADD128C,0.039496*%
%ADD129R,0.067055X0.067055*%
%ADD130C,0.108000*%
%ADD131R,0.078866X0.078866*%
%ADD132R,0.093000X0.055201*%
%ADD133R,0.073000X0.073000*%
%ADD134C,0.204850*%
%ADD135O,0.047370X0.086740*%
%ADD136O,0.047370X0.086740*%
%ADD137C,0.070992*%
%ADD138C,0.058000*%
%LNsolarpcb-1*%
%LPD*%
G54D85*
X06018Y01809D03*
Y0173D03*
Y01651D03*
Y01573D03*
Y01494D03*
Y01415D03*
Y01336D03*
Y01258D03*
X06609D03*
Y01336D03*
Y01415D03*
Y01494D03*
Y01573D03*
Y01651D03*
Y0173D03*
Y01809D03*
G54D86*
X02536Y03473D03*
X02643D03*
G54D87*
X04006Y01906D03*
Y02052D03*
G54D88*
X04145Y02275D03*
Y02244D03*
Y02212D03*
Y02181D03*
Y02149D03*
Y02118D03*
Y02086D03*
Y02055D03*
X04483D03*
Y02086D03*
Y02118D03*
Y02149D03*
Y02181D03*
Y02212D03*
Y02244D03*
Y02275D03*
G54D89*
X04204Y01996D03*
X04236D03*
X04267D03*
X04299D03*
X0433D03*
X04362D03*
X04393D03*
X04425D03*
Y02334D03*
X04393D03*
X04362D03*
X0433D03*
X04299D03*
X04267D03*
X04236D03*
X04204D03*
G54D90*
X02826Y02986D03*
Y0296D03*
Y02935D03*
Y02909D03*
Y02884D03*
Y02858D03*
X02654D03*
Y02884D03*
Y02909D03*
Y02935D03*
Y0296D03*
Y02986D03*
G54D91*
X03496Y02273D03*
Y02309D03*
G54D92*
X02616Y02587D03*
Y02647D03*
X06775Y01119D03*
Y01059D03*
X05636Y01841D03*
Y01781D03*
G54D93*
X02791Y03472D03*
X02721D03*
X04319Y02543D03*
X04389D03*
X04554Y02535D03*
X04484D03*
X04686Y00292D03*
X04756D03*
X05108Y00342D03*
X05178D03*
X03401Y02026D03*
X03471D03*
X06747Y01418D03*
X06817D03*
X02766Y02662D03*
X02696D03*
X05729Y01685D03*
X05659D03*
G54D94*
X03486Y02151D03*
X03368D03*
G54D95*
X02766Y02567D03*
X02696D03*
X01799Y00128D03*
X01869D03*
X02839Y01335D03*
X02909D03*
G54D96*
X02628Y03602D03*
X02786D03*
G54D97*
X02731Y00809D03*
X02781D03*
X02831D03*
X02881D03*
X02731Y00998D03*
X02781D03*
X02831D03*
X02881D03*
G54D98*
X02616Y00944D03*
Y00844D03*
X0347Y0386D03*
Y0396D03*
X03905Y02175D03*
Y02275D03*
X05035Y03922D03*
Y03822D03*
X05279Y02963D03*
Y03063D03*
X02624Y0143D03*
Y0133D03*
G54D99*
X02486Y0087D03*
Y00929D03*
X04Y02273D03*
Y02214D03*
X0494Y03844D03*
Y03903D03*
X05366Y03045D03*
Y02986D03*
X0335Y039D03*
Y03959D03*
X0251Y0259D03*
Y02649D03*
X03031Y00757D03*
Y00816D03*
X03421Y02321D03*
Y02261D03*
G54D100*
X03441Y01194D03*
X03526D03*
Y0104D03*
X03441D03*
X03863Y01194D03*
X03947D03*
Y01041D03*
X03863D03*
X04276Y01194D03*
X04361D03*
Y01041D03*
X04276D03*
G54D101*
X04307Y01524D03*
Y01594D03*
X03905Y01519D03*
Y01589D03*
X03492Y01519D03*
Y01589D03*
X04786Y04433D03*
Y04503D03*
X05401Y04449D03*
Y04519D03*
X05409Y00578D03*
Y00508D03*
X07067Y01706D03*
Y01636D03*
X06963Y01639D03*
Y01709D03*
X06966Y01801D03*
Y01871D03*
X06754Y0126D03*
Y0133D03*
X05884Y01538D03*
Y01608D03*
G54D102*
X02139Y04267D03*
X02198D03*
X02619Y02737D03*
X0256D03*
X04699Y02105D03*
X0464D03*
X03826Y02056D03*
X03885D03*
X03826Y01906D03*
X03885D03*
X06349Y00986D03*
X0629D03*
G54D103*
X01648Y00126D03*
X01708D03*
X04641Y01936D03*
X04701D03*
X02904Y0142D03*
X02844D03*
G54D104*
X04818Y0194D03*
Y0187D03*
X06875Y01124D03*
Y01054D03*
X0553Y01853D03*
Y01783D03*
G54D105*
X06261Y01101D03*
X06361D03*
G54D106*
X05668Y03606D03*
X0056Y01163D03*
G54D107*
X05553Y01984D03*
X05643D03*
X05734D03*
G54D108*
X05643Y02217D03*
G54D109*
X02714Y01414D03*
Y01395D03*
Y01375D03*
X02733Y01414D03*
Y01395D03*
Y01375D03*
G54D110*
X03208Y03322D03*
X03204Y03129D03*
G54D111*
X02137Y04407D03*
X02187D03*
X02287D03*
X02137Y04592D03*
X02187D03*
X02287D03*
X02237Y04407D03*
Y04592D03*
X05153Y03104D03*
Y02919D03*
X05203Y03104D03*
X05103D03*
X05053D03*
X05203Y02919D03*
X05103D03*
X05053D03*
X05268Y03968D03*
X05218D03*
X05118D03*
X05268Y03783D03*
X05218D03*
X05118D03*
X05168Y03968D03*
Y03783D03*
G54D112*
X05718Y01402D03*
X05481D03*
X05718Y01547D03*
X05481D03*
X03593Y02359D03*
X03829D03*
X03593Y02213D03*
X03829D03*
G54D113*
X07162Y01423D03*
Y01186D03*
X07017Y01423D03*
Y01186D03*
G54D114*
X06865Y0312D03*
Y0322D03*
Y0332D03*
Y0342D03*
Y0352D03*
Y0362D03*
Y0372D03*
Y0382D03*
Y0392D03*
Y0402D03*
X06965D03*
Y0392D03*
Y0382D03*
Y0372D03*
Y0362D03*
Y0352D03*
Y0342D03*
Y0332D03*
Y0322D03*
Y0312D03*
X07065D03*
Y0322D03*
Y0332D03*
Y0342D03*
Y0352D03*
Y0362D03*
Y0372D03*
Y0382D03*
Y0392D03*
Y0402D03*
X07165D03*
Y0392D03*
Y0382D03*
Y0372D03*
Y0362D03*
Y0352D03*
Y0342D03*
Y0332D03*
Y0322D03*
Y0312D03*
X07265D03*
Y0322D03*
Y0332D03*
Y0342D03*
Y0352D03*
Y0362D03*
Y0372D03*
Y0382D03*
Y0392D03*
Y0402D03*
X05027Y0207D03*
Y0217D03*
Y0227D03*
Y0237D03*
Y0247D03*
X04976Y04512D03*
X06865Y0209D03*
X06965Y0199D03*
Y0209D03*
X02634Y03168D03*
Y03268D03*
X02734Y03168D03*
Y03268D03*
X02834Y03168D03*
X0532Y02315D03*
X0684Y042D03*
X0674D03*
X0664D03*
X0654D03*
X0644D03*
X0634D03*
X0624D03*
X0614D03*
X0604D03*
X0594D03*
Y043D03*
X0604D03*
X0614D03*
X0624D03*
X0634D03*
X0644D03*
X0654D03*
X0664D03*
X0674D03*
X0684D03*
Y044D03*
X0674D03*
X0664D03*
X0654D03*
X0644D03*
X0634D03*
X0624D03*
X0614D03*
X0604D03*
X0594D03*
Y045D03*
X0604D03*
X0614D03*
X0624D03*
X0634D03*
X0644D03*
X0654D03*
X0664D03*
X0674D03*
X0684D03*
Y046D03*
X0674D03*
X0664D03*
X0654D03*
X0644D03*
X0634D03*
X0624D03*
X0614D03*
X0604D03*
X0594D03*
X04663Y00157D03*
G54D115*
X04099Y00629D03*
X01447Y00129D03*
X05072Y00159D03*
X02664Y0159D03*
G54D116*
X03999Y00629D03*
X03899D03*
X03799D03*
X03699D03*
X03599D03*
X01347Y00129D03*
X05576Y00539D03*
Y00439D03*
X05272Y00159D03*
X05172D03*
X05592Y04626D03*
Y04526D03*
X02241Y02782D03*
Y02682D03*
X02246Y03177D03*
Y03077D03*
X02986Y02537D03*
Y02437D03*
X02764Y0159D03*
X02864D03*
X02165Y0224D03*
G54D117*
X05027Y0257D03*
X04976Y04412D03*
X02406Y02752D03*
G54D118*
X0129Y02594D03*
Y04094D03*
X0193Y02594D03*
Y04094D03*
X06769Y00431D03*
G54D119*
X04229Y0396D03*
X04129D03*
X04029D03*
G54D120*
X03929Y0396D03*
G54D121*
X05196Y04554D03*
G54D122*
X05196Y04504D03*
Y04454D03*
G54D123*
X0057Y00674D03*
Y00574D03*
X0067Y00474D03*
X0077D03*
X0087D03*
X0077Y00774D03*
X0087D03*
X0067D03*
G54D124*
X0056Y04034D03*
G54D125*
X0056Y03693D03*
Y01504D03*
X02657Y0394D03*
X03047D03*
X02656Y04074D03*
X03047D03*
X02606Y02007D03*
X02996D03*
X02605Y02141D03*
X02996D03*
Y04574D03*
X02605D03*
X02996Y0444D03*
X02606D03*
X017Y04566D03*
X0131D03*
X017Y04433D03*
X01311D03*
G54D126*
X01758Y00385D03*
X01482D03*
X01915Y01094D03*
X01325D03*
X03727Y00263D03*
X04027D03*
X03707Y04468D03*
X04007D03*
G54D127*
X00712Y0457D03*
X01012D03*
X03034Y03447D03*
Y02947D03*
X01008Y04401D03*
X00708D03*
G54D128*
X05193Y03696D03*
X05093D03*
G54D129*
X06865Y0199D03*
X02834Y03268D03*
X02418Y0327D03*
X04763Y00157D03*
G54D130*
X02677Y0048D03*
X03011D03*
G54D131*
X01451Y01417D03*
X01747D03*
X01323D03*
X01875D03*
X01323Y02315D03*
X01875D03*
G54D132*
X05729Y00581D03*
Y00481D03*
Y00381D03*
Y00281D03*
G54D133*
X05576Y00339D03*
X05592Y04426D03*
X02241Y02882D03*
X02246Y03277D03*
X02986Y02637D03*
X02165Y0234D03*
G54D134*
X07217Y002D03*
Y04542D03*
X002D03*
Y002D03*
G54D135*
X05196Y00548D03*
G54D136*
X05146Y00548D03*
X05096D03*
G54D137*
X05668Y03952D03*
Y03252D03*
G54D138*
X04705Y02035D03*
X04818Y02031D03*
X02005Y01875D03*
X01565Y01265D03*
X04135Y0408D03*
X0282Y01125D03*
X0365Y0155D03*
X03818Y01582D03*
X04559Y02275D03*
X02834Y02763D03*
X03251Y02811D03*
X03661Y02818D03*
X05196Y04078D03*
X0522Y03881D03*
X03228Y02511D03*
X0322Y02377D03*
X03748Y02771D03*
X04251Y02464D03*
X04653Y02582D03*
X04826Y02677D03*
X02874Y03377D03*
X02724Y03393D03*
X03763Y03677D03*
X04692Y02755D03*
X05108Y00262D03*
X05301D03*
X05803Y01661D03*
Y01559D03*
X05944Y01496D03*
X04314Y0396D03*
X02831Y0087D03*
X02952Y00716D03*
X04267Y01251D03*
X04222Y01041D03*
X04209Y01548D03*
X03952Y01645D03*
X03535Y01692D03*
X04779Y03779D03*
Y03889D03*
X02716Y0296D03*
X04945Y0207D03*
X03968Y01464D03*
X02952Y00992D03*
X05417Y00752D03*
X02779Y02496D03*
X02417Y04236D03*
X04619Y00244D03*
Y01246D03*
X04511Y01858D03*
X02889Y02551D03*
X03102Y01503D03*
X02637Y01881D03*
X04661Y03787D03*
X04614Y03905D03*
X04125Y0248D03*
X03787Y02543D03*
Y02425D03*
X04448Y02417D03*
X0437Y02401D03*
X03007Y01669D03*
X04944Y01905D03*
X04952Y01283D03*
X04409Y00692D03*
X04826Y02535D03*
X04732Y02535D03*
X0437Y02464D03*
X02393Y02275D03*
X02831Y0237D03*
X04614Y02661D03*
X04661Y0248D03*
X00614Y04574D03*
X04361Y00959D03*
X0411Y0096D03*
X03559Y02167D03*
X0296Y00921D03*
X04566Y02055D03*
X0474Y02322D03*
X04657Y02257D03*
X04826Y02267D03*
X02727Y01455D03*
X02622Y01503D03*
X04417Y0207D03*
X04133Y01968D03*
X04188Y01889D03*
X04511Y02D03*
X04496Y02338D03*
X04362Y02629D03*
X04984Y02921D03*
X02834Y02598D03*
X02566Y02811D03*
X05338Y04015D03*
X05268Y04055D03*
X04385Y01496D03*
X05889Y01692D03*
X0433Y02086D03*
X04236Y02149D03*
X04299Y02188D03*
X04354Y02259D03*
X0686Y02195D03*
X01655Y01275D03*
X02606Y02283D03*
X03485Y02215D03*
X0491Y02356D03*
X05079Y02845D03*
X007Y0171D03*
M02*