%FSTAX23Y23*%
%MOIN*%
%SFA1B1*%

%IPPOS*%
%AMD16*
4,1,8,-0.009800,0.004900,-0.009800,-0.004900,-0.004900,-0.009800,0.004900,-0.009800,0.009800,-0.004900,0.009800,0.004900,0.004900,0.009800,-0.004900,0.009800,-0.009800,0.004900,0.0*
1,1,0.009843,-0.004900,0.004900*
1,1,0.009843,-0.004900,-0.004900*
1,1,0.009843,0.004900,-0.004900*
1,1,0.009843,0.004900,0.004900*
%
%AMD17*
4,1,8,0.017500,-0.013100,0.017500,0.013100,0.013100,0.017500,-0.013100,0.017500,-0.017500,0.013100,-0.017500,-0.013100,-0.013100,-0.017500,0.013100,-0.017500,0.017500,-0.013100,0.0*
1,1,0.008748,0.013100,-0.013100*
1,1,0.008748,0.013100,0.013100*
1,1,0.008748,-0.013100,0.013100*
1,1,0.008748,-0.013100,-0.013100*
%
%AMD18*
4,1,8,-0.015000,-0.027500,0.015000,-0.027500,0.020000,-0.022500,0.020000,0.022500,0.015000,0.027500,-0.015000,0.027500,-0.020000,0.022500,-0.020000,-0.022500,-0.015000,-0.027500,0.0*
1,1,0.010000,-0.015000,-0.022500*
1,1,0.010000,0.015000,-0.022500*
1,1,0.010000,0.015000,0.022500*
1,1,0.010000,-0.015000,0.022500*
%
%AMD20*
4,1,8,0.013100,0.025000,-0.013100,0.025000,-0.017500,0.020600,-0.017500,-0.020600,-0.013100,-0.025000,0.013100,-0.025000,0.017500,-0.020600,0.017500,0.020600,0.013100,0.025000,0.0*
1,1,0.008748,0.013100,0.020600*
1,1,0.008748,-0.013100,0.020600*
1,1,0.008748,-0.013100,-0.020600*
1,1,0.008748,0.013100,-0.020600*
%
%AMD26*
4,1,8,-0.027500,0.015000,-0.027500,-0.015000,-0.022500,-0.020000,0.022500,-0.020000,0.027500,-0.015000,0.027500,0.015000,0.022500,0.020000,-0.022500,0.020000,-0.027500,0.015000,0.0*
1,1,0.010000,-0.022500,0.015000*
1,1,0.010000,-0.022500,-0.015000*
1,1,0.010000,0.022500,-0.015000*
1,1,0.010000,0.022500,0.015000*
%
%AMD28*
4,1,8,-0.013100,-0.017500,0.013100,-0.017500,0.017500,-0.013100,0.017500,0.013100,0.013100,0.017500,-0.013100,0.017500,-0.017500,0.013100,-0.017500,-0.013100,-0.013100,-0.017500,0.0*
1,1,0.008748,-0.013100,-0.013100*
1,1,0.008748,0.013100,-0.013100*
1,1,0.008748,0.013100,0.013100*
1,1,0.008748,-0.013100,0.013100*
%
%AMD29*
4,1,8,-0.025000,0.013100,-0.025000,-0.013100,-0.020600,-0.017500,0.020600,-0.017500,0.025000,-0.013100,0.025000,0.013100,0.020600,0.017500,-0.020600,0.017500,-0.025000,0.013100,0.0*
1,1,0.008748,-0.020600,0.013100*
1,1,0.008748,-0.020600,-0.013100*
1,1,0.008748,0.020600,-0.013100*
1,1,0.008748,0.020600,0.013100*
%
%ADD10R,0.078740X0.047240*%
%ADD11R,0.043307X0.066929*%
%ADD12R,0.094488X0.066929*%
%ADD13R,0.050000X0.022000*%
%ADD14R,0.022000X0.050000*%
%ADD15R,0.055000X0.017000*%
G04~CAMADD=16~8~0.0~0.0~196.9~196.9~49.2~0.0~15~0.0~0.0~0.0~0.0~0~0.0~0.0~0.0~0.0~0~0.0~0.0~0.0~90.0~196.0~196.0*
%ADD16D16*%
G04~CAMADD=17~8~0.0~0.0~350.0~350.0~43.7~0.0~15~0.0~0.0~0.0~0.0~0~0.0~0.0~0.0~0.0~0~0.0~0.0~0.0~270.0~350.0~350.0*
%ADD17D17*%
G04~CAMADD=18~8~0.0~0.0~400.0~550.0~50.0~0.0~15~0.0~0.0~0.0~0.0~0~0.0~0.0~0.0~0.0~0~0.0~0.0~0.0~180.0~400.0~550.0*
%ADD18D18*%
%ADD19R,0.059055X0.062992*%
G04~CAMADD=20~8~0.0~0.0~350.0~500.0~43.7~0.0~15~0.0~0.0~0.0~0.0~0~0.0~0.0~0.0~0.0~0~0.0~0.0~0.0~0.0~350.0~500.0*
%ADD20D20*%
%ADD21R,0.098425X0.066929*%
%ADD22O,0.023622X0.086614*%
%ADD23R,0.050000X0.050000*%
%ADD24R,0.055118X0.043307*%
%ADD25R,0.045279X0.051181*%
G04~CAMADD=26~8~0.0~0.0~400.0~550.0~50.0~0.0~15~0.0~0.0~0.0~0.0~0~0.0~0.0~0.0~0.0~0~0.0~0.0~0.0~90.0~550.0~400.0*
%ADD26D26*%
%ADD27R,0.043307X0.055118*%
G04~CAMADD=28~8~0.0~0.0~350.0~350.0~43.7~0.0~15~0.0~0.0~0.0~0.0~0~0.0~0.0~0.0~0.0~0~0.0~0.0~0.0~180.0~350.0~350.0*
%ADD28D28*%
G04~CAMADD=29~8~0.0~0.0~350.0~500.0~43.7~0.0~15~0.0~0.0~0.0~0.0~0~0.0~0.0~0.0~0.0~0~0.0~0.0~0.0~90.0~500.0~350.0*
%ADD29D29*%
%ADD30R,0.050000X0.050000*%
%ADD31C,0.157480*%
%ADD32R,0.039370X0.078740*%
%ADD33R,0.137795X0.078740*%
%ADD34C,0.009843*%
%ADD35R,0.098425X0.055118*%
%ADD36R,0.028350X0.070079*%
%ADD37R,0.039370X0.027559*%
%ADD38R,0.027559X0.039370*%
%ADD45C,0.059055*%
%ADD46R,0.065000X0.065000*%
%ADD47C,0.065000*%
%ADD48R,0.059055X0.059055*%
%ADD49C,0.118110*%
%ADD50C,0.078740*%
%ADD51R,0.078740X0.078740*%
%ADD52O,0.078740X0.039370*%
%ADD53O,0.078740X0.039370*%
%ADD54C,0.074000*%
%ADD55R,0.157480X0.157480*%
%ADD56C,0.118110*%
%ADD57C,0.078740*%
%ADD58C,0.055118*%
%ADD59C,0.031496*%
%ADD60R,0.059055X0.059055*%
%ADD61C,0.100000*%
%ADD62R,0.070866X0.070866*%
%ADD63R,0.085000X0.047201*%
%ADD64R,0.065000X0.065000*%
%ADD65C,0.196850*%
%ADD66O,0.039370X0.078740*%
%ADD67O,0.039370X0.078740*%
%ADD68C,0.062992*%
%LNsolarpcb-1*%
%LPD*%
G54D10*
X06018Y01809D03*
Y0173D03*
Y01651D03*
Y01573D03*
Y01494D03*
Y01415D03*
Y01336D03*
Y01258D03*
X06609D03*
Y01336D03*
Y01415D03*
Y01494D03*
Y01573D03*
Y01651D03*
Y0173D03*
Y01809D03*
G54D11*
X02536Y03473D03*
X02643D03*
G54D12*
X04006Y01906D03*
Y02052D03*
G54D13*
X04145Y02275D03*
Y02244D03*
Y02212D03*
Y02181D03*
Y02149D03*
Y02118D03*
Y02086D03*
Y02055D03*
X04483D03*
Y02086D03*
Y02118D03*
Y02149D03*
Y02181D03*
Y02212D03*
Y02244D03*
Y02275D03*
G54D14*
X04204Y01996D03*
X04236D03*
X04267D03*
X04299D03*
X0433D03*
X04362D03*
X04393D03*
X04425D03*
Y02334D03*
X04393D03*
X04362D03*
X0433D03*
X04299D03*
X04267D03*
X04236D03*
X04204D03*
G54D15*
X02826Y02986D03*
Y0296D03*
Y02935D03*
Y02909D03*
Y02884D03*
Y02858D03*
X02654D03*
Y02884D03*
Y02909D03*
Y02935D03*
Y0296D03*
Y02986D03*
G54D16*
X03496Y02273D03*
Y02309D03*
G54D17*
X02616Y02587D03*
Y02647D03*
X06775Y01119D03*
Y01059D03*
X05636Y01841D03*
Y01781D03*
G54D18*
X02791Y03472D03*
X02721D03*
X04319Y02543D03*
X04389D03*
X04554Y02535D03*
X04484D03*
X04686Y00292D03*
X04756D03*
X05108Y00342D03*
X05178D03*
X03401Y02026D03*
X03471D03*
X06747Y01418D03*
X06817D03*
X02766Y02662D03*
X02696D03*
X05729Y01685D03*
X05659D03*
G54D19*
X03486Y02151D03*
X03368D03*
G54D20*
X02766Y02567D03*
X02696D03*
X01799Y00128D03*
X01869D03*
X02839Y01335D03*
X02909D03*
G54D21*
X02628Y03602D03*
X02786D03*
G54D22*
X02731Y00809D03*
X02781D03*
X02831D03*
X02881D03*
X02731Y00998D03*
X02781D03*
X02831D03*
X02881D03*
G54D23*
X02616Y00944D03*
Y00844D03*
X0347Y0386D03*
Y0396D03*
X03905Y02175D03*
Y02275D03*
X05035Y03922D03*
Y03822D03*
X05279Y02963D03*
Y03063D03*
X02624Y0143D03*
Y0133D03*
G54D24*
X02486Y0087D03*
Y00929D03*
X04Y02273D03*
Y02214D03*
X0494Y03844D03*
Y03903D03*
X05366Y03045D03*
Y02986D03*
X0335Y039D03*
Y03959D03*
X0251Y0259D03*
Y02649D03*
X03031Y00757D03*
Y00816D03*
X03421Y02321D03*
Y02261D03*
G54D25*
X03441Y01194D03*
X03526D03*
Y0104D03*
X03441D03*
X03863Y01194D03*
X03947D03*
Y01041D03*
X03863D03*
X04276Y01194D03*
X04361D03*
Y01041D03*
X04276D03*
G54D26*
X04307Y01524D03*
Y01594D03*
X03905Y01519D03*
Y01589D03*
X03492Y01519D03*
Y01589D03*
X04786Y04433D03*
Y04503D03*
X05401Y04449D03*
Y04519D03*
X05409Y00578D03*
Y00508D03*
X07067Y01706D03*
Y01636D03*
X06963Y01639D03*
Y01709D03*
X06966Y01801D03*
Y01871D03*
X06754Y0126D03*
Y0133D03*
X05884Y01538D03*
Y01608D03*
G54D27*
X02139Y04267D03*
X02198D03*
X02619Y02737D03*
X0256D03*
X04699Y02105D03*
X0464D03*
X03826Y02056D03*
X03885D03*
X03826Y01906D03*
X03885D03*
X06349Y00986D03*
X0629D03*
G54D28*
X01648Y00126D03*
X01708D03*
X04641Y01936D03*
X04701D03*
X02904Y0142D03*
X02844D03*
G54D29*
X04818Y0194D03*
Y0187D03*
X06875Y01124D03*
Y01054D03*
X0553Y01853D03*
Y01783D03*
G54D30*
X06261Y01101D03*
X06361D03*
G54D31*
X05668Y03606D03*
X0056Y01163D03*
G54D32*
X05553Y01984D03*
X05643D03*
X05734D03*
G54D33*
X05643Y02217D03*
G54D34*
X02714Y01414D03*
Y01395D03*
Y01375D03*
X02733Y01414D03*
Y01395D03*
Y01375D03*
G54D35*
X03208Y03322D03*
X03204Y03129D03*
G54D36*
X02137Y04407D03*
X02187D03*
X02287D03*
X02137Y04592D03*
X02187D03*
X02287D03*
X02237Y04407D03*
Y04592D03*
X05153Y03104D03*
Y02919D03*
X05203Y03104D03*
X05103D03*
X05053D03*
X05203Y02919D03*
X05103D03*
X05053D03*
X05268Y03968D03*
X05218D03*
X05118D03*
X05268Y03783D03*
X05218D03*
X05118D03*
X05168Y03968D03*
Y03783D03*
G54D37*
X05718Y01402D03*
X05481D03*
X05718Y01547D03*
X05481D03*
X03593Y02359D03*
X03829D03*
X03593Y02213D03*
X03829D03*
G54D38*
X07162Y01423D03*
Y01186D03*
X07017Y01423D03*
Y01186D03*
G54D45*
X06865Y0312D03*
Y0322D03*
Y0332D03*
Y0342D03*
Y0352D03*
Y0362D03*
Y0372D03*
Y0382D03*
Y0392D03*
Y0402D03*
X06965D03*
Y0392D03*
Y0382D03*
Y0372D03*
Y0362D03*
Y0352D03*
Y0342D03*
Y0332D03*
Y0322D03*
Y0312D03*
X07065D03*
Y0322D03*
Y0332D03*
Y0342D03*
Y0352D03*
Y0362D03*
Y0372D03*
Y0382D03*
Y0392D03*
Y0402D03*
X07165D03*
Y0392D03*
Y0382D03*
Y0372D03*
Y0362D03*
Y0352D03*
Y0342D03*
Y0332D03*
Y0322D03*
Y0312D03*
X07265D03*
Y0322D03*
Y0332D03*
Y0342D03*
Y0352D03*
Y0362D03*
Y0372D03*
Y0382D03*
Y0392D03*
Y0402D03*
X05027Y0207D03*
Y0217D03*
Y0227D03*
Y0237D03*
Y0247D03*
X04976Y04512D03*
X06865Y0209D03*
X06965Y0199D03*
Y0209D03*
X02634Y03168D03*
Y03268D03*
X02734Y03168D03*
Y03268D03*
X02834Y03168D03*
X0532Y02315D03*
X0684Y042D03*
X0674D03*
X0664D03*
X0654D03*
X0644D03*
X0634D03*
X0624D03*
X0614D03*
X0604D03*
X0594D03*
Y043D03*
X0604D03*
X0614D03*
X0624D03*
X0634D03*
X0644D03*
X0654D03*
X0664D03*
X0674D03*
X0684D03*
Y044D03*
X0674D03*
X0664D03*
X0654D03*
X0644D03*
X0634D03*
X0624D03*
X0614D03*
X0604D03*
X0594D03*
Y045D03*
X0604D03*
X0614D03*
X0624D03*
X0634D03*
X0644D03*
X0654D03*
X0664D03*
X0674D03*
X0684D03*
Y046D03*
X0674D03*
X0664D03*
X0654D03*
X0644D03*
X0634D03*
X0624D03*
X0614D03*
X0604D03*
X0594D03*
X04663Y00157D03*
G54D46*
X04099Y00629D03*
X01447Y00129D03*
X05072Y00159D03*
X02664Y0159D03*
G54D47*
X03999Y00629D03*
X03899D03*
X03799D03*
X03699D03*
X03599D03*
X01347Y00129D03*
X05576Y00539D03*
Y00439D03*
X05272Y00159D03*
X05172D03*
X05592Y04626D03*
Y04526D03*
X02241Y02782D03*
Y02682D03*
X02246Y03177D03*
Y03077D03*
X02986Y02537D03*
Y02437D03*
X02764Y0159D03*
X02864D03*
X02165Y0224D03*
G54D48*
X05027Y0257D03*
X04976Y04412D03*
X02406Y02752D03*
G54D49*
X0129Y02594D03*
Y04094D03*
X0193Y02594D03*
Y04094D03*
X06769Y00431D03*
G54D50*
X04229Y0396D03*
X04129D03*
X04029D03*
G54D51*
X03929Y0396D03*
G54D52*
X05196Y04554D03*
G54D53*
X05196Y04504D03*
Y04454D03*
G54D54*
X0057Y00674D03*
Y00574D03*
X0067Y00474D03*
X0077D03*
X0087D03*
X0077Y00774D03*
X0087D03*
X0067D03*
G54D55*
X0056Y04034D03*
G54D56*
X0056Y03693D03*
Y01504D03*
X02657Y0394D03*
X03047D03*
X02656Y04074D03*
X03047D03*
X02606Y02007D03*
X02996D03*
X02605Y02141D03*
X02996D03*
Y04574D03*
X02605D03*
X02996Y0444D03*
X02606D03*
X017Y04566D03*
X0131D03*
X017Y04433D03*
X01311D03*
G54D57*
X01758Y00385D03*
X01482D03*
X01915Y01094D03*
X01325D03*
X03727Y00263D03*
X04027D03*
X03707Y04468D03*
X04007D03*
G54D58*
X00712Y0457D03*
X01012D03*
X03034Y03447D03*
Y02947D03*
X01008Y04401D03*
X00708D03*
G54D59*
X05193Y03696D03*
X05093D03*
G54D60*
X06865Y0199D03*
X02834Y03268D03*
X02418Y0327D03*
X04763Y00157D03*
G54D61*
X02677Y0048D03*
X03011D03*
G54D62*
X01451Y01417D03*
X01747D03*
X01323D03*
X01875D03*
X01323Y02315D03*
X01875D03*
G54D63*
X05729Y00581D03*
Y00481D03*
Y00381D03*
Y00281D03*
G54D64*
X05576Y00339D03*
X05592Y04426D03*
X02241Y02882D03*
X02246Y03277D03*
X02986Y02637D03*
X02165Y0234D03*
G54D65*
X07217Y002D03*
Y04542D03*
X002D03*
Y002D03*
G54D66*
X05196Y00548D03*
G54D67*
X05146Y00548D03*
X05096D03*
G54D68*
X05668Y03952D03*
Y03252D03*
M02*