%FSTAX23Y23*%
%MOIN*%
%SFA1B1*%

%IPPOS*%
%ADD80C,0.003937*%
%LNsolarpcb-1*%
%LPD*%
G54D80*
X02763Y0086D02*
D01*
X02763Y00861*
X02762Y00863*
X02762Y00864*
X02762Y00865*
X02761Y00867*
X02761Y00868*
X0276Y00869*
X0276Y0087*
X02759Y00871*
X02758Y00873*
X02757Y00874*
X02756Y00875*
X02755Y00875*
X02754Y00876*
X02753Y00877*
X02752Y00878*
X0275Y00878*
X02749Y00879*
X02748Y00879*
X02746Y00879*
X02745Y00879*
X02744Y0088*
X02742*
X02741Y00879*
X0274Y00879*
X02738Y00879*
X02737Y00879*
X02736Y00878*
X02734Y00878*
X02733Y00877*
X02732Y00876*
X02731Y00875*
X0273Y00875*
X02729Y00874*
X02728Y00873*
X02727Y00871*
X02726Y0087*
X02726Y00869*
X02725Y00868*
X02724Y00867*
X02724Y00865*
X02724Y00864*
X02724Y00863*
X02723Y00861*
X02723Y0086*
X02723Y00859*
X02724Y00857*
X02724Y00856*
X02724Y00854*
X02724Y00853*
X02725Y00852*
X02726Y00851*
X02726Y00849*
X02727Y00848*
X02728Y00847*
X02729Y00846*
X0273Y00845*
X02731Y00844*
X02732Y00844*
X02733Y00843*
X02734Y00842*
X02736Y00842*
X02737Y00841*
X02738Y00841*
X0274Y00841*
X02741Y0084*
X02742Y0084*
X02744*
X02745Y0084*
X02746Y00841*
X02748Y00841*
X02749Y00841*
X0275Y00842*
X02752Y00842*
X02753Y00843*
X02754Y00844*
X02755Y00844*
X02756Y00845*
X02757Y00846*
X02758Y00847*
X02759Y00848*
X0276Y00849*
X0276Y00851*
X02761Y00852*
X02761Y00853*
X02762Y00854*
X02762Y00856*
X02762Y00857*
X02763Y00859*
X02763Y0086*
X02523Y03437D02*
Y03508D01*
X02656Y03437D02*
Y03508D01*
X02523D02*
X02656D01*
X02523Y03437D02*
X02656D01*
X02708Y00824D02*
X02904D01*
X02708Y00982D02*
X02904D01*
X02708Y00824D02*
Y00982D01*
X02904Y00824D02*
Y00982D01*
X02457Y00856D02*
Y00943D01*
X02515Y00856D02*
Y00943D01*
X02457Y00856D02*
X02515D01*
X02457Y00943D02*
X02515D01*
X02125Y04239D02*
Y04296D01*
X02212Y04239D02*
Y04296D01*
X02125D02*
X02212D01*
X02125Y04239D02*
X02212D01*
X03971Y02287D02*
X04028D01*
X03971Y022D02*
X04028D01*
Y02287*
X03971Y022D02*
Y02287D01*
X04912Y0383D02*
X04969D01*
X04912Y03917D02*
X04969D01*
X04912Y0383D02*
Y03917D01*
X04969Y0383D02*
Y03917D01*
X05337Y03059D02*
X05394D01*
X05337Y02972D02*
X05394D01*
Y03059*
X05337Y02972D02*
Y03059D01*
X02633Y02708D02*
Y02765D01*
X02546Y02708D02*
Y02765D01*
Y02708D02*
X02633D01*
X02546Y02765D02*
X02633D01*
X04713Y02076D02*
Y02133D01*
X04626Y02076D02*
Y02133D01*
Y02076D02*
X04713D01*
X04626Y02133D02*
X04713D01*
X03812Y02027D02*
Y02085D01*
X03899Y02027D02*
Y02085D01*
X03812D02*
X03899D01*
X03812Y02027D02*
X03899D01*
X03812Y01877D02*
Y01935D01*
X03899Y01877D02*
Y01935D01*
X03812D02*
X03899D01*
X03812Y01877D02*
X03899D01*
X03321Y03886D02*
X03378D01*
X03321Y03973D02*
X03378D01*
X03321Y03886D02*
Y03973D01*
X03378Y03886D02*
Y03973D01*
X06363Y00957D02*
Y01014D01*
X06276Y00957D02*
Y01014D01*
Y00957D02*
X06363D01*
X06276Y01014D02*
X06363D01*
X02481Y02576D02*
X02538D01*
X02481Y02663D02*
X02538D01*
X02481Y02576D02*
Y02663D01*
X02538Y02576D02*
Y02663D01*
X03002Y00744D02*
Y0083D01*
X0306Y00744D02*
Y0083D01*
X03002Y00744D02*
X0306D01*
X03002Y0083D02*
X0306D01*
X03392Y02334D02*
X03449D01*
X03392Y02248D02*
X03449D01*
Y02334*
X03392Y02248D02*
Y02334D01*
M02*