%FSTAX23Y23*%
%MOIN*%
%SFA1B1*%

%IPPOS*%
%ADD31C,0.157480*%
%ADD39C,0.020000*%
%ADD40C,0.010000*%
%ADD41C,0.030000*%
%ADD43C,0.040000*%
%ADD45C,0.059055*%
%ADD46R,0.065000X0.065000*%
%ADD47C,0.065000*%
%ADD48R,0.059055X0.059055*%
%ADD49C,0.118110*%
%ADD50C,0.078740*%
%ADD51R,0.078740X0.078740*%
%ADD52O,0.078740X0.039370*%
%ADD53O,0.078740X0.039370*%
%ADD54C,0.074000*%
%ADD55R,0.157480X0.157480*%
%ADD56C,0.118110*%
%ADD57C,0.078740*%
%ADD58C,0.055118*%
%ADD59C,0.031496*%
%ADD60R,0.059055X0.059055*%
%ADD61C,0.100000*%
%ADD62R,0.070866X0.070866*%
%ADD63R,0.085000X0.047201*%
%ADD64R,0.065000X0.065000*%
%ADD65C,0.196850*%
%ADD66O,0.039370X0.078740*%
%ADD67O,0.039370X0.078740*%
%ADD68C,0.062992*%
%ADD69C,0.050000*%
%LNsolarpcb-1*%
%LPD*%
G36*
X00645Y04599D02*
X00644Y04597D01*
X00643Y04596*
X00642Y04594*
X00641Y04592*
X0064Y04589*
X0064Y04587*
X00639Y04584*
X00639Y04581*
X00639Y04575*
X00614Y04599*
X00617Y04599*
X00623Y046*
X00626Y046*
X00629Y04601*
X00631Y04602*
X00633Y04602*
X00635Y04603*
X00637Y04605*
X00638Y04606*
X00645Y04599*
G37*
G36*
X05939Y0457D02*
X05936Y0457D01*
X05933Y0457*
X05931Y04569*
X05928Y04568*
X05926Y04568*
X05923Y04567*
X05921Y04565*
X05919Y04564*
X05916Y04562*
X05914Y0456*
X059Y04574*
X05902Y04576*
X05904Y04579*
X05905Y04581*
X05907Y04583*
X05908Y04586*
X05908Y04588*
X05909Y04591*
X0591Y04593*
X0591Y04596*
X0591Y04599*
X05939Y0457*
G37*
G36*
X05624Y04444D02*
X05625Y04442D01*
X05626Y04441*
X05627Y0444*
X05629Y04438*
X05631Y04438*
X05634Y04437*
X05637Y04436*
X0564Y04436*
X05644Y04436*
Y04416*
X0564Y04416*
X05637Y04416*
X05634Y04415*
X05631Y04414*
X05629Y04413*
X05627Y04412*
X05626Y04411*
X05625Y0441*
X05624Y04408*
X05624Y04406*
Y04446*
X05624Y04444*
G37*
G36*
X02442Y04232D02*
X02442Y04226D01*
X02443Y04223*
X02443Y04221*
X02444Y04218*
X02445Y04216*
X02446Y04214*
X02447Y04213*
X02448Y04211*
X02441Y04204*
X0244Y04206*
X02438Y04207*
X02436Y04208*
X02434Y04208*
X02432Y04209*
X02429Y0421*
X02427Y0421*
X02424Y04211*
X02417Y04211*
X02442Y04235*
X02442Y04232*
G37*
G36*
X04155Y04095D02*
X04159Y04091D01*
X04162Y04089*
X04164Y04088*
X04166Y04087*
X04168Y04086*
X0417Y04085*
X04172Y04085*
X04174Y04085*
Y04075*
X04172Y04074*
X0417Y04074*
X04168Y04073*
X04166Y04073*
X04164Y04071*
X04162Y0407*
X04159Y04068*
X04157Y04067*
X04152Y04062*
Y04097*
X04155Y04095*
G37*
G36*
X05178Y04062D02*
X05175Y04064D01*
X05171Y04068*
X05169Y0407*
X05167Y04071*
X05165Y04072*
X05163Y04073*
X05161Y04074*
X05159Y04074*
X05157Y04075*
X05157Y04085*
X05159Y04085*
X05161Y04085*
X05163Y04086*
X05165Y04086*
X05167Y04088*
X0517Y04089*
X05172Y0409*
X05177Y04094*
X05179Y04097*
X05178Y04062*
G37*
G36*
X05268Y0403D02*
X05266Y0403D01*
X05264Y0403*
X05262Y0403*
X0526Y04029*
X05258Y04028*
X05256Y04027*
X05254Y04026*
X05252Y04025*
X0525Y04023*
X05248Y04022*
X05234Y04036*
X05236Y04038*
X05237Y04039*
X05239Y04041*
X0524Y04043*
X05241Y04045*
X05242Y04047*
X05242Y04049*
X05243Y04051*
X05243Y04053*
X05243Y04055*
X05268Y0403*
G37*
G36*
X05354Y03996D02*
X05353Y03994D01*
X05352Y03993*
X05351Y03991*
X0535Y03989*
X05349Y03987*
X05349Y03984*
X05348Y03982*
X05348Y0398*
X05348Y03977*
X05328*
X05328Y0398*
X05328Y03982*
X05327Y03984*
X05327Y03987*
X05326Y03989*
X05325Y03991*
X05324Y03993*
X05323Y03994*
X05322Y03996*
X05321Y03997*
X05356*
X05354Y03996*
G37*
G36*
X04333Y03976D02*
X04335Y03974D01*
X04337Y03973*
X04338Y03972*
X0434Y03971*
X04342Y03971*
X04345Y0397*
X04347Y0397*
X04349Y0397*
X04352Y0397*
Y0395*
X04349Y03949*
X04347Y03949*
X04345Y03949*
X04342Y03948*
X0434Y03948*
X04338Y03947*
X04337Y03946*
X04335Y03945*
X04333Y03943*
X04332Y03942*
Y03977*
X04333Y03976*
G37*
G36*
X04638Y03897D02*
X04638Y03895D01*
X04638Y03893*
X04638Y03891*
X04639Y03889*
X04639Y03888*
X0464Y03886*
X04642Y03884*
X04643Y03882*
X04645Y0388*
X04627Y0387*
X04625Y03871*
X04622Y03874*
X0462Y03876*
X04618Y03877*
X04616Y03878*
X04614Y03879*
X04612Y03879*
X0461Y0388*
X04608Y03881*
X04638Y03899*
X04638Y03897*
G37*
G36*
X04795Y0387D02*
X04794Y03868D01*
X04793Y03867*
X04792Y03865*
X04791Y03863*
X0479Y03861*
X0479Y03858*
X04789Y03856*
X04789Y03854*
X04789Y03851*
X04769*
X04769Y03854*
X04769Y03856*
X04768Y03858*
X04768Y03861*
X04767Y03863*
X04766Y03865*
X04765Y03867*
X04764Y03868*
X04763Y0387*
X04762Y03871*
X04797*
X04795Y0387*
G37*
G36*
X0522Y03856D02*
X05216Y03856D01*
X0521Y03856*
X05207Y03855*
X05205Y03855*
X05203Y03854*
X05201Y03853*
X05199Y03852*
X05197Y03851*
X05196Y0385*
X05189Y03857*
X0519Y03858*
X05191Y0386*
X05192Y03862*
X05193Y03864*
X05193Y03866*
X05194Y03869*
X05194Y03872*
X05195Y03875*
X05195Y03881*
X0522Y03856*
G37*
G36*
X04671Y03822D02*
X04671Y0382D01*
X04672Y03818*
X04672Y03816*
X04673Y03813*
X04674Y03811*
X04675Y0381*
X04676Y03808*
X04677Y03806*
X04678Y03805*
X04643*
X04645Y03806*
X04646Y03808*
X04647Y0381*
X04648Y03811*
X04649Y03813*
X0465Y03816*
X0465Y03818*
X04651Y0382*
X04651Y03822*
X04651Y03825*
X04671*
X04671Y03822*
G37*
G36*
X04789Y03814D02*
X04789Y03812D01*
X0479Y0381*
X0479Y03808*
X04791Y03806*
X04792Y03804*
X04793Y03802*
X04794Y038*
X04795Y03798*
X04797Y03797*
X04762*
X04763Y03798*
X04764Y038*
X04765Y03802*
X04766Y03804*
X04767Y03806*
X04768Y03808*
X04768Y0381*
X04769Y03812*
X04769Y03814*
X04769Y03817*
X04789*
X04789Y03814*
G37*
G36*
X04795Y0376D02*
X04794Y03758D01*
X04793Y03756*
X04792Y03754*
X04791Y03752*
X0479Y0375*
X0479Y03748*
X04789Y03746*
X04789Y03744*
X04789Y03741*
X04769*
X04769Y03744*
X04769Y03746*
X04768Y03748*
X04768Y0375*
X04767Y03752*
X04766Y03754*
X04765Y03756*
X04764Y03758*
X04763Y0376*
X04762Y03761*
X04797*
X04795Y0376*
G37*
G36*
X03788Y0368D02*
X03789Y03678D01*
X0379Y03676*
X03791Y03674*
X03792Y03672*
X03793Y0367*
X03794Y03669*
X03797Y03665*
X03799Y03663*
X03788Y03646*
X03786Y03647*
X03784Y03649*
X03783Y0365*
X03781Y03651*
X03779Y03652*
X03777Y03652*
X03775Y03653*
X03773Y03653*
X03771Y03653*
X03769Y03652*
X03788Y03682*
X03788Y0368*
G37*
G36*
X02749Y03395D02*
X02749Y03394D01*
X0275Y03394*
X02751Y03394*
X02753Y03393*
X02754Y03393*
X02756Y03393*
X02761Y03392*
X02764Y03392*
X02758Y03362*
X02729Y03369*
X02749Y03396*
X02749Y03395*
G37*
G36*
X02856Y0336D02*
X02855Y0336D01*
X02854Y03361*
X02853Y03361*
X02852Y03362*
X0285Y03362*
X02846Y03362*
X02841Y03362*
X02839Y03362*
Y03392*
X02841Y03392*
X0285Y03393*
X02852Y03393*
X02853Y03394*
X02854Y03394*
X02855Y03394*
X02856Y03395*
Y0336*
G37*
G36*
X02812Y03147D02*
X02809Y0315D01*
X02804Y03155*
X02801Y03157*
X02798Y03159*
X02796Y0316*
X02793Y03161*
X02791Y03162*
X02789Y03162*
X02787Y03163*
Y03173*
X02789Y03173*
X02791Y03173*
X02793Y03174*
X02796Y03175*
X02798Y03176*
X02801Y03178*
X02804Y0318*
X02809Y03185*
X02812Y03188*
Y03147*
G37*
G36*
X02758Y03185D02*
X02763Y0318D01*
X02766Y03178*
X02769Y03176*
X02771Y03175*
X02774Y03174*
X02776Y03173*
X02778Y03173*
X0278Y03173*
Y03163*
X02778Y03162*
X02776Y03162*
X02774Y03161*
X02771Y0316*
X02769Y03159*
X02766Y03157*
X02763Y03155*
X02758Y0315*
X02755Y03147*
Y03188*
X02758Y03185*
G37*
G36*
X02712Y03147D02*
X02709Y0315D01*
X02704Y03155*
X02701Y03157*
X02698Y03159*
X02696Y0316*
X02693Y03161*
X02691Y03162*
X02689Y03162*
X02687Y03163*
Y03173*
X02689Y03173*
X02691Y03173*
X02693Y03174*
X02696Y03175*
X02698Y03176*
X02701Y03178*
X02704Y0318*
X02709Y03185*
X02712Y03188*
Y03147*
G37*
G36*
X02658Y03185D02*
X02663Y0318D01*
X02666Y03178*
X02669Y03176*
X02671Y03175*
X02674Y03174*
X02676Y03173*
X02678Y03173*
X0268Y03173*
Y03163*
X02678Y03162*
X02676Y03162*
X02674Y03161*
X02671Y0316*
X02669Y03159*
X02666Y03157*
X02663Y03155*
X02658Y0315*
X02655Y03147*
Y03188*
X02658Y03185*
G37*
G36*
X04981Y02954D02*
X04989Y02947D01*
X0499Y02946*
X04993Y02944*
X04994Y02943*
X04961Y02932*
X04962Y02934*
X04963Y02935*
X04963Y02937*
X04963Y02939*
X04962Y02941*
X04962Y02942*
X04961Y02944*
X0496Y02946*
X04958Y02948*
X04956Y0295*
X04979Y02956*
X04981Y02954*
G37*
G36*
X02727Y02938D02*
X02724Y02936D01*
X02722Y02935*
X0272Y02933*
X02718Y02932*
X02717Y0293*
X02715Y02928*
X02714Y02926*
X02714Y02924*
X02713Y02922*
X02713Y0292*
X02703Y02924*
X02703Y02925*
X02703Y02927*
X02702Y02929*
X02702Y02931*
X027Y02936*
X02697Y02942*
X02694Y02949*
X02727Y02938*
G37*
G36*
X0488Y0293D02*
X0488Y02928D01*
X0488Y02926*
X04881Y02924*
X04881Y02923*
X04882Y02921*
X04883Y02919*
X04884Y02918*
X04885Y02916*
X04887Y02915*
Y02901*
X04885Y02902*
X04884Y02903*
X04883Y02903*
X04882Y02904*
X04881Y02903*
X04881Y02903*
X0488Y02902*
X0488Y02901*
X0488Y029*
X0488Y02898*
X0487Y0292*
X0488Y02932*
X0488Y0293*
G37*
G36*
X03681Y02834D02*
X03686Y0283D01*
X03688Y02828*
X0369Y02827*
X03692Y02825*
X03695Y02825*
X03697Y02824*
X03699Y02824*
X037Y02823*
Y02813*
X03699Y02813*
X03697Y02813*
X03695Y02812*
X03692Y02811*
X0369Y0281*
X03688Y02809*
X03686Y02807*
X03684Y02805*
X03679Y02801*
Y02836*
X03681Y02834*
G37*
G36*
X03234Y02793D02*
X03231Y02795D01*
X03227Y02799*
X03224Y02801*
X03222Y02802*
X0322Y02804*
X03218Y02804*
X03216Y02805*
X03214Y02805*
X03212Y02806*
Y02816*
X03214Y02816*
X03216Y02816*
X03218Y02817*
X0322Y02818*
X03222Y02819*
X03224Y0282*
X03227Y02822*
X03229Y02824*
X03234Y02828*
Y02793*
G37*
G36*
X02587Y02826D02*
X02591Y02822D01*
X02594Y0282*
X02596Y02819*
X02598Y02818*
X026Y02817*
X02602Y02816*
X02604Y02816*
X02606Y02816*
Y02806*
X02604Y02805*
X02602Y02805*
X026Y02804*
X02598Y02804*
X02596Y02802*
X02594Y02801*
X02591Y02799*
X02589Y02798*
X02584Y02793*
Y02828*
X02587Y02826*
G37*
G36*
X02862Y02792D02*
X02861Y0279D01*
X0286Y02789*
X02859Y02787*
X02858Y02785*
X02857Y02783*
X02857Y0278*
X02857Y02778*
X02857Y02775*
X02858Y02772*
X02858Y02769*
X02829Y02788*
X02832Y02789*
X02842Y02791*
X02844Y02792*
X02849Y02794*
X02851Y02795*
X02852Y02796*
X02853Y02797*
X02862Y02792*
G37*
G36*
X04674Y02788D02*
X04676Y02786D01*
X04678Y02785*
X0468Y02784*
X04682Y02783*
X04684Y02782*
X04686Y02781*
X04688Y02781*
X0469Y0278*
X04692Y0278*
X04667Y02756*
X04667Y02758*
X04667Y0276*
X04667Y02762*
X04666Y02764*
X04665Y02766*
X04664Y02768*
X04663Y0277*
X04662Y02771*
X0466Y02773*
X04659Y02775*
X04673Y02789*
X04674Y02788*
G37*
G36*
X04858Y02701D02*
X04856Y027D01*
X04855Y02698*
X04854Y02696*
X04854Y02694*
X04853Y02692*
X04852Y02689*
X04852Y02686*
X04851Y02683*
X04851Y02677*
X04827Y02702*
X0483Y02702*
X04836Y02702*
X04839Y02703*
X04841Y02703*
X04844Y02704*
X04846Y02705*
X04848Y02706*
X04849Y02707*
X04851Y02708*
X04858Y02701*
G37*
G36*
X04597Y02694D02*
X04598Y02693D01*
X046Y02692*
X04602Y02691*
X04607Y02689*
X0461Y02688*
X0462Y02685*
X0459Y02668*
X0459Y02671*
X04591Y02674*
X04591Y02676*
X04591Y02679*
X04591Y02681*
X04591Y02683*
X0459Y02685*
X04589Y02687*
X04588Y02689*
X04587Y0269*
X04596Y02695*
X04597Y02694*
G37*
G36*
X04331Y02651D02*
X04333Y0265D01*
X04335Y02649*
X04337Y02649*
X04339Y02649*
X04341Y02649*
X04343Y02649*
X04345Y0265*
X04348Y02651*
X0435Y02652*
X04339Y02619*
X04337Y02623*
X04328Y0264*
X04327Y02641*
X04326Y02642*
X0433Y02653*
X04331Y02651*
G37*
G36*
X04383Y02616D02*
X04382Y02613D01*
X04381Y02611*
X04381Y02609*
X04381Y02606*
X04381Y02604*
X04382Y02602*
X04383Y02601*
X04384Y02599*
X04385Y02597*
X04374Y02594*
X04373Y02595*
X04372Y02596*
X04371Y02597*
X04367Y02599*
X04358Y02603*
X04351Y02607*
X04384Y02618*
X04383Y02616*
G37*
G36*
X02859Y02603D02*
X0286Y02601D01*
X02861Y02598*
X02863Y02597*
X02864Y02595*
X02866Y02594*
X02867Y02593*
X02869Y02592*
X02871Y02592*
X02873Y02592*
X02868Y02582*
X02867Y02582*
X02865Y02581*
X02863Y02581*
X02859Y0258*
X0285Y02577*
X02843Y02574*
X02858Y02606*
X02859Y02603*
G37*
G36*
X04635Y02565D02*
X04633Y02567D01*
X04628Y02571*
X04626Y02573*
X04624Y02574*
X04622Y02575*
X04619Y02576*
X04617Y02577*
X04615Y02577*
X04614Y02577*
Y02587*
X04615Y02587*
X04617Y02588*
X04619Y02588*
X04622Y02589*
X04624Y0259*
X04626Y02592*
X04628Y02593*
X0463Y02595*
X04635Y026*
Y02565*
G37*
G36*
X02883Y02527D02*
X02854Y02527D01*
X0285Y02547*
X02852Y02547*
X02855Y02547*
X02857Y02547*
X02859Y02548*
X0286Y02549*
X02862Y0255*
X02863Y02551*
X02864Y02552*
X02864Y02553*
X02865Y02555*
X02883Y02527*
G37*
G36*
X04714Y02517D02*
X04712Y02519D01*
X04711Y0252*
X04709Y02521*
X04707Y02522*
X04705Y02523*
X04703Y02524*
X04701Y02524*
X04699Y02525*
X04696Y02525*
X04694Y02525*
Y02545*
X04696Y02545*
X04699Y02545*
X04701Y02546*
X04703Y02546*
X04705Y02547*
X04707Y02548*
X04709Y02549*
X04711Y0255*
X04712Y02551*
X04714Y02552*
Y02517*
G37*
G36*
X03803Y02523D02*
X03802Y02522D01*
X03801Y0252*
X038Y02518*
X03799Y02516*
X03798Y02514*
X03798Y02512*
X03797Y0251*
X03797Y02507*
X03797Y02505*
X03777*
X03777Y02507*
X03777Y0251*
X03776Y02512*
X03776Y02514*
X03775Y02516*
X03774Y02518*
X03773Y0252*
X03772Y02522*
X03771Y02523*
X03769Y02525*
X03804*
X03803Y02523*
G37*
G36*
X04837Y02512D02*
X04836Y02512D01*
X04834Y0251*
X04833Y02509*
X04832Y02508*
X04831Y02506*
X0483Y02504*
X04829Y02502*
X04829Y025*
X04828Y02498*
X04828Y02495*
X04808Y02502*
X04808Y02505*
X04808Y0251*
X04808Y02512*
X04807Y02516*
X04806Y02518*
X04806Y0252*
X04805Y02522*
X04804Y02523*
X04837Y02512*
G37*
G36*
X03239Y02489D02*
X03238Y02488D01*
X03237Y02488*
X03237Y02487*
X03236Y02485*
X03236Y02484*
X03236Y02482*
X03235Y0248*
X03235Y02475*
X03235Y02472*
X03205Y02486*
X03206Y025*
X03239Y02489*
G37*
G36*
X04403Y02484D02*
X04402Y02482D01*
X044Y0248*
X04399Y02478*
X04398Y02476*
X04397Y02474*
X04396Y02472*
X04395Y0247*
X04395Y02468*
X04395Y02466*
X04395Y02464*
X0437Y02489*
X04372Y02489*
X04374Y02489*
X04376Y0249*
X04378Y0249*
X0438Y02491*
X04382Y02492*
X04384Y02493*
X04386Y02495*
X04388Y02496*
X04389Y02498*
X04403Y02484*
G37*
G36*
X02804Y02492D02*
X02805Y02486D01*
X02805Y02483*
X02806Y02481*
X02806Y02478*
X02807Y02476*
X02808Y02474*
X02809Y02473*
X0281Y02471*
X02803Y02464*
X02802Y02465*
X028Y02466*
X02798Y02467*
X02796Y02468*
X02794Y02469*
X02792Y0247*
X02789Y0247*
X02786Y0247*
X02779Y02471*
X02804Y02495*
X02804Y02492*
G37*
G36*
X04352Y02447D02*
X0435Y02448D01*
X04349Y02449*
X04347Y0245*
X04345Y02451*
X04343Y02452*
X04341Y02453*
X04339Y02453*
X04337Y02454*
X04334Y02454*
X04332Y02454*
Y02474*
X04334Y02474*
X04337Y02474*
X04339Y02475*
X04341Y02475*
X04343Y02476*
X04345Y02477*
X04347Y02478*
X04349Y02479*
X0435Y0248*
X04352Y02482*
Y02447*
G37*
G36*
X04271Y0248D02*
X04272Y02479D01*
X04274Y02478*
X04276Y02477*
X04278Y02476*
X0428Y02475*
X04282Y02475*
X04285Y02474*
X04287Y02474*
X04289Y02474*
Y02454*
X04287Y02454*
X04285Y02454*
X04282Y02453*
X0428Y02453*
X04278Y02452*
X04276Y02451*
X04274Y0245*
X04272Y02449*
X04271Y02448*
X04269Y02447*
Y02482*
X04271Y0248*
G37*
G36*
X04234Y02447D02*
X04232Y02448D01*
X0423Y02449*
X04229Y0245*
X04227Y02451*
X04225Y02452*
X04223Y02453*
X04221Y02453*
X04218Y02454*
X04216Y02454*
X04214Y02454*
Y02474*
X04216Y02474*
X04218Y02474*
X04221Y02475*
X04223Y02475*
X04225Y02476*
X04227Y02477*
X04229Y02478*
X0423Y02479*
X04232Y0248*
X04234Y02482*
Y02447*
G37*
G36*
X04667Y02456D02*
X04663Y02455D01*
X04651Y02451*
X04649Y0245*
X04647Y02449*
X04645Y02448*
X04644Y02447*
X04643Y02445*
X04634Y02451*
X04635Y02452*
X04636Y02454*
X04637Y02456*
X04638Y02458*
X04638Y0246*
X04638Y02462*
X04638Y02465*
X04638Y02467*
X04638Y0247*
X04637Y02473*
X04667Y02456*
G37*
G36*
X03797Y0246D02*
X03797Y02458D01*
X03798Y02455*
X03798Y02453*
X03799Y02451*
X038Y02449*
X03801Y02447*
X03802Y02446*
X03803Y02444*
X03804Y02443*
X03769*
X03771Y02444*
X03772Y02446*
X03773Y02447*
X03774Y02449*
X03775Y02451*
X03776Y02453*
X03776Y02455*
X03777Y02458*
X03777Y0246*
X03777Y02463*
X03797*
X03797Y0246*
G37*
G36*
X03235Y0241D02*
X03236Y02401D01*
X03236Y02399*
X03236Y02398*
X03237Y02397*
X03237Y02396*
X03237Y02395*
X03202*
X03203Y02396*
X03203Y02397*
X03204Y02398*
X03204Y02399*
X03204Y02401*
X03205Y02405*
X03205Y0241*
X03205Y02412*
X03235*
X03235Y0241*
G37*
G36*
X04443Y02392D02*
X04414Y02391D01*
X04409Y02411*
X04412Y02411*
X04414Y02411*
X04416Y02412*
X04418Y02412*
X04419Y02413*
X04421Y02414*
X04422Y02415*
X04423Y02416*
X04423Y02418*
X04423Y02419*
X04443Y02392*
G37*
G36*
X02836Y02407D02*
X02836Y02405D01*
X02837Y02403*
X02838Y02401*
X02839Y02399*
X0284Y02397*
X02842Y02395*
X02844Y02392*
X02848Y02387*
X02813*
X02816Y0239*
X0282Y02395*
X02821Y02397*
X02823Y02399*
X02824Y02401*
X02825Y02403*
X02825Y02405*
X02826Y02407*
X02826Y02409*
X02836*
X02836Y02407*
G37*
G36*
X04389Y02417D02*
X04391Y02416D01*
X04392Y02415*
X04394Y02414*
X04396Y02413*
X04398Y02412*
X044Y02412*
X04403Y02411*
X04405Y02411*
X04407Y02411*
X04407Y02391*
X04405Y02391*
X04403Y02391*
X044Y0239*
X04398Y0239*
X04396Y02389*
X04394Y02388*
X04392Y02387*
X04391Y02386*
X04389Y02385*
X04387Y02384*
X04387Y02419*
X04389Y02417*
G37*
G36*
X0452Y02345D02*
X0452Y02344D01*
X0452Y02344*
X04521Y02344*
X04522Y02344*
X04522Y02343*
X04523Y02343*
X04524Y02343*
X04526Y02343*
Y02333*
X04525Y02333*
X04523Y02333*
X04522Y02333*
X04522Y02333*
X04521Y02332*
X0452Y02332*
X0452Y02332*
X0452Y02332*
X0452Y02331*
Y02345*
X0452Y02345*
G37*
G36*
X04584Y0231D02*
X04583Y02281D01*
X04555Y023*
X04557Y023*
X04558Y02301*
X04559Y02302*
X04561Y02303*
X04561Y02304*
X04562Y02306*
X04563Y02308*
X04563Y0231*
X04563Y02312*
X04564Y02315*
X04584Y0231*
G37*
G36*
X04815Y02245D02*
X04811Y02247D01*
X04797Y02253*
X04795Y02254*
X04793Y02254*
X04791Y02254*
X0479Y02254*
X04786Y02264*
X04789Y02264*
X04791Y02265*
X04792Y02266*
X04794Y02267*
X04796Y02268*
X04798Y02269*
X04799Y02271*
X04801Y02273*
X04802Y02276*
X04804Y02278*
X04815Y02245*
G37*
G36*
X04374Y02274D02*
X04379Y0227D01*
X04381Y02269*
X04383Y02267*
X04385Y02266*
X04387Y02265*
X04389Y02265*
X04391Y02264*
X04393Y02264*
Y02254*
X04391Y02254*
X04389Y02254*
X04387Y02253*
X04385Y02252*
X04383Y02251*
X04381Y0225*
X04379Y02248*
X04376Y02246*
X04372Y02242*
Y02277*
X04374Y02274*
G37*
G36*
X04676Y02274D02*
X04681Y0227D01*
X04683Y02269*
X04686Y02267*
X04688Y02266*
X0469Y02265*
X04692Y02265*
X04694Y02264*
X04696Y02264*
X04697Y02254*
X04695Y02254*
X04693Y02254*
X04691Y02253*
X04689Y02252*
X04687Y02251*
X04684Y0225*
X04682Y02248*
X0468Y02246*
X04678Y02244*
X04676Y02241*
X04673Y02276*
X04676Y02274*
G37*
G36*
X06842Y02177D02*
X06839Y02179D01*
X06835Y02183*
X06832Y02185*
X0683Y02186*
X06828Y02188*
X06826Y02188*
X06824Y02189*
X06822Y02189*
X0682Y0219*
Y022*
X06822Y022*
X06824Y022*
X06826Y02201*
X06828Y02202*
X0683Y02203*
X06832Y02204*
X06835Y02206*
X06837Y02208*
X06842Y02212*
Y02177*
G37*
G36*
X03547Y022D02*
X03554Y02194D01*
X03555Y02193*
X03556Y02193*
X03557Y02192*
X03558Y02192*
X03559Y02192*
X03534Y02167*
X03534Y02168*
X03534Y02169*
X03533Y0217*
X03533Y02171*
X03532Y02172*
X03529Y02175*
X03526Y02179*
X03524Y02181*
X03545Y02202*
X03547Y022*
G37*
G36*
X02559Y02216D02*
X02563Y02213D01*
X02568Y0221*
X02572Y02207*
X02577Y02205*
X02582Y02203*
X02587Y02202*
X02593Y02201*
X02599Y022*
X02604Y022*
X02546Y02142*
X02546Y02148*
X02545Y02153*
X02544Y02159*
X02543Y02164*
X02541Y02169*
X02539Y02174*
X02537Y02179*
X02534Y02183*
X0253Y02187*
X02527Y02191*
X02555Y0222*
X02559Y02216*
G37*
G36*
X04571Y02085D02*
X04572Y02083D01*
X04572Y02082*
X04572Y02081*
X04572Y0208*
X04573Y02079*
X04573Y02079*
X04574Y02079*
X04574Y02078*
X04559*
X04559Y02079*
X0456Y02079*
X0456Y02079*
X04561Y0208*
X04561Y02081*
X04561Y02082*
X04561Y02083*
X04561Y02084*
X04561Y02085*
X04561Y02086*
X04571*
X04571Y02085*
G37*
G36*
X04395Y02099D02*
X04397Y02098D01*
X04399Y02097*
X044Y02096*
X04402Y02095*
X04404Y02095*
X04406Y02095*
X04408Y02095*
X0441Y02095*
X04413Y02095*
X04392Y02074*
X04392Y02077*
X04393Y02079*
X04392Y02081*
X04392Y02083*
X04392Y02085*
X04391Y02087*
X0439Y02089*
X04389Y0209*
X04388Y02092*
X04387Y02093*
X04394Y021*
X04395Y02099*
G37*
G36*
X0689Y02107D02*
X06895Y02102D01*
X06898Y021*
X06901Y02099*
X06903Y02097*
X06906Y02096*
X06908Y02095*
X0691Y02095*
X06912Y02095*
Y02085*
X0691Y02085*
X06908Y02084*
X06906Y02083*
X06903Y02082*
X06901Y02081*
X06898Y02079*
X06895Y02077*
X0689Y02072*
X06886Y02069*
Y0211*
X0689Y02107*
G37*
G36*
X04437Y02085D02*
X04442Y02081D01*
X04444Y0208*
X04446Y02078*
X04448Y02077*
X0445Y02076*
X04452Y02076*
X04454Y02075*
X04456Y02075*
Y02065*
X04454Y02065*
X04452Y02065*
X0445Y02064*
X04448Y02063*
X04446Y02062*
X04444Y02061*
X04442Y02059*
X04439Y02057*
X04435Y02053*
Y02088*
X04437Y02085*
G37*
G36*
X04945Y02045D02*
X04942Y02045D01*
X04935Y02044*
X04933Y02044*
X0493Y02043*
X04928Y02042*
X04926Y02041*
X04924Y02041*
X04922Y02039*
X04921Y02038*
X04914Y02045*
X04915Y02047*
X04916Y02048*
X04917Y0205*
X04918Y02052*
X04919Y02055*
X04919Y02057*
X0492Y0206*
X0492Y02063*
X0492Y02069*
X04945Y02045*
G37*
G36*
X04527Y0198D02*
X04526Y01978D01*
X04525Y01977*
X04524Y01975*
X04523Y01973*
X04523Y01971*
X04522Y01969*
X04522Y01966*
X04521Y01964*
X04521Y01962*
X04501*
X04501Y01964*
X04501Y01966*
X04501Y01969*
X045Y01971*
X04499Y01973*
X04499Y01975*
X04498Y01977*
X04497Y01978*
X04495Y0198*
X04494Y01982*
X04529*
X04527Y0198*
G37*
G36*
X04149Y01949D02*
X04148Y01947D01*
X04147Y01945*
X04146Y01943*
X04145Y01941*
X04145Y01939*
X04144Y01937*
X04144Y01935*
X04143Y01933*
X04143Y0193*
X04123*
X04123Y01933*
X04123Y01935*
X04123Y01937*
X04122Y01939*
X04121Y01941*
X04121Y01943*
X0412Y01945*
X04119Y01947*
X04117Y01949*
X04116Y0195*
X04151*
X04149Y01949*
G37*
G36*
X04521Y01893D02*
X04522Y01891D01*
X04522Y01889*
X04523Y01886*
X04523Y01884*
X04524Y01882*
X04525Y01881*
X04526Y01879*
X04527Y01877*
X04529Y01876*
X04494*
X04495Y01877*
X04497Y01879*
X04498Y01881*
X04499Y01882*
X04499Y01884*
X045Y01886*
X04501Y01889*
X04501Y01891*
X04501Y01893*
X04501Y01896*
X04521*
X04521Y01893*
G37*
G36*
X04965Y0189D02*
X04959Y01876D01*
X04958Y01874*
X04958Y01872*
X04957Y0187*
X04957Y01869*
X04947Y01865*
X04947Y01867*
X04947Y01869*
X04946Y01871*
X04945Y01873*
X04944Y01875*
X04942Y01877*
X0494Y01878*
X04938Y0188*
X04936Y01881*
X04933Y01883*
X04967Y01894*
X04965Y0189*
G37*
G36*
X02656Y01898D02*
X02657Y01898D01*
X02658Y01898*
X02659Y01897*
X02661Y01897*
X02665Y01897*
X02669Y01896*
X02672Y01896*
Y01866*
X02669Y01866*
X02661Y01866*
X02659Y01865*
X02658Y01865*
X02657Y01865*
X02656Y01864*
X02655Y01864*
Y01899*
X02656Y01898*
G37*
G36*
X04213Y01884D02*
X04213Y01882D01*
X04214Y0188*
X04214Y01878*
X04215Y01877*
X04216Y01875*
X04217Y01873*
X04218Y01871*
X0422Y01869*
X04222Y01867*
X04206Y01855*
X04204Y01857*
X04202Y01858*
X042Y01859*
X04198Y0186*
X04196Y01862*
X04194Y01862*
X04192Y01863*
X0419Y01864*
X04188Y01864*
X04186Y01864*
X04213Y01886*
X04213Y01884*
G37*
G36*
X02004Y0185D02*
X02001Y01849D01*
X01995Y01849*
X01992Y01849*
X01989Y01848*
X01987Y01847*
X01985Y01846*
X01983Y01845*
X01982Y01844*
X0198Y01843*
X01973Y0185*
X01974Y01852*
X01975Y01853*
X01976Y01855*
X01977Y01857*
X01978Y01859*
X01979Y01862*
X01979Y01865*
X01979Y01868*
X0198Y01874*
X02004Y0185*
G37*
G36*
X03554Y01708D02*
X03556Y01707D01*
X03558Y01706*
X0356Y01705*
X03561Y01704*
X03564Y01704*
X03566Y01703*
X03568Y01703*
X0357Y01702*
X03573Y01702*
Y01682*
X0357Y01682*
X03568Y01682*
X03566Y01682*
X03564Y01681*
X03561Y01681*
X0356Y0168*
X03558Y01679*
X03556Y01678*
X03554Y01676*
X03553Y01675*
Y0171*
X03554Y01708*
G37*
G36*
X05914Y01696D02*
X05915Y01694D01*
X05916Y01692*
X05916Y0169*
X05918Y01688*
X05919Y01686*
X0592Y01684*
X05923Y01681*
X05925Y01679*
X05914Y01661*
X05912Y01663*
X0591Y01664*
X05909Y01666*
X05907Y01667*
X05905Y01668*
X05903Y01668*
X05901Y01668*
X05899Y01669*
X05897Y01668*
X05895Y01668*
X05914Y01698*
X05914Y01696*
G37*
G36*
X03027Y01685D02*
X03028Y01684D01*
X0303Y01682*
X03032Y01681*
X03034Y01681*
X03036Y0168*
X03038Y01679*
X0304Y01679*
X03043Y01679*
X03045Y01679*
Y01659*
X03043Y01659*
X0304Y01658*
X03038Y01658*
X03036Y01658*
X03034Y01657*
X03032Y01656*
X0303Y01655*
X03028Y01654*
X03027Y01653*
X03025Y01651*
Y01686*
X03027Y01685*
G37*
G36*
X05819Y01642D02*
X05817Y0164D01*
X05816Y01638*
X05815Y01636*
X05815Y01634*
X05814Y01632*
X05813Y0163*
X05813Y01628*
X05813Y01625*
X05813Y01623*
X05793*
X05793Y01625*
X05792Y01628*
X05792Y0163*
X05791Y01632*
X05791Y01634*
X0579Y01636*
X05789Y01638*
X05788Y0164*
X05787Y01642*
X05785Y01643*
X0582*
X05819Y01642*
G37*
G36*
X03977Y01643D02*
X03978Y01641D01*
X03978Y01639*
X03979Y01637*
X03979Y01635*
X0398Y01633*
X03982Y01631*
X03983Y01629*
X03984Y01627*
X03986Y01625*
X03972Y01611*
X0397Y01613*
X03968Y01615*
X03966Y01616*
X03965Y01617*
X03963Y01618*
X03961Y01619*
X03959Y01619*
X03957Y0162*
X03955Y0162*
X03953Y0162*
X03977Y01645*
X03977Y01643*
G37*
G36*
X038Y01614D02*
X03802Y01613D01*
X03804Y01611*
X03806Y0161*
X03808Y01609*
X0381Y01609*
X03812Y01608*
X03814Y01607*
X03816Y01607*
X03818Y01607*
X03793Y01582*
X03793Y01585*
X03793Y01587*
X03793Y01589*
X03792Y01591*
X03791Y01593*
X0379Y01594*
X03789Y01596*
X03788Y01598*
X03786Y016*
X03785Y01602*
X03799Y01616*
X038Y01614*
G37*
G36*
X04191Y0153D02*
X0419Y01532D01*
X04188Y01533*
X04186Y01534*
X04185Y01535*
X04183Y01536*
X04181Y01536*
X04178Y01537*
X04176Y01537*
X04174Y01538*
X04171Y01538*
Y01558*
X04174Y01558*
X04176Y01558*
X04178Y01558*
X04181Y01559*
X04183Y0156*
X04185Y0156*
X04186Y01561*
X04188Y01562*
X0419Y01564*
X04191Y01565*
Y0153*
G37*
G36*
X03649Y01525D02*
X03646Y01524D01*
X0364Y01524*
X03637Y01524*
X03634Y01523*
X03632Y01522*
X0363Y01521*
X03628Y0152*
X03627Y01519*
X03625Y01518*
X03618Y01525*
X03619Y01527*
X0362Y01528*
X03621Y0153*
X03622Y01532*
X03623Y01534*
X03624Y01537*
X03624Y0154*
X03624Y01543*
X03625Y01549*
X03649Y01525*
G37*
G36*
X05954Y01531D02*
X05955Y01529D01*
X05955Y01526*
X05956Y01524*
X05956Y01522*
X05957Y0152*
X05958Y01518*
X05959Y01517*
X0596Y01515*
X05962Y01513*
X05927*
X05928Y01515*
X0593Y01517*
X05931Y01518*
X05932Y0152*
X05933Y01522*
X05933Y01524*
X05934Y01526*
X05934Y01529*
X05934Y01531*
X05934Y01533*
X05954*
X05954Y01531*
G37*
G36*
X02647Y01505D02*
X0265Y01496D01*
X0265Y01493*
X02652Y01489*
X02653Y01487*
X02655Y01486*
X02656Y01484*
X0265Y01476*
X02649Y01477*
X02647Y01478*
X02645Y01479*
X02643Y0148*
X02641Y0148*
X02638Y0148*
X02636Y0148*
X02633Y0148*
X0263Y0148*
X02627Y01479*
X02646Y01509*
X02647Y01505*
G37*
G36*
X04401Y01476D02*
X044Y01475D01*
X04399Y01473*
X04398Y01471*
X04397Y01469*
X04397Y01467*
X04396Y01465*
X04396Y01463*
X04395Y0146*
X04395Y01458*
X04375*
X04375Y0146*
X04375Y01463*
X04375Y01465*
X04374Y01467*
X04373Y01469*
X04373Y01471*
X04372Y01473*
X04371Y01475*
X04369Y01476*
X04368Y01478*
X04403*
X04401Y01476*
G37*
G36*
X02709Y01438D02*
X02707Y0144D01*
X02702Y01444*
X027Y01446*
X02697Y01447*
X02695Y01448*
X02693Y01449*
X02691Y0145*
X02689Y0145*
X02687Y0145*
Y0146*
X02689Y01461*
X02691Y01461*
X02693Y01462*
X02695Y01462*
X02697Y01464*
X027Y01465*
X02702Y01467*
X02704Y01468*
X02709Y01473*
Y01438*
G37*
G36*
X03968Y01439D02*
X03964Y01439D01*
X03958Y01439*
X03955Y01438*
X03953Y01438*
X03951Y01437*
X03949Y01436*
X03947Y01435*
X03945Y01434*
X03944Y01433*
X03937Y0144*
X03938Y01441*
X03939Y01443*
X0394Y01445*
X03941Y01447*
X03941Y01449*
X03942Y01452*
X03942Y01454*
X03943Y01457*
X03943Y01464*
X03968Y01439*
G37*
G36*
X01357Y01421D02*
X01356Y01419D01*
Y01416*
X01357Y01412*
X01359Y01408*
X01361Y01403*
X01365Y01399*
X01369Y01393*
X0138Y01381*
X01359Y0136*
X01352Y01366*
X01341Y01375*
X01337Y01379*
X01332Y01381*
X01328Y01383*
X01324Y01384*
X01321*
X01319Y01383*
X01316Y01381*
X01359Y01424*
X01357Y01421*
G37*
G36*
X04957Y01321D02*
X04958Y01319D01*
X04958Y01317*
X04959Y01314*
X0496Y01312*
X04962Y0131*
X04963Y01308*
X04965Y01306*
X0497Y01301*
X04935*
X04937Y01303*
X04941Y01308*
X04943Y0131*
X04944Y01312*
X04945Y01314*
X04946Y01317*
X04947Y01319*
X04947Y01321*
X04947Y01322*
X04957*
X04957Y01321*
G37*
G36*
X0157Y01302D02*
X0157Y013D01*
X01571Y01298*
X01572Y01296*
X01573Y01294*
X01574Y01292*
X01576Y01289*
X01578Y01287*
X01582Y01282*
X01547*
X01549Y01285*
X01553Y01289*
X01555Y01292*
X01556Y01294*
X01558Y01296*
X01558Y01298*
X01559Y013*
X01559Y01302*
X0156Y01304*
X0157*
X0157Y01302*
G37*
G36*
X04303Y01265D02*
X04301Y01263D01*
X04298Y01259*
X04297Y01258*
X04295Y01256*
X04294Y01254*
X04294Y01252*
X04293Y0125*
X04292Y01248*
X04292Y01246*
X04273Y01276*
X04275Y01275*
X04277Y01275*
X04279Y01275*
X04281Y01276*
X04283Y01276*
X04285Y01277*
X04287Y01278*
X04288Y01279*
X0429Y01281*
X04292Y01283*
X04303Y01265*
G37*
G36*
X04635Y01227D02*
X04634Y01225D01*
X04632Y01224*
X04632Y01222*
X04631Y0122*
X0463Y01218*
X04629Y01216*
X04629Y01213*
X04629Y01211*
X04629Y01208*
X04609*
X04609Y01211*
X04609Y01213*
X04608Y01216*
X04608Y01218*
X04607Y0122*
X04606Y01222*
X04605Y01224*
X04604Y01225*
X04603Y01227*
X04601Y01228*
X04636*
X04635Y01227*
G37*
G36*
X0284Y0114D02*
X02844Y01136D01*
X02847Y01134*
X02849Y01133*
X02851Y01132*
X02853Y01131*
X02855Y0113*
X02857Y0113*
X02859Y0113*
Y0112*
X02857Y01119*
X02855Y01119*
X02853Y01118*
X02851Y01118*
X02849Y01116*
X02847Y01115*
X02844Y01113*
X02842Y01112*
X02837Y01107*
Y01142*
X0284Y0114*
G37*
G36*
X01887Y01066D02*
X01885Y01069D01*
X01882Y01071*
X01879Y01073*
X01876Y01074*
X01873Y01076*
X0187Y01077*
X01866Y01078*
X01863Y01078*
X01859Y01079*
X01855Y01079*
Y01109*
X01859Y01109*
X01863Y01109*
X01866Y0111*
X0187Y01111*
X01873Y01112*
X01876Y01113*
X01879Y01115*
X01882Y01117*
X01885Y01119*
X01887Y01121*
Y01066*
G37*
G36*
X04204Y01023D02*
X04203Y01025D01*
X04201Y01026*
X04199Y01027*
X04197Y01028*
X04195Y01029*
X04193Y0103*
X04191Y0103*
X04189Y01031*
X04187Y01031*
X04184Y01031*
Y01051*
X04187Y01051*
X04189Y01051*
X04191Y01052*
X04193Y01052*
X04195Y01053*
X04197Y01054*
X04199Y01055*
X04201Y01056*
X04203Y01057*
X04204Y01058*
Y01023*
G37*
G36*
X02973Y01007D02*
X02977Y01003D01*
X02979Y01001*
X02982Y01*
X02984Y00999*
X02986Y00998*
X02988Y00997*
X0299Y00997*
X02992Y00997*
Y00987*
X0299Y00987*
X02988Y00986*
X02986Y00986*
X02984Y00985*
X02982Y00984*
X02979Y00982*
X02977Y00981*
X02975Y00979*
X0297Y00974*
Y01009*
X02973Y01007*
G37*
G36*
X04128Y00977D02*
X04129Y00977D01*
X0413Y00976*
X04132Y00976*
X04133Y00976*
X04137Y00975*
X04142Y00975*
X04145Y00975*
Y00945*
X04142Y00945*
X04133Y00945*
X04132Y00944*
X0413Y00944*
X04129Y00944*
X04128Y00943*
X04128Y00943*
Y00978*
X04128Y00977*
G37*
G36*
X04342Y00942D02*
X04342Y00943D01*
X04341Y00943*
X0434Y00944*
X04338Y00944*
X04337Y00944*
X04335Y00945*
X0433Y00945*
X04325Y00945*
X04326Y00975*
X04329Y00975*
X0434Y00976*
X04341Y00976*
X04342Y00977*
X04343Y00977*
X04344Y00977*
X04342Y00942*
G37*
G36*
X02985Y00922D02*
X02988Y00913D01*
X02989Y00911*
X02991Y00906*
X02992Y00904*
X02993Y00903*
X02994Y00902*
X02989Y00893*
X02987Y00894*
X02986Y00895*
X02984Y00896*
X02982Y00897*
X02979Y00897*
X02977Y00898*
X02975Y00898*
X02972Y00897*
X02969Y00897*
X02966Y00896*
X02985Y00926*
X02985Y00922*
G37*
G36*
X02851Y00885D02*
X02856Y00881D01*
X02858Y0088*
X0286Y00878*
X02863Y00877*
X02865Y00876*
X02867Y00876*
X02869Y00875*
X0287Y00875*
Y00865*
X02869Y00865*
X02867Y00865*
X02865Y00864*
X02863Y00863*
X0286Y00862*
X02858Y00861*
X02856Y00859*
X02854Y00857*
X02849Y00853*
Y00888*
X02851Y00885*
G37*
G36*
X05398Y00783D02*
X054Y00782D01*
X05401Y0078*
X05403Y00779*
X05405Y00778*
X05407Y00778*
X05409Y00777*
X05411Y00777*
X05413Y00777*
X05416Y00777*
X05392Y00751*
X05392Y00753*
X05391Y00755*
X05391Y00757*
X0539Y00759*
X05389Y00761*
X05388Y00763*
X05387Y00765*
X05386Y00767*
X05384Y00768*
X05382Y0077*
X05396Y00785*
X05398Y00783*
G37*
G36*
X02957Y00754D02*
X02958Y00752D01*
X02958Y0075*
X02959Y00748*
X0296Y00745*
X02962Y00743*
X02963Y00741*
X02965Y00739*
X0297Y00734*
X02935*
X02937Y00736*
X02941Y00741*
X02943Y00743*
X02944Y00745*
X02945Y00748*
X02946Y0075*
X02947Y00752*
X02947Y00754*
X02947Y00756*
X02957*
X02957Y00754*
G37*
G36*
X04409Y00667D02*
X04405Y00667D01*
X04399Y00667*
X04396Y00666*
X04394Y00666*
X04392Y00665*
X0439Y00664*
X04388Y00663*
X04386Y00662*
X04385Y00661*
X04377Y00668*
X04379Y00669*
X0438Y00671*
X04381Y00673*
X04382Y00675*
X04382Y00677*
X04383Y0068*
X04383Y00683*
X04384Y00686*
X04384Y00692*
X04409Y00667*
G37*
G36*
X03741Y00658D02*
X03739Y00656D01*
X03738Y00654*
X03736Y00651*
X03735Y00648*
X03734Y00646*
X03733Y00643*
X03732Y0064*
X03732Y00637*
X03731Y00633*
X03731Y0063*
X03699Y00662*
X03703Y00662*
X03706Y00662*
X03709Y00663*
X03712Y00663*
X03715Y00664*
X03718Y00666*
X0372Y00667*
X03723Y00668*
X03725Y0067*
X03727Y00672*
X03741Y00658*
G37*
G36*
X05156Y00602D02*
X05156Y00595D01*
X05157Y00592*
X05157Y00589*
X05158Y00587*
X05159Y00584*
X0516Y00582*
X05161Y0058*
X05163Y00578*
X05128*
X0513Y0058*
X05131Y00582*
X05132Y00584*
X05133Y00587*
X05134Y00589*
X05134Y00592*
X05135Y00595*
X05135Y00598*
X05136Y00605*
X05156*
X05156Y00602*
G37*
G36*
X04629Y00279D02*
X04629Y00277D01*
X04629Y00274*
X0463Y00272*
X04631Y0027*
X04632Y00268*
X04632Y00266*
X04634Y00265*
X04635Y00263*
X04636Y00261*
X04601*
X04603Y00263*
X04604Y00265*
X04605Y00266*
X04606Y00268*
X04607Y0027*
X04608Y00272*
X04608Y00274*
X04609Y00277*
X04609Y00279*
X04609Y00282*
X04629*
X04629Y00279*
G37*
G36*
X05283Y00244D02*
X05282Y00245D01*
X0528Y00247*
X05278Y00248*
X05276Y00249*
X05274Y0025*
X05272Y0025*
X0527Y00251*
X05268Y00251*
X05265Y00251*
X05263Y00252*
Y00272*
X05265Y00272*
X05268Y00272*
X0527Y00272*
X05272Y00273*
X05274Y00273*
X05276Y00274*
X05278Y00275*
X0528Y00276*
X05282Y00278*
X05283Y00279*
Y00244*
G37*
G36*
X05127Y00278D02*
X05129Y00276D01*
X0513Y00275*
X05132Y00274*
X05134Y00273*
X05136Y00273*
X05138Y00272*
X05141Y00272*
X05143Y00272*
X05145Y00272*
Y00252*
X05143Y00251*
X05141Y00251*
X05138Y00251*
X05136Y0025*
X05134Y0025*
X05132Y00249*
X0513Y00248*
X05129Y00247*
X05127Y00245*
X05125Y00244*
Y00279*
X05127Y00278*
G37*
G54D31*
X0056Y01163D03*
G54D39*
X03708Y01692D02*
X03818Y01582D01*
X04559Y02275D02*
X04574Y0229D01*
X04511Y01858D02*
Y02D01*
X0437Y02401D02*
X04433D01*
X0437D02*
X0437Y02401D01*
X04348Y02423D02*
X0437Y02401D01*
X03748Y02771D02*
X03776D01*
X04124Y02423*
X04348*
X04251Y02464D02*
X0437D01*
X04149Y02456D02*
X04157Y02464D01*
X04251*
X03763Y03677D02*
X03771D01*
X04692Y02755*
X05108Y00262D02*
X05301D01*
X05803Y01559D02*
Y01661D01*
X05944Y01496D02*
Y01645D01*
X05251Y03346D02*
Y03661D01*
X05086Y03181D02*
X05251Y03346D01*
X05007Y03181D02*
X05086D01*
X04944Y03118D02*
X05007Y03181D01*
X04944Y02976D02*
Y03118D01*
X04267Y01251D02*
X04275D01*
X0411Y01041D02*
X04222D01*
X03699Y00629D02*
X0411Y01041D01*
X0405Y01548D02*
X04209D01*
X03952Y01645D02*
X0405Y01548D01*
X04779Y03779D02*
Y03889D01*
X05146Y00548D02*
Y00806D01*
X04186Y01886D02*
X05417Y00752D01*
X04619Y00244D02*
Y01246D01*
X02738Y02513D02*
X02762Y02537D01*
X02875*
X02889Y02551*
X04661Y03787D02*
Y0385D01*
X04606Y03905D02*
X04614D01*
X04606D02*
X04661Y0385D01*
X03787Y02425D02*
Y02543D01*
X04433Y02401D02*
X04448Y02417D01*
X03007Y01669D02*
X0322D01*
X04818Y02535D02*
X04818Y02535D01*
X04826*
X04818Y02488D02*
Y02535D01*
X04125Y0248D02*
X04149Y02456D01*
X0437Y02464D02*
X0444Y02535D01*
X04732*
X04779Y02521D02*
Y03779D01*
X04574Y02339D02*
X04586Y02351D01*
X04609*
X04779Y02521*
X04574Y0229D02*
Y02339D01*
X03629Y02078D02*
X04322D01*
X04133Y01818D02*
Y01968D01*
Y01818D02*
X05146Y00806D01*
X04944Y02976D02*
X04984Y02937D01*
Y02921D02*
Y02937D01*
X05338Y03748D02*
Y04015D01*
X04385Y01362D02*
Y01496D01*
X04275Y01251D02*
X04385Y01362D01*
X05889Y01692D02*
X05897D01*
X05944Y01645*
X04322Y02078D02*
X0433Y02086D01*
Y02086D02*
Y02086D01*
X04314Y0396D02*
X05172D01*
X05268Y04055*
X05251Y03661D02*
X05338Y03748D01*
X03535Y01692D02*
X03708D01*
X05592Y04426D02*
X05766D01*
X0594Y046*
X02606Y02283D02*
Y02306D01*
X02738Y02438*
Y02513*
X0322Y01669D02*
X03629Y02078D01*
X04818Y02488D02*
X0491Y02397D01*
Y02356D02*
Y02397D01*
G54D40*
X04565Y0211D02*
X04594D01*
X04534Y02141D02*
X04565Y0211D01*
X04109Y02246D02*
X0414D01*
X04046Y02308D02*
X04109Y02246D01*
X04046Y02308D02*
Y02339D01*
X04167Y0227D02*
X04284Y02152D01*
X04944Y01905D02*
X04952Y01897D01*
Y01283D02*
Y01897D01*
X01565Y01435D02*
X02005Y01875D01*
X01565Y01265D02*
Y01435D01*
X0498Y02229D02*
X06789D01*
X04575Y0223D02*
X04715Y0237D01*
X04514Y0223D02*
X04575D01*
X04504Y02239D02*
X04514Y0223D01*
X04715Y0237D02*
X04765D01*
X04827Y02307*
X03225Y01125D02*
X0365Y0155D01*
X05187Y0408D02*
X05196Y0407D01*
Y04078*
X04135Y0408D02*
X05187D01*
X0282Y01125D02*
X03225D01*
X02734Y03168D02*
X02834D01*
X02834Y02763D02*
Y02771D01*
X02874Y02811*
X03251*
X03661Y02818D02*
X04157D01*
X02634Y03168D02*
X02734D01*
X04393Y02582D02*
X04653D01*
X04944Y0285D02*
X05086D01*
X02952Y00716D02*
Y00842D01*
X02924Y0087D02*
X02952Y00842D01*
X02831Y0087D02*
X02924D01*
X02708Y02968D02*
Y02968D01*
Y02968D02*
X02716Y0296D01*
X03496Y00992D02*
X03968Y01464D01*
X02952Y00992D02*
X03496D01*
X04259Y00543D02*
X04409Y00692D01*
X03346Y00543D02*
X04259D01*
X02831Y0237D02*
Y02437D01*
X02834Y0244*
X02779Y02496D02*
X02834Y0244D01*
X00614Y04574D02*
X00732Y04692D01*
X04859Y01984D02*
X04945Y0207D01*
X0296Y00921D02*
X02968D01*
X03346Y00543*
X04566Y02055D02*
Y02086D01*
X0453Y0204D02*
Y02063D01*
Y0204D02*
X04586Y01984D01*
X04859*
X03799Y02587D02*
X04046Y02339D01*
X04594Y0211D02*
X04594Y0211D01*
X04523Y0207D02*
X0453Y02063D01*
X04657Y02257D02*
X04659Y02259D01*
X04818*
Y02259*
X04826Y02267*
X02677Y01455D02*
X02727D01*
X02629Y01503D02*
X02677Y01455D01*
X02622Y01503D02*
X02629D01*
X04322Y02174D02*
D01*
X04326Y02178*
X04417Y0207D02*
X04523D01*
X04326Y02178D02*
X04335D01*
X04496Y02338D02*
X04526D01*
X04157Y02818D02*
X04346Y02629D01*
X04362*
Y02614D02*
X04393Y02582D01*
X04362Y02614D02*
Y02629D01*
X02823Y02587D02*
X03799D01*
X02823D02*
X02834Y02598D01*
X02566Y02811D02*
X02692D01*
X02708Y02826*
Y0296*
X04298Y02113D02*
X04315Y0213D01*
X0439Y02097D02*
X04417Y0207D01*
X04423Y02113D02*
X04435Y02125D01*
X0437Y02097D02*
X0439D01*
X04377Y02113D02*
X04423D01*
X04384Y02129D02*
X04416D01*
X04308Y02188D02*
X04322Y02174D01*
X04337Y0213D02*
X0437Y02097D01*
X04315Y0213D02*
X04337D01*
X04337Y02152D02*
X04377Y02113D01*
X04335Y02178D02*
X04384Y02129D01*
X03161Y02113D02*
X04298D01*
X04236Y02149D02*
Y0215D01*
X04284Y02152D02*
X04337D01*
X04299Y02188D02*
X04308D01*
X04354Y02259D02*
X04404D01*
X04416Y02129D02*
X04429Y02141D01*
X04534*
X04527Y02125D02*
X04566Y02086D01*
X04435Y02125D02*
X04527D01*
X00732Y04692D02*
X02687D01*
X04614Y02661D02*
Y0267D01*
X02687Y04692D02*
X02805Y04575D01*
X02985Y043D02*
X04614Y0267D01*
X02805Y0435D02*
Y04575D01*
Y0435D02*
X02855Y043D01*
X02985*
X02417Y04236D02*
X02515Y04138D01*
Y03894D02*
Y04138D01*
X06865Y0209D02*
X06915D01*
X04594Y0211D02*
X0489D01*
X06915Y0209D02*
Y02229D01*
X04404Y02259D02*
X04424Y0224D01*
X04504*
X04526Y02338D02*
X04618Y0243D01*
X0462*
X04661Y02471*
Y0248*
X04875Y0292D02*
X04921Y02874D01*
X04875Y0292D02*
Y03536D01*
X0522Y03881*
X04826Y02677D02*
X04875Y02725D01*
Y0292*
X04944Y0285*
X06913Y02235D02*
X06915Y02229D01*
X05096Y02195D02*
X0686D01*
X06789Y02229D02*
X06795Y02235D01*
X06913*
X0489Y0211D02*
X0499Y0221D01*
X0508D02*
X05096Y02195D01*
X0499Y0221D02*
X0508D01*
X02834Y0244D02*
X03161Y02113D01*
X04139Y0227D02*
X04167D01*
X02515Y03894D02*
X04139Y0227D01*
X0414Y02246D02*
X04236Y0215D01*
X04935Y02275D02*
X0498Y02229D01*
X04827Y02307D02*
X04935D01*
Y02275D02*
Y02307D01*
X05081Y02845D02*
X05086Y0285D01*
X05079Y02845D02*
X05081D01*
G54D41*
X05275Y0227D02*
X0532Y02315D01*
X05027Y0227D02*
X05275D01*
X04705Y02035D02*
X04818Y02031D01*
X01323Y01417D02*
X01646Y01094D01*
X0322Y02503D02*
X03228Y02511D01*
X0322Y02377D02*
Y02503D01*
X02724Y03393D02*
X0274Y03377D01*
X02874*
X0436Y0096D02*
X04361Y00959D01*
X0411Y0096D02*
X0436D01*
X03514Y02212D02*
X03559Y02167D01*
X03496Y02212D02*
X03514D01*
X02637Y01881D02*
X02688D01*
X03066Y01503*
X03102*
X01646Y01094D02*
X01915D01*
X01655Y01275D02*
X01732D01*
X01875Y01417*
X03485Y02215D02*
Y02223D01*
X03496Y02212*
G54D43*
X01451Y01417D02*
Y01483D01*
X02393Y02275D02*
X02471D01*
X02605Y02141*
X007Y0171D02*
X01225D01*
X01451Y01483*
G54D45*
X06865Y0312D03*
Y0322D03*
Y0332D03*
Y0342D03*
Y0352D03*
Y0362D03*
Y0372D03*
Y0382D03*
Y0392D03*
Y0402D03*
X06965D03*
Y0392D03*
Y0382D03*
Y0372D03*
Y0362D03*
Y0352D03*
Y0342D03*
Y0332D03*
Y0322D03*
Y0312D03*
X07065D03*
Y0322D03*
Y0332D03*
Y0342D03*
Y0352D03*
Y0362D03*
Y0372D03*
Y0382D03*
Y0392D03*
Y0402D03*
X07165D03*
Y0392D03*
Y0382D03*
Y0372D03*
Y0362D03*
Y0352D03*
Y0342D03*
Y0332D03*
Y0322D03*
Y0312D03*
X07265D03*
Y0322D03*
Y0332D03*
Y0342D03*
Y0352D03*
Y0362D03*
Y0372D03*
Y0382D03*
Y0392D03*
Y0402D03*
X05027Y0207D03*
Y0217D03*
Y0227D03*
Y0237D03*
Y0247D03*
X04976Y04512D03*
X06865Y0209D03*
X06965Y0199D03*
Y0209D03*
X02634Y03168D03*
Y03268D03*
X02734Y03168D03*
Y03268D03*
X02834Y03168D03*
X0532Y02315D03*
X0684Y042D03*
X0674D03*
X0664D03*
X0654D03*
X0644D03*
X0634D03*
X0624D03*
X0614D03*
X0604D03*
X0594D03*
Y043D03*
X0604D03*
X0614D03*
X0624D03*
X0634D03*
X0644D03*
X0654D03*
X0664D03*
X0674D03*
X0684D03*
Y044D03*
X0674D03*
X0664D03*
X0654D03*
X0644D03*
X0634D03*
X0624D03*
X0614D03*
X0604D03*
X0594D03*
Y045D03*
X0604D03*
X0614D03*
X0624D03*
X0634D03*
X0644D03*
X0654D03*
X0664D03*
X0674D03*
X0684D03*
Y046D03*
X0674D03*
X0664D03*
X0654D03*
X0644D03*
X0634D03*
X0624D03*
X0614D03*
X0604D03*
X0594D03*
X04663Y00157D03*
G54D46*
X04099Y00629D03*
X01447Y00129D03*
X05072Y00159D03*
X02664Y0159D03*
G54D47*
X03999Y00629D03*
X03899D03*
X03799D03*
X03699D03*
X03599D03*
X01347Y00129D03*
X05576Y00539D03*
Y00439D03*
X05272Y00159D03*
X05172D03*
X05592Y04626D03*
Y04526D03*
X02241Y02782D03*
Y02682D03*
X02246Y03177D03*
Y03077D03*
X02986Y02537D03*
Y02437D03*
X02764Y0159D03*
X02864D03*
X02165Y0224D03*
G54D48*
X05027Y0257D03*
X04976Y04412D03*
X02406Y02752D03*
G54D49*
X0129Y02594D03*
Y04094D03*
X0193Y02594D03*
Y04094D03*
X06769Y00431D03*
G54D50*
X04229Y0396D03*
X04129D03*
X04029D03*
G54D51*
X03929Y0396D03*
G54D52*
X05196Y04554D03*
G54D53*
X05196Y04504D03*
Y04454D03*
G54D54*
X0057Y00674D03*
Y00574D03*
X0067Y00474D03*
X0077D03*
X0087D03*
X0077Y00774D03*
X0087D03*
X0067D03*
G54D55*
X0056Y04034D03*
G54D56*
X0056Y03693D03*
Y01504D03*
X02657Y0394D03*
X03047D03*
X02656Y04074D03*
X03047D03*
X02606Y02007D03*
X02996D03*
X02605Y02141D03*
X02996D03*
Y04574D03*
X02605D03*
X02996Y0444D03*
X02606D03*
X017Y04566D03*
X0131D03*
X017Y04433D03*
X01311D03*
G54D57*
X01758Y00385D03*
X01482D03*
X01915Y01094D03*
X01325D03*
X03727Y00263D03*
X04027D03*
X03707Y04468D03*
X04007D03*
G54D58*
X00712Y0457D03*
X01012D03*
X03034Y03447D03*
Y02947D03*
X01008Y04401D03*
X00708D03*
G54D59*
X05193Y03696D03*
X05093D03*
G54D60*
X06865Y0199D03*
X02834Y03268D03*
X02418Y0327D03*
X04763Y00157D03*
G54D61*
X02677Y0048D03*
X03011D03*
G54D62*
X01451Y01417D03*
X01747D03*
X01323D03*
X01875D03*
X01323Y02315D03*
X01875D03*
G54D63*
X05729Y00581D03*
Y00481D03*
Y00381D03*
Y00281D03*
G54D64*
X05576Y00339D03*
X05592Y04426D03*
X02241Y02882D03*
X02246Y03277D03*
X02986Y02637D03*
X02165Y0234D03*
G54D65*
X07217Y002D03*
Y04542D03*
X002D03*
Y002D03*
G54D66*
X05196Y00548D03*
G54D67*
X05146Y00548D03*
X05096D03*
G54D68*
X05668Y03952D03*
Y03252D03*
G54D69*
X04705Y02035D03*
X04818Y02031D03*
X02005Y01875D03*
X01565Y01265D03*
X04135Y0408D03*
X0282Y01125D03*
X0365Y0155D03*
X03818Y01582D03*
X04559Y02275D03*
X02834Y02763D03*
X03251Y02811D03*
X03661Y02818D03*
X05196Y04078D03*
X0522Y03881D03*
X03228Y02511D03*
X0322Y02377D03*
X03748Y02771D03*
X04251Y02464D03*
X04653Y02582D03*
X04826Y02677D03*
X02874Y03377D03*
X02724Y03393D03*
X03763Y03677D03*
X04692Y02755D03*
X05108Y00262D03*
X05301D03*
X05803Y01661D03*
Y01559D03*
X05944Y01496D03*
X04314Y0396D03*
X02831Y0087D03*
X02952Y00716D03*
X04267Y01251D03*
X04222Y01041D03*
X04209Y01548D03*
X03952Y01645D03*
X03535Y01692D03*
X04779Y03779D03*
Y03889D03*
X02716Y0296D03*
X04945Y0207D03*
X03968Y01464D03*
X02952Y00992D03*
X05417Y00752D03*
X02779Y02496D03*
X02417Y04236D03*
X04619Y00244D03*
Y01246D03*
X04511Y01858D03*
X02889Y02551D03*
X03102Y01503D03*
X02637Y01881D03*
X04661Y03787D03*
X04614Y03905D03*
X04125Y0248D03*
X03787Y02543D03*
Y02425D03*
X04448Y02417D03*
X0437Y02401D03*
X03007Y01669D03*
X04944Y01905D03*
X04952Y01283D03*
X04409Y00692D03*
X04826Y02535D03*
X04732Y02535D03*
X0437Y02464D03*
X02393Y02275D03*
X02831Y0237D03*
X04614Y02661D03*
X04661Y0248D03*
X00614Y04574D03*
X04361Y00959D03*
X0411Y0096D03*
X03559Y02167D03*
X0296Y00921D03*
X04566Y02055D03*
X0474Y02322D03*
X04657Y02257D03*
X04826Y02267D03*
X02727Y01455D03*
X02622Y01503D03*
X04417Y0207D03*
X04133Y01968D03*
X04188Y01889D03*
X04511Y02D03*
X04496Y02338D03*
X04362Y02629D03*
X04984Y02921D03*
X02834Y02598D03*
X02566Y02811D03*
X05338Y04015D03*
X05268Y04055D03*
X04385Y01496D03*
X05889Y01692D03*
X0433Y02086D03*
X04236Y02149D03*
X04299Y02188D03*
X04354Y02259D03*
X0686Y02195D03*
X01655Y01275D03*
X02606Y02283D03*
X03485Y02215D03*
X0491Y02356D03*
X05079Y02845D03*
X007Y0171D03*
M02*